<?xml version="1.0" encoding="UTF-8" standalone="no"?>
<!-- Created with Inkscape (http://www.inkscape.org/) -->
<svg
   xmlns:svg="http://www.w3.org/2000/svg"
   xmlns="http://www.w3.org/2000/svg"
   version="1.0"
   width="283.95435"
   height="250.90582"
   viewBox="0 0 29.363 25.942"
   id="Layer_1"
   xml:space="preserve"><defs
   id="defs28" />
<polygon
   points="4.428,0.551 0.658,13.624 3.789,25.881 25.619,25.77 29.299,13.733 25.838,0.484 4.428,0.551 "
   transform="translate(-1.499998e-3,-2.267289e-3)"
   style="fill:#a09da2"
   id="polygon3" />
<polygon
   points="4.428,0.551 0.658,13.624 3.789,25.881 25.619,25.77 29.299,13.733 25.838,0.484 4.428,0.551 "
   transform="translate(-1.499998e-3,-2.267289e-3)"
   style="fill:none;stroke:#a7a3a8;stroke-width:0.123;stroke-miterlimit:3.86400008"
   id="polygon5" />
<polygon
   points="3.833,0.128 0.063,13.2 2.967,25.346 24.943,25.346 28.705,13.31 25.244,0.062 3.833,0.128 "
   transform="translate(-1.499998e-3,-2.267289e-3)"
   style="fill:#bdc5c1"
   id="polygon7" />
<polygon
   points="3.833,0.128 0.063,13.2 2.967,25.346 24.943,25.346 28.705,13.31 25.244,0.062 3.833,0.128 "
   transform="translate(-1.499998e-3,-2.267289e-3)"
   style="fill:none;stroke:#686469;stroke-width:0.123;stroke-miterlimit:3.86400008"
   id="polygon9" />
<circle
   cx="2.6429999"
   cy="13.2"
   r="1.676"
   transform="translate(-1.499998e-3,-2.267289e-3)"
   style="fill:#95979a"
   id="circle11" />
<circle
   cx="2.6429999"
   cy="13.2"
   r="1.676"
   transform="translate(-1.499998e-3,-2.267289e-3)"
   style="fill:none;stroke:#686469;stroke-width:0.123;stroke-miterlimit:3.86400008"
   id="circle13" />
<circle
   cx="26.177"
   cy="13.07"
   r="1.675"
   transform="translate(-1.499998e-3,-2.267289e-3)"
   style="fill:#95979a"
   id="circle15" />
<circle
   cx="26.177"
   cy="13.07"
   r="1.675"
   transform="translate(-1.499998e-3,-2.267289e-3)"
   style="fill:none;stroke:#686469;stroke-width:0.123;stroke-miterlimit:3.86400008"
   id="circle17" />
<polygon
   points="4.838,18.273 14.421,9.541 23.813,18.273 23.75,20.712 14.421,11.848 4.916,20.712 4.838,18.273 "
   transform="translate(-1.499998e-3,-2.267289e-3)"
   style="fill:#ffd200"
   id="polygon19" />
<polygon
   points="4.838,18.273 14.421,9.541 23.813,18.273 23.75,20.712 14.421,11.848 4.916,20.712 4.838,18.273 "
   transform="translate(-1.499998e-3,-2.267289e-3)"
   style="fill:none;stroke:#fdb714;stroke-width:0.16599999;stroke-miterlimit:3.86400008"
   id="polygon21" />
<polygon
   points="4.838,14.286 14.421,5.552 23.813,14.286 23.75,16.724 14.421,7.861 4.916,16.724 4.838,14.286 "
   transform="translate(-1.499998e-3,-2.267289e-3)"
   style="fill:#ffd200"
   id="polygon23" />
<polygon
   points="4.838,14.286 14.421,5.552 23.813,14.286 23.75,16.724 14.421,7.861 4.916,16.724 4.838,14.286 "
   transform="translate(-1.499998e-3,-2.267289e-3)"
   style="fill:none;stroke:#fdb714;stroke-width:0.16599999;stroke-miterlimit:3.86400008"
   id="polygon25" />
</svg>