<?xml version="1.0" encoding="UTF-8" standalone="no"?>
<!-- Created with Inkscape (http://www.inkscape.org/) -->
<svg
   xmlns:svg="http://www.w3.org/2000/svg"
   xmlns="http://www.w3.org/2000/svg"
   version="1.0"
   width="450.27606"
   height="219.56213"
   viewBox="0 0 25.35 12.332"
   id="Layer_1"
   xml:space="preserve"><defs
   id="defs24" />
<path
   d="M 25.241499,0.019958216 L 5.0015,0.86995822 L 0.034499999,12.275958 L 23.866499,10.691958 C 23.866499,10.691958 22.057499,8.2859582 24.421499,5.4109582 C 24.420499,5.4109582 22.737499,2.4729582 25.241499,0.019958216 z "
   style="fill:#33725b;fill-rule:evenodd"
   id="path3" />
<path
   d="M 25.241499,0.019958216 L 5.0015,0.86995822 L 0.034499999,12.275958 L 23.866499,10.691958 C 23.866499,10.691958 22.057499,8.2859582 24.421499,5.4109582 C 24.420499,5.4109582 22.737499,2.4729582 25.241499,0.019958216 z "
   style="fill:none;stroke:#33725b;stroke-width:0.069;stroke-miterlimit:3.86400008"
   id="path5" />
<path
   d="M 23.907499,0.79595822 L 5.6595,1.5979582 L 1.3685,11.501958 L 22.901499,10.063958 C 22.901499,10.063958 21.506499,7.7599582 23.598499,5.2139582 C 23.598499,5.2129582 22.161499,2.4619582 23.907499,0.79595822 z "
   style="fill:white;fill-rule:evenodd"
   id="path7" />
<path
   d="M 23.907499,0.79595822 L 5.6595,1.5979582 L 1.3685,11.501958 L 22.901499,10.063958 C 22.901499,10.063958 21.506499,7.7599582 23.598499,5.2139582 C 23.598499,5.2129582 22.161499,2.4619582 23.907499,0.79595822 z "
   style="fill:none;stroke:white;stroke-width:0.068;stroke-miterlimit:3.86400008"
   id="path9" />
<path
   d="M 22.921499,1.4859582 L 6.1965,2.1659582 L 2.4705,10.765958 L 21.934499,9.4579582 C 21.934499,9.4579582 20.981499,7.4359582 22.797499,5.2249582 C 22.797499,5.2249582 21.563499,3.0469582 22.921499,1.4859582 z "
   style="fill:#33725b;fill-rule:evenodd"
   id="path11" />
<path
   d="M 22.921499,1.4859582 L 6.1965,2.1659582 L 2.4705,10.765958 L 21.934499,9.4579582 C 21.934499,9.4579582 20.981499,7.4359582 22.797499,5.2249582 C 22.797499,5.2249582 21.563499,3.0469582 22.921499,1.4859582 z "
   style="fill:none;stroke:#33725b;stroke-width:0.066;stroke-miterlimit:3.86400008"
   id="path13" />
<polygon
   points="12.6,9.385 10.694,6.137 12.104,2.788 13.382,2.698 11.883,6.005 13.839,9.311 12.6,9.385 "
   transform="translate(-1.95005e-2,-1.804178e-2)"
   style="fill:#ffd200"
   id="polygon15" />
<polygon
   points="12.6,9.385 10.694,6.137 12.104,2.788 13.382,2.698 11.883,6.005 13.839,9.311 12.6,9.385 "
   transform="translate(-1.95005e-2,-1.804178e-2)"
   style="fill:none;stroke:#f79320;stroke-width:0.068;stroke-miterlimit:3.86400008"
   id="polygon17" />
<polygon
   points="14.663,9.218 12.757,5.97 14.167,2.621 15.444,2.531 13.947,5.838 15.902,9.144 14.663,9.218 "
   transform="translate(-1.95005e-2,-1.804178e-2)"
   style="fill:#ffd200"
   id="polygon19" />
<polygon
   points="14.663,9.218 12.757,5.97 14.167,2.621 15.444,2.531 13.947,5.838 15.902,9.144 14.663,9.218 "
   transform="translate(-1.95005e-2,-1.804178e-2)"
   style="fill:none;stroke:#f79320;stroke-width:0.068;stroke-miterlimit:3.86400008"
   id="polygon21" />
</svg>