<?xml version="1.0" encoding="UTF-8" standalone="no"?>
<!-- Created with Inkscape (http://www.inkscape.org/) -->
<svg
   xmlns:svg="http://www.w3.org/2000/svg"
   xmlns="http://www.w3.org/2000/svg"
   version="1.0"
   width="283.96402"
   height="250.91437"
   viewBox="0 0 29.362 25.942"
   id="Layer_1"
   xml:space="preserve"><defs
   id="defs28" />
<polygon
   points="4.428,0.551 0.659,13.624 3.789,25.881 25.617,25.77 29.299,13.733 25.838,0.484 4.428,0.551 "
   transform="translate(-1.499998e-3,-1.825482e-3)"
   style="fill:#a09da2"
   id="polygon3" />
<polygon
   points="4.428,0.551 0.659,13.624 3.789,25.881 25.617,25.77 29.299,13.733 25.838,0.484 4.428,0.551 "
   transform="translate(-1.499998e-3,-1.825482e-3)"
   style="fill:none;stroke:#a7a3a8;stroke-width:0.123;stroke-miterlimit:3.86400008"
   id="polygon5" />
<polygon
   points="3.834,0.128 0.063,13.2 2.968,25.346 24.942,25.346 28.704,13.31 25.243,0.062 3.834,0.128 "
   transform="translate(-1.499998e-3,-1.825482e-3)"
   style="fill:#bdc5c1"
   id="polygon7" />
<polygon
   points="3.834,0.128 0.063,13.2 2.968,25.346 24.942,25.346 28.704,13.31 25.243,0.062 3.834,0.128 "
   transform="translate(-1.499998e-3,-1.825482e-3)"
   style="fill:none;stroke:#686469;stroke-width:0.123;stroke-miterlimit:3.86400008"
   id="polygon9" />
<circle
   cx="2.642"
   cy="13.2"
   r="1.675"
   transform="translate(-1.499998e-3,-1.825482e-3)"
   style="fill:#95979a"
   id="circle11" />
<circle
   cx="2.642"
   cy="13.2"
   r="1.675"
   transform="translate(-1.499998e-3,-1.825482e-3)"
   style="fill:none;stroke:#686469;stroke-width:0.123;stroke-miterlimit:3.86400008"
   id="circle13" />
<circle
   cx="26.176001"
   cy="13.07"
   r="1.675"
   transform="translate(-1.499998e-3,-1.825482e-3)"
   style="fill:#95979a"
   id="circle15" />
<circle
   cx="26.176001"
   cy="13.07"
   r="1.675"
   transform="translate(-1.499998e-3,-1.825482e-3)"
   style="fill:none;stroke:#686469;stroke-width:0.123;stroke-miterlimit:3.86400008"
   id="circle17" />
<rect
   width="19.247"
   height="3.9890001"
   x="4.7224998"
   y="11.043175"
   style="fill:#a7a3a8"
   id="rect19" />
<rect
   width="19.247"
   height="3.9890001"
   x="4.7224998"
   y="11.043175"
   style="fill:none;stroke:#a7a3a8;stroke-width:0.07;stroke-miterlimit:3.86400008"
   id="rect21" />
<rect
   width="15.817"
   height="2.152"
   x="6.6264997"
   y="11.916174"
   style="fill:#e2e6e8"
   id="rect23" />
<rect
   width="15.817"
   height="2.152"
   x="6.6264997"
   y="11.916174"
   style="fill:none;stroke:#e2e6e8;stroke-width:0.07;stroke-miterlimit:3.86400008"
   id="rect25" />
</svg>