<?xml version="1.0" encoding="UTF-8" standalone="no"?>
<!-- Created with Inkscape (http://www.inkscape.org/) -->
<svg
   xmlns:svg="http://www.w3.org/2000/svg"
   xmlns="http://www.w3.org/2000/svg"
   version="1.0"
   width="449.54733"
   height="219.23326"
   viewBox="0 0 25.349 12.333"
   id="Layer_1"
   xml:space="preserve"><defs
   id="defs16" />
<path
   d="M 25.2405,0.019955689 L 5.0005,0.87095569 L 0.034499999,12.276956 L 23.8645,10.691956 C 23.8645,10.691956 22.0565,8.2869557 24.4205,5.4119557 C 24.4195,5.4119557 22.7355,2.4739557 25.2405,0.019955689 z "
   style="fill:#33725b;fill-rule:evenodd"
   id="path3" />
<path
   d="M 25.2405,0.019955689 L 5.0005,0.87095569 L 0.034499999,12.276956 L 23.8645,10.691956 C 23.8645,10.691956 22.0565,8.2869557 24.4205,5.4119557 C 24.4195,5.4119557 22.7355,2.4739557 25.2405,0.019955689 z "
   style="fill:none;stroke:#33725b;stroke-width:0.069;stroke-miterlimit:3.86400008"
   id="path5" />
<path
   d="M 23.9065,0.79595569 L 5.6595,1.5979557 L 1.3685,11.501956 L 22.9015,10.063956 C 22.9015,10.063956 21.5055,7.7599557 23.5985,5.2149557 C 23.5985,5.2139557 22.1605,2.4619557 23.9065,0.79595569 z "
   style="fill:white;fill-rule:evenodd"
   id="path7" />
<path
   d="M 23.9065,0.79595569 L 5.6595,1.5979557 L 1.3685,11.501956 L 22.9015,10.063956 C 22.9015,10.063956 21.5055,7.7599557 23.5985,5.2149557 C 23.5985,5.2139557 22.1605,2.4619557 23.9065,0.79595569 z "
   style="fill:none;stroke:white;stroke-width:0.068;stroke-miterlimit:3.86400008"
   id="path9" />
<path
   d="M 22.9195,1.4869557 L 6.1965,2.1669557 L 2.4705,10.766956 L 21.9335,9.4589557 C 21.9335,9.4589557 20.9795,7.4369557 22.7965,5.2269557 C 22.7965,5.2259557 21.5625,3.0479557 22.9195,1.4869557 z "
   style="fill:#33725b;fill-rule:evenodd"
   id="path11" />
<path
   d="M 22.9195,1.4869557 L 6.1965,2.1669557 L 2.4705,10.766956 L 21.9335,9.4589557 C 21.9335,9.4589557 20.9795,7.4369557 22.7965,5.2269557 C 22.7965,5.2259557 21.5625,3.0479557 22.9195,1.4869557 z "
   style="fill:none;stroke:#33725b;stroke-width:0.066;stroke-miterlimit:3.86400008"
   id="path13" />
</svg>