<?xml version="1.0" encoding="UTF-8" standalone="no"?>
<!-- Created with Inkscape (http://www.inkscape.org/) -->
<svg
   xmlns:dc="http://purl.org/dc/elements/1.1/"
   xmlns:cc="http://creativecommons.org/ns#"
   xmlns:rdf="http://www.w3.org/1999/02/22-rdf-syntax-ns#"
   xmlns:svg="http://www.w3.org/2000/svg"
   xmlns="http://www.w3.org/2000/svg"
   xmlns:xlink="http://www.w3.org/1999/xlink"
   xmlns:sodipodi="http://sodipodi.sourceforge.net/DTD/sodipodi-0.dtd"
   xmlns:inkscape="http://www.inkscape.org/namespaces/inkscape"
   version="1.0"
   width="455.07965"
   height="220.24754"
   viewBox="0 0 28.676 13.856"
   id="Layer_1"
   xml:space="preserve"
   sodipodi:version="0.32"
   inkscape:version="0.46"
   sodipodi:docname="FIN-eversti.svg"
   inkscape:output_extension="org.inkscape.output.svg.inkscape"><metadata
   id="metadata45"><rdf:RDF><cc:Work
       rdf:about=""><dc:format>image/svg+xml</dc:format><dc:type
         rdf:resource="http://purl.org/dc/dcmitype/StillImage" /></cc:Work></rdf:RDF></metadata><sodipodi:namedview
   inkscape:window-height="845"
   inkscape:window-width="1122"
   inkscape:pageshadow="2"
   inkscape:pageopacity="0.0"
   guidetolerance="10.0"
   gridtolerance="10.0"
   objecttolerance="10.0"
   borderopacity="1.0"
   bordercolor="#666666"
   pagecolor="#ffffff"
   id="base"
   showgrid="false"
   inkscape:zoom="1.4459007"
   inkscape:cx="227.53983"
   inkscape:cy="9.3063085"
   inkscape:window-x="97"
   inkscape:window-y="37"
   inkscape:current-layer="g3185" /><defs
   id="defs82"><inkscape:perspective
     sodipodi:type="inkscape:persp3d"
     inkscape:vp_x="0 : 110.12377 : 1"
     inkscape:vp_y="0 : 1000 : 0"
     inkscape:vp_z="455.07965 : 110.12377 : 1"
     inkscape:persp3d-origin="227.53983 : 73.415848 : 1"
     id="perspective47" /><inkscape:perspective
     id="perspective73"
     inkscape:persp3d-origin="225.78667 : 73.379471 : 1"
     inkscape:vp_z="451.57333 : 110.06921 : 1"
     inkscape:vp_y="0 : 1000 : 0"
     inkscape:vp_x="0 : 110.06921 : 1"
     sodipodi:type="inkscape:persp3d" /></defs>
<path
   d="M 28.5785,0.023254697 L 5.6475,0.9072547 L 0.034499999,13.802255 L 27.5515,11.592255 C 27.5515,11.592255 25.6555,8.7922547 27.9475,5.9912547 C 27.9475,5.9922547 26.5225,2.4552547 28.5785,0.023254697 z "
   style="fill:#33725b"
   id="path3" />
<path
   d="M 28.5785,0.023254697 L 5.6475,0.9072547 L 0.034499999,13.802255 L 27.5515,11.592255 C 27.5515,11.592255 25.6555,8.7922547 27.9475,5.9912547 C 27.9475,5.9922547 26.5225,2.4552547 28.5785,0.023254697 z "
   style="fill:none;stroke:#33725b;stroke-width:0.069;stroke-miterlimit:3.86400008"
   id="path5" />
<path
   d="M 26.8405,1.0542547 L 6.3605,1.9392547 L 1.7745,12.698255 L 25.9705,10.929255 C 25.9705,10.929255 25.1795,7.2442547 26.8405,6.0652547 C 26.8405,6.0652547 25.5195,2.8022547 26.8405,1.0542547"
   style="fill:white"
   id="path7" />
<path
   d="M 25.8055,1.6962547 L 6.9535,2.6602547 L 3.0255,11.870255 L 24.7855,10.174255 C 24.7855,10.174255 24.3935,7.2492547 26.0555,5.9972547 C 26.0555,5.9972547 24.3945,3.5502547 25.8055,1.6962547 z "
   style="fill:#33725b"
   id="path9" />
<path
   d="M 25.8055,1.6962547 L 6.9535,2.6602547 L 3.0255,11.870255 L 24.7855,10.174255 C 24.7855,10.174255 24.3935,7.2492547 26.0555,5.9972547 C 26.0555,5.9972547 24.3945,3.5502547 25.8055,1.6962547 z "
   style="fill:none;stroke:#33725b;stroke-width:0.069;stroke-miterlimit:3.86400008"
   id="path11" />
<path
   d="M 24.3025,2.6242547 L 7.5465,3.3392547 L 4.3045,11.002255 L 23.8345,9.4552547 C 23.8345,9.4552547 23.6775,7.0232547 25.0215,6.1392547 C 25.0215,6.1392547 23.5905,3.5072547 24.3025,2.6242547"
   style="fill:white"
   id="path13" />
<path
   d="M 23.3955,3.2662547 L 7.9415,4.0762547 L 5.3325,10.340255 L 23.1095,8.8542547 C 23.1095,8.8542547 23.2875,6.6232547 24.2695,6.1572547 C 24.2705,6.1572547 22.8615,4.0032547 23.3955,3.2662547 z "
   style="fill:#33725b"
   id="path15" />
<path
   d="M 23.3955,3.2662547 L 7.9415,4.0762547 L 5.3325,10.340255 L 23.1095,8.8542547 C 23.1095,8.8542547 23.2875,6.6232547 24.2695,6.1572547 C 24.2705,6.1572547 22.8615,4.0032547 23.3955,3.2662547 z "
   style="fill:none;stroke:#33725b;stroke-width:0.069;stroke-miterlimit:3.86400008"
   id="path17" />
<path
   d="M 6.5135,7.9032547 L 5.6595,10.090255 L 8.6445,9.8562547 L 8.4265,9.5672547 L 8.8635,9.2682547 L 8.0305,9.2892547 L 8.5305,8.8232547 L 10.3285,8.6842547 C 10.3285,8.6842547 9.9535,8.4272547 9.9955,8.4272547 C 10.0365,8.4272547 10.2455,8.0532547 10.2455,8.0532547 L 9.4365,8.1712547 L 10.6095,7.2842547 L 10.0055,7.2522547 L 10.1625,6.7612547 L 8.9885,7.4652547 L 9.1035,6.8352547 L 8.6965,7.1242547 L 8.5095,6.8682547 L 8.0405,8.1822547 L 6.8465,8.8862547 L 7.0965,7.8502547 L 6.6475,8.1822547 L 6.5135,7.9032547"
   style="fill:white;fill-rule:evenodd"
   id="path19" />
<polyline
   clip-rule="evenodd"
   points="9.499,4.266 8.057,4.308 7.636,5.292 7.866,5.209   8.017,5.583 8.263,4.878 8.945,5.64 9.047,5.243 9.499,5.292 9.024,4.588 9.752,4.531 9.499,4.266 "
   id="polyline21"
   style="fill:white;fill-rule:evenodd"
   transform="translate(-2.04999e-2,-1.47453e-2)" />





















<g
   id="g3185"
   transform="translate(-1.683383,14.589878)"><g
     id="g21"
     transform="translate(-2.04995e-2,-1.753749e-2)">
	<defs
   id="defs23">
		<path
   id="path3205"
   d="M 20.456,6.471 C 20.456,6.149 20.717,5.886 21.039,5.886 C 21.361,5.886 21.622,6.149 21.622,6.471 C 21.622,6.792 21.361,7.053 21.039,7.053 C 20.717,7.053 20.456,6.792 20.456,6.471" />
	</defs>
	<clipPath
   id="XMLID_5_">
		<path
   id="use27"
   d="M 15.704,6.457 C 15.704,6.103 15.992,5.815 16.348,5.815 C 16.702,5.815 16.991,6.102 16.991,6.457 C 16.991,6.812 16.703,7.101 16.348,7.101 C 15.992,7.101 15.704,6.813 15.704,6.457" />
	</clipPath>
	<path
   id="path3209"
   clip-path="url(#XMLID_5_)"
   style="fill:#ffd200"
   d="M 21.621,6.471 L 21.621,6.471 C 21.621,6.792 21.36,7.053 21.038,7.053 C 20.716,7.053 20.455,6.792 20.455,6.471 C 20.455,6.149 20.716,5.889 21.038,5.889 C 21.36,5.889 21.621,6.148 21.621,6.471 M 21.794,6.497 C 21.794,6.083 21.459,5.748 21.045,5.748 C 20.631,5.748 20.296,6.083 20.296,6.497 C 20.296,6.911 20.631,7.246 21.045,7.246 C 21.459,7.246 21.794,6.911 21.794,6.497" />
	<path
   id="path31"
   clip-path="url(#XMLID_5_)"
   style="fill:#ffdb5d"
   d="M 21.455,6.471 L 21.455,6.471 C 21.455,6.7 21.268,6.887 21.038,6.887 C 20.809,6.887 20.622,6.7 20.622,6.471 C 20.622,6.242 20.809,6.055 21.038,6.055 C 21.269,6.055 21.455,6.241 21.455,6.471 M 21.628,6.467 C 21.628,6.145 21.367,5.884 21.045,5.884 C 20.723,5.884 20.462,6.145 20.462,6.467 C 20.462,6.789 20.723,7.05 21.045,7.05 C 21.367,7.05 21.628,6.789 21.628,6.467" />
	<path
   id="path33"
   clip-path="url(#XMLID_5_)"
   style="fill:#ffe693"
   d="M 21.288,6.471 L 21.288,6.471 C 21.288,6.608 21.176,6.721 21.038,6.721 C 20.9,6.721 20.788,6.608 20.788,6.471 C 20.788,6.333 20.9,6.221 21.038,6.221 C 21.176,6.221 21.288,6.333 21.288,6.471 M 21.431,6.467 C 21.431,6.237 21.245,6.051 21.015,6.051 C 20.786,6.051 20.599,6.237 20.599,6.467 C 20.599,6.697 20.786,6.883 21.015,6.883 C 21.245,6.883 21.431,6.697 21.431,6.467" />
	<path
   id="path35"
   clip-path="url(#XMLID_5_)"
   style="fill:#fff1c7"
   d="M 21.121,6.471 L 21.121,6.471 C 21.121,6.518 21.084,6.555 21.038,6.555 C 20.992,6.555 20.955,6.518 20.955,6.471 C 20.955,6.425 20.992,6.387 21.038,6.387 C 21.084,6.387 21.121,6.425 21.121,6.471 M 21.295,6.467 C 21.295,6.329 21.184,6.217 21.045,6.217 C 20.907,6.217 20.795,6.329 20.795,6.467 C 20.795,6.606 20.907,6.717 21.045,6.717 C 21.184,6.717 21.295,6.605 21.295,6.467" />
	<path
   id="path37"
   clip-path="url(#XMLID_5_)"
   style="fill:#ffffff"
   d="M 21.128,6.467 C 21.128,6.421 21.091,6.384 21.045,6.384 C 20.999,6.384 20.962,6.421 20.962,6.467 C 20.962,6.514 20.999,6.55 21.045,6.55 C 21.091,6.55 21.128,6.514 21.128,6.467" />
</g><g
     id="g79"
     transform="translate(-2.04995e-2,-1.753749e-2)">
	<defs
   id="defs81">
		<path
   id="path3244"
   d="M 12.736,6.771 C 12.736,6.45 12.998,6.189 13.32,6.189 C 13.642,6.189 13.903,6.45 13.903,6.771 C 13.903,7.093 13.642,7.355 13.32,7.355 C 12.998,7.355 12.736,7.094 12.736,6.771" />
	</defs>
	<clipPath
   id="XMLID_6_">
		<use
   xlink:href="#XMLID_3_"
   height="13.844"
   width="28.455999"
   y="0"
   x="0"
   id="use85" />
	</clipPath>
	<path
   id="path87"
   clip-path="url(#XMLID_6_)"
   style="fill:#ffd200"
   d="M 13.901,6.773 L 13.901,6.773 C 13.901,7.095 13.639,7.355 13.318,7.355 C 12.997,7.355 12.735,7.095 12.735,6.773 C 12.735,6.452 12.997,6.189 13.318,6.189 C 13.639,6.189 13.901,6.452 13.901,6.773 M 14.054,6.797 C 14.054,6.383 13.719,6.048 13.305,6.048 C 12.892,6.048 12.556,6.383 12.556,6.797 C 12.556,7.211 12.892,7.546 13.305,7.546 C 13.719,7.546 14.054,7.211 14.054,6.797" />
	<path
   id="path89"
   clip-path="url(#XMLID_6_)"
   style="fill:#ffdb5d"
   d="M 13.735,6.773 L 13.735,6.773 C 13.735,7.002 13.547,7.189 13.318,7.189 C 13.089,7.189 12.902,7.002 12.902,6.773 C 12.902,6.543 13.089,6.357 13.318,6.357 C 13.547,6.357 13.735,6.543 13.735,6.773 M 13.888,6.768 C 13.888,6.446 13.627,6.184 13.305,6.184 C 12.984,6.184 12.722,6.446 12.722,6.768 C 12.722,7.089 12.984,7.35 13.305,7.35 C 13.627,7.35 13.888,7.089 13.888,6.768" />
	<path
   id="path91"
   clip-path="url(#XMLID_6_)"
   style="fill:#ffe693"
   d="M 13.568,6.773 L 13.568,6.773 C 13.568,6.911 13.456,7.023 13.318,7.023 C 13.179,7.023 13.069,6.911 13.069,6.773 C 13.069,6.634 13.179,6.523 13.318,6.523 C 13.456,6.523 13.568,6.635 13.568,6.773 M 13.751,6.768 C 13.751,6.538 13.565,6.352 13.335,6.352 C 13.106,6.352 12.919,6.538 12.919,6.768 C 12.919,6.997 13.106,7.184 13.335,7.184 C 13.565,7.184 13.751,6.997 13.751,6.768" />
	<path
   id="path93"
   clip-path="url(#XMLID_6_)"
   style="fill:#fff1c7"
   d="M 13.402,6.773 L 13.402,6.773 C 13.402,6.818 13.364,6.857 13.318,6.857 C 13.272,6.857 13.235,6.818 13.235,6.773 C 13.235,6.726 13.272,6.689 13.318,6.689 C 13.364,6.689 13.402,6.727 13.402,6.773 M 13.585,6.768 C 13.585,6.629 13.473,6.518 13.335,6.518 C 13.197,6.518 13.085,6.629 13.085,6.768 C 13.085,6.905 13.197,7.018 13.335,7.018 C 13.473,7.018 13.585,6.904 13.585,6.768" />
	<path
   id="path95"
   clip-path="url(#XMLID_6_)"
   style="fill:#ffffff"
   d="M 13.388,6.768 C 13.388,6.721 13.352,6.684 13.305,6.684 C 13.259,6.684 13.222,6.721 13.222,6.768 C 13.222,6.813 13.259,6.85 13.305,6.85 C 13.352,6.85 13.388,6.813 13.388,6.768" />
</g><polygon
     id="polygon3270"
     style="fill:#ffd200"
     transform="translate(-6.6501774,-14.414183)"
     points="20.11,5.251 19.787,5.192 19.7,4.802 20.14,4.935 20.11,5.251 " /><polygon
     id="polygon3272"
     style="fill:none;stroke:#793f11;stroke-width:0.064;stroke-miterlimit:3.86400008"
     transform="translate(-6.6501774,-14.414183)"
     points="20.11,5.251 19.787,5.192 19.7,4.802 20.14,4.935 20.11,5.251 " /><path
     id="path3274"
     style="fill:#ffd200;fill-rule:evenodd"
     d="M 12.939822,-7.516182 C 12.501822,-7.516182 12.540822,-7.995182 12.641822,-8.401182 C 12.733822,-8.775182 12.924822,-9.401182 13.475822,-9.125182 C 13.385822,-9.652182 13.882822,-9.7811816 14.301822,-9.7811816 C 14.685822,-9.7811816 15.362822,-9.7661816 15.227822,-9.164182 C 15.708822,-9.396182 16.016822,-8.948182 16.131822,-8.545182 C 16.236822,-8.177182 16.409822,-7.521182 15.793822,-7.485182 C 16.176822,-7.112182 15.815822,-6.751182 15.477822,-6.504182 C 15.166822,-6.279182 14.666822,-5.912182 14.422822,-6.478182 C 14.168822,-6.008182 13.652822,-6.212182 13.322822,-6.470182 C 13.020822,-6.706182 12.529822,-7.078182 12.965822,-7.517182 C 12.965822,-7.516182 13.015822,-7.516182 12.939822,-7.516182 z" /><path
     id="path3276"
     style="fill:none;stroke:#793f11;stroke-width:0.064;stroke-miterlimit:3.86400008"
     d="M 12.939822,-7.516182 C 12.501822,-7.516182 12.540822,-7.995182 12.641822,-8.401182 C 12.733822,-8.775182 12.924822,-9.401182 13.475822,-9.125182 C 13.385822,-9.652182 13.882822,-9.7811816 14.301822,-9.7811816 C 14.685822,-9.7811816 15.362822,-9.7661816 15.227822,-9.164182 C 15.708822,-9.396182 16.016822,-8.948182 16.131822,-8.545182 C 16.236822,-8.177182 16.409822,-7.521182 15.793822,-7.485182 C 16.176822,-7.112182 15.815822,-6.751182 15.477822,-6.504182 C 15.166822,-6.279182 14.666822,-5.912182 14.422822,-6.478182 C 14.168822,-6.008182 13.652822,-6.212182 13.322822,-6.470182 C 13.020822,-6.706182 12.529822,-7.078182 12.965822,-7.517182 C 12.965822,-7.516182 13.015822,-7.516182 12.939822,-7.516182 z" /><path
     id="path3278"
     style="fill:none;stroke:#793f11;stroke-width:0.064;stroke-miterlimit:3.86400008"
     d="M 14.538822,-6.691182 L 14.293822,-6.696182 C 14.228822,-6.687182 14.229822,-6.502182 14.130822,-6.435182 C 13.908822,-6.284182 13.768822,-6.648182 13.535822,-6.781182 C 13.349822,-6.886182 13.163822,-6.915182 13.057822,-7.049182 C 12.955822,-7.180182 13.126822,-7.279182 13.244822,-7.399182 L 13.222822,-7.639182 C 13.193822,-7.699182 13.018822,-7.637182 12.922822,-7.709182 C 12.707822,-7.869182 13.006822,-8.120182 13.055822,-8.385182 C 13.095822,-8.594182 13.061822,-8.780182 13.153822,-8.922182 C 13.245822,-9.061182 13.402822,-8.922182 13.553822,-8.851182 L 13.690822,-8.988182 C 13.741822,-9.031182 13.635822,-9.184182 13.679822,-9.296182 C 13.779822,-9.545182 14.099822,-9.321182 14.367822,-9.341182 C 14.579822,-9.357182 14.750822,-9.438182 14.911822,-9.386182 C 15.068822,-9.335182 14.992822,-9.146182 14.962822,-8.982182 M 15.592822,-7.704182 L 15.523822,-7.480182 C 15.512822,-7.416182 15.689822,-7.363182 15.725822,-7.248182 C 15.804822,-6.991182 15.415822,-6.964182 15.219822,-6.780182 C 15.064822,-6.634182 14.983822,-6.464182 14.824822,-6.403182 C 14.670822,-6.343182 14.601822,-6.562182 14.521822,-6.709182 M 14.963822,-9.017182 L 15.178822,-8.858182 M 15.155822,-8.868182 C 15.213822,-8.834182 15.336822,-9.012182 15.468822,-9.005182 C 15.737822,-8.992182 15.622822,-8.614182 15.724822,-8.366182 C 15.805822,-8.169182 15.935822,-8.031182 15.935822,-7.862182 C 15.935822,-7.696182 15.732822,-7.711182 15.566822,-7.687182 M 13.978822,-7.560182 L 13.936822,-7.328182 L 14.169822,-7.426182 M 13.816822,-7.982182 L 13.620822,-8.166182 L 13.885822,-8.186182 M 14.245822,-8.505182 L 14.391822,-8.753182 L 14.531822,-8.498182 M 14.828822,-7.600182 L 14.883822,-7.323182 L 14.629822,-7.434182 M 14.892822,-8.208182 L 15.144822,-8.171182 L 14.971822,-7.986182 M 13.805822,-7.943182 C 13.805822,-8.265182 14.066822,-8.528182 14.388822,-8.528182 C 14.710822,-8.528182 14.971822,-8.265182 14.971822,-7.943182 C 14.971822,-7.622182 14.710822,-7.361182 14.388822,-7.361182 C 14.066822,-7.361182 13.805822,-7.622182 13.805822,-7.943182 z" /><polygon
     id="polygon3280"
     style="fill:#ffd200;fill-rule:evenodd"
     transform="translate(-6.6501774,-14.414183)"
     points="21.915,5.221 21.878,4.912 22.243,4.727 22.243,5.16 21.915,5.221 " /><polygon
     id="polygon3282"
     style="fill:none;stroke:#793f11;stroke-width:0.064;stroke-miterlimit:3.86400008"
     transform="translate(-6.6501774,-14.414183)"
     points="21.915,5.221 21.878,4.912 22.243,4.727 22.243,5.16 21.915,5.221 " /><polygon
     id="polygon3284"
     style="fill:#ffd200"
     transform="translate(-6.6501774,-14.414183)"
     points="19.59,6.913 19.425,7.252 18.996,7.154 19.274,6.814 19.59,6.913 " /><polygon
     id="polygon3286"
     style="fill:none;stroke:#793f11;stroke-width:0.064;stroke-miterlimit:3.86400008"
     transform="translate(-6.6501774,-14.414183)"
     points="19.59,6.913 19.425,7.252 18.996,7.154 19.274,6.814 19.59,6.913 " /><polygon
     id="polygon3288"
     style="fill:#ffd200"
     transform="translate(-6.6501774,-14.414183)"
     points="22.502,6.966 22.796,6.85 23.035,7.169 22.651,7.23 22.502,6.966 " /><polygon
     id="polygon3290"
     style="fill:none;stroke:#793f11;stroke-width:0.064;stroke-miterlimit:3.86400008"
     transform="translate(-6.6501774,-14.414183)"
     points="22.502,6.966 22.796,6.85 23.035,7.169 22.651,7.23 22.502,6.966 " /><polygon
     id="polygon3292"
     style="fill:#ffd200"
     transform="translate(-6.6501774,-14.414183)"
     points="21.089,7.988 21.286,8.223 21.092,8.63 20.865,8.2 21.089,7.988 " /><polygon
     id="polygon3294"
     style="fill:none;stroke:#793f11;stroke-width:0.064;stroke-miterlimit:3.86400008"
     transform="translate(-6.6501774,-14.414183)"
     points="21.089,7.988 21.286,8.223 21.092,8.63 20.865,8.2 21.089,7.988 " /><path
     id="path3296"
     style="fill:none;stroke:#793f11;stroke-width:0.064;stroke-miterlimit:3.86400008"
     d="M 13.473822,-9.103182 C 13.472822,-9.119182 13.468822,-9.104182 13.466822,-9.118182" /><polygon
     id="polygon3298"
     style="fill:#ffd200;fill-rule:evenodd"
     transform="translate(-6.6501774,-14.414183)"
     points="21.039,5.713 20.899,5.973 20.569,6.259 20.331,6.273 20.521,6.434 20.654,6.868 20.621,7.037 20.835,6.955 21.264,6.947 21.501,7.049 21.435,6.809 21.554,6.459 21.735,6.266 21.509,6.229 21.159,5.936 21.039,5.713 " /><polygon
     id="polygon3300"
     style="fill:none;stroke:#793f11;stroke-width:0.064;stroke-miterlimit:3.86400008"
     transform="translate(-6.6501774,-14.414183)"
     points="21.039,5.713 20.899,5.973 20.569,6.259 20.331,6.273 20.521,6.434 20.654,6.868 20.621,7.037 20.835,6.955 21.264,6.947 21.501,7.049 21.435,6.809 21.554,6.459 21.735,6.266 21.509,6.229 21.159,5.936 21.039,5.713 " /><circle
     id="circle3302"
     style="fill:#ffd200"
     transform="translate(-6.6501774,-14.414183)"
     r="0.56599998"
     cy="6.4749999"
     cx="21.033001"
     sodipodi:cx="21.033001"
     sodipodi:cy="6.4749999"
     sodipodi:rx="0.56599998"
     sodipodi:ry="0.56599998" /><circle
     id="circle3304"
     style="fill:none;stroke:#793f11;stroke-width:0.064;stroke-miterlimit:3.86400008"
     transform="translate(-6.6501774,-14.414183)"
     r="0.56599998"
     cy="6.4749999"
     cx="21.033001"
     sodipodi:cx="21.033001"
     sodipodi:cy="6.4749999"
     sodipodi:rx="0.56599998"
     sodipodi:ry="0.56599998" /><circle
     id="circle3306"
     style="fill:#ffd200"
     transform="translate(-6.6501774,-14.414183)"
     r="0.338"
     cy="6.4770002"
     cx="21.037001"
     sodipodi:cx="21.037001"
     sodipodi:cy="6.4770002"
     sodipodi:rx="0.338"
     sodipodi:ry="0.338" /><circle
     id="circle3308"
     style="fill:none;stroke:#793f11;stroke-width:0.064;stroke-miterlimit:3.86400008"
     transform="translate(-6.6501774,-14.414183)"
     r="0.338"
     cy="6.4770002"
     cx="21.037001"
     sodipodi:cx="21.037001"
     sodipodi:cy="6.4770002"
     sodipodi:rx="0.338"
     sodipodi:ry="0.338" /><polygon
     id="polygon3354"
     style="fill:#ffd200"
     transform="translate(1.4993844,-14.937148)"
     points="20.11,5.251 19.787,5.192 19.7,4.802 20.14,4.935 20.11,5.251 " /><polygon
     id="polygon3356"
     style="fill:none;stroke:#793f11;stroke-width:0.064;stroke-miterlimit:3.86400008"
     transform="translate(1.4993844,-14.937148)"
     points="20.11,5.251 19.787,5.192 19.7,4.802 20.14,4.935 20.11,5.251 " /><path
     id="path3358"
     style="fill:#ffd200;fill-rule:evenodd"
     d="M 21.089384,-8.0391491 C 20.651384,-8.0391491 20.690384,-8.5181491 20.791384,-8.9241491 C 20.883384,-9.2981491 21.074384,-9.9241491 21.625384,-9.6481491 C 21.535384,-10.175149 22.032384,-10.304148 22.451384,-10.304148 C 22.835384,-10.304148 23.512384,-10.289148 23.377384,-9.6871491 C 23.858384,-9.9191491 24.166384,-9.4711491 24.281384,-9.0681491 C 24.386384,-8.7001491 24.559384,-8.0441491 23.943384,-8.0081491 C 24.326384,-7.6351491 23.965384,-7.2741491 23.627384,-7.0271491 C 23.316384,-6.8021491 22.816384,-6.4351491 22.572384,-7.0011491 C 22.318384,-6.5311491 21.802384,-6.7351491 21.472384,-6.9931491 C 21.170384,-7.2291491 20.679384,-7.6011491 21.115384,-8.0401491 C 21.115384,-8.0391491 21.165384,-8.0391491 21.089384,-8.0391491 z" /><path
     id="path3360"
     style="fill:none;stroke:#793f11;stroke-width:0.064;stroke-miterlimit:3.86400008"
     d="M 21.089384,-8.0391491 C 20.651384,-8.0391491 20.690384,-8.5181491 20.791384,-8.9241491 C 20.883384,-9.2981491 21.074384,-9.9241491 21.625384,-9.6481491 C 21.535384,-10.175149 22.032384,-10.304148 22.451384,-10.304148 C 22.835384,-10.304148 23.512384,-10.289148 23.377384,-9.6871491 C 23.858384,-9.9191491 24.166384,-9.4711491 24.281384,-9.0681491 C 24.386384,-8.7001491 24.559384,-8.0441491 23.943384,-8.0081491 C 24.326384,-7.6351491 23.965384,-7.2741491 23.627384,-7.0271491 C 23.316384,-6.8021491 22.816384,-6.4351491 22.572384,-7.0011491 C 22.318384,-6.5311491 21.802384,-6.7351491 21.472384,-6.9931491 C 21.170384,-7.2291491 20.679384,-7.6011491 21.115384,-8.0401491 C 21.115384,-8.0391491 21.165384,-8.0391491 21.089384,-8.0391491 z" /><path
     id="path3362"
     style="fill:none;stroke:#793f11;stroke-width:0.064;stroke-miterlimit:3.86400008"
     d="M 22.688384,-7.2141491 L 22.443384,-7.2191491 C 22.378384,-7.2101491 22.379384,-7.0251491 22.280384,-6.9581491 C 22.058384,-6.8071491 21.918384,-7.1711491 21.685384,-7.3041491 C 21.499384,-7.4091491 21.313384,-7.4381491 21.207384,-7.5721491 C 21.105384,-7.7031491 21.276384,-7.8021491 21.394384,-7.9221491 L 21.372384,-8.1621491 C 21.343384,-8.2221491 21.168384,-8.1601491 21.072384,-8.2321491 C 20.857384,-8.3921491 21.156384,-8.6431491 21.205384,-8.9081491 C 21.245384,-9.1171491 21.211384,-9.3031491 21.303384,-9.4451491 C 21.395384,-9.5841491 21.552384,-9.4451491 21.703384,-9.3741491 L 21.840384,-9.5111491 C 21.891384,-9.5541491 21.785384,-9.7071491 21.829384,-9.8191491 C 21.929384,-10.068149 22.249384,-9.8441491 22.517384,-9.8641491 C 22.729384,-9.8801491 22.900384,-9.9611491 23.061384,-9.9091491 C 23.218384,-9.8581491 23.142384,-9.6691491 23.112384,-9.5051491 M 23.742384,-8.2271491 L 23.673384,-8.0031491 C 23.662384,-7.9391491 23.839384,-7.8861491 23.875384,-7.7711491 C 23.954384,-7.5141491 23.565384,-7.4871491 23.369384,-7.3031491 C 23.214384,-7.1571491 23.133384,-6.9871491 22.974384,-6.9261491 C 22.820384,-6.8661491 22.751384,-7.0851491 22.671384,-7.2321491 M 23.113384,-9.5401491 L 23.328384,-9.3811491 M 23.305384,-9.3911491 C 23.363384,-9.3571491 23.486384,-9.5351491 23.618384,-9.5281491 C 23.887384,-9.5151491 23.772384,-9.1371491 23.874384,-8.8891491 C 23.955384,-8.6921491 24.085384,-8.5541491 24.085384,-8.3851491 C 24.085384,-8.2191491 23.882384,-8.2341491 23.716384,-8.2101491 M 22.128384,-8.0831491 L 22.086384,-7.8511491 L 22.319384,-7.9491491 M 21.966384,-8.5051491 L 21.770384,-8.6891491 L 22.035384,-8.7091491 M 22.395384,-9.0281491 L 22.541384,-9.2761491 L 22.681384,-9.0211491 M 22.978384,-8.1231491 L 23.033384,-7.8461491 L 22.779384,-7.9571491 M 23.042384,-8.7311491 L 23.294384,-8.6941491 L 23.121384,-8.5091491 M 21.955384,-8.4661491 C 21.955384,-8.7881491 22.216384,-9.0511491 22.538384,-9.0511491 C 22.860384,-9.0511491 23.121384,-8.7881491 23.121384,-8.4661491 C 23.121384,-8.1451491 22.860384,-7.8841491 22.538384,-7.8841491 C 22.216384,-7.8841491 21.955384,-8.1451491 21.955384,-8.4661491 z" /><polygon
     id="polygon3364"
     style="fill:#ffd200;fill-rule:evenodd"
     transform="translate(1.4993844,-14.937148)"
     points="21.915,5.221 21.878,4.912 22.243,4.727 22.243,5.16 21.915,5.221 " /><polygon
     id="polygon3366"
     style="fill:none;stroke:#793f11;stroke-width:0.064;stroke-miterlimit:3.86400008"
     transform="translate(1.4993844,-14.937148)"
     points="21.915,5.221 21.878,4.912 22.243,4.727 22.243,5.16 21.915,5.221 " /><polygon
     id="polygon3368"
     style="fill:#ffd200"
     transform="translate(1.4993844,-14.937148)"
     points="19.59,6.913 19.425,7.252 18.996,7.154 19.274,6.814 19.59,6.913 " /><polygon
     id="polygon3370"
     style="fill:none;stroke:#793f11;stroke-width:0.064;stroke-miterlimit:3.86400008"
     transform="translate(1.4993844,-14.937148)"
     points="19.59,6.913 19.425,7.252 18.996,7.154 19.274,6.814 19.59,6.913 " /><polygon
     id="polygon3372"
     style="fill:#ffd200"
     transform="translate(1.4993844,-14.937148)"
     points="22.502,6.966 22.796,6.85 23.035,7.169 22.651,7.23 22.502,6.966 " /><polygon
     id="polygon3374"
     style="fill:none;stroke:#793f11;stroke-width:0.064;stroke-miterlimit:3.86400008"
     transform="translate(1.4993844,-14.937148)"
     points="22.502,6.966 22.796,6.85 23.035,7.169 22.651,7.23 22.502,6.966 " /><polygon
     id="polygon3376"
     style="fill:#ffd200"
     transform="translate(1.4993844,-14.937148)"
     points="21.089,7.988 21.286,8.223 21.092,8.63 20.865,8.2 21.089,7.988 " /><polygon
     id="polygon3378"
     style="fill:none;stroke:#793f11;stroke-width:0.064;stroke-miterlimit:3.86400008"
     transform="translate(1.4993844,-14.937148)"
     points="21.089,7.988 21.286,8.223 21.092,8.63 20.865,8.2 21.089,7.988 " /><path
     id="path3380"
     style="fill:none;stroke:#793f11;stroke-width:0.064;stroke-miterlimit:3.86400008"
     d="M 21.623384,-9.6261491 C 21.622384,-9.6421491 21.618384,-9.6271491 21.616384,-9.6411491" /><polygon
     id="polygon3382"
     style="fill:#ffd200;fill-rule:evenodd"
     transform="translate(1.4993844,-14.937148)"
     points="21.039,5.713 20.899,5.973 20.569,6.259 20.331,6.273 20.521,6.434 20.654,6.868 20.621,7.037 20.835,6.955 21.264,6.947 21.501,7.049 21.435,6.809 21.554,6.459 21.735,6.266 21.509,6.229 21.159,5.936 21.039,5.713 " /><polygon
     id="polygon3384"
     style="fill:none;stroke:#793f11;stroke-width:0.064;stroke-miterlimit:3.86400008"
     transform="translate(1.4993844,-14.937148)"
     points="21.039,5.713 20.899,5.973 20.569,6.259 20.331,6.273 20.521,6.434 20.654,6.868 20.621,7.037 20.835,6.955 21.264,6.947 21.501,7.049 21.435,6.809 21.554,6.459 21.735,6.266 21.509,6.229 21.159,5.936 21.039,5.713 " /><circle
     id="circle3386"
     style="fill:#ffd200"
     transform="translate(1.4993844,-14.937148)"
     r="0.56599998"
     cy="6.4749999"
     cx="21.033001"
     sodipodi:cx="21.033001"
     sodipodi:cy="6.4749999"
     sodipodi:rx="0.56599998"
     sodipodi:ry="0.56599998" /><circle
     id="circle3388"
     style="fill:none;stroke:#793f11;stroke-width:0.064;stroke-miterlimit:3.86400008"
     transform="translate(1.4993844,-14.937148)"
     r="0.56599998"
     cy="6.4749999"
     cx="21.033001"
     sodipodi:cx="21.033001"
     sodipodi:cy="6.4749999"
     sodipodi:rx="0.56599998"
     sodipodi:ry="0.56599998" /><circle
     id="circle3390"
     style="fill:#ffd200"
     transform="translate(1.4993844,-14.937148)"
     r="0.338"
     cy="6.4770002"
     cx="21.037001"
     sodipodi:cx="21.037001"
     sodipodi:cy="6.4770002"
     sodipodi:rx="0.338"
     sodipodi:ry="0.338" /><circle
     id="circle3392"
     style="fill:none;stroke:#793f11;stroke-width:0.064;stroke-miterlimit:3.86400008"
     transform="translate(1.4993844,-14.937148)"
     r="0.338"
     cy="6.4770002"
     cx="21.037001"
     sodipodi:cx="21.037001"
     sodipodi:cy="6.4770002"
     sodipodi:rx="0.338"
     sodipodi:ry="0.338" /><polygon
     id="polygon3414"
     style="fill:#ffd200"
     transform="translate(-2.5971869,-14.719245)"
     points="20.11,5.251 19.787,5.192 19.7,4.802 20.14,4.935 20.11,5.251 " /><polygon
     id="polygon3416"
     style="fill:none;stroke:#793f11;stroke-width:0.064;stroke-miterlimit:3.86400008"
     transform="translate(-2.5971869,-14.719245)"
     points="20.11,5.251 19.787,5.192 19.7,4.802 20.14,4.935 20.11,5.251 " /><path
     id="path3418"
     style="fill:#ffd200;fill-rule:evenodd"
     d="M 16.992813,-7.8212473 C 16.554813,-7.8212473 16.593813,-8.3002473 16.694813,-8.7062473 C 16.786813,-9.0802473 16.977813,-9.7062473 17.528813,-9.4302473 C 17.438813,-9.9572463 17.935813,-10.086245 18.354813,-10.086245 C 18.738813,-10.086245 19.415813,-10.071245 19.280813,-9.4692473 C 19.761813,-9.7012473 20.069813,-9.2532473 20.184813,-8.8502473 C 20.289813,-8.4822473 20.462813,-7.8262473 19.846813,-7.7902473 C 20.229813,-7.4172473 19.868813,-7.0562473 19.530813,-6.8092473 C 19.219813,-6.5842473 18.719813,-6.2172473 18.475813,-6.7832473 C 18.221813,-6.3132473 17.705813,-6.5172473 17.375813,-6.7752473 C 17.073813,-7.0112473 16.582813,-7.3832473 17.018813,-7.8222473 C 17.018813,-7.8212473 17.068813,-7.8212473 16.992813,-7.8212473 z" /><path
     id="path3420"
     style="fill:none;stroke:#793f11;stroke-width:0.064;stroke-miterlimit:3.86400008"
     d="M 16.992813,-7.8212473 C 16.554813,-7.8212473 16.593813,-8.3002473 16.694813,-8.7062473 C 16.786813,-9.0802473 16.977813,-9.7062473 17.528813,-9.4302473 C 17.438813,-9.9572463 17.935813,-10.086245 18.354813,-10.086245 C 18.738813,-10.086245 19.415813,-10.071245 19.280813,-9.4692473 C 19.761813,-9.7012473 20.069813,-9.2532473 20.184813,-8.8502473 C 20.289813,-8.4822473 20.462813,-7.8262473 19.846813,-7.7902473 C 20.229813,-7.4172473 19.868813,-7.0562473 19.530813,-6.8092473 C 19.219813,-6.5842473 18.719813,-6.2172473 18.475813,-6.7832473 C 18.221813,-6.3132473 17.705813,-6.5172473 17.375813,-6.7752473 C 17.073813,-7.0112473 16.582813,-7.3832473 17.018813,-7.8222473 C 17.018813,-7.8212473 17.068813,-7.8212473 16.992813,-7.8212473 z" /><path
     id="path3422"
     style="fill:none;stroke:#793f11;stroke-width:0.064;stroke-miterlimit:3.86400008"
     d="M 18.591813,-6.9962473 L 18.346813,-7.0012473 C 18.281813,-6.9922473 18.282813,-6.8072473 18.183813,-6.7402473 C 17.961813,-6.5892473 17.821813,-6.9532473 17.588813,-7.0862473 C 17.402813,-7.1912473 17.216813,-7.2202473 17.110813,-7.3542473 C 17.008813,-7.4852473 17.179813,-7.5842473 17.297813,-7.7042473 L 17.275813,-7.9442473 C 17.246813,-8.0042473 17.071813,-7.9422473 16.975813,-8.0142473 C 16.760813,-8.1742473 17.059813,-8.4252473 17.108813,-8.6902473 C 17.148813,-8.8992473 17.114813,-9.0852473 17.206813,-9.2272473 C 17.298813,-9.3662473 17.455813,-9.2272473 17.606813,-9.1562473 L 17.743813,-9.2932473 C 17.794813,-9.3362473 17.688813,-9.4892473 17.732813,-9.6012473 C 17.832813,-9.8502463 18.152813,-9.6262473 18.420813,-9.6462473 C 18.632813,-9.6622473 18.803813,-9.7432473 18.964813,-9.6912473 C 19.121813,-9.6402473 19.045813,-9.4512473 19.015813,-9.2872473 M 19.645813,-8.0092473 L 19.576813,-7.7852473 C 19.565813,-7.7212473 19.742813,-7.6682473 19.778813,-7.5532473 C 19.857813,-7.2962473 19.468813,-7.2692473 19.272813,-7.0852473 C 19.117813,-6.9392473 19.036813,-6.7692473 18.877813,-6.7082473 C 18.723813,-6.6482473 18.654813,-6.8672473 18.574813,-7.0142473 M 19.016813,-9.3222473 L 19.231813,-9.1632473 M 19.208813,-9.1732473 C 19.266813,-9.1392473 19.389813,-9.3172473 19.521813,-9.3102473 C 19.790813,-9.2972473 19.675813,-8.9192473 19.777813,-8.6712473 C 19.858813,-8.4742473 19.988813,-8.3362473 19.988813,-8.1672473 C 19.988813,-8.0012473 19.785813,-8.0162473 19.619813,-7.9922473 M 18.031813,-7.8652473 L 17.989813,-7.6332473 L 18.222813,-7.7312473 M 17.869813,-8.2872473 L 17.673813,-8.4712473 L 17.938813,-8.4912473 M 18.298813,-8.8102473 L 18.444813,-9.0582473 L 18.584813,-8.8032473 M 18.881813,-7.9052473 L 18.936813,-7.6282473 L 18.682813,-7.7392473 M 18.945813,-8.5132473 L 19.197813,-8.4762473 L 19.024813,-8.2912473 M 17.858813,-8.2482473 C 17.858813,-8.5702473 18.119813,-8.8332473 18.441813,-8.8332473 C 18.763813,-8.8332473 19.024813,-8.5702473 19.024813,-8.2482473 C 19.024813,-7.9272473 18.763813,-7.6662473 18.441813,-7.6662473 C 18.119813,-7.6662473 17.858813,-7.9272473 17.858813,-8.2482473 z" /><polygon
     id="polygon3424"
     style="fill:#ffd200;fill-rule:evenodd"
     transform="translate(-2.5971869,-14.719245)"
     points="21.915,5.221 21.878,4.912 22.243,4.727 22.243,5.16 21.915,5.221 " /><polygon
     id="polygon3426"
     style="fill:none;stroke:#793f11;stroke-width:0.064;stroke-miterlimit:3.86400008"
     transform="translate(-2.5971869,-14.719245)"
     points="21.915,5.221 21.878,4.912 22.243,4.727 22.243,5.16 21.915,5.221 " /><polygon
     id="polygon3428"
     style="fill:#ffd200"
     transform="translate(-2.5971869,-14.719245)"
     points="19.59,6.913 19.425,7.252 18.996,7.154 19.274,6.814 19.59,6.913 " /><polygon
     id="polygon3430"
     style="fill:none;stroke:#793f11;stroke-width:0.064;stroke-miterlimit:3.86400008"
     transform="translate(-2.5971869,-14.719245)"
     points="19.59,6.913 19.425,7.252 18.996,7.154 19.274,6.814 19.59,6.913 " /><polygon
     id="polygon3432"
     style="fill:#ffd200"
     transform="translate(-2.5971869,-14.719245)"
     points="22.502,6.966 22.796,6.85 23.035,7.169 22.651,7.23 22.502,6.966 " /><polygon
     id="polygon3434"
     style="fill:none;stroke:#793f11;stroke-width:0.064;stroke-miterlimit:3.86400008"
     transform="translate(-2.5971869,-14.719245)"
     points="22.502,6.966 22.796,6.85 23.035,7.169 22.651,7.23 22.502,6.966 " /><polygon
     id="polygon3436"
     style="fill:#ffd200"
     transform="translate(-2.5971869,-14.719245)"
     points="21.089,7.988 21.286,8.223 21.092,8.63 20.865,8.2 21.089,7.988 " /><polygon
     id="polygon3438"
     style="fill:none;stroke:#793f11;stroke-width:0.064;stroke-miterlimit:3.86400008"
     transform="translate(-2.5971869,-14.719245)"
     points="21.089,7.988 21.286,8.223 21.092,8.63 20.865,8.2 21.089,7.988 " /><path
     id="path3440"
     style="fill:none;stroke:#793f11;stroke-width:0.064;stroke-miterlimit:3.86400008"
     d="M 17.526813,-9.4082473 C 17.525813,-9.4242473 17.521813,-9.4092473 17.519813,-9.4232473" /><polygon
     id="polygon3442"
     style="fill:#ffd200;fill-rule:evenodd"
     transform="translate(-2.5971869,-14.719245)"
     points="21.039,5.713 20.899,5.973 20.569,6.259 20.331,6.273 20.521,6.434 20.654,6.868 20.621,7.037 20.835,6.955 21.264,6.947 21.501,7.049 21.435,6.809 21.554,6.459 21.735,6.266 21.509,6.229 21.159,5.936 21.039,5.713 " /><polygon
     id="polygon3444"
     style="fill:none;stroke:#793f11;stroke-width:0.064;stroke-miterlimit:3.86400008"
     transform="translate(-2.5971869,-14.719245)"
     points="21.039,5.713 20.899,5.973 20.569,6.259 20.331,6.273 20.521,6.434 20.654,6.868 20.621,7.037 20.835,6.955 21.264,6.947 21.501,7.049 21.435,6.809 21.554,6.459 21.735,6.266 21.509,6.229 21.159,5.936 21.039,5.713 " /><circle
     id="circle3446"
     style="fill:#ffd200"
     transform="translate(-2.5971869,-14.719245)"
     r="0.56599998"
     cy="6.4749999"
     cx="21.033001"
     sodipodi:cx="21.033001"
     sodipodi:cy="6.4749999"
     sodipodi:rx="0.56599998"
     sodipodi:ry="0.56599998" /><circle
     id="circle3448"
     style="fill:none;stroke:#793f11;stroke-width:0.064;stroke-miterlimit:3.86400008"
     transform="translate(-2.5971869,-14.719245)"
     r="0.56599998"
     cy="6.4749999"
     cx="21.033001"
     sodipodi:cx="21.033001"
     sodipodi:cy="6.4749999"
     sodipodi:rx="0.56599998"
     sodipodi:ry="0.56599998" /><circle
     id="circle3450"
     style="fill:#ffd200"
     transform="translate(-2.5971869,-14.719245)"
     r="0.338"
     cy="6.4770002"
     cx="21.037001"
     sodipodi:cx="21.037001"
     sodipodi:cy="6.4770002"
     sodipodi:rx="0.338"
     sodipodi:ry="0.338" /><circle
     id="circle3452"
     style="fill:none;stroke:#793f11;stroke-width:0.064;stroke-miterlimit:3.86400008"
     transform="translate(-2.5971869,-14.719245)"
     r="0.338"
     cy="6.4770002"
     cx="21.037001"
     sodipodi:cx="21.037001"
     sodipodi:cy="6.4770002"
     sodipodi:rx="0.338"
     sodipodi:ry="0.338" /></g></svg>