<?xml version="1.0" encoding="UTF-8" standalone="no"?>
<!-- Created with Inkscape (http://www.inkscape.org/) -->
<svg
   xmlns:dc="http://purl.org/dc/elements/1.1/"
   xmlns:cc="http://creativecommons.org/ns#"
   xmlns:rdf="http://www.w3.org/1999/02/22-rdf-syntax-ns#"
   xmlns:svg="http://www.w3.org/2000/svg"
   xmlns="http://www.w3.org/2000/svg"
   xmlns:xlink="http://www.w3.org/1999/xlink"
   xmlns:sodipodi="http://sodipodi.sourceforge.net/DTD/sodipodi-0.dtd"
   xmlns:inkscape="http://www.inkscape.org/namespaces/inkscape"
   version="1.0"
   width="455.07965"
   height="220.24754"
   viewBox="0 0 28.676 13.856"
   id="Layer_1"
   xml:space="preserve"
   sodipodi:version="0.32"
   inkscape:version="0.46"
   sodipodi:docname="FIN-everstiluutnantti.svg"
   inkscape:output_extension="org.inkscape.output.svg.inkscape"><metadata
   id="metadata45"><rdf:RDF><cc:Work
       rdf:about=""><dc:format>image/svg+xml</dc:format><dc:type
         rdf:resource="http://purl.org/dc/dcmitype/StillImage" /></cc:Work></rdf:RDF></metadata><sodipodi:namedview
   inkscape:window-height="845"
   inkscape:window-width="1122"
   inkscape:pageshadow="2"
   inkscape:pageopacity="0.0"
   guidetolerance="10.0"
   gridtolerance="10.0"
   objecttolerance="10.0"
   borderopacity="1.0"
   bordercolor="#666666"
   pagecolor="#ffffff"
   id="base"
   showgrid="false"
   inkscape:zoom="1.4459007"
   inkscape:cx="227.53983"
   inkscape:cy="113.0995"
   inkscape:window-x="97"
   inkscape:window-y="37"
   inkscape:current-layer="g3185" /><defs
   id="defs82"><inkscape:perspective
     sodipodi:type="inkscape:persp3d"
     inkscape:vp_x="0 : 110.12377 : 1"
     inkscape:vp_y="0 : 1000 : 0"
     inkscape:vp_z="455.07965 : 110.12377 : 1"
     inkscape:persp3d-origin="227.53983 : 73.415848 : 1"
     id="perspective47" /><inkscape:perspective
     id="perspective73"
     inkscape:persp3d-origin="225.78667 : 73.379471 : 1"
     inkscape:vp_z="451.57333 : 110.06921 : 1"
     inkscape:vp_y="0 : 1000 : 0"
     inkscape:vp_x="0 : 110.06921 : 1"
     sodipodi:type="inkscape:persp3d" /></defs>
<path
   d="M 28.5785,0.023254697 L 5.6475,0.9072547 L 0.034499999,13.802255 L 27.5515,11.592255 C 27.5515,11.592255 25.6555,8.7922547 27.9475,5.9912547 C 27.9475,5.9922547 26.5225,2.4552547 28.5785,0.023254697 z "
   style="fill:#33725b"
   id="path3" />
<path
   d="M 28.5785,0.023254697 L 5.6475,0.9072547 L 0.034499999,13.802255 L 27.5515,11.592255 C 27.5515,11.592255 25.6555,8.7922547 27.9475,5.9912547 C 27.9475,5.9922547 26.5225,2.4552547 28.5785,0.023254697 z "
   style="fill:none;stroke:#33725b;stroke-width:0.069;stroke-miterlimit:3.86400008"
   id="path5" />
<path
   d="M 26.8405,1.0542547 L 6.3605,1.9392547 L 1.7745,12.698255 L 25.9705,10.929255 C 25.9705,10.929255 25.1795,7.2442547 26.8405,6.0652547 C 26.8405,6.0652547 25.5195,2.8022547 26.8405,1.0542547"
   style="fill:white"
   id="path7" />
<path
   d="M 25.8055,1.6962547 L 6.9535,2.6602547 L 3.0255,11.870255 L 24.7855,10.174255 C 24.7855,10.174255 24.3935,7.2492547 26.0555,5.9972547 C 26.0555,5.9972547 24.3945,3.5502547 25.8055,1.6962547 z "
   style="fill:#33725b"
   id="path9" />
<path
   d="M 25.8055,1.6962547 L 6.9535,2.6602547 L 3.0255,11.870255 L 24.7855,10.174255 C 24.7855,10.174255 24.3935,7.2492547 26.0555,5.9972547 C 26.0555,5.9972547 24.3945,3.5502547 25.8055,1.6962547 z "
   style="fill:none;stroke:#33725b;stroke-width:0.069;stroke-miterlimit:3.86400008"
   id="path11" />
<path
   d="M 24.3025,2.6242547 L 7.5465,3.3392547 L 4.3045,11.002255 L 23.8345,9.4552547 C 23.8345,9.4552547 23.6775,7.0232547 25.0215,6.1392547 C 25.0215,6.1392547 23.5905,3.5072547 24.3025,2.6242547"
   style="fill:white"
   id="path13" />
<path
   d="M 23.3955,3.2662547 L 7.9415,4.0762547 L 5.3325,10.340255 L 23.1095,8.8542547 C 23.1095,8.8542547 23.2875,6.6232547 24.2695,6.1572547 C 24.2705,6.1572547 22.8615,4.0032547 23.3955,3.2662547 z "
   style="fill:#33725b"
   id="path15" />
<path
   d="M 23.3955,3.2662547 L 7.9415,4.0762547 L 5.3325,10.340255 L 23.1095,8.8542547 C 23.1095,8.8542547 23.2875,6.6232547 24.2695,6.1572547 C 24.2705,6.1572547 22.8615,4.0032547 23.3955,3.2662547 z "
   style="fill:none;stroke:#33725b;stroke-width:0.069;stroke-miterlimit:3.86400008"
   id="path17" />
<path
   d="M 6.5135,7.9032547 L 5.6595,10.090255 L 8.6445,9.8562547 L 8.4265,9.5672547 L 8.8635,9.2682547 L 8.0305,9.2892547 L 8.5305,8.8232547 L 10.3285,8.6842547 C 10.3285,8.6842547 9.9535,8.4272547 9.9955,8.4272547 C 10.0365,8.4272547 10.2455,8.0532547 10.2455,8.0532547 L 9.4365,8.1712547 L 10.6095,7.2842547 L 10.0055,7.2522547 L 10.1625,6.7612547 L 8.9885,7.4652547 L 9.1035,6.8352547 L 8.6965,7.1242547 L 8.5095,6.8682547 L 8.0405,8.1822547 L 6.8465,8.8862547 L 7.0965,7.8502547 L 6.6475,8.1822547 L 6.5135,7.9032547"
   style="fill:white;fill-rule:evenodd"
   id="path19" />
<polyline
   clip-rule="evenodd"
   points="9.499,4.266 8.057,4.308 7.636,5.292 7.866,5.209   8.017,5.583 8.263,4.878 8.945,5.64 9.047,5.243 9.499,5.292 9.024,4.588 9.752,4.531 9.499,4.266 "
   id="polyline21"
   style="fill:white;fill-rule:evenodd"
   transform="translate(-2.04999e-2,-1.47453e-2)" />





















<g
   id="g3185"
   transform="translate(-1.683383,14.589878)"><g
     id="g21"
     transform="translate(-2.04995e-2,-1.753749e-2)">
	<defs
   id="defs23">
		<path
   id="path3205"
   d="M 20.456,6.471 C 20.456,6.149 20.717,5.886 21.039,5.886 C 21.361,5.886 21.622,6.149 21.622,6.471 C 21.622,6.792 21.361,7.053 21.039,7.053 C 20.717,7.053 20.456,6.792 20.456,6.471" />
	</defs>
	<clipPath
   id="XMLID_5_">
		<path
   id="use27"
   d="M 15.704,6.457 C 15.704,6.103 15.992,5.815 16.348,5.815 C 16.702,5.815 16.991,6.102 16.991,6.457 C 16.991,6.812 16.703,7.101 16.348,7.101 C 15.992,7.101 15.704,6.813 15.704,6.457" />
	</clipPath>
	<path
   id="path3209"
   clip-path="url(#XMLID_5_)"
   style="fill:#ffd200"
   d="M 21.621,6.471 L 21.621,6.471 C 21.621,6.792 21.36,7.053 21.038,7.053 C 20.716,7.053 20.455,6.792 20.455,6.471 C 20.455,6.149 20.716,5.889 21.038,5.889 C 21.36,5.889 21.621,6.148 21.621,6.471 M 21.794,6.497 C 21.794,6.083 21.459,5.748 21.045,5.748 C 20.631,5.748 20.296,6.083 20.296,6.497 C 20.296,6.911 20.631,7.246 21.045,7.246 C 21.459,7.246 21.794,6.911 21.794,6.497" />
	<path
   id="path31"
   clip-path="url(#XMLID_5_)"
   style="fill:#ffdb5d"
   d="M 21.455,6.471 L 21.455,6.471 C 21.455,6.7 21.268,6.887 21.038,6.887 C 20.809,6.887 20.622,6.7 20.622,6.471 C 20.622,6.242 20.809,6.055 21.038,6.055 C 21.269,6.055 21.455,6.241 21.455,6.471 M 21.628,6.467 C 21.628,6.145 21.367,5.884 21.045,5.884 C 20.723,5.884 20.462,6.145 20.462,6.467 C 20.462,6.789 20.723,7.05 21.045,7.05 C 21.367,7.05 21.628,6.789 21.628,6.467" />
	<path
   id="path33"
   clip-path="url(#XMLID_5_)"
   style="fill:#ffe693"
   d="M 21.288,6.471 L 21.288,6.471 C 21.288,6.608 21.176,6.721 21.038,6.721 C 20.9,6.721 20.788,6.608 20.788,6.471 C 20.788,6.333 20.9,6.221 21.038,6.221 C 21.176,6.221 21.288,6.333 21.288,6.471 M 21.431,6.467 C 21.431,6.237 21.245,6.051 21.015,6.051 C 20.786,6.051 20.599,6.237 20.599,6.467 C 20.599,6.697 20.786,6.883 21.015,6.883 C 21.245,6.883 21.431,6.697 21.431,6.467" />
	<path
   id="path35"
   clip-path="url(#XMLID_5_)"
   style="fill:#fff1c7"
   d="M 21.121,6.471 L 21.121,6.471 C 21.121,6.518 21.084,6.555 21.038,6.555 C 20.992,6.555 20.955,6.518 20.955,6.471 C 20.955,6.425 20.992,6.387 21.038,6.387 C 21.084,6.387 21.121,6.425 21.121,6.471 M 21.295,6.467 C 21.295,6.329 21.184,6.217 21.045,6.217 C 20.907,6.217 20.795,6.329 20.795,6.467 C 20.795,6.606 20.907,6.717 21.045,6.717 C 21.184,6.717 21.295,6.605 21.295,6.467" />
	<path
   id="path37"
   clip-path="url(#XMLID_5_)"
   style="fill:#ffffff"
   d="M 21.128,6.467 C 21.128,6.421 21.091,6.384 21.045,6.384 C 20.999,6.384 20.962,6.421 20.962,6.467 C 20.962,6.514 20.999,6.55 21.045,6.55 C 21.091,6.55 21.128,6.514 21.128,6.467" />
</g><g
     id="g79"
     transform="translate(-2.04995e-2,-1.753749e-2)">
	<defs
   id="defs81">
		<path
   id="path3244"
   d="M 12.736,6.771 C 12.736,6.45 12.998,6.189 13.32,6.189 C 13.642,6.189 13.903,6.45 13.903,6.771 C 13.903,7.093 13.642,7.355 13.32,7.355 C 12.998,7.355 12.736,7.094 12.736,6.771" />
	</defs>
	<clipPath
   id="XMLID_6_">
		<use
   xlink:href="#XMLID_3_"
   height="13.844"
   width="28.455999"
   y="0"
   x="0"
   id="use85" />
	</clipPath>
	<path
   id="path87"
   clip-path="url(#XMLID_6_)"
   style="fill:#ffd200"
   d="M 13.901,6.773 L 13.901,6.773 C 13.901,7.095 13.639,7.355 13.318,7.355 C 12.997,7.355 12.735,7.095 12.735,6.773 C 12.735,6.452 12.997,6.189 13.318,6.189 C 13.639,6.189 13.901,6.452 13.901,6.773 M 14.054,6.797 C 14.054,6.383 13.719,6.048 13.305,6.048 C 12.892,6.048 12.556,6.383 12.556,6.797 C 12.556,7.211 12.892,7.546 13.305,7.546 C 13.719,7.546 14.054,7.211 14.054,6.797" />
	<path
   id="path89"
   clip-path="url(#XMLID_6_)"
   style="fill:#ffdb5d"
   d="M 13.735,6.773 L 13.735,6.773 C 13.735,7.002 13.547,7.189 13.318,7.189 C 13.089,7.189 12.902,7.002 12.902,6.773 C 12.902,6.543 13.089,6.357 13.318,6.357 C 13.547,6.357 13.735,6.543 13.735,6.773 M 13.888,6.768 C 13.888,6.446 13.627,6.184 13.305,6.184 C 12.984,6.184 12.722,6.446 12.722,6.768 C 12.722,7.089 12.984,7.35 13.305,7.35 C 13.627,7.35 13.888,7.089 13.888,6.768" />
	<path
   id="path91"
   clip-path="url(#XMLID_6_)"
   style="fill:#ffe693"
   d="M 13.568,6.773 L 13.568,6.773 C 13.568,6.911 13.456,7.023 13.318,7.023 C 13.179,7.023 13.069,6.911 13.069,6.773 C 13.069,6.634 13.179,6.523 13.318,6.523 C 13.456,6.523 13.568,6.635 13.568,6.773 M 13.751,6.768 C 13.751,6.538 13.565,6.352 13.335,6.352 C 13.106,6.352 12.919,6.538 12.919,6.768 C 12.919,6.997 13.106,7.184 13.335,7.184 C 13.565,7.184 13.751,6.997 13.751,6.768" />
	<path
   id="path93"
   clip-path="url(#XMLID_6_)"
   style="fill:#fff1c7"
   d="M 13.402,6.773 L 13.402,6.773 C 13.402,6.818 13.364,6.857 13.318,6.857 C 13.272,6.857 13.235,6.818 13.235,6.773 C 13.235,6.726 13.272,6.689 13.318,6.689 C 13.364,6.689 13.402,6.727 13.402,6.773 M 13.585,6.768 C 13.585,6.629 13.473,6.518 13.335,6.518 C 13.197,6.518 13.085,6.629 13.085,6.768 C 13.085,6.905 13.197,7.018 13.335,7.018 C 13.473,7.018 13.585,6.904 13.585,6.768" />
	<path
   id="path95"
   clip-path="url(#XMLID_6_)"
   style="fill:#ffffff"
   d="M 13.388,6.768 C 13.388,6.721 13.352,6.684 13.305,6.684 C 13.259,6.684 13.222,6.721 13.222,6.768 C 13.222,6.813 13.259,6.85 13.305,6.85 C 13.352,6.85 13.388,6.813 13.388,6.768" />
</g><polygon
     id="polygon3270"
     style="fill:#ffd200"
     transform="translate(-5.5170832,-14.588505)"
     points="20.11,5.251 19.787,5.192 19.7,4.802 20.14,4.935 20.11,5.251 " /><polygon
     id="polygon3272"
     style="fill:none;stroke:#793f11;stroke-width:0.064;stroke-miterlimit:3.86400008"
     transform="translate(-5.5170832,-14.588505)"
     points="20.11,5.251 19.787,5.192 19.7,4.802 20.14,4.935 20.11,5.251 " /><path
     id="path3274"
     style="fill:#ffd200;fill-rule:evenodd"
     d="M 14.072916,-7.6905042 C 13.634916,-7.6905042 13.673916,-8.1695042 13.774916,-8.5755042 C 13.866916,-8.9495042 14.057916,-9.5755042 14.608916,-9.2995042 C 14.518916,-9.8265042 15.015916,-9.9555038 15.434916,-9.9555038 C 15.818916,-9.9555038 16.495916,-9.9405038 16.360916,-9.3385042 C 16.841916,-9.5705042 17.149916,-9.1225042 17.264916,-8.7195042 C 17.369916,-8.3515042 17.542916,-7.6955042 16.926916,-7.6595042 C 17.309916,-7.2865042 16.948916,-6.9255042 16.610916,-6.6785042 C 16.299916,-6.4535042 15.799916,-6.0865042 15.555916,-6.6525042 C 15.301916,-6.1825042 14.785916,-6.3865042 14.455916,-6.6445042 C 14.153916,-6.8805042 13.662916,-7.2525042 14.098916,-7.6915042 C 14.098916,-7.6905042 14.148916,-7.6905042 14.072916,-7.6905042 z" /><path
     id="path3276"
     style="fill:none;stroke:#793f11;stroke-width:0.064;stroke-miterlimit:3.86400008"
     d="M 14.072916,-7.6905042 C 13.634916,-7.6905042 13.673916,-8.1695042 13.774916,-8.5755042 C 13.866916,-8.9495042 14.057916,-9.5755042 14.608916,-9.2995042 C 14.518916,-9.8265042 15.015916,-9.9555038 15.434916,-9.9555038 C 15.818916,-9.9555038 16.495916,-9.9405038 16.360916,-9.3385042 C 16.841916,-9.5705042 17.149916,-9.1225042 17.264916,-8.7195042 C 17.369916,-8.3515042 17.542916,-7.6955042 16.926916,-7.6595042 C 17.309916,-7.2865042 16.948916,-6.9255042 16.610916,-6.6785042 C 16.299916,-6.4535042 15.799916,-6.0865042 15.555916,-6.6525042 C 15.301916,-6.1825042 14.785916,-6.3865042 14.455916,-6.6445042 C 14.153916,-6.8805042 13.662916,-7.2525042 14.098916,-7.6915042 C 14.098916,-7.6905042 14.148916,-7.6905042 14.072916,-7.6905042 z" /><path
     id="path3278"
     style="fill:none;stroke:#793f11;stroke-width:0.064;stroke-miterlimit:3.86400008"
     d="M 15.671916,-6.8655042 L 15.426916,-6.8705042 C 15.361916,-6.8615042 15.362916,-6.6765042 15.263916,-6.6095042 C 15.041916,-6.4585042 14.901916,-6.8225042 14.668916,-6.9555042 C 14.482916,-7.0605042 14.296916,-7.0895042 14.190916,-7.2235042 C 14.088916,-7.3545042 14.259916,-7.4535042 14.377916,-7.5735042 L 14.355916,-7.8135042 C 14.326916,-7.8735042 14.151916,-7.8115042 14.055916,-7.8835042 C 13.840916,-8.0435042 14.139916,-8.2945042 14.188916,-8.5595042 C 14.228916,-8.7685042 14.194916,-8.9545042 14.286916,-9.0965042 C 14.378916,-9.2355042 14.535916,-9.0965042 14.686916,-9.0255042 L 14.823916,-9.1625042 C 14.874916,-9.2055042 14.768916,-9.3585042 14.812916,-9.4705042 C 14.912916,-9.7195042 15.232916,-9.4955042 15.500916,-9.5155042 C 15.712916,-9.5315042 15.883916,-9.6125042 16.044916,-9.5605042 C 16.201916,-9.5095042 16.125916,-9.3205042 16.095916,-9.1565042 M 16.725916,-7.8785042 L 16.656916,-7.6545042 C 16.645916,-7.5905042 16.822916,-7.5375042 16.858916,-7.4225042 C 16.937916,-7.1655042 16.548916,-7.1385042 16.352916,-6.9545042 C 16.197916,-6.8085042 16.116916,-6.6385042 15.957916,-6.5775042 C 15.803916,-6.5175042 15.734916,-6.7365042 15.654916,-6.8835042 M 16.096916,-9.1915042 L 16.311916,-9.0325042 M 16.288916,-9.0425042 C 16.346916,-9.0085042 16.469916,-9.1865042 16.601916,-9.1795042 C 16.870916,-9.1665042 16.755916,-8.7885042 16.857916,-8.5405042 C 16.938916,-8.3435042 17.068916,-8.2055042 17.068916,-8.0365042 C 17.068916,-7.8705042 16.865916,-7.8855042 16.699916,-7.8615042 M 15.111916,-7.7345042 L 15.069916,-7.5025042 L 15.302916,-7.6005042 M 14.949916,-8.1565042 L 14.753916,-8.3405042 L 15.018916,-8.3605042 M 15.378916,-8.6795042 L 15.524916,-8.9275042 L 15.664916,-8.6725042 M 15.961916,-7.7745042 L 16.016916,-7.4975042 L 15.762916,-7.6085042 M 16.025916,-8.3825042 L 16.277916,-8.3455042 L 16.104916,-8.1605042 M 14.938916,-8.1175042 C 14.938916,-8.4395042 15.199916,-8.7025042 15.521916,-8.7025042 C 15.843916,-8.7025042 16.104916,-8.4395042 16.104916,-8.1175042 C 16.104916,-7.7965042 15.843916,-7.5355042 15.521916,-7.5355042 C 15.199916,-7.5355042 14.938916,-7.7965042 14.938916,-8.1175042 z" /><polygon
     id="polygon3280"
     style="fill:#ffd200;fill-rule:evenodd"
     transform="translate(-5.5170832,-14.588505)"
     points="21.915,5.221 21.878,4.912 22.243,4.727 22.243,5.16 21.915,5.221 " /><polygon
     id="polygon3282"
     style="fill:none;stroke:#793f11;stroke-width:0.064;stroke-miterlimit:3.86400008"
     transform="translate(-5.5170832,-14.588505)"
     points="21.915,5.221 21.878,4.912 22.243,4.727 22.243,5.16 21.915,5.221 " /><polygon
     id="polygon3284"
     style="fill:#ffd200"
     transform="translate(-5.5170832,-14.588505)"
     points="19.59,6.913 19.425,7.252 18.996,7.154 19.274,6.814 19.59,6.913 " /><polygon
     id="polygon3286"
     style="fill:none;stroke:#793f11;stroke-width:0.064;stroke-miterlimit:3.86400008"
     transform="translate(-5.5170832,-14.588505)"
     points="19.59,6.913 19.425,7.252 18.996,7.154 19.274,6.814 19.59,6.913 " /><polygon
     id="polygon3288"
     style="fill:#ffd200"
     transform="translate(-5.5170832,-14.588505)"
     points="22.502,6.966 22.796,6.85 23.035,7.169 22.651,7.23 22.502,6.966 " /><polygon
     id="polygon3290"
     style="fill:none;stroke:#793f11;stroke-width:0.064;stroke-miterlimit:3.86400008"
     transform="translate(-5.5170832,-14.588505)"
     points="22.502,6.966 22.796,6.85 23.035,7.169 22.651,7.23 22.502,6.966 " /><polygon
     id="polygon3292"
     style="fill:#ffd200"
     transform="translate(-5.5170832,-14.588505)"
     points="21.089,7.988 21.286,8.223 21.092,8.63 20.865,8.2 21.089,7.988 " /><polygon
     id="polygon3294"
     style="fill:none;stroke:#793f11;stroke-width:0.064;stroke-miterlimit:3.86400008"
     transform="translate(-5.5170832,-14.588505)"
     points="21.089,7.988 21.286,8.223 21.092,8.63 20.865,8.2 21.089,7.988 " /><path
     id="path3296"
     style="fill:none;stroke:#793f11;stroke-width:0.064;stroke-miterlimit:3.86400008"
     d="M 14.606916,-9.2775042 C 14.605916,-9.2935042 14.601916,-9.2785042 14.599916,-9.2925042" /><polygon
     id="polygon3298"
     style="fill:#ffd200;fill-rule:evenodd"
     transform="translate(-5.5170832,-14.588505)"
     points="21.039,5.713 20.899,5.973 20.569,6.259 20.331,6.273 20.521,6.434 20.654,6.868 20.621,7.037 20.835,6.955 21.264,6.947 21.501,7.049 21.435,6.809 21.554,6.459 21.735,6.266 21.509,6.229 21.159,5.936 21.039,5.713 " /><polygon
     id="polygon3300"
     style="fill:none;stroke:#793f11;stroke-width:0.064;stroke-miterlimit:3.86400008"
     transform="translate(-5.5170832,-14.588505)"
     points="21.039,5.713 20.899,5.973 20.569,6.259 20.331,6.273 20.521,6.434 20.654,6.868 20.621,7.037 20.835,6.955 21.264,6.947 21.501,7.049 21.435,6.809 21.554,6.459 21.735,6.266 21.509,6.229 21.159,5.936 21.039,5.713 " /><circle
     id="circle3302"
     style="fill:#ffd200"
     transform="translate(-5.5170832,-14.588505)"
     r="0.56599998"
     cy="6.4749999"
     cx="21.033001"
     sodipodi:cx="21.033001"
     sodipodi:cy="6.4749999"
     sodipodi:rx="0.56599998"
     sodipodi:ry="0.56599998" /><circle
     id="circle3304"
     style="fill:none;stroke:#793f11;stroke-width:0.064;stroke-miterlimit:3.86400008"
     transform="translate(-5.5170832,-14.588505)"
     r="0.56599998"
     cy="6.4749999"
     cx="21.033001"
     sodipodi:cx="21.033001"
     sodipodi:cy="6.4749999"
     sodipodi:rx="0.56599998"
     sodipodi:ry="0.56599998" /><circle
     id="circle3306"
     style="fill:#ffd200"
     transform="translate(-5.5170832,-14.588505)"
     r="0.338"
     cy="6.4770002"
     cx="21.037001"
     sodipodi:cx="21.037001"
     sodipodi:cy="6.4770002"
     sodipodi:rx="0.338"
     sodipodi:ry="0.338" /><circle
     id="circle3308"
     style="fill:none;stroke:#793f11;stroke-width:0.064;stroke-miterlimit:3.86400008"
     transform="translate(-5.5170832,-14.588505)"
     r="0.338"
     cy="6.4770002"
     cx="21.037001"
     sodipodi:cx="21.037001"
     sodipodi:cy="6.4770002"
     sodipodi:rx="0.338"
     sodipodi:ry="0.338" /><polygon
     id="polygon3354"
     style="fill:#ffd200"
     transform="translate(-6.9515288e-2,-14.937148)"
     points="20.11,5.251 19.787,5.192 19.7,4.802 20.14,4.935 20.11,5.251 " /><polygon
     id="polygon3356"
     style="fill:none;stroke:#793f11;stroke-width:0.064;stroke-miterlimit:3.86400008"
     transform="translate(-6.9515288e-2,-14.937148)"
     points="20.11,5.251 19.787,5.192 19.7,4.802 20.14,4.935 20.11,5.251 " /><path
     id="path3358"
     style="fill:#ffd200;fill-rule:evenodd"
     d="M 19.520484,-8.0391491 C 19.082484,-8.0391491 19.121484,-8.5181491 19.222484,-8.9241491 C 19.314484,-9.2981491 19.505484,-9.9241491 20.056484,-9.6481491 C 19.966484,-10.175149 20.463484,-10.304148 20.882484,-10.304148 C 21.266484,-10.304148 21.943484,-10.289148 21.808484,-9.6871491 C 22.289484,-9.9191491 22.597484,-9.4711491 22.712484,-9.0681491 C 22.817484,-8.7001491 22.990484,-8.0441491 22.374484,-8.0081491 C 22.757484,-7.6351491 22.396484,-7.2741491 22.058484,-7.0271491 C 21.747484,-6.8021491 21.247484,-6.4351491 21.003484,-7.0011491 C 20.749484,-6.5311491 20.233484,-6.7351491 19.903484,-6.9931491 C 19.601484,-7.2291491 19.110484,-7.6011491 19.546484,-8.0401491 C 19.546484,-8.0391491 19.596484,-8.0391491 19.520484,-8.0391491 z" /><path
     id="path3360"
     style="fill:none;stroke:#793f11;stroke-width:0.064;stroke-miterlimit:3.86400008"
     d="M 19.520484,-8.0391491 C 19.082484,-8.0391491 19.121484,-8.5181491 19.222484,-8.9241491 C 19.314484,-9.2981491 19.505484,-9.9241491 20.056484,-9.6481491 C 19.966484,-10.175149 20.463484,-10.304148 20.882484,-10.304148 C 21.266484,-10.304148 21.943484,-10.289148 21.808484,-9.6871491 C 22.289484,-9.9191491 22.597484,-9.4711491 22.712484,-9.0681491 C 22.817484,-8.7001491 22.990484,-8.0441491 22.374484,-8.0081491 C 22.757484,-7.6351491 22.396484,-7.2741491 22.058484,-7.0271491 C 21.747484,-6.8021491 21.247484,-6.4351491 21.003484,-7.0011491 C 20.749484,-6.5311491 20.233484,-6.7351491 19.903484,-6.9931491 C 19.601484,-7.2291491 19.110484,-7.6011491 19.546484,-8.0401491 C 19.546484,-8.0391491 19.596484,-8.0391491 19.520484,-8.0391491 z" /><path
     id="path3362"
     style="fill:none;stroke:#793f11;stroke-width:0.064;stroke-miterlimit:3.86400008"
     d="M 21.119484,-7.2141491 L 20.874484,-7.2191491 C 20.809484,-7.2101491 20.810484,-7.0251491 20.711484,-6.9581491 C 20.489484,-6.8071491 20.349484,-7.1711491 20.116484,-7.3041491 C 19.930484,-7.4091491 19.744484,-7.4381491 19.638484,-7.5721491 C 19.536484,-7.7031491 19.707484,-7.8021491 19.825484,-7.9221491 L 19.803484,-8.1621491 C 19.774484,-8.2221491 19.599484,-8.1601491 19.503484,-8.2321491 C 19.288484,-8.3921491 19.587484,-8.6431491 19.636484,-8.9081491 C 19.676484,-9.1171491 19.642484,-9.3031491 19.734484,-9.4451491 C 19.826484,-9.5841491 19.983484,-9.4451491 20.134484,-9.3741491 L 20.271484,-9.5111491 C 20.322484,-9.5541491 20.216484,-9.7071491 20.260484,-9.8191491 C 20.360484,-10.068149 20.680484,-9.8441491 20.948484,-9.8641491 C 21.160484,-9.8801491 21.331484,-9.9611491 21.492484,-9.9091491 C 21.649484,-9.8581491 21.573484,-9.6691491 21.543484,-9.5051491 M 22.173484,-8.2271491 L 22.104484,-8.0031491 C 22.093484,-7.9391491 22.270484,-7.8861491 22.306484,-7.7711491 C 22.385484,-7.5141491 21.996484,-7.4871491 21.800484,-7.3031491 C 21.645484,-7.1571491 21.564484,-6.9871491 21.405484,-6.9261491 C 21.251484,-6.8661491 21.182484,-7.0851491 21.102484,-7.2321491 M 21.544484,-9.5401491 L 21.759484,-9.3811491 M 21.736484,-9.3911491 C 21.794484,-9.3571491 21.917484,-9.5351491 22.049484,-9.5281491 C 22.318484,-9.5151491 22.203484,-9.1371491 22.305484,-8.8891491 C 22.386484,-8.6921491 22.516484,-8.5541491 22.516484,-8.3851491 C 22.516484,-8.2191491 22.313484,-8.2341491 22.147484,-8.2101491 M 20.559484,-8.0831491 L 20.517484,-7.8511491 L 20.750484,-7.9491491 M 20.397484,-8.5051491 L 20.201484,-8.6891491 L 20.466484,-8.7091491 M 20.826484,-9.0281491 L 20.972484,-9.2761491 L 21.112484,-9.0211491 M 21.409484,-8.1231491 L 21.464484,-7.8461491 L 21.210484,-7.9571491 M 21.473484,-8.7311491 L 21.725484,-8.6941491 L 21.552484,-8.5091491 M 20.386484,-8.4661491 C 20.386484,-8.7881491 20.647484,-9.0511491 20.969484,-9.0511491 C 21.291484,-9.0511491 21.552484,-8.7881491 21.552484,-8.4661491 C 21.552484,-8.1451491 21.291484,-7.8841491 20.969484,-7.8841491 C 20.647484,-7.8841491 20.386484,-8.1451491 20.386484,-8.4661491 z" /><polygon
     id="polygon3364"
     style="fill:#ffd200;fill-rule:evenodd"
     transform="translate(-6.9515288e-2,-14.937148)"
     points="21.915,5.221 21.878,4.912 22.243,4.727 22.243,5.16 21.915,5.221 " /><polygon
     id="polygon3366"
     style="fill:none;stroke:#793f11;stroke-width:0.064;stroke-miterlimit:3.86400008"
     transform="translate(-6.9515288e-2,-14.937148)"
     points="21.915,5.221 21.878,4.912 22.243,4.727 22.243,5.16 21.915,5.221 " /><polygon
     id="polygon3368"
     style="fill:#ffd200"
     transform="translate(-6.9515288e-2,-14.937148)"
     points="19.59,6.913 19.425,7.252 18.996,7.154 19.274,6.814 19.59,6.913 " /><polygon
     id="polygon3370"
     style="fill:none;stroke:#793f11;stroke-width:0.064;stroke-miterlimit:3.86400008"
     transform="translate(-6.9515288e-2,-14.937148)"
     points="19.59,6.913 19.425,7.252 18.996,7.154 19.274,6.814 19.59,6.913 " /><polygon
     id="polygon3372"
     style="fill:#ffd200"
     transform="translate(-6.9515288e-2,-14.937148)"
     points="22.502,6.966 22.796,6.85 23.035,7.169 22.651,7.23 22.502,6.966 " /><polygon
     id="polygon3374"
     style="fill:none;stroke:#793f11;stroke-width:0.064;stroke-miterlimit:3.86400008"
     transform="translate(-6.9515288e-2,-14.937148)"
     points="22.502,6.966 22.796,6.85 23.035,7.169 22.651,7.23 22.502,6.966 " /><polygon
     id="polygon3376"
     style="fill:#ffd200"
     transform="translate(-6.9515288e-2,-14.937148)"
     points="21.089,7.988 21.286,8.223 21.092,8.63 20.865,8.2 21.089,7.988 " /><polygon
     id="polygon3378"
     style="fill:none;stroke:#793f11;stroke-width:0.064;stroke-miterlimit:3.86400008"
     transform="translate(-6.9515288e-2,-14.937148)"
     points="21.089,7.988 21.286,8.223 21.092,8.63 20.865,8.2 21.089,7.988 " /><path
     id="path3380"
     style="fill:none;stroke:#793f11;stroke-width:0.064;stroke-miterlimit:3.86400008"
     d="M 20.054484,-9.6261491 C 20.053484,-9.6421491 20.049484,-9.6271491 20.047484,-9.6411491" /><polygon
     id="polygon3382"
     style="fill:#ffd200;fill-rule:evenodd"
     transform="translate(-6.9515288e-2,-14.937148)"
     points="21.039,5.713 20.899,5.973 20.569,6.259 20.331,6.273 20.521,6.434 20.654,6.868 20.621,7.037 20.835,6.955 21.264,6.947 21.501,7.049 21.435,6.809 21.554,6.459 21.735,6.266 21.509,6.229 21.159,5.936 21.039,5.713 " /><polygon
     id="polygon3384"
     style="fill:none;stroke:#793f11;stroke-width:0.064;stroke-miterlimit:3.86400008"
     transform="translate(-6.9515288e-2,-14.937148)"
     points="21.039,5.713 20.899,5.973 20.569,6.259 20.331,6.273 20.521,6.434 20.654,6.868 20.621,7.037 20.835,6.955 21.264,6.947 21.501,7.049 21.435,6.809 21.554,6.459 21.735,6.266 21.509,6.229 21.159,5.936 21.039,5.713 " /><circle
     id="circle3386"
     style="fill:#ffd200"
     transform="translate(-6.9515288e-2,-14.937148)"
     r="0.56599998"
     cy="6.4749999"
     cx="21.033001"
     sodipodi:cx="21.033001"
     sodipodi:cy="6.4749999"
     sodipodi:rx="0.56599998"
     sodipodi:ry="0.56599998" /><circle
     id="circle3388"
     style="fill:none;stroke:#793f11;stroke-width:0.064;stroke-miterlimit:3.86400008"
     transform="translate(-6.9515288e-2,-14.937148)"
     r="0.56599998"
     cy="6.4749999"
     cx="21.033001"
     sodipodi:cx="21.033001"
     sodipodi:cy="6.4749999"
     sodipodi:rx="0.56599998"
     sodipodi:ry="0.56599998" /><circle
     id="circle3390"
     style="fill:#ffd200"
     transform="translate(-6.9515288e-2,-14.937148)"
     r="0.338"
     cy="6.4770002"
     cx="21.037001"
     sodipodi:cx="21.037001"
     sodipodi:cy="6.4770002"
     sodipodi:rx="0.338"
     sodipodi:ry="0.338" /><circle
     id="circle3392"
     style="fill:none;stroke:#793f11;stroke-width:0.064;stroke-miterlimit:3.86400008"
     transform="translate(-6.9515288e-2,-14.937148)"
     r="0.338"
     cy="6.4770002"
     cx="21.037001"
     sodipodi:cx="21.037001"
     sodipodi:cy="6.4770002"
     sodipodi:rx="0.338"
     sodipodi:ry="0.338" /></g></svg>