<?xml version="1.0" encoding="UTF-8" standalone="no"?>
<!-- Created with Inkscape (http://www.inkscape.org/) -->
<svg
   xmlns:svg="http://www.w3.org/2000/svg"
   xmlns="http://www.w3.org/2000/svg"
   xmlns:xlink="http://www.w3.org/1999/xlink"
   version="1.0"
   width="507.21765"
   height="212.80365"
   viewBox="0 0 29.514 12.358"
   id="Layer_1"
   xml:space="preserve"><defs
   id="defs190" />
<path
   d="M 29.4065,0.022186218 L 5.0105002,0.87218622 L 0.034499999,12.305186 L 28.0275,10.716186 C 28.0275,10.716186 26.2145,8.3051862 28.5845,5.4231862 C 28.5845,5.4231862 26.8945,2.4811862 29.4065,0.022186218 z "
   style="fill:#35735c;fill-rule:evenodd"
   id="path3" />
<path
   d="M 29.4065,0.022186218 L 5.0105002,0.87218622 L 0.034499999,12.305186 L 28.0275,10.716186 C 28.0275,10.716186 26.2145,8.3051862 28.5845,5.4231862 C 28.5845,5.4231862 26.8945,2.4811862 29.4065,0.022186218 z "
   style="fill:none;stroke:#35735c;stroke-width:0.069;stroke-miterlimit:3.86400008"
   id="path5" />
<path
   d="M 28.0685,0.79918622 L 5.6705002,1.6031862 L 1.3715,11.528186 L 27.0605,10.087186 C 27.0605,10.087186 25.6625,7.7781862 27.7595,5.2271862 C 27.7595,5.2261862 26.3185,2.4691862 28.0685,0.79918622"
   style="fill:white;fill-rule:evenodd"
   id="path7" />
<path
   d="M 27.0805,1.4911862 L 6.2095002,2.1721862 L 2.4755002,10.792186 L 26.0905,9.4811862 C 26.0905,9.4811862 25.1355,7.4541862 26.9565,5.2381862 C 26.9575,5.2381862 25.7195,3.0551862 27.0805,1.4911862 z "
   style="fill:#35735c;fill-rule:evenodd"
   id="path9" />
<path
   d="M 27.0805,1.4911862 L 6.2095002,2.1721862 L 2.4755002,10.792186 L 26.0905,9.4811862 C 26.0905,9.4811862 25.1355,7.4541862 26.9565,5.2381862 C 26.9575,5.2381862 25.7195,3.0551862 27.0805,1.4911862 z "
   style="fill:none;stroke:#35735c;stroke-width:0.069;stroke-miterlimit:3.86400008"
   id="path11" />
<polygon
   points="21.725,4.212 21.403,4.153 21.315,3.763 21.756,3.896 21.725,4.212 "
   transform="translate(-1.9496e-2,-1.581354e-2)"
   style="fill:#fdd108"
   id="polygon13" />
<polygon
   points="21.725,4.212 21.403,4.153 21.315,3.763 21.756,3.896 21.725,4.212 "
   transform="translate(-1.9496e-2,-1.581354e-2)"
   style="fill:none;stroke:#79411b;stroke-width:0.064;stroke-miterlimit:3.86400008"
   id="polygon15" />
<path
   d="M 21.1865,5.8431862 C 20.7485,5.8441862 20.7875,5.3641862 20.8875,4.9571862 C 20.9805,4.5861862 21.1715,3.9591862 21.7225,4.2351862 C 21.6325,3.7081862 22.1295,3.5791862 22.5485,3.5791862 C 22.9325,3.5791862 23.6095,3.5941862 23.4735,4.1961862 C 23.9545,3.9641862 24.2625,4.4121862 24.3785,4.8151862 C 24.4835,5.1841862 24.6555,5.8391862 24.0405,5.8751862 C 24.4225,6.2481862 24.0615,6.6091862 23.7235,6.8551862 C 23.4135,7.0821862 22.9115,7.4471862 22.6685,6.8811862 C 22.4155,7.3511862 21.8995,7.1481862 21.5695,6.8891862 C 21.2665,6.6541862 20.7765,6.2811862 21.2115,5.8421862 C 21.2115,5.8431862 21.2615,5.8431862 21.1865,5.8431862 z "
   style="fill:#fdd108;fill-rule:evenodd"
   id="path17" />
<path
   d="M 21.1865,5.8431862 C 20.7485,5.8441862 20.7875,5.3641862 20.8875,4.9571862 C 20.9805,4.5861862 21.1715,3.9591862 21.7225,4.2351862 C 21.6325,3.7081862 22.1295,3.5791862 22.5485,3.5791862 C 22.9325,3.5791862 23.6095,3.5941862 23.4735,4.1961862 C 23.9545,3.9641862 24.2625,4.4121862 24.3785,4.8151862 C 24.4835,5.1841862 24.6555,5.8391862 24.0405,5.8751862 C 24.4225,6.2481862 24.0615,6.6091862 23.7235,6.8551862 C 23.4135,7.0821862 22.9115,7.4471862 22.6685,6.8811862 C 22.4155,7.3511862 21.8995,7.1481862 21.5695,6.8891862 C 21.2665,6.6541862 20.7765,6.2811862 21.2115,5.8421862 C 21.2115,5.8431862 21.2615,5.8431862 21.1865,5.8431862 z "
   style="fill:none;stroke:#79411b;stroke-width:0.064;stroke-miterlimit:3.86400008"
   id="path19" />
<g
   transform="translate(-1.9496e-2,-1.581354e-2)"
   id="g21">
	<defs
   id="defs23">
		<path
   d="M 22.071,5.432 C 22.071,5.11 22.332,4.849 22.654,4.849 C 22.976,4.849 23.238,5.11 23.238,5.432 C 23.238,5.754 22.976,6.015 22.654,6.015 C 22.332,6.015 22.071,5.753 22.071,5.432"
   id="XMLID_1_" />
	</defs>
	<clipPath
   id="XMLID_7_">
		<use
   id="use27"
   x="0"
   y="0"
   width="29.514"
   height="12.358"
   xlink:href="#XMLID_1_" />
	</clipPath>
	<path
   d="M 23.241,5.435 L 23.241,5.435 C 23.241,5.757 22.98,6.018 22.658,6.018 C 22.336,6.018 22.075,5.757 22.075,5.435 C 22.075,5.113 22.336,4.852 22.658,4.852 C 22.98,4.852 23.241,5.112 23.241,5.435 M 23.434,5.456 C 23.434,5.042 23.098,4.707 22.684,4.707 C 22.27,4.707 21.934,5.042 21.934,5.456 C 21.934,5.87 22.27,6.205 22.684,6.205 C 23.098,6.205 23.434,5.869 23.434,5.456"
   style="fill:#fdd108"
   clip-path="url(#XMLID_7_)"
   id="path29" />
	<path
   d="M 23.074,5.435 L 23.074,5.435 C 23.074,5.665 22.888,5.851 22.658,5.851 C 22.428,5.851 22.241,5.665 22.241,5.435 C 22.241,5.205 22.428,5.019 22.658,5.019 C 22.888,5.019 23.074,5.205 23.074,5.435 M 23.236,5.425 C 23.236,5.103 22.974,4.842 22.653,4.842 C 22.331,4.842 22.07,5.103 22.07,5.425 C 22.07,5.747 22.331,6.008 22.653,6.008 C 22.975,6.008 23.236,5.748 23.236,5.425"
   style="fill:#ffdb5f"
   clip-path="url(#XMLID_7_)"
   id="path31" />
	<path
   d="M 22.908,5.435 L 22.908,5.435 C 22.908,5.573 22.797,5.685 22.658,5.685 C 22.52,5.685 22.408,5.573 22.408,5.435 C 22.408,5.297 22.52,5.185 22.658,5.185 C 22.797,5.185 22.908,5.296 22.908,5.435 M 23.069,5.425 C 23.069,5.195 22.882,5.009 22.653,5.009 C 22.424,5.009 22.237,5.195 22.237,5.425 C 22.237,5.655 22.424,5.841 22.653,5.841 C 22.882,5.841 23.069,5.655 23.069,5.425"
   style="fill:#ffe593"
   clip-path="url(#XMLID_7_)"
   id="path33" />
	<path
   d="M 22.741,5.435 L 22.741,5.435 C 22.741,5.481 22.704,5.518 22.658,5.518 C 22.612,5.518 22.575,5.481 22.575,5.435 C 22.575,5.389 22.612,5.352 22.658,5.352 C 22.704,5.352 22.741,5.388 22.741,5.435 M 22.903,5.425 C 22.903,5.287 22.791,5.175 22.653,5.175 C 22.515,5.175 22.403,5.287 22.403,5.425 C 22.403,5.563 22.515,5.675 22.653,5.675 C 22.791,5.675 22.903,5.563 22.903,5.425"
   style="fill:#fff1c8"
   clip-path="url(#XMLID_7_)"
   id="path35" />
	<path
   d="M 22.736,5.456 C 22.736,5.41 22.699,5.373 22.653,5.373 C 22.607,5.373 22.57,5.409 22.57,5.456 C 22.57,5.502 22.607,5.539 22.653,5.539 C 22.699,5.539 22.736,5.501 22.736,5.456"
   style="fill:white"
   clip-path="url(#XMLID_7_)"
   id="path37" />
</g>
<path
   d="M 22.7855,6.6681862 L 22.5415,6.6631862 C 22.4765,6.6721862 22.4775,6.8581862 22.3785,6.9251862 C 22.1545,7.0751862 22.0165,6.7121862 21.7815,6.5791862 C 21.5965,6.4731862 21.4105,6.4441862 21.3055,6.3101862 C 21.2025,6.1801862 21.3745,6.0801862 21.4925,5.9601862 L 21.4705,5.7201862 C 21.4425,5.6611862 21.2665,5.7231862 21.1695,5.6511862 C 20.9535,5.4901862 21.2535,5.2391862 21.3035,4.9751862 C 21.3435,4.7651862 21.3095,4.5801862 21.4015,4.4371862 C 21.4915,4.2991862 21.6515,4.4371862 21.8015,4.5081862 L 21.9385,4.3711862 C 21.9875,4.3281862 21.8825,4.1751862 21.9275,4.0641862 C 22.0285,3.8141862 22.3465,4.0381862 22.6155,4.0181862 C 22.8265,4.0021862 22.9985,3.9211862 23.1585,3.9731862 C 23.3165,4.0251862 23.2385,4.2131862 23.2105,4.3771862 M 23.8385,5.6551862 L 23.7695,5.8781862 C 23.7585,5.9431862 23.9365,5.9961862 23.9725,6.1111862 C 24.0515,6.3671862 23.6615,6.3951862 23.4665,6.5781862 C 23.3115,6.7241862 23.2305,6.8941862 23.0715,6.9551862 C 22.9175,7.0161862 22.8485,6.7961862 22.7675,6.6501862 M 23.2105,4.3431862 L 23.4245,4.5001862 M 23.4025,4.4911862 C 23.4595,4.5251862 23.5825,4.3471862 23.7155,4.3541862 C 23.9835,4.3671862 23.8695,4.7451862 23.9715,4.9931862 C 24.0525,5.1901862 24.1825,5.3281862 24.1825,5.4971862 C 24.1825,5.6631862 23.9785,5.6481862 23.8135,5.6701862 M 22.2245,5.7981862 L 22.1835,6.0321862 L 22.4165,5.9341862 M 22.0645,5.3781862 L 21.8655,5.1941862 L 22.1305,5.1741862 M 22.4925,4.8551862 L 22.6385,4.6071862 L 22.7775,4.8631862 M 23.0765,5.7611862 L 23.1315,6.0371862 L 22.8765,5.9261862 M 23.1395,5.1511862 L 23.3915,5.1881862 L 23.2185,5.3741862 M 22.0515,5.4161862 C 22.0515,5.0941862 22.3125,4.8331862 22.6345,4.8331862 C 22.9565,4.8331862 23.2185,5.0941862 23.2185,5.4161862 C 23.2185,5.7381862 22.9565,5.9991862 22.6345,5.9991862 C 22.3125,5.9991862 22.0515,5.7371862 22.0515,5.4161862 z "
   style="fill:none;stroke:#79411b;stroke-width:0.064;stroke-miterlimit:3.86400008"
   id="path39" />
<polygon
   points="23.531,4.183 23.493,3.874 23.859,3.688 23.859,4.122 23.531,4.183 "
   transform="translate(-1.9496e-2,-1.581354e-2)"
   style="fill:#fdd108;fill-rule:evenodd"
   id="polygon41" />
<polygon
   points="23.531,4.183 23.493,3.874 23.859,3.688 23.859,4.122 23.531,4.183 "
   transform="translate(-1.9496e-2,-1.581354e-2)"
   style="fill:none;stroke:#79411b;stroke-width:0.064;stroke-miterlimit:3.86400008"
   id="polygon43" />
<polygon
   points="21.206,5.875 21.041,6.214 20.612,6.115 20.891,5.777 21.206,5.875 "
   transform="translate(-1.9496e-2,-1.581354e-2)"
   style="fill:#fdd108"
   id="polygon45" />
<polygon
   points="21.206,5.875 21.041,6.214 20.612,6.115 20.891,5.777 21.206,5.875 "
   transform="translate(-1.9496e-2,-1.581354e-2)"
   style="fill:none;stroke:#79411b;stroke-width:0.064;stroke-miterlimit:3.86400008"
   id="polygon47" />
<polygon
   points="24.118,5.927 24.412,5.811 24.65,6.13 24.268,6.191 24.118,5.927 "
   transform="translate(-1.9496e-2,-1.581354e-2)"
   style="fill:#fdd108"
   id="polygon49" />
<polygon
   points="24.118,5.927 24.412,5.811 24.65,6.13 24.268,6.191 24.118,5.927 "
   transform="translate(-1.9496e-2,-1.581354e-2)"
   style="fill:none;stroke:#79411b;stroke-width:0.064;stroke-miterlimit:3.86400008"
   id="polygon51" />
<polygon
   points="22.705,6.95 22.902,7.185 22.709,7.591 22.481,7.161 22.705,6.95 "
   transform="translate(-1.9496e-2,-1.581354e-2)"
   style="fill:#fdd108"
   id="polygon53" />
<polygon
   points="22.705,6.95 22.902,7.185 22.709,7.591 22.481,7.161 22.705,6.95 "
   transform="translate(-1.9496e-2,-1.581354e-2)"
   style="fill:none;stroke:#79411b;stroke-width:0.064;stroke-miterlimit:3.86400008"
   id="polygon55" />
<path
   d="M 21.7205,4.2561862 C 21.7195,4.2401862 21.7155,4.2551862 21.7135,4.2411862"
   style="fill:none;stroke:#79411b;stroke-width:0.064;stroke-miterlimit:3.86400008"
   id="path57" />
<polygon
   points="22.654,4.675 22.516,4.935 22.184,5.22 21.947,5.234 22.135,5.396 22.271,5.83 22.237,6 22.451,5.917 22.881,5.908 23.117,6.01 23.049,5.77 23.17,5.42 23.352,5.228 23.125,5.19 22.775,4.896 22.654,4.675 "
   transform="translate(-1.9496e-2,-1.581354e-2)"
   style="fill:#fdd108;fill-rule:evenodd"
   id="polygon59" />
<polygon
   points="22.654,4.675 22.516,4.935 22.184,5.22 21.947,5.234 22.135,5.396 22.271,5.83 22.237,6 22.451,5.917 22.881,5.908 23.117,6.01 23.049,5.77 23.17,5.42 23.352,5.228 23.125,5.19 22.775,4.896 22.654,4.675 "
   transform="translate(-1.9496e-2,-1.581354e-2)"
   style="fill:none;stroke:#79411b;stroke-width:0.064;stroke-miterlimit:3.86400008"
   id="polygon61" />
<circle
   cx="22.649"
   cy="5.4359999"
   r="0.565"
   transform="translate(-1.9496e-2,-1.581354e-2)"
   style="fill:#fdd108"
   id="circle63" />
<circle
   cx="22.649"
   cy="5.4359999"
   r="0.565"
   transform="translate(-1.9496e-2,-1.581354e-2)"
   style="fill:none;stroke:#79411b;stroke-width:0.064;stroke-miterlimit:3.86400008"
   id="circle65" />
<circle
   cx="22.653"
   cy="5.4380002"
   r="0.338"
   transform="translate(-1.9496e-2,-1.581354e-2)"
   style="fill:#fdd108"
   id="circle67" />
<circle
   cx="22.653"
   cy="5.4380002"
   r="0.338"
   transform="translate(-1.9496e-2,-1.581354e-2)"
   style="fill:none;stroke:#79411b;stroke-width:0.064;stroke-miterlimit:3.86400008"
   id="circle69" />
<polygon
   points="16.477,4.449 16.154,4.391 16.067,4 16.508,4.133 16.477,4.449 "
   transform="translate(-1.9496e-2,-1.581354e-2)"
   style="fill:#fdd108"
   id="polygon71" />
<polygon
   points="16.477,4.449 16.154,4.391 16.067,4 16.508,4.133 16.477,4.449 "
   transform="translate(-1.9496e-2,-1.581354e-2)"
   style="fill:none;stroke:#79411b;stroke-width:0.064;stroke-miterlimit:3.86400008"
   id="polygon73" />
<path
   d="M 15.9375,6.0811862 C 15.4995,6.0811862 15.5375,5.6011862 15.6395,5.1951862 C 15.7325,4.8221862 15.9225,4.1951862 16.4735,4.4721862 C 16.3835,3.9461862 16.8805,3.8161862 17.2995,3.8161862 C 17.6835,3.8161862 18.3615,3.8311862 18.2255,4.4331862 C 18.7065,4.2011862 19.0135,4.6501862 19.1295,5.0531862 C 19.2355,5.4211862 19.4075,6.0761862 18.7915,6.1121862 C 19.1745,6.4851862 18.8135,6.8471862 18.4755,7.0931862 C 18.1635,7.3191862 17.6635,7.6851862 17.4205,7.1191862 C 17.1665,7.5901862 16.6515,7.3851862 16.3215,7.1271862 C 16.0185,6.8911862 15.5285,6.5191862 15.9625,6.0801862 C 15.9625,6.0801862 16.0135,6.0811862 15.9375,6.0811862 z "
   style="fill:#fdd108;fill-rule:evenodd"
   id="path75" />
<path
   d="M 15.9375,6.0811862 C 15.4995,6.0811862 15.5375,5.6011862 15.6395,5.1951862 C 15.7325,4.8221862 15.9225,4.1951862 16.4735,4.4721862 C 16.3835,3.9461862 16.8805,3.8161862 17.2995,3.8161862 C 17.6835,3.8161862 18.3615,3.8311862 18.2255,4.4331862 C 18.7065,4.2011862 19.0135,4.6501862 19.1295,5.0531862 C 19.2355,5.4211862 19.4075,6.0761862 18.7915,6.1121862 C 19.1745,6.4851862 18.8135,6.8471862 18.4755,7.0931862 C 18.1635,7.3191862 17.6635,7.6851862 17.4205,7.1191862 C 17.1665,7.5901862 16.6515,7.3851862 16.3215,7.1271862 C 16.0185,6.8911862 15.5285,6.5191862 15.9625,6.0801862 C 15.9625,6.0801862 16.0135,6.0811862 15.9375,6.0811862 z "
   style="fill:none;stroke:#79411b;stroke-width:0.064;stroke-miterlimit:3.86400008"
   id="path77" />
<g
   transform="translate(-1.9496e-2,-1.581354e-2)"
   id="g79">
	<defs
   id="defs81">
		<path
   d="M 16.823,5.668 C 16.823,5.346 17.084,5.085 17.406,5.085 C 17.728,5.085 17.989,5.346 17.989,5.668 C 17.989,5.99 17.728,6.251 17.406,6.251 C 17.084,6.251 16.823,5.99 16.823,5.668"
   id="XMLID_3_" />
	</defs>
	<clipPath
   id="XMLID_8_">
		<use
   id="use85"
   x="0"
   y="0"
   width="29.514"
   height="12.358"
   xlink:href="#XMLID_3_" />
	</clipPath>
	<path
   d="M 17.993,5.674 L 17.993,5.674 C 17.993,5.995 17.732,6.257 17.41,6.257 C 17.088,6.257 16.827,5.996 16.827,5.674 C 16.827,5.352 17.088,5.091 17.41,5.091 C 17.732,5.091 17.993,5.353 17.993,5.674 M 18.152,5.695 C 18.152,5.281 17.817,4.946 17.403,4.946 C 16.989,4.946 16.654,5.281 16.654,5.695 C 16.654,6.109 16.989,6.444 17.403,6.444 C 17.817,6.444 18.152,6.109 18.152,5.695"
   style="fill:#fdd108"
   clip-path="url(#XMLID_8_)"
   id="path87" />
	<path
   d="M 17.827,5.674 L 17.827,5.674 C 17.827,5.903 17.64,6.09 17.41,6.09 C 17.18,6.09 16.994,5.903 16.994,5.674 C 16.994,5.444 17.18,5.257 17.41,5.257 C 17.64,5.257 17.827,5.444 17.827,5.674 M 17.986,5.666 C 17.986,5.344 17.724,5.083 17.403,5.083 C 17.081,5.083 16.82,5.344 16.82,5.666 C 16.82,5.988 17.081,6.249 17.403,6.249 C 17.725,6.249 17.986,5.987 17.986,5.666"
   style="fill:#ffdb5f"
   clip-path="url(#XMLID_8_)"
   id="path89" />
	<path
   d="M 17.66,5.674 L 17.66,5.674 C 17.66,5.812 17.549,5.923 17.41,5.923 C 17.272,5.923 17.16,5.812 17.16,5.674 C 17.16,5.536 17.272,5.424 17.41,5.424 C 17.549,5.424 17.66,5.536 17.66,5.674 M 17.85,5.666 C 17.85,5.436 17.663,5.25 17.434,5.25 C 17.204,5.25 17.018,5.436 17.018,5.666 C 17.018,5.896 17.204,6.082 17.434,6.082 C 17.663,6.082 17.85,5.896 17.85,5.666"
   style="fill:#ffe593"
   clip-path="url(#XMLID_8_)"
   id="path91" />
	<path
   d="M 17.493,5.674 L 17.493,5.674 C 17.494,5.72 17.456,5.757 17.41,5.757 C 17.364,5.757 17.327,5.72 17.327,5.674 C 17.327,5.628 17.364,5.59 17.41,5.59 C 17.456,5.59 17.494,5.628 17.493,5.674 M 17.653,5.666 C 17.653,5.528 17.541,5.416 17.403,5.416 C 17.265,5.416 17.153,5.528 17.153,5.666 C 17.153,5.804 17.265,5.916 17.403,5.916 C 17.541,5.916 17.653,5.803 17.653,5.666"
   style="fill:#fff1c8"
   clip-path="url(#XMLID_8_)"
   id="path93" />
	<path
   d="M 17.486,5.695 C 17.486,5.649 17.449,5.612 17.403,5.612 C 17.357,5.612 17.32,5.649 17.32,5.695 C 17.32,5.741 17.357,5.778 17.403,5.778 C 17.449,5.778 17.486,5.741 17.486,5.695"
   style="fill:white"
   clip-path="url(#XMLID_8_)"
   id="path95" />
</g>
<path
   d="M 17.5375,6.9051862 L 17.2925,6.9011862 C 17.2275,6.9091862 17.2285,7.0941862 17.1295,7.1631862 C 16.9065,7.3131862 16.7675,6.9481862 16.5335,6.8151862 C 16.3485,6.7111862 16.1625,6.6811862 16.0565,6.5481862 C 15.9545,6.4171862 16.1265,6.3171862 16.2425,6.1971862 L 16.2215,5.9571862 C 16.1925,5.8981862 16.0175,5.9601862 15.9215,5.8881862 C 15.7055,5.7271862 16.0055,5.4761862 16.0555,5.2121862 C 16.0945,5.0031862 16.0605,4.8171862 16.1535,4.6751862 C 16.2435,4.5361862 16.4015,4.6741862 16.5525,4.7451862 L 16.6905,4.6091862 C 16.7395,4.5661862 16.6345,4.4121862 16.6795,4.3011862 C 16.7785,4.0511862 17.0985,4.2751862 17.3665,4.2551862 C 17.5795,4.2391862 17.7495,4.1581862 17.9115,4.2111862 C 18.0695,4.2621862 17.9915,4.4501862 17.9625,4.6151862 M 18.5905,5.8931862 L 18.5215,6.1161862 C 18.5095,6.1811862 18.6875,6.2351862 18.7235,6.3481862 C 18.8025,6.6061862 18.4135,6.6321862 18.2175,6.8171862 C 18.0625,6.9631862 17.9825,7.1331862 17.8215,7.1941862 C 17.6685,7.2541862 17.5995,7.0341862 17.5195,6.8871862 M 17.9615,4.5801862 L 18.1765,4.7381862 M 18.1545,4.7301862 C 18.2115,4.7641862 18.3345,4.5851862 18.4675,4.5921862 C 18.7355,4.6061862 18.6215,4.9831862 18.7225,5.2321862 C 18.8035,5.4291862 18.9335,5.5661862 18.9335,5.7361862 C 18.9335,5.9011862 18.7315,5.8861862 18.5655,5.9091862 M 16.9765,6.0361862 L 16.9345,6.2691862 L 17.1685,6.1711862 M 16.8145,5.6141862 L 16.6175,5.4311862 L 16.8835,5.4111862 M 17.2445,5.0911862 L 17.3905,4.8431862 L 17.5295,5.0991862 M 17.8265,5.9991862 L 17.8825,6.2741862 L 17.6285,6.1631862 M 17.8905,5.3891862 L 18.1425,5.4251862 L 17.9695,5.6111862 M 16.8035,5.6521862 C 16.8035,5.3301862 17.0645,5.0691862 17.3865,5.0691862 C 17.7085,5.0691862 17.9695,5.3301862 17.9695,5.6521862 C 17.9695,5.9741862 17.7085,6.2351862 17.3865,6.2351862 C 17.0645,6.2351862 16.8035,5.9741862 16.8035,5.6521862 z "
   style="fill:none;stroke:#79411b;stroke-width:0.064;stroke-miterlimit:3.86400008"
   id="path97" />
<polygon
   points="18.282,4.419 18.245,4.11 18.61,3.925 18.61,4.359 18.282,4.419 "
   transform="translate(-1.9496e-2,-1.581354e-2)"
   style="fill:#fdd108;fill-rule:evenodd"
   id="polygon99" />
<polygon
   points="18.282,4.419 18.245,4.11 18.61,3.925 18.61,4.359 18.282,4.419 "
   transform="translate(-1.9496e-2,-1.581354e-2)"
   style="fill:none;stroke:#79411b;stroke-width:0.064;stroke-miterlimit:3.86400008"
   id="polygon101" />
<polygon
   points="15.957,6.112 15.793,6.45 15.363,6.354 15.641,6.015 15.957,6.112 "
   transform="translate(-1.9496e-2,-1.581354e-2)"
   style="fill:#fdd108"
   id="polygon103" />
<polygon
   points="15.957,6.112 15.793,6.45 15.363,6.354 15.641,6.015 15.957,6.112 "
   transform="translate(-1.9496e-2,-1.581354e-2)"
   style="fill:none;stroke:#79411b;stroke-width:0.064;stroke-miterlimit:3.86400008"
   id="polygon105" />
<polygon
   points="18.869,6.165 19.163,6.047 19.402,6.368 19.018,6.429 18.869,6.165 "
   transform="translate(-1.9496e-2,-1.581354e-2)"
   style="fill:#fdd108"
   id="polygon107" />
<polygon
   points="18.869,6.165 19.163,6.047 19.402,6.368 19.018,6.429 18.869,6.165 "
   transform="translate(-1.9496e-2,-1.581354e-2)"
   style="fill:none;stroke:#79411b;stroke-width:0.064;stroke-miterlimit:3.86400008"
   id="polygon109" />
<polygon
   points="17.456,7.188 17.653,7.421 17.459,7.829 17.232,7.398 17.456,7.188 "
   transform="translate(-1.9496e-2,-1.581354e-2)"
   style="fill:#fdd108"
   id="polygon111" />
<polygon
   points="17.456,7.188 17.653,7.421 17.459,7.829 17.232,7.398 17.456,7.188 "
   transform="translate(-1.9496e-2,-1.581354e-2)"
   style="fill:none;stroke:#79411b;stroke-width:0.064;stroke-miterlimit:3.86400008"
   id="polygon113" />
<path
   d="M 16.4725,4.4931862 C 16.4705,4.4781862 16.4675,4.4921862 16.4645,4.4781862"
   style="fill:none;stroke:#79411b;stroke-width:0.064;stroke-miterlimit:3.86400008"
   id="path115" />
<polygon
   points="17.406,4.913 17.268,5.171 16.936,5.458 16.698,5.471 16.887,5.633 17.021,6.066 16.988,6.236 17.203,6.153 17.633,6.146 17.868,6.247 17.801,6.006 17.922,5.658 18.102,5.465 17.877,5.427 17.526,5.134 17.406,4.913 "
   transform="translate(-1.9496e-2,-1.581354e-2)"
   style="fill:#fdd108;fill-rule:evenodd"
   id="polygon117" />
<polygon
   points="17.406,4.913 17.268,5.171 16.936,5.458 16.698,5.471 16.887,5.633 17.021,6.066 16.988,6.236 17.203,6.153 17.633,6.146 17.868,6.247 17.801,6.006 17.922,5.658 18.102,5.465 17.877,5.427 17.526,5.134 17.406,4.913 "
   transform="translate(-1.9496e-2,-1.581354e-2)"
   style="fill:none;stroke:#79411b;stroke-width:0.064;stroke-miterlimit:3.86400008"
   id="polygon119" />
<circle
   cx="17.4"
   cy="5.6719999"
   r="0.56599998"
   transform="translate(-1.9496e-2,-1.581354e-2)"
   style="fill:#fdd108"
   id="circle121" />
<circle
   cx="17.4"
   cy="5.6719999"
   r="0.56599998"
   transform="translate(-1.9496e-2,-1.581354e-2)"
   style="fill:none;stroke:#79411b;stroke-width:0.064;stroke-miterlimit:3.86400008"
   id="circle123" />
<circle
   cx="17.403999"
   cy="5.6760001"
   r="0.338"
   transform="translate(-1.9496e-2,-1.581354e-2)"
   style="fill:#fdd108"
   id="circle125" />
<circle
   cx="17.403999"
   cy="5.6760001"
   r="0.338"
   transform="translate(-1.9496e-2,-1.581354e-2)"
   style="fill:none;stroke:#79411b;stroke-width:0.064;stroke-miterlimit:3.86400008"
   id="circle127" />
<polygon
   points="11.088,4.751 10.765,4.692 10.678,4.303 11.118,4.436 11.088,4.751 "
   transform="translate(-1.9496e-2,-1.581354e-2)"
   style="fill:#fdd108"
   id="polygon129" />
<polygon
   points="11.088,4.751 10.765,4.692 10.678,4.303 11.118,4.436 11.088,4.751 "
   transform="translate(-1.9496e-2,-1.581354e-2)"
   style="fill:none;stroke:#79411b;stroke-width:0.064;stroke-miterlimit:3.86400008"
   id="polygon131" />
<path
   d="M 10.5485,6.3831862 C 10.1105,6.3831862 10.1485,5.9041862 10.2505,5.4971862 C 10.3425,5.1251862 10.5335,4.4981862 11.0845,4.7741862 C 10.9945,4.2481862 11.4915,4.1181862 11.9105,4.1181862 C 12.2945,4.1181862 12.9715,4.1341862 12.8365,4.7351862 C 13.3175,4.5031862 13.6255,4.9521862 13.7405,5.3551862 C 13.8465,5.7241862 14.0185,6.3791862 13.4025,6.4141862 C 13.7855,6.7871862 13.4255,7.1481862 13.0865,7.3941862 C 12.7755,7.6211862 12.2755,7.9881862 12.0315,7.4201862 C 11.7785,7.8911862 11.2635,7.6871862 10.9325,7.4291862 C 10.6305,7.1931862 10.1395,6.8201862 10.5745,6.3821862 C 10.5745,6.3831862 10.6255,6.3831862 10.5485,6.3831862 z "
   style="fill:#fdd108;fill-rule:evenodd"
   id="path133" />
<path
   d="M 10.5485,6.3831862 C 10.1105,6.3831862 10.1485,5.9041862 10.2505,5.4971862 C 10.3425,5.1251862 10.5335,4.4981862 11.0845,4.7741862 C 10.9945,4.2481862 11.4915,4.1181862 11.9105,4.1181862 C 12.2945,4.1181862 12.9715,4.1341862 12.8365,4.7351862 C 13.3175,4.5031862 13.6255,4.9521862 13.7405,5.3551862 C 13.8465,5.7241862 14.0185,6.3791862 13.4025,6.4141862 C 13.7855,6.7871862 13.4255,7.1481862 13.0865,7.3941862 C 12.7755,7.6211862 12.2755,7.9881862 12.0315,7.4201862 C 11.7785,7.8911862 11.2635,7.6871862 10.9325,7.4291862 C 10.6305,7.1931862 10.1395,6.8201862 10.5745,6.3821862 C 10.5745,6.3831862 10.6255,6.3831862 10.5485,6.3831862 z "
   style="fill:none;stroke:#79411b;stroke-width:0.064;stroke-miterlimit:3.86400008"
   id="path135" />
<g
   transform="translate(-1.9496e-2,-1.581354e-2)"
   id="g137">
	<defs
   id="defs139">
		<path
   d="M 11.434,5.97 C 11.434,5.648 11.695,5.387 12.017,5.387 C 12.339,5.387 12.6,5.648 12.6,5.97 C 12.6,6.292 12.339,6.553 12.017,6.553 C 11.695,6.554 11.434,6.292 11.434,5.97"
   id="XMLID_5_" />
	</defs>
	<clipPath
   id="XMLID_9_">
		<use
   id="use143"
   x="0"
   y="0"
   width="29.514"
   height="12.358"
   xlink:href="#XMLID_5_" />
	</clipPath>
	<path
   d="M 12.594,5.977 L 12.594,5.977 C 12.594,6.298 12.333,6.56 12.011,6.56 C 11.69,6.56 11.428,6.298 11.428,5.977 C 11.428,5.656 11.69,5.395 12.011,5.395 C 12.333,5.395 12.594,5.655 12.594,5.977 M 12.752,5.996 C 12.752,5.582 12.417,5.247 12.003,5.247 C 11.589,5.247 11.253,5.582 11.253,5.996 C 11.253,6.41 11.589,6.745 12.003,6.745 C 12.417,6.745 12.752,6.409 12.752,5.996"
   style="fill:#fdd108"
   clip-path="url(#XMLID_9_)"
   id="path145" />
	<path
   d="M 12.428,5.977 L 12.428,5.977 C 12.428,6.206 12.241,6.394 12.011,6.394 C 11.782,6.394 11.595,6.206 11.595,5.977 C 11.595,5.748 11.782,5.561 12.011,5.561 C 12.241,5.561 12.428,5.748 12.428,5.977 M 12.586,5.965 C 12.586,5.643 12.325,5.382 12.003,5.382 C 11.681,5.382 11.42,5.643 11.42,5.965 C 11.42,6.288 11.681,6.548 12.003,6.548 C 12.325,6.548 12.586,6.288 12.586,5.965"
   style="fill:#ffdb5f"
   clip-path="url(#XMLID_9_)"
   id="path147" />
	<path
   d="M 12.261,5.977 L 12.261,5.977 C 12.261,6.115 12.149,6.227 12.011,6.227 C 11.873,6.227 11.762,6.115 11.762,5.977 C 11.762,5.839 11.873,5.728 12.011,5.728 C 12.149,5.728 12.261,5.838 12.261,5.977 M 12.449,5.965 C 12.449,5.735 12.263,5.549 12.033,5.549 C 11.803,5.549 11.617,5.735 11.617,5.965 C 11.617,6.195 11.803,6.382 12.033,6.382 C 12.263,6.382 12.449,6.195 12.449,5.965"
   style="fill:#ffe593"
   clip-path="url(#XMLID_9_)"
   id="path149" />
	<path
   d="M 12.095,5.977 L 12.095,5.977 C 12.095,6.023 12.057,6.061 12.011,6.061 C 11.965,6.061 11.928,6.023 11.928,5.977 C 11.928,5.931 11.965,5.894 12.011,5.894 C 12.057,5.894 12.095,5.93 12.095,5.977 M 12.253,5.965 C 12.253,5.827 12.141,5.715 12.003,5.715 C 11.865,5.715 11.753,5.827 11.753,5.965 C 11.753,6.103 11.865,6.215 12.003,6.215 C 12.141,6.216 12.253,6.104 12.253,5.965"
   style="fill:#fff1c8"
   clip-path="url(#XMLID_9_)"
   id="path151" />
	<path
   d="M 12.086,5.996 C 12.086,5.95 12.049,5.913 12.003,5.913 C 11.957,5.913 11.92,5.95 11.92,5.996 C 11.92,6.042 11.957,6.079 12.003,6.079 C 12.049,6.079 12.086,6.042 12.086,5.996"
   style="fill:white"
   clip-path="url(#XMLID_9_)"
   id="path153" />
</g>
<path
   d="M 12.1475,7.2081862 L 11.9025,7.2041862 C 11.8375,7.2121862 11.8385,7.3971862 11.7395,7.4651862 C 11.5175,7.6161862 11.3775,7.2511862 11.1445,7.1181862 C 10.9585,7.0131862 10.7725,6.9851862 10.6675,6.8501862 C 10.5655,6.7191862 10.7375,6.6201862 10.8535,6.5001862 L 10.8315,6.2601862 C 10.8025,6.1991862 10.6275,6.2621862 10.5315,6.1901862 C 10.3165,6.0291862 10.6155,5.7781862 10.6655,5.5141862 C 10.7045,5.3051862 10.6705,5.1191862 10.7625,4.9771862 C 10.8535,4.8381862 11.0115,4.9761862 11.1625,5.0481862 L 11.2995,4.9111862 C 11.3495,4.8681862 11.2445,4.7151862 11.2895,4.6031862 C 11.3885,4.3541862 11.7085,4.5771862 11.9765,4.5581862 C 12.1895,4.5421862 12.3595,4.4601862 12.5205,4.5131862 C 12.6785,4.5641862 12.6015,4.7521862 12.5715,4.9171862 M 13.2015,6.1961862 L 13.1325,6.4191862 C 13.1205,6.4831862 13.2995,6.5361862 13.3345,6.6511862 C 13.4135,6.9071862 13.0245,6.9341862 12.8295,7.1201862 C 12.6735,7.2661862 12.5925,7.4351862 12.4335,7.4971862 C 12.2795,7.5561862 12.2115,7.3371862 12.1315,7.1901862 M 12.5725,4.8821862 L 12.7875,5.0401862 M 12.7645,5.0311862 C 12.8215,5.0651862 12.9435,4.8871862 13.0775,4.8931862 C 13.3455,4.9071862 13.2305,5.2841862 13.3325,5.5331862 C 13.4135,5.7301862 13.5435,5.8671862 13.5435,6.0371862 C 13.5435,6.2041862 13.3405,6.1881862 13.1745,6.2101862 M 11.5875,6.3381862 L 11.5455,6.5701862 L 11.7795,6.4721862 M 11.4255,5.9171862 L 11.2285,5.7341862 L 11.4935,5.7141862 M 11.8555,5.3941862 L 12.0025,5.1451862 L 12.1415,5.4011862 M 12.4375,6.3001862 L 12.4925,6.5761862 L 12.2385,6.4661862 M 12.5015,5.6921862 L 12.7535,5.7291862 L 12.5805,5.9131862 M 11.4145,5.9541862 C 11.4145,5.6321862 11.6755,5.3711862 11.9975,5.3711862 C 12.3195,5.3711862 12.5805,5.6321862 12.5805,5.9541862 C 12.5805,6.2761862 12.3195,6.5371862 11.9975,6.5371862 C 11.6755,6.5381862 11.4145,6.2761862 11.4145,5.9541862 z "
   style="fill:none;stroke:#79411b;stroke-width:0.064;stroke-miterlimit:3.86400008"
   id="path155" />
<polygon
   points="12.893,4.721 12.856,4.414 13.222,4.229 13.222,4.661 12.893,4.721 "
   transform="translate(-1.9496e-2,-1.581354e-2)"
   style="fill:#fdd108;fill-rule:evenodd"
   id="polygon157" />
<polygon
   points="12.893,4.721 12.856,4.414 13.222,4.229 13.222,4.661 12.893,4.721 "
   transform="translate(-1.9496e-2,-1.581354e-2)"
   style="fill:none;stroke:#79411b;stroke-width:0.064;stroke-miterlimit:3.86400008"
   id="polygon159" />
<polygon
   points="10.568,6.415 10.403,6.753 9.974,6.655 10.252,6.316 10.568,6.415 "
   transform="translate(-1.9496e-2,-1.581354e-2)"
   style="fill:#fdd108"
   id="polygon161" />
<polygon
   points="10.568,6.415 10.403,6.753 9.974,6.655 10.252,6.316 10.568,6.415 "
   transform="translate(-1.9496e-2,-1.581354e-2)"
   style="fill:none;stroke:#79411b;stroke-width:0.064;stroke-miterlimit:3.86400008"
   id="polygon163" />
<polygon
   points="13.48,6.468 13.775,6.351 14.013,6.671 13.629,6.73 13.48,6.468 "
   transform="translate(-1.9496e-2,-1.581354e-2)"
   style="fill:#fdd108"
   id="polygon165" />
<polygon
   points="13.48,6.468 13.775,6.351 14.013,6.671 13.629,6.73 13.48,6.468 "
   transform="translate(-1.9496e-2,-1.581354e-2)"
   style="fill:none;stroke:#79411b;stroke-width:0.064;stroke-miterlimit:3.86400008"
   id="polygon167" />
<polygon
   points="12.067,7.49 12.264,7.724 12.07,8.132 11.843,7.701 12.067,7.49 "
   transform="translate(-1.9496e-2,-1.581354e-2)"
   style="fill:#fdd108"
   id="polygon169" />
<polygon
   points="12.067,7.49 12.264,7.724 12.07,8.132 11.843,7.701 12.067,7.49 "
   transform="translate(-1.9496e-2,-1.581354e-2)"
   style="fill:none;stroke:#79411b;stroke-width:0.064;stroke-miterlimit:3.86400008"
   id="polygon171" />
<path
   d="M 11.0845,4.7961862 C 11.0825,4.7811862 11.0785,4.7951862 11.0765,4.7811862"
   style="fill:none;stroke:#79411b;stroke-width:0.064;stroke-miterlimit:3.86400008"
   id="path173" />
<polygon
   points="12.017,5.214 11.878,5.475 11.546,5.76 11.31,5.774 11.498,5.936 11.632,6.369 11.599,6.538 11.814,6.456 12.243,6.448 12.479,6.55 12.412,6.31 12.532,5.96 12.713,5.768 12.487,5.729 12.137,5.437 12.017,5.214 "
   transform="translate(-1.9496e-2,-1.581354e-2)"
   style="fill:#fdd108;fill-rule:evenodd"
   id="polygon175" />
<polygon
   points="12.017,5.214 11.878,5.475 11.546,5.76 11.31,5.774 11.498,5.936 11.632,6.369 11.599,6.538 11.814,6.456 12.243,6.448 12.479,6.55 12.412,6.31 12.532,5.96 12.713,5.768 12.487,5.729 12.137,5.437 12.017,5.214 "
   transform="translate(-1.9496e-2,-1.581354e-2)"
   style="fill:none;stroke:#79411b;stroke-width:0.064;stroke-miterlimit:3.86400008"
   id="polygon177" />
<circle
   cx="12.011"
   cy="5.9749999"
   r="0.56599998"
   transform="translate(-1.9496e-2,-1.581354e-2)"
   style="fill:#fdd108"
   id="circle179" />
<circle
   cx="12.011"
   cy="5.9749999"
   r="0.56599998"
   transform="translate(-1.9496e-2,-1.581354e-2)"
   style="fill:none;stroke:#79411b;stroke-width:0.064;stroke-miterlimit:3.86400008"
   id="circle181" />
<circle
   cx="12.015"
   cy="5.9790001"
   r="0.33899999"
   transform="translate(-1.9496e-2,-1.581354e-2)"
   style="fill:#fdd108"
   id="circle183" />
<circle
   cx="12.015"
   cy="5.9790001"
   r="0.33899999"
   transform="translate(-1.9496e-2,-1.581354e-2)"
   style="fill:none;stroke:#79411b;stroke-width:0.064;stroke-miterlimit:3.86400008"
   id="circle185" />
<polyline
   clip-rule="evenodd"
   points="8.032,2.512 6.674,2.666 3.147,10.329 8.032,9.923   6.776,9.275 7.283,8.667 5.813,8.869 6.877,8.058 8.743,8.007 8.286,7.55 8.844,7.259 7.74,7.259 8.896,6.648 8.235,6.548   8.489,5.989 7.334,6.699 7.385,6.142 7.08,6.548 6.776,5.989 6.42,7.41 5.418,8.158 5.862,7.105 5.266,7.309 6.37,4.276 7.03,4.073   7.182,4.378 7.437,3.565 8.235,4.53 8.286,4.073 8.844,4.073 8.235,3.414 9.047,3.414 8.032,2.512 "
   id="polyline187"
   style="fill:white;fill-rule:evenodd"
   transform="translate(-1.9496e-2,-1.581354e-2)" />
</svg>