<?xml version="1.0" encoding="UTF-8" standalone="no"?>
<!-- Created with Inkscape (http://www.inkscape.org/) -->
<svg
   xmlns:svg="http://www.w3.org/2000/svg"
   xmlns="http://www.w3.org/2000/svg"
   version="1.0"
   width="290.18335"
   height="256.41312"
   viewBox="0 0 29.427 26"
   id="Layer_1"
   xml:space="preserve"><defs
   id="defs32" />
<polygon
   points="4.438,0.553 0.66,13.654 3.796,25.937 25.673,25.827 29.362,13.765 25.894,0.485 4.438,0.553 "
   transform="translate(-1.499998e-3,-1.709138e-3)"
   style="fill:#a09da2"
   id="polygon3" />
<polygon
   points="4.438,0.553 0.66,13.654 3.796,25.937 25.673,25.827 29.362,13.765 25.894,0.485 4.438,0.553 "
   transform="translate(-1.499998e-3,-1.709138e-3)"
   style="fill:none;stroke:#a7a3a8;stroke-width:0.123;stroke-miterlimit:3.86400008"
   id="polygon5" />
<polygon
   points="3.841,0.127 0.063,13.23 2.974,25.402 24.997,25.402 28.767,13.339 25.298,0.062 3.841,0.127 "
   transform="translate(-1.499998e-3,-1.709138e-3)"
   style="fill:#bdc5c1"
   id="polygon7" />
<polygon
   points="3.841,0.127 0.063,13.23 2.974,25.402 24.997,25.402 28.767,13.339 25.298,0.062 3.841,0.127 "
   transform="translate(-1.499998e-3,-1.709138e-3)"
   style="fill:none;stroke:#686469;stroke-width:0.123;stroke-miterlimit:3.86400008"
   id="polygon9" />
<circle
   cx="2.648"
   cy="13.23"
   r="1.679"
   transform="translate(-1.499998e-3,-1.709138e-3)"
   style="fill:#95979a"
   id="circle11" />
<circle
   cx="2.648"
   cy="13.23"
   r="1.679"
   transform="translate(-1.499998e-3,-1.709138e-3)"
   style="fill:none;stroke:#686469;stroke-width:0.123;stroke-miterlimit:3.86400008"
   id="circle13" />
<circle
   cx="26.233"
   cy="13.099"
   r="1.6799999"
   transform="translate(-1.499998e-3,-1.709138e-3)"
   style="fill:#95979a"
   id="circle15" />
<circle
   cx="26.233"
   cy="13.099"
   r="1.6799999"
   transform="translate(-1.499998e-3,-1.709138e-3)"
   style="fill:none;stroke:#686469;stroke-width:0.123;stroke-miterlimit:3.86400008"
   id="circle17" />
<polygon
   points="5.009,12.359 23.72,12.333 23.72,13.736 5.009,13.675 5.009,12.359 "
   transform="translate(-1.499998e-3,-1.709138e-3)"
   style="fill:#ffd200"
   id="polygon19" />
<polygon
   points="5.009,12.359 23.72,12.333 23.72,13.736 5.009,13.675 5.009,12.359 "
   transform="translate(-1.499998e-3,-1.709138e-3)"
   style="fill:none;stroke:#ffd200;stroke-width:0.07;stroke-miterlimit:3.86400008"
   id="polygon21" />
<rect
   width="18.709999"
   height="3.197"
   x="5.0074997"
   y="14.93529"
   style="fill:#ffd200"
   id="rect23" />
<rect
   width="18.709999"
   height="3.197"
   x="5.0074997"
   y="14.93529"
   style="fill:none;stroke:#ffd200;stroke-width:0.07;stroke-miterlimit:3.86400008"
   id="rect25" />
<rect
   width="18.709999"
   height="2.973"
   x="5.0074997"
   y="7.9222903"
   style="fill:#ffd200"
   id="rect27" />
<rect
   width="18.709999"
   height="2.973"
   x="5.0074997"
   y="7.9222903"
   style="fill:none;stroke:#ffd200;stroke-width:0.07;stroke-miterlimit:3.86400008"
   id="rect29" />
</svg>