<?xml version="1.0" encoding="UTF-8" standalone="no"?>
<!-- Created with Inkscape (http://www.inkscape.org/) -->
<svg
   xmlns:svg="http://www.w3.org/2000/svg"
   xmlns="http://www.w3.org/2000/svg"
   version="1.0"
   width="283.72232"
   height="250.70079"
   viewBox="0 0 29.363 25.942"
   id="Layer_1"
   xml:space="preserve"><defs
   id="defs38" />
<polygon
   points="4.428,0.552 0.658,13.624 3.789,25.881 25.617,25.77 29.299,13.735 25.838,0.485 4.428,0.552 "
   transform="translate(-1.499998e-3,-2.26728e-3)"
   style="fill:#a09da2"
   id="polygon3" />
<polygon
   points="4.428,0.552 0.658,13.624 3.789,25.881 25.617,25.77 29.299,13.735 25.838,0.485 4.428,0.552 "
   transform="translate(-1.499998e-3,-2.26728e-3)"
   style="fill:none;stroke:#a09da2;stroke-width:0.123;stroke-miterlimit:3.86400008"
   id="polygon5" />
<polygon
   points="3.833,0.127 0.063,13.201 2.967,25.346 24.942,25.346 28.704,13.311 25.243,0.062 3.833,0.127 "
   transform="translate(-1.499998e-3,-2.26728e-3)"
   style="fill:#bdc5c1"
   id="polygon7" />
<polygon
   points="3.833,0.127 0.063,13.201 2.967,25.346 24.942,25.346 28.704,13.311 25.243,0.062 3.833,0.127 "
   transform="translate(-1.499998e-3,-2.26728e-3)"
   style="fill:none;stroke:#686469;stroke-width:0.123;stroke-miterlimit:3.86400008"
   id="polygon9" />
<circle
   cx="2.6429999"
   cy="13.201"
   r="1.676"
   transform="translate(-1.499998e-3,-2.26728e-3)"
   style="fill:#95979a"
   id="circle11" />
<circle
   cx="2.6429999"
   cy="13.201"
   r="1.676"
   transform="translate(-1.499998e-3,-2.26728e-3)"
   style="fill:none;stroke:#686469;stroke-width:0.123;stroke-miterlimit:3.86400008"
   id="circle13" />
<circle
   cx="26.177"
   cy="13.07"
   r="1.675"
   transform="translate(-1.499998e-3,-2.26728e-3)"
   style="fill:#95979a"
   id="circle15" />
<circle
   cx="26.177"
   cy="13.07"
   r="1.675"
   transform="translate(-1.499998e-3,-2.26728e-3)"
   style="fill:none;stroke:#686469;stroke-width:0.123;stroke-miterlimit:3.86400008"
   id="circle17" />
<rect
   width="19.319"
   height="2.6489999"
   x="4.7314997"
   y="7.3127332"
   style="fill:#ffd200"
   id="rect19" />
<rect
   width="19.319"
   height="2.6489999"
   x="4.7314997"
   y="7.3127332"
   style="fill:none;stroke:#ffd200;stroke-width:0.069;stroke-miterlimit:3.86400008"
   id="rect21" />
<rect
   width="19.096001"
   height="8.4169998"
   x="4.8115001"
   y="10.801733"
   style="fill:#ffd200"
   id="rect23" />
<rect
   width="19.096001"
   height="8.4169998"
   x="4.8115001"
   y="10.801733"
   style="fill:none;stroke:#ffd200;stroke-width:0.077;stroke-miterlimit:3.86400008"
   id="rect25" />
<path
   d="M 23.8425,18.892733 L 4.8115,18.892733 M 4.8115,18.511733 L 23.7775,18.511733 M 4.7455,11.508733 L 23.7765,11.508733 M 4.8115,11.073733 L 23.7775,11.127733"
   style="fill:none;stroke:#737477;stroke-width:0.077;stroke-miterlimit:3.86400008;stroke-dasharray:2.523, 2.523"
   id="path27" />
<path
   d="M 4.7835,18.890733 L 5.2795,18.443733 L 5.7485,18.875733 L 6.3415,18.484733 L 6.7955,18.853733 L 7.2435,18.484733 L 7.6545,18.912733 L 8.0865,18.484733 L 8.5145,18.875733 L 9.1285,18.484733 L 9.5405,18.896733 L 10.0505,18.484733 L 10.5665,18.896733 L 11.2385,18.464733 L 11.6505,18.896733 L 12.1035,18.484733 L 12.6345,18.912733 L 13.0045,18.506733 L 13.4735,18.854733 L 13.8435,18.506733 L 14.3745,18.897733 L 14.6815,18.506733 L 15.2965,18.875733 L 15.9105,18.506733 L 16.4215,18.875733 L 16.9585,18.484733 L 17.3645,18.896733 L 17.9215,18.505733 L 18.3275,18.896733 L 18.5935,18.505733 L 19.1715,18.874733 L 19.5565,18.483733 L 20.1515,18.874733 L 20.6465,18.546733 L 21.0935,18.874733 L 21.3605,18.525733 L 22.0995,18.874733 L 22.4685,18.483733 L 22.8395,18.895733 L 23.1055,18.545733 L 23.3705,18.873733 L 23.7405,18.545733 L 23.9245,18.873733 M 4.8505,11.490733 L 5.2405,11.060733 L 5.7095,11.492733 L 6.3035,11.101733 L 6.7565,11.471733 L 7.2045,11.101733 L 7.6165,11.529733 L 8.0485,11.101733 L 8.4755,11.492733 L 9.0905,11.101733 L 9.5025,11.513733 L 10.0125,11.101733 L 10.5285,11.513733 L 11.2005,11.081733 L 11.6115,11.513733 L 12.0645,11.101733 L 12.5965,11.529733 L 12.9665,11.122733 L 13.4355,11.471733 L 13.8045,11.122733 L 14.3365,11.513733 L 14.6435,11.122733 L 15.2575,11.492733 L 15.8725,11.122733 L 16.3825,11.492733 L 16.9195,11.101733 L 17.3255,11.513733 L 17.8825,11.122733 L 18.2905,11.513733 L 18.5545,11.122733 L 19.1325,11.492733 L 19.5195,11.101733 L 20.1135,11.492733 L 20.6085,11.164733 L 21.0565,11.492733 L 21.3225,11.143733 L 22.0615,11.492733 L 22.4315,11.101733 L 22.8005,11.513733 L 23.0665,11.164733 L 23.3325,11.492733 L 23.7025,11.164733 L 23.8855,11.492733 M 20.4815,13.363733 C 20.4815,13.363733 22.3235,13.392733 23.9055,14.929733 M 23.9055,15.509733 C 23.9055,15.509733 22.4595,13.539733 19.8015,13.737733 M 17.3875,15.948733 C 17.3875,15.948733 16.0475,15.760733 15.5645,16.219733 M 6.3965,15.040733 C 6.3965,15.040733 5.8415,14.355733 5.4475,14.685733 M 11.2445,14.359733 C 11.2445,14.359733 11.0825,14.396733 10.8205,14.353733 C 10.5595,14.308733 9.6085,14.327733 9.5655,14.175733 M 10.8335,13.146733 L 10.4315,13.068733 L 10.3955,12.963733 L 10.4535,12.797733 L 10.6185,12.764733 L 10.7935,12.752733 L 10.6905,12.717733 L 10.6385,12.535733 L 10.7075,12.467733 L 11.0275,12.379733 L 11.3395,12.520733 L 11.4405,12.697733 L 11.4895,12.829733 L 11.3515,12.936733 L 11.1675,12.951733 L 11.2905,13.132733 L 11.2325,13.298733 L 11.1225,13.353733 L 10.9845,13.351733 L 10.8655,13.288733 L 10.8335,13.146733 z M 7.4965,13.697733 C 7.4965,13.697733 10.3135,13.590733 10.6575,13.154733 M 4.7875,15.320733 C 4.7875,15.320733 6.8625,12.164733 11.8575,15.877733 C 11.8575,15.877733 14.7025,17.588733 16.9835,15.225733 C 18.3395,13.820733 19.4925,13.734733 19.8005,13.738733 C 19.8545,13.739733 19.8825,13.743733 19.8825,13.743733 C 19.8825,13.743733 19.3585,14.341733 19.8825,13.743733 M 4.7245,14.872733 C 4.7245,14.872733 6.8405,11.830733 11.8355,15.542733 C 11.8355,15.542733 14.5675,17.324733 16.8475,14.962733 C 18.4375,13.316733 19.7475,13.480733 19.7475,13.480733 C 19.7475,13.480733 20.7455,13.501733 21.2695,12.903733 C 21.7935,12.305733 21.2695,12.903733 21.2695,12.903733 L 21.3795,12.640733 L 20.9835,12.704733 C 20.8705,12.697733 20.7905,12.632733 20.7445,12.509733 L 20.9195,12.353733 L 21.3375,12.267733 L 21.3585,12.158733 C 21.3585,12.158733 21.1445,12.191733 21.1605,12.090733 C 21.0835,12.063733 21.2535,11.917733 21.2535,11.917733 L 21.4275,11.833733 C 21.4725,11.778733 21.6755,11.878733 21.6755,11.878733 L 21.7595,11.976733 C 21.7595,11.976733 21.8655,12.172733 21.8495,12.230733 C 21.8375,12.281733 21.6455,12.245733 21.6455,12.245733 L 21.7325,12.353733 L 21.8635,12.595733 L 21.7765,12.773733 L 21.5545,12.749733 L 21.3805,12.641733"
   style="fill:none;stroke:#737477;stroke-width:0.077;stroke-miterlimit:3.86400008;stroke-dasharray:1.261, 1.261"
   id="path29" />
<path
   d="M 11.2275,14.421733 C 11.2275,14.421733 11.8075,12.634733 13.3815,13.597733 C 13.3815,13.597733 13.7745,12.652733 14.9705,13.327733 C 14.9705,13.327733 15.5235,12.689733 16.3065,13.279733 L 16.3065,13.344733 C 16.3065,13.344733 17.0465,12.686733 17.5745,13.287733 C 17.2435,13.990733 16.4725,13.821733 16.4725,13.821733 L 16.4175,13.866733 C 15.8545,14.670733 15.0175,14.244733 15.0175,14.244733 C 14.0885,15.256733 13.4675,14.476733 13.4675,14.476733 C 12.2675,15.878733 11.2395,14.317733 11.2395,14.317733 C 11.2395,14.317733 16.1505,13.873733 17.5135,13.317733"
   style="fill:none;stroke:#737477;stroke-width:0.07;stroke-miterlimit:3.86400008;stroke-dasharray:1.261, 1.261"
   id="path31" />
<path
   d="M 6.3085,15.097733 C 6.3085,15.097733 7.9075,13.753733 8.8245,15.587733 C 8.8245,15.587733 9.7505,14.927733 10.4805,16.269733 C 10.4805,16.269733 11.3765,15.994733 11.7685,17.011733 L 11.7285,17.072733 C 11.7285,17.072733 12.8125,16.888733 12.9565,17.765733 C 12.2295,18.233733 11.6045,17.619733 11.6045,17.619733 L 11.5265,17.630733 C 10.5225,18.056733 9.9835,17.162733 9.9835,17.162733 C 8.5125,17.568733 8.3865,16.468733 8.3865,16.468733 C 6.4295,17.083733 6.3805,15.007733 6.3805,15.007733 C 6.3805,15.007733 11.2705,17.478733 12.8815,17.757733"
   style="fill:none;stroke:#737477;stroke-width:0.077;stroke-miterlimit:3.86400008;stroke-dasharray:1.261, 1.261"
   id="path33" />
<path
   d="M 17.3115,16.003733 C 17.3115,16.003733 18.5445,14.582733 19.6175,16.084733 C 19.6175,16.084733 20.3475,15.367733 21.1855,16.456733 C 21.1855,16.456733 21.9435,16.087733 22.4345,16.935733 L 22.4085,16.995733 C 22.4085,16.995733 23.3465,16.680733 23.5975,17.439733 C 23.0175,17.957733 22.3745,17.500733 22.3745,17.500733 L 22.3065,17.521733 C 21.4745,18.040733 20.8685,17.321733 20.8685,17.321733 C 19.6175,17.890733 19.3515,16.929733 19.3515,16.929733 C 17.6985,17.751733 17.3615,15.911733 17.3615,15.911733 C 17.3615,15.911733 22.0555,17.421733 23.5285,17.442733"
   style="fill:none;stroke:#737477;stroke-width:0.07;stroke-miterlimit:3.86400008;stroke-dasharray:1.261, 1.261"
   id="path35" />
</svg>