<?xml version="1.0" encoding="UTF-8" standalone="no"?>
<!-- Created with Inkscape (http://www.inkscape.org/) -->
<svg
   xmlns:svg="http://www.w3.org/2000/svg"
   xmlns="http://www.w3.org/2000/svg"
   version="1.0"
   width="283.91565"
   height="250.87163"
   viewBox="0 0 29.363 25.942"
   id="Layer_1"
   xml:space="preserve"><defs
   id="defs42" />
<polygon
   points="4.429,0.551 0.659,13.624 3.79,25.881 25.617,25.77 29.299,13.735 25.838,0.485 4.429,0.551 "
   transform="translate(-1.499998e-3,-2.267954e-3)"
   style="fill:#a09da2"
   id="polygon3" />
<polygon
   points="4.429,0.551 0.659,13.624 3.79,25.881 25.617,25.77 29.299,13.735 25.838,0.485 4.429,0.551 "
   transform="translate(-1.499998e-3,-2.267954e-3)"
   style="fill:none;stroke:#a7a3a8;stroke-width:0.123;stroke-miterlimit:3.86400008"
   id="polygon5" />
<polygon
   points="3.833,0.127 0.063,13.201 2.968,25.346 24.943,25.346 28.703,13.311 25.242,0.062 3.833,0.127 "
   transform="translate(-1.499998e-3,-2.267954e-3)"
   style="fill:#bdc5c1"
   id="polygon7" />
<polygon
   points="3.833,0.127 0.063,13.201 2.968,25.346 24.943,25.346 28.703,13.311 25.242,0.062 3.833,0.127 "
   transform="translate(-1.499998e-3,-2.267954e-3)"
   style="fill:none;stroke:#686469;stroke-width:0.123;stroke-miterlimit:3.86400008"
   id="polygon9" />
<circle
   cx="2.6429999"
   cy="13.201"
   r="1.676"
   transform="translate(-1.499998e-3,-2.267954e-3)"
   style="fill:#95979a"
   id="circle11" />
<circle
   cx="2.6429999"
   cy="13.201"
   r="1.676"
   transform="translate(-1.499998e-3,-2.267954e-3)"
   style="fill:none;stroke:#686469;stroke-width:0.123;stroke-miterlimit:3.86400008"
   id="circle13" />
<circle
   cx="26.176001"
   cy="13.07"
   r="1.676"
   transform="translate(-1.499998e-3,-2.267954e-3)"
   style="fill:#95979a"
   id="circle15" />
<circle
   cx="26.176001"
   cy="13.07"
   r="1.676"
   transform="translate(-1.499998e-3,-2.267954e-3)"
   style="fill:none;stroke:#686469;stroke-width:0.123;stroke-miterlimit:3.86400008"
   id="circle17" />
<rect
   width="19.32"
   height="2.6489999"
   x="4.6594996"
   y="8.6367321"
   style="fill:#ffd200"
   id="rect19" />
<rect
   width="19.32"
   height="2.6489999"
   x="4.6594996"
   y="8.6367321"
   style="fill:none;stroke:#ffd200;stroke-width:0.069;stroke-miterlimit:3.86400008"
   id="rect21" />
<rect
   width="19.32"
   height="2.6489999"
   x="4.6594996"
   y="4.808732"
   style="fill:#ffd200"
   id="rect23" />
<rect
   width="19.32"
   height="2.6489999"
   x="4.6594996"
   y="4.808732"
   style="fill:none;stroke:#ffd200;stroke-width:0.069;stroke-miterlimit:3.86400008"
   id="rect25" />
<rect
   width="19.096001"
   height="8.4189997"
   x="4.7465"
   y="12.312732"
   style="fill:#ffd200"
   id="rect27" />
<rect
   width="19.096001"
   height="8.4189997"
   x="4.7465"
   y="12.312732"
   style="fill:none;stroke:#ffd200;stroke-width:0.077;stroke-miterlimit:3.86400008"
   id="rect29" />
<path
   d="M 23.7775,20.405732 L 4.7465,20.405732 M 4.7465,20.024732 L 23.7125,20.024732 M 4.6815,13.019732 L 23.7125,13.019732 M 4.7465,12.584732 L 23.7125,12.640732"
   style="fill:none;stroke:#737477;stroke-width:0.077;stroke-miterlimit:3.86400008;stroke-dasharray:2.523, 2.523"
   id="path31" />
<path
   d="M 4.7195,20.404732 L 5.2145,19.955732 L 5.6845,20.387732 L 6.2785,19.997732 L 6.7315,20.367732 L 7.1795,19.997732 L 7.5905,20.424732 L 8.0225,19.997732 L 8.4505,20.387732 L 9.0655,19.997732 L 9.4765,20.408732 L 9.9875,19.997732 L 10.5025,20.408732 L 11.1745,19.976732 L 11.5865,20.408732 L 12.0395,19.997732 L 12.5705,20.424732 L 12.9405,20.018732 L 13.4095,20.368732 L 13.7795,20.018732 L 14.3105,20.409732 L 14.6185,20.018732 L 15.2335,20.387732 L 15.8475,20.018732 L 16.3585,20.387732 L 16.8945,19.997732 L 17.3005,20.408732 L 17.8585,20.017732 L 18.2645,20.408732 L 18.5305,20.017732 L 19.1085,20.386732 L 19.4925,19.997732 L 20.0875,20.387732 L 20.5825,20.059732 L 21.0295,20.387732 L 21.2965,20.039732 L 22.0355,20.387732 L 22.4045,19.997732 L 22.7755,20.408732 L 23.0395,20.058732 L 23.3065,20.386732 L 23.6765,20.058732 L 23.8605,20.386732 M 4.7865,13.001732 L 5.1765,12.571732 L 5.6455,13.003732 L 6.2395,12.613732 L 6.6925,12.982732 L 7.1415,12.613732 L 7.5525,13.040732 L 7.9845,12.613732 L 8.4115,13.003732 L 9.0265,12.613732 L 9.4385,13.024732 L 9.9485,12.613732 L 10.4645,13.024732 L 11.1365,12.592732 L 11.5475,13.024732 L 12.0005,12.613732 L 12.5325,13.040732 L 12.9015,12.634732 L 13.3705,12.983732 L 13.7405,12.634732 L 14.2725,13.025732 L 14.5795,12.634732 L 15.1945,13.003732 L 15.8085,12.634732 L 16.3195,13.003732 L 16.8565,12.613732 L 17.2625,13.024732 L 17.8195,12.633732 L 18.2265,13.024732 L 18.4915,12.633732 L 19.0695,13.002732 L 19.4565,12.612732 L 20.0505,13.002732 L 20.5445,12.674732 L 20.9935,13.002732 L 21.2585,12.653732 L 21.9975,13.002732 L 22.3685,12.612732 L 22.7375,13.023732 L 23.0035,12.673732 L 23.2695,13.001732 L 23.6395,12.673732 L 23.8225,13.001732 M 20.4165,14.875732 C 20.4165,14.875732 22.2585,14.904732 23.8415,16.440732 M 23.8415,17.021732 C 23.8415,17.021732 22.3945,15.052732 19.7375,15.250732 M 17.3225,17.459732 C 17.3225,17.459732 15.9825,17.271732 15.4985,17.730732 M 6.3315,16.552732 C 6.3315,16.552732 5.7775,15.867732 5.3825,16.197732 M 11.1805,15.871732 C 11.1805,15.871732 11.0185,15.909732 10.7565,15.865732 C 10.4945,15.822732 9.5445,15.840732 9.5015,15.687732 M 10.7695,14.658732 L 10.3675,14.580732 L 10.3315,14.475732 L 10.3895,14.309732 L 10.5545,14.277732 L 10.7295,14.264732 L 10.6265,14.229732 L 10.5735,14.047732 L 10.6435,13.979732 L 10.9635,13.891732 L 11.2745,14.033732 L 11.3755,14.209732 L 11.4245,14.341732 L 11.2875,14.449732 L 11.1035,14.464732 L 11.2265,14.644732 L 11.1685,14.812732 L 11.0575,14.866732 L 10.9205,14.864732 L 10.8015,14.801732 L 10.7695,14.658732 z M 7.4325,15.209732 C 7.4325,15.209732 10.2495,15.101732 10.5935,14.665732 M 4.7235,16.831732 C 4.7235,16.831732 6.7985,13.677732 11.7935,17.388732 C 11.7935,17.388732 14.6385,19.099732 16.9195,16.737732 C 18.2755,15.332732 19.4285,15.245732 19.7365,15.250732 C 19.7895,15.251732 19.8185,15.254732 19.8185,15.254732 C 19.8185,15.254732 19.2945,15.854732 19.8185,15.254732 M 4.6605,16.386732 C 4.6605,16.386732 6.7765,13.343732 11.7715,17.056732 C 11.7715,17.056732 14.5035,18.837732 16.7835,16.474732 C 18.3715,14.828732 19.6815,14.992732 19.6815,14.992732 C 19.6815,14.992732 20.6805,15.013732 21.2045,14.416732 C 21.7295,13.818732 21.2045,14.416732 21.2045,14.416732 L 21.3155,14.152732 L 20.9195,14.218732 C 20.8065,14.210732 20.7265,14.144732 20.6795,14.021732 L 20.8555,13.867732 L 21.2735,13.780732 L 21.2945,13.672732 C 21.2945,13.672732 21.0795,13.703732 21.0965,13.604732 C 21.0185,13.576732 21.1895,13.430732 21.1895,13.430732 L 21.3615,13.346732 C 21.4065,13.290732 21.6115,13.391732 21.6115,13.391732 L 21.6955,13.489732 C 21.6955,13.489732 21.8015,13.684732 21.7855,13.744732 C 21.7735,13.794732 21.5805,13.759732 21.5805,13.759732 L 21.6685,13.868732 L 21.7985,14.110732 L 21.7115,14.286732 L 21.4905,14.263732 L 21.3165,14.154732"
   style="fill:none;stroke:#737477;stroke-width:0.077;stroke-miterlimit:3.86400008;stroke-dasharray:1.261, 1.261"
   id="path33" />
<path
   d="M 11.1635,15.935732 C 11.1635,15.935732 11.7425,14.147732 13.3175,15.110732 C 13.3175,15.110732 13.7095,14.165732 14.9065,14.839732 C 14.9065,14.839732 15.4595,14.202732 16.2425,14.791732 L 16.2425,14.856732 C 16.2425,14.856732 16.9805,14.199732 17.5105,14.801732 C 17.1785,15.504732 16.4085,15.333732 16.4085,15.333732 L 16.3535,15.379732 C 15.7905,16.182732 14.9535,15.758732 14.9535,15.758732 C 14.0245,16.770732 13.4035,15.989732 13.4035,15.989732 C 12.2035,17.392732 11.1745,15.830732 11.1745,15.830732 C 11.1745,15.830732 16.0865,15.385732 17.4495,14.829732"
   style="fill:none;stroke:#737477;stroke-width:0.07;stroke-miterlimit:3.86400008;stroke-dasharray:1.261, 1.261"
   id="path35" />
<path
   d="M 6.2445,16.610732 C 6.2445,16.610732 7.8435,15.265732 8.7595,17.101732 C 8.7595,17.101732 9.6865,16.441732 10.4165,17.781732 C 10.4165,17.781732 11.3125,17.506732 11.7045,18.524732 L 11.6645,18.584732 C 11.6645,18.584732 12.7485,18.401732 12.8925,19.278732 C 12.1655,19.746732 11.5405,19.132732 11.5405,19.132732 L 11.4625,19.142732 C 10.4585,19.568732 9.9195,18.675732 9.9195,18.675732 C 8.4485,19.081732 8.3225,17.981732 8.3225,17.981732 C 6.3655,18.597732 6.3165,16.519732 6.3165,16.519732 C 6.3165,16.519732 11.2055,18.991732 12.8175,19.271732"
   style="fill:none;stroke:#737477;stroke-width:0.077;stroke-miterlimit:3.86400008;stroke-dasharray:1.261, 1.261"
   id="path37" />
<path
   d="M 17.2465,17.515732 C 17.2465,17.515732 18.4785,16.095732 19.5525,17.597732 C 19.5525,17.597732 20.2835,16.880732 21.1215,17.970732 C 21.1215,17.970732 21.8795,17.599732 22.3695,18.448732 L 22.3435,18.508732 C 22.3435,18.508732 23.2815,18.193732 23.5335,18.952732 C 22.9515,19.471732 22.3095,19.014732 22.3095,19.014732 L 22.2425,19.034732 C 21.4105,19.554732 20.8045,18.835732 20.8045,18.835732 C 19.5535,19.404732 19.2865,18.443732 19.2865,18.443732 C 17.6345,19.266732 17.2975,17.426732 17.2975,17.426732 C 17.2975,17.426732 21.9915,18.934732 23.4645,18.956732"
   style="fill:none;stroke:#737477;stroke-width:0.07;stroke-miterlimit:3.86400008;stroke-dasharray:1.261, 1.261"
   id="path39" />
</svg>