<?xml version="1.0" encoding="UTF-8" standalone="no"?>
<!-- Created with Inkscape (http://www.inkscape.org/) -->
<svg
   xmlns:svg="http://www.w3.org/2000/svg"
   xmlns="http://www.w3.org/2000/svg"
   version="1.0"
   width="283.95435"
   height="250.90582"
   viewBox="0 0 29.363 25.942"
   id="Layer_1"
   xml:space="preserve"><defs
   id="defs46" />
<polygon
   points="4.429,0.552 0.659,13.624 3.789,25.881 25.617,25.77 29.299,13.735 25.838,0.486 4.429,0.552 "
   transform="translate(-1.499998e-3,-2.267289e-3)"
   style="fill:#a09da2"
   id="polygon3" />
<polygon
   points="4.429,0.552 0.659,13.624 3.789,25.881 25.617,25.77 29.299,13.735 25.838,0.486 4.429,0.552 "
   transform="translate(-1.499998e-3,-2.267289e-3)"
   style="fill:none;stroke:#a7a3a8;stroke-width:0.123;stroke-miterlimit:3.86400008"
   id="polygon5" />
<polygon
   points="3.833,0.127 0.063,13.201 2.968,25.346 24.941,25.346 28.703,13.311 25.242,0.062 3.833,0.127 "
   transform="translate(-1.499998e-3,-2.267289e-3)"
   style="fill:#bdc5c1"
   id="polygon7" />
<polygon
   points="3.833,0.127 0.063,13.201 2.968,25.346 24.941,25.346 28.703,13.311 25.242,0.062 3.833,0.127 "
   transform="translate(-1.499998e-3,-2.267289e-3)"
   style="fill:none;stroke:#686469;stroke-width:0.123;stroke-miterlimit:3.86400008"
   id="polygon9" />
<circle
   cx="2.6429999"
   cy="13.201"
   r="1.675"
   transform="translate(-1.499998e-3,-2.267289e-3)"
   style="fill:#95979a"
   id="circle11" />
<circle
   cx="2.6429999"
   cy="13.201"
   r="1.675"
   transform="translate(-1.499998e-3,-2.267289e-3)"
   style="fill:none;stroke:#686469;stroke-width:0.123;stroke-miterlimit:3.86400008"
   id="circle13" />
<circle
   cx="26.174999"
   cy="13.07"
   r="1.675"
   transform="translate(-1.499998e-3,-2.267289e-3)"
   style="fill:#95979a"
   id="circle15" />
<circle
   cx="26.174999"
   cy="13.07"
   r="1.675"
   transform="translate(-1.499998e-3,-2.267289e-3)"
   style="fill:none;stroke:#686469;stroke-width:0.123;stroke-miterlimit:3.86400008"
   id="circle17" />
<rect
   width="19.319"
   height="2.648"
   x="4.7794995"
   y="9.9827328"
   style="fill:#ffd200"
   id="rect19" />
<rect
   width="19.319"
   height="2.648"
   x="4.7794995"
   y="9.9827328"
   style="fill:none;stroke:#ffd200;stroke-width:0.069;stroke-miterlimit:3.86400008"
   id="rect21" />
<rect
   width="19.318001"
   height="2.6489999"
   x="4.6744995"
   y="6.4197326"
   style="fill:#ffd200"
   id="rect23" />
<rect
   width="19.318001"
   height="2.6489999"
   x="4.6744995"
   y="6.4197326"
   style="fill:none;stroke:#ffd200;stroke-width:0.069;stroke-miterlimit:3.86400008"
   id="rect25" />
<rect
   width="19.318001"
   height="2.6489999"
   x="4.6744995"
   y="2.7397327"
   style="fill:#ffd200"
   id="rect27" />
<rect
   width="19.318001"
   height="2.6489999"
   x="4.6744995"
   y="2.7397327"
   style="fill:none;stroke:#ffd200;stroke-width:0.069;stroke-miterlimit:3.86400008"
   id="rect29" />
<rect
   width="19.094999"
   height="8.4189997"
   x="4.8584995"
   y="13.655733"
   style="fill:#ffd200"
   id="rect31" />
<rect
   width="19.094999"
   height="8.4189997"
   x="4.8584995"
   y="13.655733"
   style="fill:none;stroke:#ffd200;stroke-width:0.077;stroke-miterlimit:3.86400008"
   id="rect33" />
<path
   d="M 23.8885,21.747733 L 4.8584995,21.747733 M 4.8584995,21.366733 L 23.8225,21.366733 M 4.7914995,14.362733 L 23.8225,14.362733 M 4.8584995,13.927733 L 23.8225,13.982733"
   style="fill:none;stroke:#737477;stroke-width:0.077;stroke-miterlimit:3.86400008;stroke-dasharray:2.523, 2.523"
   id="path35" />
<path
   d="M 4.8314995,21.746733 L 5.3264995,21.297733 L 5.7954995,21.729733 L 6.3894995,21.340733 L 6.8424995,21.708733 L 7.2904995,21.340733 L 7.7024995,21.766733 L 8.1344995,21.340733 L 8.5614995,21.729733 L 9.1764995,21.340733 L 9.5874995,21.750733 L 10.0985,21.340733 L 10.6135,21.750733 L 11.2865,21.318733 L 11.6975,21.750733 L 12.1505,21.340733 L 12.6815,21.766733 L 13.0515,21.361733 L 13.5205,21.709733 L 13.8905,21.361733 L 14.4215,21.751733 L 14.7295,21.361733 L 15.3435,21.729733 L 15.9575,21.361733 L 16.4695,21.729733 L 17.0055,21.340733 L 17.4105,21.750733 L 17.9695,21.360733 L 18.3755,21.750733 L 18.6415,21.360733 L 19.2195,21.728733 L 19.6055,21.339733 L 20.1985,21.728733 L 20.6945,21.401733 L 21.1415,21.728733 L 21.4075,21.380733 L 22.1475,21.728733 L 22.5165,21.339733 L 22.8865,21.749733 L 23.1535,21.400733 L 23.4175,21.727733 L 23.7885,21.400733 L 23.9715,21.727733 M 4.8964995,14.343733 L 5.2874995,13.913733 L 5.7564995,14.345733 L 6.3504995,13.955733 L 6.8034995,14.324733 L 7.2514995,13.955733 L 7.6624995,14.382733 L 8.0944995,13.955733 L 8.5224995,14.345733 L 9.1374995,13.955733 L 9.5484995,14.366733 L 10.0595,13.955733 L 10.5745,14.366733 L 11.2465,13.934733 L 11.6585,14.366733 L 12.1115,13.955733 L 12.6425,14.382733 L 13.0125,13.976733 L 13.4815,14.325733 L 13.8515,13.976733 L 14.3825,14.367733 L 14.6895,13.976733 L 15.3045,14.345733 L 15.9195,13.976733 L 16.4295,14.345733 L 16.9665,13.955733 L 17.3725,14.366733 L 17.9295,13.975733 L 18.3365,14.366733 L 18.6025,13.975733 L 19.1795,14.344733 L 19.5665,13.954733 L 20.1605,14.344733 L 20.6545,14.016733 L 21.1025,14.344733 L 21.3695,13.997733 L 22.1075,14.345733 L 22.4775,13.955733 L 22.8475,14.366733 L 23.1135,14.016733 L 23.3795,14.344733 L 23.7485,14.016733 L 23.9315,14.344733 M 20.5275,16.218733 C 20.5275,16.218733 22.3695,16.246733 23.9515,17.782733 M 23.9515,18.363733 C 23.9515,18.363733 22.5055,16.394733 19.8475,16.592733 M 17.4345,18.802733 C 17.4345,18.802733 16.0945,18.613733 15.6105,19.073733 M 6.4434995,17.894733 C 6.4434995,17.894733 5.8894995,17.209733 5.4944995,17.539733 M 11.2905,17.212733 C 11.2905,17.212733 11.1285,17.250733 10.8665,17.206733 C 10.6055,17.163733 9.6554995,17.181733 9.6114995,17.028733 M 10.8815,15.999733 L 10.4785,15.921733 L 10.4435,15.817733 L 10.5005,15.651733 L 10.6665,15.618733 L 10.8405,15.606733 L 10.7375,15.571733 L 10.6855,15.388733 L 10.7545,15.321733 L 11.0745,15.232733 L 11.3865,15.375733 L 11.4875,15.551733 L 11.5365,15.682733 L 11.3985,15.791733 L 11.2155,15.805733 L 11.3375,15.986733 L 11.2805,16.153733 L 11.1695,16.207733 L 11.0315,16.205733 L 10.9125,16.142733 L 10.8815,15.999733 z M 7.5444995,16.552733 C 7.5444995,16.552733 10.3605,16.443733 10.7045,16.007733 M 4.8334995,18.173733 C 4.8334995,18.173733 6.9084995,15.019733 11.9035,18.731733 C 11.9035,18.731733 14.7475,20.441733 17.0285,18.078733 C 18.3845,16.674733 19.5385,16.588733 19.8465,16.592733 C 19.8995,16.594733 19.9275,16.596733 19.9275,16.596733 C 19.9275,16.596733 19.4035,17.195733 19.9275,16.596733 M 4.7704995,17.728733 C 4.7704995,17.728733 6.8864995,14.685733 11.8815,18.398733 C 11.8815,18.398733 14.6125,20.179733 16.8945,17.817733 C 18.4845,16.171733 19.7935,16.335733 19.7935,16.335733 C 19.7935,16.335733 20.7925,16.356733 21.3155,15.758733 C 21.8395,15.160733 21.3155,15.758733 21.3155,15.758733 L 21.4265,15.494733 L 21.0305,15.560733 C 20.9175,15.552733 20.8375,15.487733 20.7905,15.363733 L 20.9655,15.209733 L 21.3835,15.122733 L 21.4055,15.014733 C 21.4055,15.014733 21.1905,15.045733 21.2065,14.946733 C 21.1295,14.918733 21.3005,14.772733 21.3005,14.772733 L 21.4735,14.688733 C 21.5185,14.633733 21.7215,14.733733 21.7215,14.733733 L 21.8055,14.832733 C 21.8055,14.832733 21.9115,15.027733 21.8955,15.085733 C 21.8845,15.136733 21.6915,15.101733 21.6915,15.101733 L 21.7795,15.210733 L 21.9105,15.452733 L 21.8225,15.628733 L 21.6025,15.605733 L 21.4275,15.496733"
   style="fill:none;stroke:#737477;stroke-width:0.077;stroke-miterlimit:3.86400008;stroke-dasharray:1.261, 1.261"
   id="path37" />
<path
   d="M 11.2745,17.277733 C 11.2745,17.277733 11.8545,15.489733 13.4295,16.452733 C 13.4295,16.452733 13.8215,15.508733 15.0175,16.181733 C 15.0175,16.181733 15.5715,15.544733 16.3545,16.134733 L 16.3535,16.198733 C 16.3535,16.198733 17.0935,15.542733 17.6225,16.143733 C 17.2905,16.846733 16.5195,16.676733 16.5195,16.676733 L 16.4655,16.721733 C 15.9025,17.525733 15.0645,17.100733 15.0645,17.100733 C 14.1355,18.112733 13.5155,17.331733 13.5155,17.331733 C 12.3155,18.734733 11.2865,17.172733 11.2865,17.172733 C 11.2865,17.172733 16.1985,16.727733 17.5605,16.172733"
   style="fill:none;stroke:#737477;stroke-width:0.07;stroke-miterlimit:3.86400008;stroke-dasharray:1.261, 1.261"
   id="path39" />
<path
   d="M 6.3544995,17.952733 C 6.3544995,17.952733 7.9534995,16.608733 8.8704995,18.443733 C 8.8704995,18.443733 9.7964995,17.782733 10.5265,19.123733 C 10.5265,19.123733 11.4225,18.848733 11.8145,19.866733 L 11.7755,19.926733 C 11.7755,19.926733 12.8585,19.743733 13.0035,20.620733 C 12.2765,21.088733 11.6505,20.474733 11.6505,20.474733 L 11.5725,20.485733 C 10.5695,20.910733 10.0305,20.017733 10.0305,20.017733 C 8.5584995,20.423733 8.4334995,19.323733 8.4334995,19.323733 C 6.4764995,19.939733 6.4264995,17.861733 6.4264995,17.861733 C 6.4264995,17.861733 11.3165,20.333733 12.9275,20.613733"
   style="fill:none;stroke:#737477;stroke-width:0.077;stroke-miterlimit:3.86400008;stroke-dasharray:1.261, 1.261"
   id="path41" />
<path
   d="M 17.3595,18.858733 C 17.3595,18.858733 18.5905,17.437733 19.6645,18.940733 C 19.6645,18.940733 20.3935,18.222733 21.2325,19.312733 C 21.2325,19.312733 21.9905,18.941733 22.4805,19.790733 L 22.4555,19.850733 C 22.4555,19.850733 23.3925,19.535733 23.6435,20.295733 C 23.0635,20.813733 22.4205,20.356733 22.4205,20.356733 L 22.3535,20.376733 C 21.5205,20.896733 20.9155,20.177733 20.9155,20.177733 C 19.6635,20.746733 19.3975,19.785733 19.3975,19.785733 C 17.7455,20.608733 17.4095,18.768733 17.4095,18.768733 C 17.4095,18.768733 22.1025,20.277733 23.5755,20.297733"
   style="fill:none;stroke:#737477;stroke-width:0.07;stroke-miterlimit:3.86400008;stroke-dasharray:1.261, 1.261"
   id="path43" />
</svg>