<?xml version="1.0" encoding="UTF-8" standalone="no"?>
<!-- Created with Inkscape (http://www.inkscape.org/) -->
<svg
   xmlns:svg="http://www.w3.org/2000/svg"
   xmlns="http://www.w3.org/2000/svg"
   version="1.0"
   width="450.35278"
   height="219.59366"
   viewBox="0 0 25.404 12.358"
   id="Layer_1"
   xml:space="preserve"><defs
   id="defs26" />
<path
   d="M 25.2955,0.019958564 L 5.0105,0.87095857 L 0.034499999,12.301959 L 23.9175,10.713959 C 23.9175,10.713959 22.1045,8.3029586 24.4735,5.4209586 C 24.4725,5.4209586 22.7845,2.4789586 25.2955,0.019958564 z "
   style="fill:#33725b;fill-rule:evenodd"
   id="path3" />
<path
   d="M 25.2955,0.019958564 L 5.0105,0.87095857 L 0.034499999,12.301959 L 23.9175,10.713959 C 23.9175,10.713959 22.1045,8.3029586 24.4735,5.4209586 C 24.4725,5.4209586 22.7845,2.4789586 25.2955,0.019958564 z "
   style="fill:none;stroke:#33725b;stroke-width:0.069;stroke-miterlimit:3.86400008"
   id="path5" />
<path
   d="M 23.9585,0.79595857 L 5.6705,1.5999586 L 1.3705,11.525959 L 22.9495,10.084959 C 22.9495,10.084959 21.5515,7.7759586 23.6485,5.2249586 C 23.6495,5.2239586 22.2085,2.4659586 23.9585,0.79595857"
   style="fill:white;fill-rule:evenodd"
   id="path7" />
<path
   d="M 22.9705,1.4889586 L 6.2095,2.1699586 L 2.4745,10.788959 L 21.9805,9.4769586 C 21.9805,9.4769586 21.0255,7.4519586 22.8465,5.2369586 C 22.8465,5.2369586 21.6095,3.0529586 22.9705,1.4889586 z "
   style="fill:#33725b;fill-rule:evenodd"
   id="path9" />
<path
   d="M 22.9705,1.4889586 L 6.2095,2.1699586 L 2.4745,10.788959 L 21.9805,9.4769586 C 21.9805,9.4769586 21.0255,7.4519586 22.8465,5.2369586 C 22.8465,5.2369586 21.6095,3.0529586 22.9705,1.4889586 z "
   style="fill:none;stroke:#33725b;stroke-width:0.069;stroke-miterlimit:3.86400008"
   id="path11" />
<polygon
   points="12.482,9.289 10.572,6.032 11.985,2.678 13.265,2.588 11.765,5.901 13.724,9.214 12.482,9.289 "
   transform="translate(-2.05001e-2,-1.804144e-2)"
   style="fill:#ffd200"
   id="polygon13" />
<polygon
   points="12.482,9.289 10.572,6.032 11.985,2.678 13.265,2.588 11.765,5.901 13.724,9.214 12.482,9.289 "
   transform="translate(-2.05001e-2,-1.804144e-2)"
   style="fill:none;stroke:#f79320;stroke-width:0.07;stroke-miterlimit:3.86400008"
   id="polygon15" />
<polygon
   points="14.55,9.12 12.64,5.865 14.053,2.511 15.333,2.42 13.833,5.733 15.792,9.047 14.55,9.12 "
   transform="translate(-2.05001e-2,-1.804144e-2)"
   style="fill:#ffd200"
   id="polygon17" />
<polygon
   points="14.55,9.12 12.64,5.865 14.053,2.511 15.333,2.42 13.833,5.733 15.792,9.047 14.55,9.12 "
   transform="translate(-2.05001e-2,-1.804144e-2)"
   style="fill:none;stroke:#f79320;stroke-width:0.07;stroke-miterlimit:3.86400008"
   id="polygon19" />
<polygon
   points="16.771,9.035 14.86,5.78 16.273,2.426 17.554,2.336 16.053,5.649 18.012,8.962 16.771,9.035 "
   transform="translate(-2.05001e-2,-1.804144e-2)"
   style="fill:#ffd200"
   id="polygon21" />
<polygon
   points="16.771,9.035 14.86,5.78 16.273,2.426 17.554,2.336 16.053,5.649 18.012,8.962 16.771,9.035 "
   transform="translate(-2.05001e-2,-1.804144e-2)"
   style="fill:none;stroke:#f79320;stroke-width:0.07;stroke-miterlimit:3.86400008"
   id="polygon23" />
</svg>