<?xml version="1.0" encoding="UTF-8" standalone="no"?>
<!-- Created with Inkscape (http://www.inkscape.org/) -->
<svg
   xmlns:svg="http://www.w3.org/2000/svg"
   xmlns="http://www.w3.org/2000/svg"
   version="1.0"
   width="450.25732"
   height="219.5708"
   viewBox="0 0 25.349 12.333"
   id="Layer_1"
   xml:space="preserve"><defs
   id="defs24" />
<path
   d="M 25.2415,0.020200805 L 5.0005,0.87020081 L 0.034499999,12.277201 L 23.8645,10.692201 C 23.8645,10.692201 22.0565,8.2862008 24.4215,5.4112008 C 24.4205,5.4112008 22.7355,2.4742008 25.2415,0.020200805 z "
   style="fill:#33725b;fill-rule:evenodd"
   id="path3" />
<path
   d="M 25.2415,0.020200805 L 5.0005,0.87020081 L 0.034499999,12.277201 L 23.8645,10.692201 C 23.8645,10.692201 22.0565,8.2862008 24.4215,5.4112008 C 24.4205,5.4112008 22.7355,2.4742008 25.2415,0.020200805 z "
   style="fill:none;stroke:#33725b;stroke-width:0.069;stroke-miterlimit:3.86400008"
   id="path5" />
<path
   d="M 23.9075,0.79520081 L 5.6595,1.5982008 L 1.3695,11.500201 L 22.9015,10.062201 C 22.9015,10.062201 21.5055,7.7582008 23.5975,5.2122008 C 23.5975,5.2132008 22.1615,2.4612008 23.9075,0.79520081 z "
   style="fill:white;fill-rule:evenodd"
   id="path7" />
<path
   d="M 23.9075,0.79520081 L 5.6595,1.5982008 L 1.3695,11.500201 L 22.9015,10.062201 C 22.9015,10.062201 21.5055,7.7582008 23.5975,5.2122008 C 23.5975,5.2132008 22.1615,2.4612008 23.9075,0.79520081 z "
   style="fill:none;stroke:white;stroke-width:0.068;stroke-miterlimit:3.86400008"
   id="path9" />
<path
   d="M 22.9205,1.4872008 L 6.1965,2.1662008 L 2.4705,10.766201 L 21.9335,9.4572008 C 21.9335,9.4572008 20.9795,7.4362008 22.7975,5.2262008 C 22.7975,5.2262008 21.5625,3.0472008 22.9205,1.4872008 z "
   style="fill:#33725b;fill-rule:evenodd"
   id="path11" />
<path
   d="M 22.9205,1.4872008 L 6.1965,2.1662008 L 2.4705,10.766201 L 21.9335,9.4572008 C 21.9335,9.4572008 20.9795,7.4362008 22.7975,5.2262008 C 22.7975,5.2262008 21.5625,3.0472008 22.9205,1.4872008 z "
   style="fill:none;stroke:#33725b;stroke-width:0.066;stroke-miterlimit:3.86400008"
   id="path13" />
<polygon
   points="13.457,9.235 11.552,5.987 12.962,2.639 14.239,2.549 12.742,5.855 14.696,9.161 13.457,9.235 "
   transform="translate(-1.95e-2,-1.779919e-2)"
   style="fill:#ffd200"
   id="polygon15" />
<polygon
   points="13.457,9.235 11.552,5.987 12.962,2.639 14.239,2.549 12.742,5.855 14.696,9.161 13.457,9.235 "
   transform="translate(-1.95e-2,-1.779919e-2)"
   style="fill:none;stroke:#f79320;stroke-width:0.068;stroke-miterlimit:3.86400008"
   id="polygon17" />
<polygon
   points="14.239,2.549 12.887,2.624 11.552,5.987 13.457,9.235 14.696,9.161 12.742,5.855 14.239,2.549 "
   transform="translate(-1.95e-2,-1.779919e-2)"
   style="fill:#ffd200"
   id="polygon19" />
<polygon
   points="14.239,2.549 12.887,2.624 11.552,5.987 13.457,9.235 14.696,9.161 12.742,5.855 14.239,2.549 "
   transform="translate(-1.95e-2,-1.779919e-2)"
   style="fill:none;stroke:#f79320;stroke-width:0.069;stroke-miterlimit:3.86400008"
   id="polygon21" />
</svg>