<?xml version="1.0" encoding="UTF-8" standalone="no"?>
<!-- Created with Inkscape (http://www.inkscape.org/) -->
<svg
   xmlns:svg="http://www.w3.org/2000/svg"
   xmlns="http://www.w3.org/2000/svg"
   version="1.0"
   width="290.3905"
   height="256.59616"
   viewBox="0 0 29.426 26"
   id="Layer_1"
   xml:space="preserve"><defs
   id="defs28" />
<polygon
   points="4.438,0.553 0.66,13.654 3.797,25.937 25.673,25.827 29.362,13.765 25.894,0.486 4.438,0.553 "
   transform="translate(-1.499998e-3,-0.171936)"
   style="fill:#a09da2"
   id="polygon3" />
<polygon
   points="4.438,0.553 0.66,13.654 3.797,25.937 25.673,25.827 29.362,13.765 25.894,0.486 4.438,0.553 "
   transform="translate(-1.499998e-3,-0.171936)"
   style="fill:none;stroke:#a7a3a8;stroke-width:0.123;stroke-miterlimit:3.86400008"
   id="polygon5" />
<polygon
   points="3.842,0.128 0.063,13.23 2.974,25.402 24.997,25.402 28.767,13.339 25.298,0.062 3.842,0.128 "
   transform="translate(-1.499998e-3,-0.171936)"
   style="fill:#bdc5c1"
   id="polygon7" />
<polygon
   points="3.842,0.128 0.063,13.23 2.974,25.402 24.997,25.402 28.767,13.339 25.298,0.062 3.842,0.128 "
   transform="translate(-1.499998e-3,-0.171936)"
   style="fill:none;stroke:#686469;stroke-width:0.123;stroke-miterlimit:3.86400008"
   id="polygon9" />
<circle
   cx="2.648"
   cy="13.23"
   r="1.6799999"
   transform="translate(-1.499998e-3,-0.171936)"
   style="fill:#95979a"
   id="circle11" />
<circle
   cx="2.648"
   cy="13.23"
   r="1.6799999"
   transform="translate(-1.499998e-3,-0.171936)"
   style="fill:none;stroke:#686469;stroke-width:0.123;stroke-miterlimit:3.86400008"
   id="circle13" />
<circle
   cx="26.233"
   cy="13.099"
   r="1.679"
   transform="translate(-1.499998e-3,-0.171936)"
   style="fill:#95979a"
   id="circle15" />
<circle
   cx="26.233"
   cy="13.099"
   r="1.679"
   transform="translate(-1.499998e-3,-0.171936)"
   style="fill:none;stroke:#686469;stroke-width:0.123;stroke-miterlimit:3.86400008"
   id="circle17" />
<rect
   width="18.899"
   height="2.8380001"
   x="4.9635"
   y="9.2590637"
   style="fill:#ffd200"
   id="rect19" />
<rect
   width="18.899"
   height="2.8380001"
   x="4.9635"
   y="9.2590637"
   style="fill:none;stroke:#ffd200;stroke-width:0.07;stroke-miterlimit:3.86400008"
   id="rect21" />
<rect
   width="18.899"
   height="2.8399999"
   x="4.9635"
   y="14.044064"
   style="fill:#ffd200"
   id="rect23" />
<rect
   width="18.899"
   height="2.8399999"
   x="4.9635"
   y="14.044064"
   style="fill:none;stroke:#ffd200;stroke-width:0.07;stroke-miterlimit:3.86400008"
   id="rect25" />
</svg>