<?xml version="1.0" encoding="UTF-8" standalone="no"?>
<!-- Created with Inkscape (http://www.inkscape.org/) -->
<svg
   xmlns:svg="http://www.w3.org/2000/svg"
   xmlns="http://www.w3.org/2000/svg"
   xmlns:xlink="http://www.w3.org/1999/xlink"
   version="1.0"
   width="451.57333"
   height="220.13841"
   viewBox="0 0 28.456 13.844"
   id="Layer_1"
   xml:space="preserve"><defs
   id="defs132" />
<path
   d="M 28.3475,0.020462506 L 5.6125,0.97446251 L 0.034499999,13.787463 L 26.8035,12.008463 C 26.8035,12.008463 24.7725,9.3054625 27.4265,6.0754625 C 27.4255,6.0754625 25.5335,2.7764625 28.3475,0.020462506 z "
   style="fill:#33725b;fill-rule:evenodd"
   id="path3" />
<path
   d="M 28.3475,0.020462506 L 5.6125,0.97446251 L 0.034499999,13.787463 L 26.8035,12.008463 C 26.8035,12.008463 24.7725,9.3054625 27.4265,6.0754625 C 27.4255,6.0754625 25.5335,2.7764625 28.3475,0.020462506 z "
   style="fill:none;stroke:#33725b;stroke-width:0.069;stroke-miterlimit:3.86400008"
   id="path5" />
<path
   d="M 26.8495,0.89146251 L 6.3525,1.7924625 L 1.5335,12.916463 L 25.7205,11.301463 C 25.7205,11.301463 24.1535,8.7134625 26.5035,5.8554625 C 26.5025,5.8544625 24.8875,2.7634625 26.8495,0.89146251"
   style="fill:white;fill-rule:evenodd"
   id="path7" />
<path
   d="M 25.7415,1.6674625 L 6.9565,2.4304625 L 2.7705,12.091463 L 24.6325,10.620463 C 24.6325,10.620463 23.5615,8.3494625 25.6035,5.8664625 C 25.6035,5.8674625 24.2165,3.4204625 25.7415,1.6674625 z "
   style="fill:#33725b;fill-rule:evenodd"
   id="path9" />
<path
   d="M 25.7415,1.6674625 L 6.9565,2.4304625 L 2.7705,12.091463 L 24.6325,10.620463 C 24.6325,10.620463 23.5615,8.3494625 25.6035,5.8664625 C 25.6035,5.8674625 24.2165,3.4204625 25.7415,1.6674625 z "
   style="fill:none;stroke:#33725b;stroke-width:0.069;stroke-miterlimit:3.86400008"
   id="path11" />
<polygon
   points="20.11,5.251 19.787,5.192 19.7,4.802 20.14,4.935 20.11,5.251 "
   transform="translate(-2.04995e-2,-1.753749e-2)"
   style="fill:#ffd200"
   id="polygon13" />
<polygon
   points="20.11,5.251 19.787,5.192 19.7,4.802 20.14,4.935 20.11,5.251 "
   transform="translate(-2.04995e-2,-1.753749e-2)"
   style="fill:none;stroke:#793f11;stroke-width:0.064;stroke-miterlimit:3.86400008"
   id="polygon15" />
<path
   d="M 19.5695,6.8804625 C 19.1315,6.8804625 19.1705,6.4014625 19.2715,5.9954625 C 19.3635,5.6214625 19.5545,4.9954625 20.1055,5.2714625 C 20.0155,4.7444625 20.5125,4.6154625 20.9315,4.6154625 C 21.3155,4.6154625 21.9925,4.6304625 21.8575,5.2324625 C 22.3385,5.0004625 22.6465,5.4484625 22.7615,5.8514625 C 22.8665,6.2194625 23.0395,6.8754625 22.4235,6.9114625 C 22.8065,7.2844625 22.4455,7.6454625 22.1075,7.8924625 C 21.7965,8.1174625 21.2965,8.4844625 21.0525,7.9184625 C 20.7985,8.3884625 20.2825,8.1844625 19.9525,7.9264625 C 19.6505,7.6904625 19.1595,7.3184625 19.5955,6.8794625 C 19.5955,6.8804625 19.6455,6.8804625 19.5695,6.8804625 z "
   style="fill:#ffd200;fill-rule:evenodd"
   id="path17" />
<path
   d="M 19.5695,6.8804625 C 19.1315,6.8804625 19.1705,6.4014625 19.2715,5.9954625 C 19.3635,5.6214625 19.5545,4.9954625 20.1055,5.2714625 C 20.0155,4.7444625 20.5125,4.6154625 20.9315,4.6154625 C 21.3155,4.6154625 21.9925,4.6304625 21.8575,5.2324625 C 22.3385,5.0004625 22.6465,5.4484625 22.7615,5.8514625 C 22.8665,6.2194625 23.0395,6.8754625 22.4235,6.9114625 C 22.8065,7.2844625 22.4455,7.6454625 22.1075,7.8924625 C 21.7965,8.1174625 21.2965,8.4844625 21.0525,7.9184625 C 20.7985,8.3884625 20.2825,8.1844625 19.9525,7.9264625 C 19.6505,7.6904625 19.1595,7.3184625 19.5955,6.8794625 C 19.5955,6.8804625 19.6455,6.8804625 19.5695,6.8804625 z "
   style="fill:none;stroke:#793f11;stroke-width:0.064;stroke-miterlimit:3.86400008"
   id="path19" />
<g
   transform="translate(-2.04995e-2,-1.753749e-2)"
   id="g21">
	<defs
   id="defs23">
		<path
   d="M 20.456,6.471 C 20.456,6.149 20.717,5.886 21.039,5.886 C 21.361,5.886 21.622,6.149 21.622,6.471 C 21.622,6.792 21.361,7.053 21.039,7.053 C 20.717,7.053 20.456,6.792 20.456,6.471"
   id="XMLID_1_" />
	</defs>
	<clipPath
   id="XMLID_5_">
		<use
   id="use27"
   x="0"
   y="0"
   width="28.455999"
   height="13.844"
   xlink:href="#XMLID_1_" />
	</clipPath>
	<path
   d="M 21.621,6.471 L 21.621,6.471 C 21.621,6.792 21.36,7.053 21.038,7.053 C 20.716,7.053 20.455,6.792 20.455,6.471 C 20.455,6.149 20.716,5.889 21.038,5.889 C 21.36,5.889 21.621,6.148 21.621,6.471 M 21.794,6.497 C 21.794,6.083 21.459,5.748 21.045,5.748 C 20.631,5.748 20.296,6.083 20.296,6.497 C 20.296,6.911 20.631,7.246 21.045,7.246 C 21.459,7.246 21.794,6.911 21.794,6.497"
   style="fill:#ffd200"
   clip-path="url(#XMLID_5_)"
   id="path29" />
	<path
   d="M 21.455,6.471 L 21.455,6.471 C 21.455,6.7 21.268,6.887 21.038,6.887 C 20.809,6.887 20.622,6.7 20.622,6.471 C 20.622,6.242 20.809,6.055 21.038,6.055 C 21.269,6.055 21.455,6.241 21.455,6.471 M 21.628,6.467 C 21.628,6.145 21.367,5.884 21.045,5.884 C 20.723,5.884 20.462,6.145 20.462,6.467 C 20.462,6.789 20.723,7.05 21.045,7.05 C 21.367,7.05 21.628,6.789 21.628,6.467"
   style="fill:#ffdb5d"
   clip-path="url(#XMLID_5_)"
   id="path31" />
	<path
   d="M 21.288,6.471 L 21.288,6.471 C 21.288,6.608 21.176,6.721 21.038,6.721 C 20.9,6.721 20.788,6.608 20.788,6.471 C 20.788,6.333 20.9,6.221 21.038,6.221 C 21.176,6.221 21.288,6.333 21.288,6.471 M 21.431,6.467 C 21.431,6.237 21.245,6.051 21.015,6.051 C 20.786,6.051 20.599,6.237 20.599,6.467 C 20.599,6.697 20.786,6.883 21.015,6.883 C 21.245,6.883 21.431,6.697 21.431,6.467"
   style="fill:#ffe693"
   clip-path="url(#XMLID_5_)"
   id="path33" />
	<path
   d="M 21.121,6.471 L 21.121,6.471 C 21.121,6.518 21.084,6.555 21.038,6.555 C 20.992,6.555 20.955,6.518 20.955,6.471 C 20.955,6.425 20.992,6.387 21.038,6.387 C 21.084,6.387 21.121,6.425 21.121,6.471 M 21.295,6.467 C 21.295,6.329 21.184,6.217 21.045,6.217 C 20.907,6.217 20.795,6.329 20.795,6.467 C 20.795,6.606 20.907,6.717 21.045,6.717 C 21.184,6.717 21.295,6.605 21.295,6.467"
   style="fill:#fff1c7"
   clip-path="url(#XMLID_5_)"
   id="path35" />
	<path
   d="M 21.128,6.467 C 21.128,6.421 21.091,6.384 21.045,6.384 C 20.999,6.384 20.962,6.421 20.962,6.467 C 20.962,6.514 20.999,6.55 21.045,6.55 C 21.091,6.55 21.128,6.514 21.128,6.467"
   style="fill:white"
   clip-path="url(#XMLID_5_)"
   id="path37" />
</g>
<path
   d="M 21.1685,7.7054625 L 20.9235,7.7004625 C 20.8585,7.7094625 20.8595,7.8944625 20.7605,7.9614625 C 20.5385,8.1124625 20.3985,7.7484625 20.1655,7.6154625 C 19.9795,7.5104625 19.7935,7.4814625 19.6875,7.3474625 C 19.5855,7.2164625 19.7565,7.1174625 19.8745,6.9974625 L 19.8525,6.7574625 C 19.8235,6.6974625 19.6485,6.7594625 19.5525,6.6874625 C 19.3375,6.5274625 19.6365,6.2764625 19.6855,6.0114625 C 19.7255,5.8024625 19.6915,5.6164625 19.7835,5.4744625 C 19.8755,5.3354625 20.0325,5.4744625 20.1835,5.5454625 L 20.3205,5.4084625 C 20.3715,5.3654625 20.2655,5.2124625 20.3095,5.1004625 C 20.4095,4.8514625 20.7295,5.0754625 20.9975,5.0554625 C 21.2095,5.0394625 21.3805,4.9584625 21.5415,5.0104625 C 21.6985,5.0614625 21.6225,5.2504625 21.5925,5.4144625 M 22.2225,6.6924625 L 22.1535,6.9164625 C 22.1425,6.9804625 22.3195,7.0334625 22.3555,7.1484625 C 22.4345,7.4054625 22.0455,7.4324625 21.8495,7.6164625 C 21.6945,7.7624625 21.6135,7.9324625 21.4545,7.9934625 C 21.3005,8.0534625 21.2315,7.8344625 21.1515,7.6874625 M 21.5935,5.3794625 L 21.8085,5.5384625 M 21.7855,5.5284625 C 21.8435,5.5624625 21.9665,5.3844625 22.0985,5.3914625 C 22.3675,5.4044625 22.2525,5.7824625 22.3545,6.0304625 C 22.4355,6.2274625 22.5655,6.3654625 22.5655,6.5344625 C 22.5655,6.7004625 22.3625,6.6854625 22.1965,6.7094625 M 20.6085,6.8364625 L 20.5665,7.0684625 L 20.7995,6.9704625 M 20.4465,6.4144625 L 20.2505,6.2304625 L 20.5155,6.2104625 M 20.8755,5.8914625 L 21.0215,5.6434625 L 21.1615,5.8984625 M 21.4585,6.7964625 L 21.5135,7.0734625 L 21.2595,6.9624625 M 21.5225,6.1884625 L 21.7745,6.2254625 L 21.6015,6.4104625 M 20.4355,6.4534625 C 20.4355,6.1314625 20.6965,5.8684625 21.0185,5.8684625 C 21.3405,5.8684625 21.6015,6.1314625 21.6015,6.4534625 C 21.6015,6.7744625 21.3405,7.0354625 21.0185,7.0354625 C 20.6965,7.0354625 20.4355,6.7744625 20.4355,6.4534625 z "
   style="fill:none;stroke:#793f11;stroke-width:0.064;stroke-miterlimit:3.86400008"
   id="path39" />
<polygon
   points="21.915,5.221 21.878,4.912 22.243,4.727 22.243,5.16 21.915,5.221 "
   transform="translate(-2.04995e-2,-1.753749e-2)"
   style="fill:#ffd200;fill-rule:evenodd"
   id="polygon41" />
<polygon
   points="21.915,5.221 21.878,4.912 22.243,4.727 22.243,5.16 21.915,5.221 "
   transform="translate(-2.04995e-2,-1.753749e-2)"
   style="fill:none;stroke:#793f11;stroke-width:0.064;stroke-miterlimit:3.86400008"
   id="polygon43" />
<polygon
   points="19.59,6.913 19.425,7.252 18.996,7.154 19.274,6.814 19.59,6.913 "
   transform="translate(-2.04995e-2,-1.753749e-2)"
   style="fill:#ffd200"
   id="polygon45" />
<polygon
   points="19.59,6.913 19.425,7.252 18.996,7.154 19.274,6.814 19.59,6.913 "
   transform="translate(-2.04995e-2,-1.753749e-2)"
   style="fill:none;stroke:#793f11;stroke-width:0.064;stroke-miterlimit:3.86400008"
   id="polygon47" />
<polygon
   points="22.502,6.966 22.796,6.85 23.035,7.169 22.651,7.23 22.502,6.966 "
   transform="translate(-2.04995e-2,-1.753749e-2)"
   style="fill:#ffd200"
   id="polygon49" />
<polygon
   points="22.502,6.966 22.796,6.85 23.035,7.169 22.651,7.23 22.502,6.966 "
   transform="translate(-2.04995e-2,-1.753749e-2)"
   style="fill:none;stroke:#793f11;stroke-width:0.064;stroke-miterlimit:3.86400008"
   id="polygon51" />
<polygon
   points="21.089,7.988 21.286,8.223 21.092,8.63 20.865,8.2 21.089,7.988 "
   transform="translate(-2.04995e-2,-1.753749e-2)"
   style="fill:#ffd200"
   id="polygon53" />
<polygon
   points="21.089,7.988 21.286,8.223 21.092,8.63 20.865,8.2 21.089,7.988 "
   transform="translate(-2.04995e-2,-1.753749e-2)"
   style="fill:none;stroke:#793f11;stroke-width:0.064;stroke-miterlimit:3.86400008"
   id="polygon55" />
<path
   d="M 20.1035,5.2934625 C 20.1025,5.2774625 20.0985,5.2924625 20.0965,5.2784625"
   style="fill:none;stroke:#793f11;stroke-width:0.064;stroke-miterlimit:3.86400008"
   id="path57" />
<polygon
   points="21.039,5.713 20.899,5.973 20.569,6.259 20.331,6.273 20.521,6.434 20.654,6.868 20.621,7.037 20.835,6.955 21.264,6.947 21.501,7.049 21.435,6.809 21.554,6.459 21.735,6.266 21.509,6.229 21.159,5.936 21.039,5.713 "
   transform="translate(-2.04995e-2,-1.753749e-2)"
   style="fill:#ffd200;fill-rule:evenodd"
   id="polygon59" />
<polygon
   points="21.039,5.713 20.899,5.973 20.569,6.259 20.331,6.273 20.521,6.434 20.654,6.868 20.621,7.037 20.835,6.955 21.264,6.947 21.501,7.049 21.435,6.809 21.554,6.459 21.735,6.266 21.509,6.229 21.159,5.936 21.039,5.713 "
   transform="translate(-2.04995e-2,-1.753749e-2)"
   style="fill:none;stroke:#793f11;stroke-width:0.064;stroke-miterlimit:3.86400008"
   id="polygon61" />
<circle
   cx="21.033001"
   cy="6.4749999"
   r="0.56599998"
   transform="translate(-2.04995e-2,-1.753749e-2)"
   style="fill:#ffd200"
   id="circle63" />
<circle
   cx="21.033001"
   cy="6.4749999"
   r="0.56599998"
   transform="translate(-2.04995e-2,-1.753749e-2)"
   style="fill:none;stroke:#793f11;stroke-width:0.064;stroke-miterlimit:3.86400008"
   id="circle65" />
<circle
   cx="21.037001"
   cy="6.4770002"
   r="0.338"
   transform="translate(-2.04995e-2,-1.753749e-2)"
   style="fill:#ffd200"
   id="circle67" />
<circle
   cx="21.037001"
   cy="6.4770002"
   r="0.338"
   transform="translate(-2.04995e-2,-1.753749e-2)"
   style="fill:none;stroke:#793f11;stroke-width:0.064;stroke-miterlimit:3.86400008"
   id="circle69" />
<polygon
   points="12.39,5.553 12.068,5.494 11.981,5.104 12.42,5.237 12.39,5.553 "
   transform="translate(-2.04995e-2,-1.753749e-2)"
   style="fill:#ffd200"
   id="polygon71" />
<polygon
   points="12.39,5.553 12.068,5.494 11.981,5.104 12.42,5.237 12.39,5.553 "
   transform="translate(-2.04995e-2,-1.753749e-2)"
   style="fill:none;stroke:#793f11;stroke-width:0.064;stroke-miterlimit:3.86400008"
   id="polygon73" />
<path
   d="M 11.8505,7.1834625 C 11.4115,7.1834625 11.4505,6.7034625 11.5515,6.2964625 C 11.6445,5.9234625 11.8355,5.2964625 12.3865,5.5734625 C 12.2965,5.0464625 12.7935,4.9174625 13.2125,4.9174625 C 13.5965,4.9174625 14.2735,4.9324625 14.1375,5.5344625 C 14.6185,5.3024625 14.9265,5.7504625 15.0425,6.1534625 C 15.1475,6.5224625 15.3195,7.1764625 14.7045,7.2144625 C 15.0865,7.5874625 14.7265,7.9484625 14.3875,8.1944625 C 14.0765,8.4214625 13.5765,8.7864625 13.3335,8.2194625 C 13.0795,8.6904625 12.5635,8.4864625 12.2335,8.2284625 C 11.9305,7.9924625 11.4405,7.6204625 11.8755,7.1814625 C 11.8755,7.1824625 11.9255,7.1834625 11.8505,7.1834625 z "
   style="fill:#ffd200;fill-rule:evenodd"
   id="path75" />
<path
   d="M 11.8505,7.1834625 C 11.4115,7.1834625 11.4505,6.7034625 11.5515,6.2964625 C 11.6445,5.9234625 11.8355,5.2964625 12.3865,5.5734625 C 12.2965,5.0464625 12.7935,4.9174625 13.2125,4.9174625 C 13.5965,4.9174625 14.2735,4.9324625 14.1375,5.5344625 C 14.6185,5.3024625 14.9265,5.7504625 15.0425,6.1534625 C 15.1475,6.5224625 15.3195,7.1764625 14.7045,7.2144625 C 15.0865,7.5874625 14.7265,7.9484625 14.3875,8.1944625 C 14.0765,8.4214625 13.5765,8.7864625 13.3335,8.2194625 C 13.0795,8.6904625 12.5635,8.4864625 12.2335,8.2284625 C 11.9305,7.9924625 11.4405,7.6204625 11.8755,7.1814625 C 11.8755,7.1824625 11.9255,7.1834625 11.8505,7.1834625 z "
   style="fill:none;stroke:#793f11;stroke-width:0.064;stroke-miterlimit:3.86400008"
   id="path77" />
<g
   transform="translate(-2.04995e-2,-1.753749e-2)"
   id="g79">
	<defs
   id="defs81">
		<path
   d="M 12.736,6.771 C 12.736,6.45 12.998,6.189 13.32,6.189 C 13.642,6.189 13.903,6.45 13.903,6.771 C 13.903,7.093 13.642,7.355 13.32,7.355 C 12.998,7.355 12.736,7.094 12.736,6.771"
   id="XMLID_3_" />
	</defs>
	<clipPath
   id="XMLID_6_">
		<use
   id="use85"
   x="0"
   y="0"
   width="28.455999"
   height="13.844"
   xlink:href="#XMLID_3_" />
	</clipPath>
	<path
   d="M 13.901,6.773 L 13.901,6.773 C 13.901,7.095 13.639,7.355 13.318,7.355 C 12.997,7.355 12.735,7.095 12.735,6.773 C 12.735,6.452 12.997,6.189 13.318,6.189 C 13.639,6.189 13.901,6.452 13.901,6.773 M 14.054,6.797 C 14.054,6.383 13.719,6.048 13.305,6.048 C 12.892,6.048 12.556,6.383 12.556,6.797 C 12.556,7.211 12.892,7.546 13.305,7.546 C 13.719,7.546 14.054,7.211 14.054,6.797"
   style="fill:#ffd200"
   clip-path="url(#XMLID_6_)"
   id="path87" />
	<path
   d="M 13.735,6.773 L 13.735,6.773 C 13.735,7.002 13.547,7.189 13.318,7.189 C 13.089,7.189 12.902,7.002 12.902,6.773 C 12.902,6.543 13.089,6.357 13.318,6.357 C 13.547,6.357 13.735,6.543 13.735,6.773 M 13.888,6.768 C 13.888,6.446 13.627,6.184 13.305,6.184 C 12.984,6.184 12.722,6.446 12.722,6.768 C 12.722,7.089 12.984,7.35 13.305,7.35 C 13.627,7.35 13.888,7.089 13.888,6.768"
   style="fill:#ffdb5d"
   clip-path="url(#XMLID_6_)"
   id="path89" />
	<path
   d="M 13.568,6.773 L 13.568,6.773 C 13.568,6.911 13.456,7.023 13.318,7.023 C 13.179,7.023 13.069,6.911 13.069,6.773 C 13.069,6.634 13.179,6.523 13.318,6.523 C 13.456,6.523 13.568,6.635 13.568,6.773 M 13.751,6.768 C 13.751,6.538 13.565,6.352 13.335,6.352 C 13.106,6.352 12.919,6.538 12.919,6.768 C 12.919,6.997 13.106,7.184 13.335,7.184 C 13.565,7.184 13.751,6.997 13.751,6.768"
   style="fill:#ffe693"
   clip-path="url(#XMLID_6_)"
   id="path91" />
	<path
   d="M 13.402,6.773 L 13.402,6.773 C 13.402,6.818 13.364,6.857 13.318,6.857 C 13.272,6.857 13.235,6.818 13.235,6.773 C 13.235,6.726 13.272,6.689 13.318,6.689 C 13.364,6.689 13.402,6.727 13.402,6.773 M 13.585,6.768 C 13.585,6.629 13.473,6.518 13.335,6.518 C 13.197,6.518 13.085,6.629 13.085,6.768 C 13.085,6.905 13.197,7.018 13.335,7.018 C 13.473,7.018 13.585,6.904 13.585,6.768"
   style="fill:#fff1c7"
   clip-path="url(#XMLID_6_)"
   id="path93" />
	<path
   d="M 13.388,6.768 C 13.388,6.721 13.352,6.684 13.305,6.684 C 13.259,6.684 13.222,6.721 13.222,6.768 C 13.222,6.813 13.259,6.85 13.305,6.85 C 13.352,6.85 13.388,6.813 13.388,6.768"
   style="fill:white"
   clip-path="url(#XMLID_6_)"
   id="path95" />
</g>
<path
   d="M 13.4495,8.0054625 L 13.2055,8.0024625 C 13.1405,8.0104625 13.1415,8.1964625 13.0425,8.2644625 C 12.8195,8.4144625 12.6805,8.0514625 12.4455,7.9184625 C 12.2605,7.8124625 12.0735,7.7834625 11.9695,7.6494625 C 11.8665,7.5194625 12.0385,7.4204625 12.1555,7.2984625 L 12.1345,7.0594625 C 12.1055,6.9994625 11.9305,7.0614625 11.8345,6.9894625 C 11.6185,6.8284625 11.9185,6.5784625 11.9675,6.3144625 C 12.0075,6.1044625 11.9735,5.9194625 12.0655,5.7764625 C 12.1565,5.6384625 12.3145,5.7764625 12.4655,5.8474625 L 12.6025,5.7114625 C 12.6525,5.6674625 12.5475,5.5144625 12.5915,5.4034625 C 12.6915,5.1534625 13.0115,5.3774625 13.2795,5.3574625 C 13.4915,5.3414625 13.6625,5.2604625 13.8235,5.3134625 C 13.9815,5.3634625 13.9045,5.5524625 13.8755,5.7164625 M 14.5025,6.9944625 L 14.4345,7.2194625 C 14.4225,7.2824625 14.6005,7.3364625 14.6365,7.4504625 C 14.7155,7.7074625 14.3255,7.7344625 14.1305,7.9184625 C 13.9755,8.0644625 13.8945,8.2344625 13.7345,8.2954625 C 13.5815,8.3554625 13.5125,8.1374625 13.4325,7.9894625 M 13.8755,5.6814625 L 14.0905,5.8394625 M 14.0665,5.8304625 C 14.1245,5.8644625 14.2465,5.6864625 14.3795,5.6934625 C 14.6485,5.7064625 14.5325,6.0844625 14.6355,6.3324625 C 14.7165,6.5294625 14.8465,6.6664625 14.8465,6.8364625 C 14.8465,7.0024625 14.6435,6.9874625 14.4775,7.0104625 M 12.8885,7.1364625 L 12.8475,7.3704625 L 13.0805,7.2724625 M 12.7275,6.7164625 L 12.5305,6.5324625 L 12.7955,6.5134625 M 13.1565,6.1934625 L 13.3025,5.9454625 L 13.4425,6.2014625 M 13.7395,7.1004625 L 13.7955,7.3764625 L 13.5405,7.2654625 M 13.8035,6.4904625 L 14.0555,6.5274625 L 13.8825,6.7124625 M 12.7155,6.7534625 C 12.7155,6.4324625 12.9775,6.1714625 13.2995,6.1714625 C 13.6215,6.1714625 13.8825,6.4324625 13.8825,6.7534625 C 13.8825,7.0754625 13.6215,7.3374625 13.2995,7.3374625 C 12.9775,7.3374625 12.7155,7.0764625 12.7155,6.7534625 z "
   style="fill:none;stroke:#793f11;stroke-width:0.064;stroke-miterlimit:3.86400008"
   id="path97" />
<polygon
   points="14.196,5.523 14.158,5.214 14.524,5.029 14.524,5.462 14.196,5.523 "
   transform="translate(-2.04995e-2,-1.753749e-2)"
   style="fill:#ffd200;fill-rule:evenodd"
   id="polygon99" />
<polygon
   points="14.196,5.523 14.158,5.214 14.524,5.029 14.524,5.462 14.196,5.523 "
   transform="translate(-2.04995e-2,-1.753749e-2)"
   style="fill:none;stroke:#793f11;stroke-width:0.064;stroke-miterlimit:3.86400008"
   id="polygon101" />
<polygon
   points="11.871,7.215 11.706,7.555 11.277,7.456 11.555,7.118 11.871,7.215 "
   transform="translate(-2.04995e-2,-1.753749e-2)"
   style="fill:#ffd200"
   id="polygon103" />
<polygon
   points="11.871,7.215 11.706,7.555 11.277,7.456 11.555,7.118 11.871,7.215 "
   transform="translate(-2.04995e-2,-1.753749e-2)"
   style="fill:none;stroke:#793f11;stroke-width:0.064;stroke-miterlimit:3.86400008"
   id="polygon105" />
<polygon
   points="14.783,7.268 15.077,7.15 15.315,7.471 14.932,7.532 14.783,7.268 "
   transform="translate(-2.04995e-2,-1.753749e-2)"
   style="fill:#ffd200"
   id="polygon107" />
<polygon
   points="14.783,7.268 15.077,7.15 15.315,7.471 14.932,7.532 14.783,7.268 "
   transform="translate(-2.04995e-2,-1.753749e-2)"
   style="fill:none;stroke:#793f11;stroke-width:0.064;stroke-miterlimit:3.86400008"
   id="polygon109" />
<polygon
   points="13.37,8.291 13.567,8.525 13.373,8.932 13.146,8.502 13.37,8.291 "
   transform="translate(-2.04995e-2,-1.753749e-2)"
   style="fill:#ffd200"
   id="polygon111" />
<polygon
   points="13.37,8.291 13.567,8.525 13.373,8.932 13.146,8.502 13.37,8.291 "
   transform="translate(-2.04995e-2,-1.753749e-2)"
   style="fill:none;stroke:#793f11;stroke-width:0.064;stroke-miterlimit:3.86400008"
   id="polygon113" />
<path
   d="M 12.3845,5.5954625 C 12.3835,5.5794625 12.3795,5.5944625 12.3775,5.5804625"
   style="fill:none;stroke:#793f11;stroke-width:0.064;stroke-miterlimit:3.86400008"
   id="path115" />
<polygon
   points="13.32,6.016 13.18,6.275 12.849,6.561 12.612,6.575 12.8,6.736 12.936,7.171 12.902,7.34 13.117,7.257 13.545,7.25 13.782,7.352 13.714,7.109 13.835,6.761 14.017,6.568 13.79,6.531 13.44,6.236 13.32,6.016 "
   transform="translate(-2.04995e-2,-1.753749e-2)"
   style="fill:#ffd200;fill-rule:evenodd"
   id="polygon117" />
<polygon
   points="13.32,6.016 13.18,6.275 12.849,6.561 12.612,6.575 12.8,6.736 12.936,7.171 12.902,7.34 13.117,7.257 13.545,7.25 13.782,7.352 13.714,7.109 13.835,6.761 14.017,6.568 13.79,6.531 13.44,6.236 13.32,6.016 "
   transform="translate(-2.04995e-2,-1.753749e-2)"
   style="fill:none;stroke:#793f11;stroke-width:0.064;stroke-miterlimit:3.86400008"
   id="polygon119" />
<circle
   cx="13.314"
   cy="6.7750001"
   r="0.56599998"
   transform="translate(-2.04995e-2,-1.753749e-2)"
   style="fill:#ffd200"
   id="circle121" />
<circle
   cx="13.314"
   cy="6.7750001"
   r="0.56599998"
   transform="translate(-2.04995e-2,-1.753749e-2)"
   style="fill:none;stroke:#793f11;stroke-width:0.064;stroke-miterlimit:3.86400008"
   id="circle123" />
<circle
   cx="13.318"
   cy="6.7789998"
   r="0.338"
   transform="translate(-2.04995e-2,-1.753749e-2)"
   style="fill:#ffd200"
   id="circle125" />
<circle
   cx="13.318"
   cy="6.7789998"
   r="0.338"
   transform="translate(-2.04995e-2,-1.753749e-2)"
   style="fill:none;stroke:#793f11;stroke-width:0.064;stroke-miterlimit:3.86400008"
   id="circle127" />
<polyline
   clip-rule="evenodd"
   points="9.285,2.984 7.762,3.155 3.804,11.752 9.285,11.297   7.876,10.57 8.446,9.889 6.794,10.116 7.99,9.204 10.083,9.146 9.57,8.635 10.197,8.309 8.958,8.309 10.254,7.624 9.513,7.51   9.798,6.884 8.503,7.682 8.561,7.055 8.218,7.51 7.876,6.884 7.478,8.479 6.354,9.318 6.852,8.137 6.182,8.365 7.42,4.962   8.161,4.735 8.332,5.076 8.617,4.165 9.513,5.247 9.57,4.735 10.197,4.735 9.513,3.994 10.424,3.994 9.285,2.984 "
   id="polyline129"
   style="fill:white;fill-rule:evenodd"
   transform="translate(-2.04995e-2,-1.753749e-2)" />
</svg>