<?xml version="1.0" encoding="UTF-8" standalone="no"?>
<!-- Created with Inkscape (http://www.inkscape.org/) -->
<svg
   xmlns:svg="http://www.w3.org/2000/svg"
   xmlns="http://www.w3.org/2000/svg"
   xmlns:xlink="http://www.w3.org/1999/xlink"
   version="1.0"
   width="455.07965"
   height="220.24754"
   viewBox="0 0 28.676 13.856"
   id="Layer_1"
   xml:space="preserve"><defs
   id="defs82" />
<path
   d="M 28.5785,0.023254697 L 5.6475,0.9072547 L 0.034499999,13.802255 L 27.5515,11.592255 C 27.5515,11.592255 25.6555,8.7922547 27.9475,5.9912547 C 27.9475,5.9922547 26.5225,2.4552547 28.5785,0.023254697 z "
   style="fill:#33725b"
   id="path3" />
<path
   d="M 28.5785,0.023254697 L 5.6475,0.9072547 L 0.034499999,13.802255 L 27.5515,11.592255 C 27.5515,11.592255 25.6555,8.7922547 27.9475,5.9912547 C 27.9475,5.9922547 26.5225,2.4552547 28.5785,0.023254697 z "
   style="fill:none;stroke:#33725b;stroke-width:0.069;stroke-miterlimit:3.86400008"
   id="path5" />
<path
   d="M 26.8405,1.0542547 L 6.3605,1.9392547 L 1.7745,12.698255 L 25.9705,10.929255 C 25.9705,10.929255 25.1795,7.2442547 26.8405,6.0652547 C 26.8405,6.0652547 25.5195,2.8022547 26.8405,1.0542547"
   style="fill:white"
   id="path7" />
<path
   d="M 25.8055,1.6962547 L 6.9535,2.6602547 L 3.0255,11.870255 L 24.7855,10.174255 C 24.7855,10.174255 24.3935,7.2492547 26.0555,5.9972547 C 26.0555,5.9972547 24.3945,3.5502547 25.8055,1.6962547 z "
   style="fill:#33725b"
   id="path9" />
<path
   d="M 25.8055,1.6962547 L 6.9535,2.6602547 L 3.0255,11.870255 L 24.7855,10.174255 C 24.7855,10.174255 24.3935,7.2492547 26.0555,5.9972547 C 26.0555,5.9972547 24.3945,3.5502547 25.8055,1.6962547 z "
   style="fill:none;stroke:#33725b;stroke-width:0.069;stroke-miterlimit:3.86400008"
   id="path11" />
<path
   d="M 24.3025,2.6242547 L 7.5465,3.3392547 L 4.3045,11.002255 L 23.8345,9.4552547 C 23.8345,9.4552547 23.6775,7.0232547 25.0215,6.1392547 C 25.0215,6.1392547 23.5905,3.5072547 24.3025,2.6242547"
   style="fill:white"
   id="path13" />
<path
   d="M 23.3955,3.2662547 L 7.9415,4.0762547 L 5.3325,10.340255 L 23.1095,8.8542547 C 23.1095,8.8542547 23.2875,6.6232547 24.2695,6.1572547 C 24.2705,6.1572547 22.8615,4.0032547 23.3955,3.2662547 z "
   style="fill:#33725b"
   id="path15" />
<path
   d="M 23.3955,3.2662547 L 7.9415,4.0762547 L 5.3325,10.340255 L 23.1095,8.8542547 C 23.1095,8.8542547 23.2875,6.6232547 24.2695,6.1572547 C 24.2705,6.1572547 22.8615,4.0032547 23.3955,3.2662547 z "
   style="fill:none;stroke:#33725b;stroke-width:0.069;stroke-miterlimit:3.86400008"
   id="path17" />
<path
   d="M 6.5135,7.9032547 L 5.6595,10.090255 L 8.6445,9.8562547 L 8.4265,9.5672547 L 8.8635,9.2682547 L 8.0305,9.2892547 L 8.5305,8.8232547 L 10.3285,8.6842547 C 10.3285,8.6842547 9.9535,8.4272547 9.9955,8.4272547 C 10.0365,8.4272547 10.2455,8.0532547 10.2455,8.0532547 L 9.4365,8.1712547 L 10.6095,7.2842547 L 10.0055,7.2522547 L 10.1625,6.7612547 L 8.9885,7.4652547 L 9.1035,6.8352547 L 8.6965,7.1242547 L 8.5095,6.8682547 L 8.0405,8.1822547 L 6.8465,8.8862547 L 7.0965,7.8502547 L 6.6475,8.1822547 L 6.5135,7.9032547"
   style="fill:white;fill-rule:evenodd"
   id="path19" />
<polyline
   clip-rule="evenodd"
   points="9.499,4.266 8.057,4.308 7.636,5.292 7.866,5.209   8.017,5.583 8.263,4.878 8.945,5.64 9.047,5.243 9.499,5.292 9.024,4.588 9.752,4.531 9.499,4.266 "
   id="polyline21"
   style="fill:white;fill-rule:evenodd"
   transform="translate(-2.04999e-2,-1.47453e-2)" />
<polygon
   points="15.323,5.115 14.968,5.049 14.871,4.62 15.355,4.766 15.323,5.115 "
   transform="translate(-2.04999e-2,-1.47453e-2)"
   style="fill:#ffd200"
   id="polygon23" />
<polygon
   points="15.323,5.115 14.968,5.049 14.871,4.62 15.355,4.766 15.323,5.115 "
   transform="translate(-2.04999e-2,-1.47453e-2)"
   style="fill:none;stroke:#793f11;stroke-width:0.064;stroke-miterlimit:3.86400008"
   id="polygon25" />
<path
   d="M 14.7295,6.9162547 C 14.2465,6.9162547 14.2875,6.3882547 14.4005,5.9392547 C 14.5025,5.5292547 14.7125,4.8372547 15.3205,5.1432547 C 15.2205,4.5622547 15.7685,4.4202547 16.2305,4.4202547 C 16.6545,4.4202547 17.4005,4.4362547 17.2505,5.1002547 C 17.7815,4.8442547 18.1215,5.3382547 18.2485,5.7822547 C 18.3655,6.1892547 18.5555,6.9112547 17.8755,6.9512547 C 18.2985,7.3622547 17.9005,7.7612547 17.5275,8.0322547 C 17.1835,8.2802547 16.6325,8.6842547 16.3635,8.0612547 C 16.0845,8.5792547 15.5165,8.3542547 15.1525,8.0692547 C 14.8185,7.8092547 14.2795,7.3992547 14.7565,6.9162547 C 14.7575,6.9162547 14.8125,6.9162547 14.7295,6.9162547 z "
   style="fill:#ffd200;fill-rule:evenodd"
   id="path27" />
<path
   d="M 14.7295,6.9162547 C 14.2465,6.9162547 14.2875,6.3882547 14.4005,5.9392547 C 14.5025,5.5292547 14.7125,4.8372547 15.3205,5.1432547 C 15.2205,4.5622547 15.7685,4.4202547 16.2305,4.4202547 C 16.6545,4.4202547 17.4005,4.4362547 17.2505,5.1002547 C 17.7815,4.8442547 18.1215,5.3382547 18.2485,5.7822547 C 18.3655,6.1892547 18.5555,6.9112547 17.8755,6.9512547 C 18.2985,7.3622547 17.9005,7.7612547 17.5275,8.0322547 C 17.1835,8.2802547 16.6325,8.6842547 16.3635,8.0612547 C 16.0845,8.5792547 15.5165,8.3542547 15.1525,8.0692547 C 14.8185,7.8092547 14.2795,7.3992547 14.7565,6.9162547 C 14.7575,6.9162547 14.8125,6.9162547 14.7295,6.9162547 z "
   style="fill:none;stroke:#793f11;stroke-width:0.064;stroke-miterlimit:3.86400008"
   id="path29" />
<g
   transform="translate(-2.04999e-2,-1.47453e-2)"
   id="g31">
	<defs
   id="defs33">
		<path
   d="M 15.704,6.457 C 15.704,6.103 15.992,5.815 16.348,5.815 C 16.702,5.815 16.991,6.102 16.991,6.457 C 16.991,6.812 16.703,7.101 16.348,7.101 C 15.992,7.101 15.704,6.813 15.704,6.457"
   id="XMLID_1_" />
	</defs>
	<clipPath
   id="XMLID_3_">
		<use
   id="use37"
   x="0"
   y="0"
   width="28.676001"
   height="13.856"
   xlink:href="#XMLID_1_" />
	</clipPath>
	<path
   d="M 16.994,6.461 L 16.994,6.461 C 16.994,6.815 16.706,7.104 16.351,7.104 C 15.996,7.104 15.708,6.816 15.708,6.461 C 15.708,6.106 15.995,5.818 16.351,5.818 C 16.706,5.818 16.994,6.106 16.994,6.461 M 17.181,6.461 C 17.181,6.004 16.812,5.635 16.355,5.635 C 15.9,5.635 15.53,6.004 15.53,6.461 C 15.53,6.916 15.9,7.287 16.355,7.287 C 16.812,7.287 17.181,6.916 17.181,6.461"
   style="fill:#ffd200"
   clip-path="url(#XMLID_3_)"
   id="path39" />
	<path
   d="M 16.81,6.461 L 16.81,6.461 C 16.81,6.715 16.605,6.92 16.351,6.92 C 16.097,6.92 15.892,6.715 15.892,6.461 C 15.892,6.207 16.097,6.002 16.351,6.002 C 16.605,6.002 16.81,6.207 16.81,6.461 M 16.999,6.461 C 16.999,6.106 16.711,5.818 16.355,5.818 C 16.001,5.818 15.714,6.105 15.714,6.461 C 15.714,6.815 16,7.104 16.355,7.104 C 16.71,7.104 16.999,6.815 16.999,6.461"
   style="fill:#ffdb5d"
   clip-path="url(#XMLID_3_)"
   id="path41" />
	<path
   d="M 16.626,6.461 L 16.626,6.461 C 16.626,6.613 16.502,6.736 16.351,6.736 C 16.199,6.736 16.076,6.613 16.076,6.461 C 16.076,6.31 16.199,6.186 16.351,6.186 C 16.502,6.186 16.626,6.31 16.626,6.461 M 16.814,6.461 C 16.814,6.207 16.609,6.002 16.355,6.002 C 16.103,6.002 15.896,6.207 15.896,6.461 C 15.896,6.713 16.103,6.92 16.355,6.92 C 16.609,6.92 16.814,6.713 16.814,6.461"
   style="fill:#ffe693"
   clip-path="url(#XMLID_3_)"
   id="path43" />
	<path
   d="M 16.443,6.461 L 16.443,6.461 C 16.443,6.512 16.402,6.554 16.351,6.554 C 16.3,6.554 16.259,6.512 16.259,6.461 C 16.259,6.41 16.3,6.369 16.351,6.369 C 16.402,6.369 16.443,6.41 16.443,6.461 M 16.632,6.461 C 16.632,6.309 16.507,6.186 16.355,6.186 C 16.204,6.186 16.081,6.309 16.081,6.461 C 16.081,6.613 16.204,6.735 16.355,6.735 C 16.507,6.735 16.632,6.613 16.632,6.461"
   style="fill:#fff1c7"
   clip-path="url(#XMLID_3_)"
   id="path45" />
	<path
   d="M 16.448,6.461 C 16.448,6.41 16.407,6.369 16.355,6.369 C 16.304,6.369 16.263,6.41 16.263,6.461 C 16.263,6.512 16.304,6.553 16.355,6.553 C 16.407,6.553 16.448,6.512 16.448,6.461"
   style="fill:white"
   clip-path="url(#XMLID_3_)"
   id="path47" />
</g>
<path
   d="M 16.4925,7.8232547 L 16.2215,7.8192547 C 16.1505,7.8292547 16.1525,8.0322547 16.0405,8.1082547 C 15.7965,8.2742547 15.6425,7.8732547 15.3855,7.7252547 C 15.1815,7.6082547 14.9755,7.5782547 14.8615,7.4302547 C 14.7485,7.2862547 14.9365,7.1762547 15.0665,7.0442547 L 15.0415,6.7792547 C 15.0095,6.7142547 14.8165,6.7812547 14.7095,6.7022547 C 14.4735,6.5252547 14.8035,6.2492547 14.8575,5.9572547 C 14.9005,5.7272547 14.8635,5.5222547 14.9655,5.3652547 C 15.0645,5.2122547 15.2395,5.3642547 15.4055,5.4432547 L 15.5555,5.2922547 C 15.6105,5.2452547 15.4945,5.0762547 15.5435,4.9532547 C 15.6545,4.6782547 16.0065,4.9252547 16.3015,4.9032547 C 16.5355,4.8852547 16.7245,4.7952547 16.9035,4.8532547 C 17.0755,4.9102547 16.9915,5.1182547 16.9585,5.2992547 M 17.6545,6.7092547 L 17.5785,6.9552547 C 17.5645,7.0262547 17.7615,7.0852547 17.8015,7.2112547 C 17.8885,7.4942547 17.4595,7.5242547 17.2425,7.7282547 C 17.0725,7.8882547 16.9815,8.0772547 16.8075,8.1442547 C 16.6365,8.2082547 16.5625,7.9672547 16.4735,7.8052547 M 16.9615,5.2602547 L 17.1975,5.4352547 M 17.1725,5.4252547 C 17.2355,5.4622547 17.3695,5.2652547 17.5175,5.2732547 C 17.8135,5.2882547 17.6865,5.7042547 17.7995,5.9792547 C 17.8885,6.1962547 18.0315,6.3482547 18.0315,6.5352547 C 18.0315,6.7172547 17.8065,6.7012547 17.6255,6.7252547 M 15.8735,6.8662547 L 15.8285,7.1232547 L 16.0865,7.0172547 M 15.6955,6.4012547 L 15.4795,6.1982547 L 15.7715,6.1772547 M 16.1685,5.8252547 L 16.3305,5.5522547 L 16.4845,5.8342547 M 16.8125,6.8252547 L 16.8725,7.1292547 L 16.5935,7.0072547 M 16.8825,6.1532547 L 17.1605,6.1942547 L 16.9695,6.3972547 M 15.6835,6.4422547 C 15.6835,6.0882547 15.9715,5.8002547 16.3275,5.8002547 C 16.6815,5.8002547 16.9705,6.0872547 16.9705,6.4422547 C 16.9705,6.7972547 16.6825,7.0862547 16.3275,7.0862547 C 15.9715,7.0862547 15.6835,6.7982547 15.6835,6.4422547 z "
   style="fill:none;stroke:#793f11;stroke-width:0.064;stroke-miterlimit:3.86400008"
   id="path49" />
<polygon
   points="17.314,5.081 17.271,4.741 17.675,4.537 17.675,5.015 17.314,5.081 "
   transform="translate(-2.04999e-2,-1.47453e-2)"
   style="fill:#ffd200"
   id="polygon51" />
<polygon
   points="17.314,5.081 17.271,4.741 17.675,4.537 17.675,5.015 17.314,5.081 "
   transform="translate(-2.04999e-2,-1.47453e-2)"
   style="fill:none;stroke:#793f11;stroke-width:0.064;stroke-miterlimit:3.86400008"
   id="polygon53" />
<polygon
   points="14.75,6.947 14.568,7.32 14.095,7.213 14.402,6.84 14.75,6.947 "
   transform="translate(-2.04999e-2,-1.47453e-2)"
   style="fill:#ffd200"
   id="polygon55" />
<polygon
   points="14.75,6.947 14.568,7.32 14.095,7.213 14.402,6.84 14.75,6.947 "
   transform="translate(-2.04999e-2,-1.47453e-2)"
   style="fill:none;stroke:#793f11;stroke-width:0.064;stroke-miterlimit:3.86400008"
   id="polygon57" />
<polygon
   points="17.96,7.006 18.285,6.877 18.548,7.229 18.125,7.297 17.96,7.006 "
   transform="translate(-2.04999e-2,-1.47453e-2)"
   style="fill:#ffd200"
   id="polygon59" />
<polygon
   points="17.96,7.006 18.285,6.877 18.548,7.229 18.125,7.297 17.96,7.006 "
   transform="translate(-2.04999e-2,-1.47453e-2)"
   style="fill:none;stroke:#793f11;stroke-width:0.064;stroke-miterlimit:3.86400008"
   id="polygon61" />
<polygon
   points="16.403,8.134 16.62,8.391 16.406,8.84 16.156,8.365 16.403,8.134 "
   transform="translate(-2.04999e-2,-1.47453e-2)"
   style="fill:#ffd200"
   id="polygon63" />
<polygon
   points="16.403,8.134 16.62,8.391 16.406,8.84 16.156,8.365 16.403,8.134 "
   transform="translate(-2.04999e-2,-1.47453e-2)"
   style="fill:none;stroke:#793f11;stroke-width:0.064;stroke-miterlimit:3.86400008"
   id="polygon65" />
<path
   d="M 15.3185,5.1662547 C 15.3165,5.1492547 15.3125,5.1652547 15.3095,5.1502547"
   style="fill:none;stroke:#793f11;stroke-width:0.064;stroke-miterlimit:3.86400008"
   id="path67" />
<polygon
   points="16.347,5.625 16.194,5.911 15.829,6.226 15.568,6.242 15.775,6.42 15.923,6.897 15.886,7.084 16.123,6.992 16.595,6.984 16.858,7.097 16.783,6.832 16.916,6.447 17.115,6.233 16.866,6.192 16.48,5.869 16.347,5.625 "
   transform="translate(-2.04999e-2,-1.47453e-2)"
   style="fill:#ffd200;fill-rule:evenodd"
   id="polygon69" />
<polygon
   points="16.347,5.625 16.194,5.911 15.829,6.226 15.568,6.242 15.775,6.42 15.923,6.897 15.886,7.084 16.123,6.992 16.595,6.984 16.858,7.097 16.783,6.832 16.916,6.447 17.115,6.233 16.866,6.192 16.48,5.869 16.347,5.625 "
   transform="translate(-2.04999e-2,-1.47453e-2)"
   style="fill:none;stroke:#793f11;stroke-width:0.064;stroke-miterlimit:3.86400008"
   id="polygon71" />
<circle
   cx="16.34"
   cy="6.4629998"
   r="0.62400001"
   transform="translate(-2.04999e-2,-1.47453e-2)"
   style="fill:#ffd200"
   id="circle73" />
<circle
   cx="16.34"
   cy="6.4629998"
   r="0.62400001"
   transform="translate(-2.04999e-2,-1.47453e-2)"
   style="fill:none;stroke:#793f11;stroke-width:0.064;stroke-miterlimit:3.86400008"
   id="circle75" />
<circle
   cx="16.344999"
   cy="6.467"
   r="0.373"
   transform="translate(-2.04999e-2,-1.47453e-2)"
   style="fill:#ffd200"
   id="circle77" />
<circle
   cx="16.344999"
   cy="6.467"
   r="0.373"
   transform="translate(-2.04999e-2,-1.47453e-2)"
   style="fill:none;stroke:#793f11;stroke-width:0.064;stroke-miterlimit:3.86400008"
   id="circle79" />
</svg>