<?xml version="1.0" encoding="UTF-8" standalone="no"?>
<!-- Created with Inkscape (http://www.inkscape.org/) -->
<svg
   xmlns:svg="http://www.w3.org/2000/svg"
   xmlns="http://www.w3.org/2000/svg"
   version="1.0"
   width="283.98337"
   height="250.94"
   viewBox="0 0 29.361 25.942"
   id="Layer_1"
   xml:space="preserve"><defs
   id="defs34" />
<polygon
   points="4.428,0.552 0.659,13.624 3.789,25.881 25.617,25.77 29.298,13.735 25.837,0.486 4.428,0.552 "
   transform="translate(-0.329605,-4.999983e-4)"
   style="fill:#a09da2"
   id="polygon3" />
<polygon
   points="4.428,0.552 0.659,13.624 3.789,25.881 25.617,25.77 29.298,13.735 25.837,0.486 4.428,0.552 "
   transform="translate(-0.329605,-4.999983e-4)"
   style="fill:none;stroke:#a7a3a8;stroke-width:0.123;stroke-miterlimit:3.86400008"
   id="polygon5" />
<polygon
   points="3.833,0.127 0.063,13.201 2.967,25.346 24.941,25.346 28.704,13.311 25.243,0.062 3.833,0.127 "
   transform="translate(-0.329605,-4.999983e-4)"
   style="fill:#bdc5c1"
   id="polygon7" />
<polygon
   points="3.833,0.127 0.063,13.201 2.967,25.346 24.941,25.346 28.704,13.311 25.243,0.062 3.833,0.127 "
   transform="translate(-0.329605,-4.999983e-4)"
   style="fill:none;stroke:#686469;stroke-width:0.123;stroke-miterlimit:3.86400008"
   id="polygon9" />
<circle
   cx="2.642"
   cy="13.201"
   r="1.675"
   transform="translate(-0.329605,-4.999983e-4)"
   style="fill:#95979a"
   id="circle11" />
<circle
   cx="2.642"
   cy="13.201"
   r="1.675"
   transform="translate(-0.329605,-4.999983e-4)"
   style="fill:none;stroke:#686469;stroke-width:0.123;stroke-miterlimit:3.86400008"
   id="circle13" />
<circle
   cx="26.174999"
   cy="13.07"
   r="1.675"
   transform="translate(-0.329605,-4.999983e-4)"
   style="fill:#95979a"
   id="circle15" />
<circle
   cx="26.174999"
   cy="13.07"
   r="1.675"
   transform="translate(-0.329605,-4.999983e-4)"
   style="fill:none;stroke:#686469;stroke-width:0.123;stroke-miterlimit:3.86400008"
   id="circle17" />
<rect
   width="19.097"
   height="8.4180002"
   x="4.5323949"
   y="9.0465002"
   style="fill:#ffd200"
   id="rect19" />
<rect
   width="19.097"
   height="8.4180002"
   x="4.5323949"
   y="9.0465002"
   style="fill:none;stroke:#ffd200;stroke-width:0.077;stroke-miterlimit:3.86400008"
   id="rect21" />
<path
   d="M 23.563395,17.1385 L 4.532395,17.1385 M 4.532395,16.7575 L 23.497395,16.7575 M 4.467395,9.7525 L 23.497395,9.7525 M 4.532395,9.3185 L 23.497395,9.3735"
   style="fill:none;stroke:#737477;stroke-width:0.077;stroke-miterlimit:3.86400008;stroke-dasharray:2.523, 2.523"
   id="path23" />
<path
   d="M 4.505395,17.1365 L 5.001395,16.6875 L 5.470395,17.1205 L 6.063395,16.7305 L 6.516395,17.0995 L 6.965395,16.7305 L 7.376395,17.1575 L 7.808395,16.7305 L 8.236395,17.1205 L 8.850395,16.7305 L 9.262395,17.1405 L 9.772395,16.7305 L 10.289395,17.1405 L 10.961395,16.7085 L 11.372395,17.1405 L 11.824395,16.7305 L 12.356395,17.1575 L 12.726395,16.7515 L 13.195395,17.1005 L 13.564395,16.7515 L 14.096395,17.1415 L 14.403395,16.7515 L 15.018395,17.1205 L 15.633395,16.7515 L 16.143395,17.1205 L 16.679395,16.7305 L 17.086395,17.1405 L 17.643395,16.7505 L 18.050395,17.1405 L 18.316395,16.7505 L 18.893395,17.1195 L 19.279395,16.7295 L 19.874395,17.1195 L 20.369395,16.7915 L 20.816395,17.1195 L 21.083395,16.7705 L 21.821395,17.1195 L 22.191395,16.7295 L 22.561395,17.1395 L 22.827395,16.7905 L 23.093395,17.1185 L 23.463395,16.7905 L 23.645395,17.1185 M 4.571395,9.7355 L 4.962395,9.3055 L 5.431395,9.7375 L 6.025395,9.3475 L 6.478395,9.7165 L 6.926395,9.3475 L 7.338395,9.7745 L 7.770395,9.3475 L 8.197395,9.7375 L 8.812395,9.3475 L 9.223395,9.7585 L 9.734395,9.3475 L 10.250395,9.7585 L 10.923395,9.3265 L 11.334395,9.7585 L 11.787395,9.3475 L 12.318395,9.7745 L 12.687395,9.3675 L 13.157395,9.7165 L 13.526395,9.3675 L 14.058395,9.7585 L 14.365395,9.3675 L 14.980395,9.7375 L 15.594395,9.3675 L 16.105395,9.7375 L 16.641395,9.3475 L 17.048395,9.7585 L 17.605395,9.3675 L 18.012395,9.7585 L 18.277395,9.3675 L 18.855395,9.7375 L 19.241395,9.3475 L 19.836395,9.7375 L 20.330395,9.4095 L 20.778395,9.7375 L 21.044395,9.3885 L 21.783395,9.7375 L 22.153395,9.3475 L 22.522395,9.7585 L 22.789395,9.4095 L 23.055395,9.7375 L 23.425395,9.4095 L 23.607395,9.7375 M 20.203395,11.6095 C 20.203395,11.6095 22.044395,11.6385 23.627395,13.1735 M 23.627395,13.7535 C 23.627395,13.7535 22.180395,11.7855 19.522395,11.9825 M 17.108395,14.1935 C 17.108395,14.1935 15.769395,14.0045 15.286395,14.4645 M 6.118395,13.2865 C 6.118395,13.2865 5.562395,12.6015 5.169395,12.9305 M 10.966395,12.6035 C 10.966395,12.6035 10.803395,12.6425 10.542395,12.5975 C 10.280395,12.5545 9.330395,12.5725 9.287395,12.4195 M 10.555395,11.3915 L 10.153395,11.3135 L 10.117395,11.2085 L 10.176395,11.0415 L 10.341395,11.0095 L 10.516395,10.9975 L 10.413395,10.9625 L 10.359395,10.7805 L 10.429395,10.7125 L 10.749395,10.6235 L 11.061395,10.7655 L 11.162395,10.9415 L 11.212395,11.0735 L 11.073395,11.1815 L 10.889395,11.1955 L 11.012395,11.3765 L 10.954395,11.5435 L 10.844395,11.5975 L 10.706395,11.5955 L 10.587395,11.5315 L 10.555395,11.3915 z M 7.218395,11.9435 C 7.218395,11.9435 10.035395,11.8345 10.379395,11.3995 M 4.509395,13.5645 C 4.509395,13.5645 6.584395,10.4105 11.579395,14.1225 C 11.579395,14.1225 14.424395,15.8325 16.705395,13.4695 C 18.060395,12.0655 19.214395,11.9785 19.521395,11.9845 C 19.574395,11.9845 19.603395,11.9885 19.603395,11.9885 C 19.603395,11.9885 19.079395,12.5865 19.603395,11.9885 M 4.445395,13.1195 C 4.445395,13.1195 6.561395,10.0765 11.556395,13.7895 C 11.556395,13.7895 14.288395,15.5705 16.569395,13.2085 C 18.157395,11.5625 19.467395,11.7255 19.467395,11.7255 C 19.467395,11.7255 20.466395,11.7475 20.989395,11.1495 C 21.514395,10.5505 20.989395,11.1495 20.989395,11.1495 L 21.101395,10.8855 L 20.705395,10.9505 C 20.592395,10.9445 20.512395,10.8795 20.465395,10.7545 L 20.640395,10.5995 L 21.058395,10.5125 L 21.080395,10.4035 C 21.080395,10.4035 20.864395,10.4365 20.882395,10.3365 C 20.804395,10.3085 20.975395,10.1625 20.975395,10.1625 L 21.148395,10.0785 C 21.192395,10.0235 21.396395,10.1235 21.396395,10.1235 L 21.480395,10.2215 C 21.480395,10.2215 21.587395,10.4165 21.570395,10.4755 C 21.559395,10.5265 21.365395,10.4915 21.365395,10.4915 L 21.454395,10.5995 L 21.584395,10.8425 L 21.497395,11.0185 L 21.276395,10.9945 L 21.102395,10.8855"
   style="fill:none;stroke:#737477;stroke-width:0.077;stroke-miterlimit:3.86400008;stroke-dasharray:1.261, 1.261"
   id="path25" />
<path
   d="M 10.948395,12.6675 C 10.948395,12.6675 11.527395,10.8795 13.102395,11.8425 C 13.102395,11.8425 13.495395,10.8975 14.691395,11.5725 C 14.691395,11.5725 15.245395,10.9355 16.028395,11.5245 L 16.027395,11.5895 C 16.027395,11.5895 16.767395,10.9325 17.296395,11.5335 C 16.964395,12.2375 16.193395,12.0675 16.193395,12.0675 L 16.139395,12.1125 C 15.576395,12.9165 14.738395,12.4915 14.738395,12.4915 C 13.809395,13.5035 13.188395,12.7235 13.188395,12.7235 C 11.988395,14.1255 10.959395,12.5635 10.959395,12.5635 C 10.959395,12.5635 15.871395,12.1195 17.233395,11.5635"
   style="fill:none;stroke:#737477;stroke-width:0.07;stroke-miterlimit:3.86400008;stroke-dasharray:1.261, 1.261"
   id="path27" />
<path
   d="M 6.029395,13.3435 C 6.029395,13.3435 7.629395,11.9985 8.545395,13.8335 C 8.545395,13.8335 9.472395,13.1735 10.202395,14.5135 C 10.202395,14.5135 11.098395,14.2395 11.488395,15.2555 L 11.449395,15.3175 C 11.449395,15.3175 12.533395,15.1325 12.678395,16.0115 C 11.951395,16.4785 11.326395,15.8655 11.326395,15.8655 L 11.248395,15.8765 C 10.244395,16.3015 9.705395,15.4085 9.705395,15.4085 C 8.233395,15.8145 8.107395,14.7155 8.107395,14.7155 C 6.150395,15.3295 6.101395,13.2525 6.101395,13.2525 C 6.101395,13.2525 10.990395,15.7255 12.602395,16.0035"
   style="fill:none;stroke:#737477;stroke-width:0.077;stroke-miterlimit:3.86400008;stroke-dasharray:1.261, 1.261"
   id="path29" />
<path
   d="M 17.032395,14.2485 C 17.032395,14.2485 18.264395,12.8295 19.338395,14.3315 C 19.338395,14.3315 20.068395,13.6145 20.905395,14.7035 C 20.905395,14.7035 21.665395,14.3325 22.155395,15.1825 L 22.130395,15.2425 C 22.130395,15.2425 23.067395,14.9275 23.318395,15.6865 C 22.737395,16.2035 22.095395,15.7465 22.095395,15.7465 L 22.027395,15.7675 C 21.195395,16.2875 20.590395,15.5695 20.590395,15.5695 C 19.339395,16.1365 19.072395,15.1775 19.072395,15.1775 C 17.420395,15.9995 17.083395,14.1595 17.083395,14.1595 C 17.083395,14.1595 21.777395,15.6685 23.250395,15.6885"
   style="fill:none;stroke:#737477;stroke-width:0.07;stroke-miterlimit:3.86400008;stroke-dasharray:1.261, 1.261"
   id="path31" />
</svg>