<?xml version="1.0" encoding="UTF-8" standalone="no"?>
<!-- Created with Inkscape (http://www.inkscape.org/) -->
<svg
   xmlns:svg="http://www.w3.org/2000/svg"
   xmlns="http://www.w3.org/2000/svg"
   version="1.0"
   width="509.52921"
   height="265.89011"
   viewBox="0 0 803.978 418.786"
   id="Layer_1"
   xml:space="preserve"><defs
   id="defs160" />
<path
   d="M 801.0257,0.64681576 L 174.7737,27.366813 L 1.0257,417.13382 L 769.1897,350.29282 C 769.1897,350.29282 710.4987,265.66682 781.4537,181.02581 C 781.4527,181.02581 737.4067,74.132813 801.0257,0.64681576 z "
   style="fill:#981038"
   id="path3" />
<path
   d="M 801.0257,0.64681576 L 174.7737,27.366813 L 1.0257,417.13382 L 769.1897,350.29282 C 769.1897,350.29282 710.4987,265.66682 781.4537,181.02581 C 781.4527,181.02581 737.4067,74.132813 801.0257,0.64681576 z "
   style="fill:none;stroke:#981038;stroke-width:2.05139995;stroke-miterlimit:3.86400008"
   id="path5" />
<path
   d="M 756.8717,31.169813 L 196.7817,58.525813 L 54.8447,383.72682 L 729.9897,332.64282 C 729.9897,332.64282 695.4727,234.30382 756.8727,184.80381 C 756.8717,184.80281 701.2387,72.779813 756.8717,31.169813 z "
   style="fill:#ffd600"
   id="path7" />
<path
   d="M 756.8717,31.169813 L 196.7817,58.525813 L 54.8447,383.72682 L 729.9897,332.64282 C 729.9897,332.64282 695.4727,234.30382 756.8727,184.80381 C 756.8717,184.80281 701.2387,72.779813 756.8717,31.169813 z "
   style="fill:none;stroke:#ffd600;stroke-width:2.05139995;stroke-miterlimit:3.86400008"
   id="path9" />
<path
   d="M 700.8057,59.919813 L 212.2397,86.856813 L 95.1277,355.68082 L 687.7307,309.60382 C 687.7307,309.60382 667.9957,218.53481 719.3767,180.67381 C 719.3767,180.67381 670.4317,109.89481 700.8057,59.919813 z "
   style="fill:#981038"
   id="path11" />
<path
   d="M 700.8057,59.919813 L 212.2397,86.856813 L 95.1277,355.68082 L 687.7307,309.60382 C 687.7307,309.60382 667.9957,218.53481 719.3767,180.67381 C 719.3767,180.67381 670.4317,109.89481 700.8057,59.919813 z "
   style="fill:none;stroke:#981038;stroke-width:2.05139995;stroke-miterlimit:3.86400008"
   id="path13" />
<path
   d="M 668.6447,79.235813 L 231.1637,102.85581 L 133.1637,332.50582 L 653.1597,292.33182 C 653.1597,292.33182 649.3157,212.21281 690.8977,185.49281 C 690.8977,185.49281 646.6087,105.95581 668.6447,79.235813 z "
   style="fill:#ffd600"
   id="path15" />
<path
   d="M 668.6447,79.235813 L 231.1637,102.85581 L 133.1637,332.50582 L 653.1597,292.33182 C 653.1597,292.33182 649.3157,212.21281 690.8977,185.49281 C 690.8977,185.49281 646.6087,105.95581 668.6447,79.235813 z "
   style="fill:none;stroke:#ffd600;stroke-width:2.05139995;stroke-miterlimit:3.86400008"
   id="path17" />
<path
   d="M 642.7097,92.514813 L 242.3437,114.57781 L 157.2837,317.27882 L 630.6077,279.47282 C 630.6077,279.47282 650.6407,200.27381 672.6777,189.14781 C 672.6787,189.14781 626.2227,114.78181 642.7097,92.514813 z "
   style="fill:#981038"
   id="path19" />
<path
   d="M 642.7097,92.514813 L 242.3437,114.57781 L 157.2837,317.27882 L 630.6077,279.47282 C 630.6077,279.47282 650.6407,200.27381 672.6777,189.14781 C 672.6787,189.14781 626.2227,114.78181 642.7097,92.514813 z "
   style="fill:none;stroke:#981038;stroke-width:2.05139995;stroke-miterlimit:3.86400008"
   id="path21" />
<path
   d="M 199.5977,238.82482 L 173.1487,304.92082 L 265.5447,297.81482 L 258.8037,289.08482 L 272.3397,280.05582 L 246.5407,280.69182 L 261.9987,266.60082 L 317.6857,262.39182 C 317.6857,262.39182 306.0447,254.66282 307.3717,254.66282 C 308.6437,254.66282 315.0867,243.34682 315.0867,243.34682 L 290.0717,246.89282 L 326.3757,220.09182 L 307.6687,219.11682 L 312.5147,204.25381 L 276.2117,225.57282 L 279.7577,206.52781 L 267.1697,215.24481 L 261.3767,207.50281 L 246.8657,247.23082 L 209.9127,268.54982 L 217.6557,237.20082 L 203.7947,247.23082 L 199.5977,238.82482 z "
   style="fill:#ffd600;fill-rule:evenodd"
   id="path23" />
<path
   d="M 199.5977,238.82482 L 173.1487,304.92082 L 265.5447,297.81482 L 258.8037,289.08482 L 272.3397,280.05582 L 246.5407,280.69182 L 261.9987,266.60082 L 317.6857,262.39182 C 317.6857,262.39182 306.0447,254.66282 307.3717,254.66282 C 308.6437,254.66282 315.0867,243.34682 315.0867,243.34682 L 290.0717,246.89282 L 326.3757,220.09182 L 307.6687,219.11682 L 312.5147,204.25381 L 276.2117,225.57282 L 279.7577,206.52781 L 267.1697,215.24481 L 261.3767,207.50281 L 246.8657,247.23082 L 209.9127,268.54982 L 217.6557,237.20082 L 203.7947,247.23082 L 199.5977,238.82482 z "
   style="fill:none;stroke:#ffd600;stroke-width:1.82959998;stroke-miterlimit:3.86400008"
   id="path25" />
<polygon
   points="295.836,123.125 251.167,124.397 238.173,154.149 245.292,151.659 249.949,162.907 257.556,141.642 278.645,164.68 281.867,152.647 295.836,154.149 281.109,132.884 303.687,131.138 295.836,123.125 "
   transform="translate(-0.6203,-0.479154)"
   style="fill:#ffd600;fill-rule:evenodd"
   id="polygon27" />
<polygon
   points="295.836,123.125 251.167,124.397 238.173,154.149 245.292,151.659 249.949,162.907 257.556,141.642 278.645,164.68 281.867,152.647 295.836,154.149 281.109,132.884 303.687,131.138 295.836,123.125 "
   transform="translate(-0.6203,-0.479154)"
   style="fill:none;stroke:#ffd600;stroke-width:1.74650002;stroke-miterlimit:3.86400008"
   id="polygon29" />
<polygon
   points="473.535,146.217 473.535,146.38 473.21,146.637 472.994,146.827 472.994,146.962 472.939,147.057 473.21,147.436 473.427,147.49 473.995,147.381 474.482,147.49 474.808,147.909 474.997,148.776 474.754,149.29 474.212,149.845 473.671,150.102 473.21,150.183 472.452,149.764 472.29,149.845 471.965,150.183 472.02,150.373 473.103,151.131 474.997,152.403 476.567,153.31 476.893,153.229 477.136,152.904 477.082,152.566 476.567,152.187 476.134,152.065 475.62,151.659 475.431,151.239 475.484,150.522 475.891,149.655 476.351,149.236 477.406,149.29 477.406,149.385 477.704,149.52 478.029,150.183 478.11,150.522 478.436,150.847 478.679,150.847 479.031,150.427 478.896,149.994 478.977,149.913 478.896,149.709 478.977,149.236 479.355,148.857 479.681,148.776 479.816,148.776 479.87,148.722 480.628,148.857 481.251,149.046 481.63,149.385 481.9,149.709 481.981,150.657 481.9,151.131 481.17,151.74 480.817,151.848 480.628,152.322 480.764,152.566 481.115,152.796 481.9,152.647 482.334,152.458 482.902,152.512 483.227,152.796 483.579,153.175 483.66,153.594 483.579,153.648 483.66,153.73 483.362,154.447 483.037,154.786 482.713,154.975 482.36,155.124 482.334,155.056 481.765,155.124 481.494,155.124 481.44,155.056 481.359,155.124 480.628,154.677 480.304,154.542 479.87,154.596 479.681,154.731 479.545,154.867 479.681,155.205 480.438,155.733 481.9,156.667 482.902,157.331 483.796,157.913 484.445,158.088 484.797,158.007 484.905,157.804 484.852,157.479 484.229,156.749 484.12,156.004 484.229,155.449 484.31,155.259 484.445,154.867 484.905,154.447 485.69,154.258 486.503,154.258 486.773,154.677 486.638,155.313 486.584,155.395 486.638,155.679 486.827,155.787 487.18,155.787 487.721,155.259 488.073,154.921 488.669,154.731 489.399,154.786 489.589,154.975 486.638,157.804 484.797,159.469 484.662,159.469 484.31,158.86 482.983,157.533 482.226,157.195 480.574,156.924 478.625,155.733 474.131,152.904 470.585,150.711 470.395,150.765 470.313,150.765 470.287,150.711 470.449,150.048 471.018,148.776 472.724,144.891 472.939,144.499 473.427,145.365 473.535,146.217 "
   transform="translate(-0.6203,-0.479154)"
   style="fill:#ffd600;fill-rule:evenodd"
   id="polygon31" />
<polygon
   points="473.535,146.217 473.535,146.38 473.21,146.637 472.994,146.827 472.994,146.962 472.939,147.057 473.21,147.436 473.427,147.49 473.995,147.381 474.482,147.49 474.808,147.909 474.997,148.776 474.754,149.29 474.212,149.845 473.671,150.102 473.21,150.183 472.452,149.764 472.29,149.845 471.965,150.183 472.02,150.373 473.103,151.131 474.997,152.403 476.567,153.31 476.893,153.229 477.136,152.904 477.082,152.566 476.567,152.187 476.134,152.065 475.62,151.659 475.431,151.239 475.484,150.522 475.891,149.655 476.351,149.236 477.406,149.29 477.406,149.385 477.704,149.52 478.029,150.183 478.11,150.522 478.436,150.847 478.679,150.847 479.031,150.427 478.896,149.994 478.977,149.913 478.896,149.709 478.977,149.236 479.355,148.857 479.681,148.776 479.816,148.776 479.87,148.722 480.628,148.857 481.251,149.046 481.63,149.385 481.9,149.709 481.981,150.657 481.9,151.131 481.17,151.74 480.817,151.848 480.628,152.322 480.764,152.566 481.115,152.796 481.9,152.647 482.334,152.458 482.902,152.512 483.227,152.796 483.579,153.175 483.66,153.594 483.579,153.648 483.66,153.73 483.362,154.447 483.037,154.786 482.713,154.975 482.36,155.124 482.334,155.056 481.765,155.124 481.494,155.124 481.44,155.056 481.359,155.124 480.628,154.677 480.304,154.542 479.87,154.596 479.681,154.731 479.545,154.867 479.681,155.205 480.438,155.733 481.9,156.667 482.902,157.331 483.796,157.913 484.445,158.088 484.797,158.007 484.905,157.804 484.852,157.479 484.229,156.749 484.12,156.004 484.229,155.449 484.31,155.259 484.445,154.867 484.905,154.447 485.69,154.258 486.503,154.258 486.773,154.677 486.638,155.313 486.584,155.395 486.638,155.679 486.827,155.787 487.18,155.787 487.721,155.259 488.073,154.921 488.669,154.731 489.399,154.786 489.589,154.975 486.638,157.804 484.797,159.469 484.662,159.469 484.31,158.86 482.983,157.533 482.226,157.195 480.574,156.924 478.625,155.733 474.131,152.904 470.585,150.711 470.395,150.765 470.313,150.765 470.287,150.711 470.449,150.048 471.018,148.776 472.724,144.891 472.939,144.499 473.427,145.365 473.535,146.217 "
   transform="translate(-0.6203,-0.479154)"
   style="fill:none;stroke:#ffd600;stroke-width:0;stroke-linecap:square;stroke-miterlimit:2"
   id="polygon33" />
<polygon
   points="454.017,152.566 453.691,153.229 453.421,154.123 453.259,154.731 453.204,154.786 453.204,154.921 453.15,156.058 453.069,156.749 453.204,158.332 453.827,160.417 454.585,161.554 455.966,162.799 456.155,162.934 456.074,163.408 455.911,163.773 454.747,166.345 454.693,166.426 451.797,164.152 451.742,164.017 451.878,163.272 452.148,162.46 452.284,160.944 452.284,159.943 451.797,157.668 451.229,155.922 450.28,154.123 449.712,153.459 449.55,153.31 449.469,153.229 449.388,153.175 449.469,152.796 450.876,149.709 453.962,152.403 454.017,152.566 "
   transform="translate(-0.6203,-0.479154)"
   style="fill:#ffd600"
   id="polygon35" />
<polygon
   points="454.017,152.566 453.691,153.229 453.421,154.123 453.259,154.731 453.204,154.786 453.204,154.921 453.15,156.058 453.069,156.749 453.204,158.332 453.827,160.417 454.585,161.554 455.966,162.799 456.155,162.934 456.074,163.408 455.911,163.773 454.747,166.345 454.693,166.426 451.797,164.152 451.742,164.017 451.878,163.272 452.148,162.46 452.284,160.944 452.284,159.943 451.797,157.668 451.229,155.922 450.28,154.123 449.712,153.459 449.55,153.31 449.469,153.229 449.388,153.175 449.469,152.796 450.876,149.709 453.962,152.403 454.017,152.566 "
   transform="translate(-0.6203,-0.479154)"
   style="fill:none;stroke:#ffd600;stroke-width:0;stroke-linecap:square;stroke-miterlimit:2"
   id="polygon37" />
<polygon
   points="494.218,150.901 495.085,151.185 497.305,152.065 497.494,152.241 496.817,152.904 494.083,154.975 490.997,155.449 490.808,155.205 490.915,154.921 490.861,154.542 490.049,153.987 489.399,153.865 488.073,153.919 487.991,153.987 487.667,153.919 487.18,153.541 486.367,153.229 484.986,153.31 484.905,153.405 484.662,153.405 484.364,152.796 483.796,151.902 483.796,151.848 483.903,151.74 488.127,151.185 492.864,150.522 493.677,150.657 494.218,150.901 "
   transform="translate(-0.6203,-0.479154)"
   style="fill:#ffd600;fill-rule:evenodd"
   id="polygon39" />
<polygon
   points="494.218,150.901 495.085,151.185 497.305,152.065 497.494,152.241 496.817,152.904 494.083,154.975 490.997,155.449 490.808,155.205 490.915,154.921 490.861,154.542 490.049,153.987 489.399,153.865 488.073,153.919 487.991,153.987 487.667,153.919 487.18,153.541 486.367,153.229 484.986,153.31 484.905,153.405 484.662,153.405 484.364,152.796 483.796,151.902 483.796,151.848 483.903,151.74 488.127,151.185 492.864,150.522 493.677,150.657 494.218,150.901 "
   transform="translate(-0.6203,-0.479154)"
   style="fill:none;stroke:#ffd600;stroke-width:0;stroke-linecap:square;stroke-miterlimit:2"
   id="polygon41" />
<polygon
   points="471.071,151.902 471.613,152.241 474.564,154.123 474.997,154.447 475.62,154.786 478.977,156.924 479.112,157.06 479.112,157.195 478.625,157.384 478.138,157.533 477.759,157.804 477.704,157.858 477.217,157.75 472.994,155.124 469.394,152.904 469.204,152.728 469.8,151.74 470.07,151.402 470.666,151.659 471.071,151.902 "
   transform="translate(-0.6203,-0.479154)"
   style="fill:#ffd600"
   id="polygon43" />
<polygon
   points="471.071,151.902 471.613,152.241 474.564,154.123 474.997,154.447 475.62,154.786 478.977,156.924 479.112,157.06 479.112,157.195 478.625,157.384 478.138,157.533 477.759,157.804 477.704,157.858 477.217,157.75 472.994,155.124 469.394,152.904 469.204,152.728 469.8,151.74 470.07,151.402 470.666,151.659 471.071,151.902 "
   transform="translate(-0.6203,-0.479154)"
   style="fill:none;stroke:#ffd600;stroke-width:0;stroke-linecap:square;stroke-miterlimit:2"
   id="polygon45" />
<polygon
   points="467.336,153.784 465.604,156.451 465.387,156.586 464.439,156.396 459.756,156.775 454.342,157.249 454.287,157.06 454.287,156.87 454.206,156.775 454.287,156.749 454.206,155.584 454.342,155.313 454.612,155.124 459.241,154.596 466.768,153.648 467.174,153.648 467.336,153.784 "
   transform="translate(-0.6203,-0.479154)"
   style="fill:#ffd600;fill-rule:evenodd"
   id="polygon47" />
<polygon
   points="467.336,153.784 465.604,156.451 465.387,156.586 464.439,156.396 459.756,156.775 454.342,157.249 454.287,157.06 454.287,156.87 454.206,156.775 454.287,156.749 454.206,155.584 454.342,155.313 454.612,155.124 459.241,154.596 466.768,153.648 467.174,153.648 467.336,153.784 "
   transform="translate(-0.6203,-0.479154)"
   style="fill:none;stroke:#ffd600;stroke-width:0;stroke-linecap:square;stroke-miterlimit:2"
   id="polygon49" />
<polygon
   points="472.02,156.004 473.21,156.749 473.346,156.87 473.427,156.775 473.616,157.005 474.212,157.384 475.484,158.467 476.08,159.144 476.134,159.469 476.08,159.659 476.026,159.659 475.891,160.078 475.944,160.552 476.216,160.741 476.648,160.66 477.082,159.807 478.138,158.751 479.112,158.224 480.493,158.007 481.44,158.088 481.981,158.251 482.821,158.941 483.471,159.807 483.524,160.132 483.524,160.213 483.579,160.281 483.524,160.335 483.579,160.417 483.471,161.026 483.037,161.689 482.226,162.271 481.684,162.609 480.683,162.799 480.438,162.799 480.357,162.88 480.304,162.799 480.249,162.88 480.168,162.799 480.114,162.88 480.032,162.799 479.979,162.88 479.87,162.799 479.437,162.934 479.112,163.272 479.166,163.598 479.816,163.773 481.494,163.598 483.146,162.934 484.229,162.271 485.69,160.944 485.907,161.269 485.988,161.689 486.043,161.743 485.988,161.797 486.124,162.352 485.988,163.408 485.907,163.489 485.988,163.543 485.556,164.355 483.66,165.898 482.496,166.562 481.359,166.9 481.17,167.144 481.251,167.482 481.359,167.618 481.819,167.699 483.309,167.293 484.175,166.955 485.447,166.102 486.178,165.425 486.367,165.208 486.503,165.208 486.638,165.344 486.773,165.817 486.936,166.616 486.827,167.428 486.503,168.43 485.853,169.364 485.122,169.946 483.822,170.785 483.227,171.029 481.494,171.583 481.305,171.773 481.44,172.112 481.9,172.301 483.092,172.247 483.66,172.112 484.905,171.583 486.503,170.365 486.827,170.027 486.99,170.027 487.18,170.447 487.369,171.11 487.261,172.775 486.773,173.776 486.124,174.629 484.905,175.522 483.903,175.997 483.146,176.186 481.765,176.321 480.683,176.375 480.574,176.605 480.628,177.052 480.953,177.269 481.9,177.458 483.146,177.377 484.662,176.984 486.448,175.997 486.638,175.793 486.773,175.793 486.827,176.132 486.827,176.321 486.936,176.375 486.827,176.47 486.936,176.632 486.72,177.851 486.124,179.123 485.365,179.935 484.662,180.544 483.471,181.072 481.251,181.397 479.221,181.316 478.977,181.316 478.896,181.262 478.842,181.316 478.679,181.262 478.3,181.316 478.138,181.533 478.219,181.871 478.462,182.142 479.437,182.399 480.817,182.48 482.36,182.318 482.496,182.318 482.577,182.291 482.658,182.318 484.229,182.006 484.905,181.736 484.986,181.736 485.041,181.817 484.662,183.008 483.985,183.942 483.037,184.619 482.036,185.079 480.898,185.336 478.354,185.472 476.757,185.336 476.134,184.998 475.944,184.998 475.674,185.282 475.944,185.837 476.27,186 478.436,186.419 480.032,186.5 481.684,186.216 482.145,186 482.496,186.081 486.448,190.209 490.049,193.769 493.677,196.977 495.815,198.588 497.413,198.642 498.82,198.358 499.714,198.033 500.418,197.505 501.419,196.232 502.096,194.703 502.367,193.85 502.638,192.768 502.557,190.873 502.178,189.302 501.608,187.962 500.688,186.216 499.146,184.091 499.199,183.617 500.878,181.587 501.229,181.682 502.178,182.615 504.506,186.081 505.778,188.882 506.157,190.02 507.104,190.304 507.186,190.209 507.43,190.209 507.511,190.304 507.564,190.209 507.619,190.304 507.728,190.209 508.566,190.304 510.407,190.101 512.059,189.492 512.194,189.681 512.059,191.292 510.84,193.092 510.082,193.85 508.701,194.311 507.186,194.432 506.428,194.378 506.157,194.649 506.103,194.987 506.157,195.231 506.481,195.42 508.188,195.705 509.433,195.569 511.923,194.757 512.546,194.514 512.871,194.514 512.925,194.568 512.654,195.366 511.788,197.031 510.976,197.979 510.001,198.696 508.647,199.197 506.779,199.535 506.238,199.589 505.209,199.44 504.641,199.116 504.506,199.116 502.746,201.132 501.501,202.053 500.878,202.324 499.091,202.852 498.008,203 496.871,202.797 496.06,202.378 495.599,202.053 495.409,202.134 495.355,202.188 495.869,203 496.546,203.664 497.413,205.356 497.629,206.263 497.684,209.01 497.684,209.565 497.494,211.149 497.684,211.948 498.279,212.747 498.875,213.274 499.822,213.748 501.555,214.167 502.827,214.696 503.64,215.305 504.153,216.104 504.234,216.577 503.964,218.634 503.774,219.244 503.883,219.758 504.153,219.988 504.83,220.042 506.481,221.179 508.188,222.925 508.999,224.387 509.243,225.308 509.405,226.391 509.243,227.338 509.243,227.419 509.324,227.446 509.054,228.529 508.756,229.409 508.431,230.072 507.781,228.61 507.186,227.663 505.968,226.391 505.562,226.282 505.155,226.282 504.83,226.526 504.83,226.729 506.292,228.326 507.05,229.463 507.511,230.803 507.619,231.737 507.564,233.077 507.43,233.687 507.239,234.431 506.726,235.433 506.292,235.676 505.886,234.756 505.101,233.795 503.423,232.549 503.314,232.549 502.691,232.13 502.502,232.076 502.178,232.4 502.042,232.956 502.042,233.077 504.153,235.352 504.316,235.622 504.153,236.367 503.314,237.815 501.608,240.779 501.555,240.779 501.365,241.253 501.095,241.578 501.04,240.698 501.095,240.224 501.04,240.17 501.229,238.424 501.365,238.167 501.69,238.032 502.421,237.978 502.638,237.761 502.691,237.341 502.231,236.895 501.365,236.976 501.095,237.084 499.957,237.233 499.714,236.759 498.956,233.795 498.767,233.687 498.063,233.876 497.629,234.431 496.736,237.084 495.734,238.979 495.22,240.224 495.085,240.36 495.03,240.698 494.787,240.915 494.679,240.915 493.136,239.507 492.377,239.223 492.188,239.223 491.998,239.426 491.998,239.642 491.944,239.696 492.134,240.035 492.675,240.441 493.189,241.023 494.028,242.823 494.218,243.378 494.516,244.245 494.679,244.718 494.462,244.718 491.538,242.499 489.859,241.023 489.806,240.915 489.806,240.644 492.323,237.477 494.516,234.485 494.516,234.35 494.272,234.092 493.73,234.146 491.457,236.759 490.808,237.477 489.589,237.761 488.397,238.37 488.182,238.167 487.829,236.624 487.775,236.15 487.775,236.015 487.261,235.622 487.125,235.622 487.044,235.568 486.773,235.676 486.638,236.015 486.584,236.57 486.638,236.759 486.503,237.652 486.367,237.896 486.259,238.695 485.312,239.642 484.716,240.306 484.905,239.033 485.122,238.032 485.176,237.477 485.556,235.352 485.69,234.959 485.907,234.756 487.261,234.35 489.399,233.768 492.756,232.739 493.866,232.13 494.787,231.209 495.68,229.409 496.222,227.853 496.736,225.781 497.061,223.643 496.952,222.844 496.492,221.842 494.922,220.381 493.406,219.704 491.538,218.932 490.915,218.716 490.049,217.958 489.806,218.052 489.67,218.242 489.725,220.516 489.535,221.734 489.102,222.763 488.452,223.724 487.342,224.726 486.259,225.308 485.556,225.443 483.66,225.308 483.579,225.253 484.716,223.981 484.986,223.399 485.041,222.763 485.041,222.736 484.986,222.655 485.041,222.506 484.905,221.518 484.581,220.516 484.364,219.568 483.903,217.958 483.227,215.359 483.037,214.086 482.821,212.692 482.767,211.027 482.902,209.89 482.983,209.809 482.902,209.62 483.092,209.01 483.146,208.537 483.66,207.4 484.229,206.127 484.716,204.598 484.986,203.379 484.905,201.863 484.364,199.86 484.12,199.116 483.796,198.358 483.362,197.924 482.821,197.234 482.09,196.639 481.305,196.232 480.953,196.314 480.764,196.503 480.817,196.896 482.658,198.777 483.037,199.589 483.309,200.442 483.309,200.808 482.983,200.727 481.981,200.104 477.894,198.195 475.349,197.112 471.749,195.759 470.937,195.501 471.749,194.311 472.154,192.849 472.29,191.292 472.209,189.356 471.775,188.165 471.613,188.03 471.288,188.084 471.207,188.084 471.018,188.3 470.882,188.829 470.937,188.882 470.937,188.964 470.882,189.018 470.937,189.072 470.882,189.167 470.937,191.021 470.747,192.768 470.395,193.674 469.962,194.649 469.313,195.42 468.311,196.178 467.525,196.503 466.659,196.639 464.98,196.869 464.764,196.869 465.604,194.432 465.928,192.186 465.766,191.021 465.522,190.493 465.387,190.358 464.98,190.439 464.655,190.873 464.439,191.685 464.195,193.904 463.979,194.649 463.708,195.65 463.059,196.503 462.436,197.112 461.163,197.924 459.837,198.358 458.835,198.358 458.754,198.331 459.837,196.639 460.378,195.569 460.595,194.757 460.703,194.04 460.595,193.241 460.162,192.903 459.756,192.957 459.431,193.241 458.89,195.177 458.05,196.896 456.968,197.871 455.966,198.453 454.91,198.858 453.069,198.967 451.878,198.777 453.691,196.896 453.962,196.503 453.962,196.125 453.691,195.759 453.34,195.705 453.15,195.759 453.015,195.759 452.365,196.314 451.146,197.031 449.008,198.114 448.818,198.453 448.818,198.534 448.9,198.588 448.818,198.642 449.225,201.132 448.656,201.471 446.328,202.134 444.271,202.554 443.702,202.554 445.002,201.241 445.679,200.334 446.382,200.578 447.52,200.916 447.735,200.808 447.952,200.578 447.952,200.104 447.682,199.806 446.869,199.535 446.382,199.333 445.868,199.197 445.732,199.062 445.787,198.358 446.328,197.031 446.382,196.707 446.328,196.503 446.003,196.232 445.543,196.314 444.92,196.707 442.538,199.062 441.185,200.05 440.995,199.333 440.914,198.358 440.778,198.033 440.372,197.64 440.048,197.64 439.587,198.114 440.508,203.664 439.993,203.055 437.854,199.996 436.312,197.871 436.312,197.64 439.1,196.368 443.458,194.311 443.594,194.094 443.54,193.674 443.053,193.35 440.453,194.432 439.723,194.757 437.963,194.838 436.365,195.123 436.312,194.893 436.501,194.04 436.771,193.173 436.826,192.429 436.826,192.186 436.365,191.766 436.122,191.766 435.688,192.186 435.554,192.564 435.364,194.229 435.039,194.568 434.227,194.987 433.36,195.231 432.007,195.705 431.953,195.65 434.633,191.63 434.688,191.549 434.688,191.427 435.094,190.967 435.499,190.304 435.554,190.209 436.23,190.439 437.584,190.873 438.233,191.103 439.912,191.292 442.321,191.346 444.271,191.103 445.787,190.683 448.548,189.438 464.71,181.397 466.117,181.153 466.442,180.815 466.442,180.314 466.117,180.071 465.44,179.989 464.764,180.152 463.112,180.923 460.433,182.209 459.918,182.534 459.431,182.643 459.079,182.873 459.024,182.873 459.296,181.736 460.081,179.989 459.973,179.732 459.512,179.516 459.024,179.461 459.296,179.069 461.245,177.377 462.49,176.605 464.71,175.631 465.982,175.306 466.199,175.306 466.28,175.238 466.334,175.306 466.768,175.184 466.849,175.238 467.796,175.13 468.121,175.184 468.311,175.13 470.07,175.306 471.532,175.712 472.29,175.997 472.344,175.997 472.398,176.05 472.452,175.997 472.777,176.05 473.103,176.05 473.481,175.631 473.427,174.859 472.994,174.521 472.533,174.629 472.344,174.71 471.667,174.575 470.53,174.25 468.256,173.912 467.851,173.831 467.39,173.492 466.93,172.91 466.93,172.301 467.525,171.773 467.742,171.583 467.065,170.23 466.984,169.837 466.93,169.783 466.984,169.513 468.066,169.946 468.662,170.501 469.989,171.583 470.205,171.638 470.395,171.841 471.613,172.45 473.752,172.829 474.212,172.829 474.293,172.91 474.348,172.829 474.482,172.91 476.216,172.721 476.676,172.504 477.136,171.976 477.65,170.839 477.704,170.122 477.542,169.229 477.217,168.281 476.567,167.09 474.754,165.019 473.806,164.261 472.777,163.936 471.532,163.828 470.53,164.098 469.61,164.68 468.473,165.763 467.932,166.684 467.932,166.955 467.796,167.09 467.661,167.78 467.742,167.821 467.742,167.956 467.661,168.037 467.796,168.281 467.796,168.619 467.336,168.511 466.659,167.821 465.982,166.819 465.847,166.237 465.278,165.628 464.899,164.883 464.764,164.207 465.44,162.934 465.847,161.878 465.712,161.743 465.278,161.933 464.304,162.88 464.061,163.151 463.925,163.151 463.573,162.609 463.627,161.878 465.278,159.252 466.036,158.007 466.334,157.249 467.932,154.921 468.608,154.068 470.124,154.867 472.02,156.004 "
   transform="translate(-0.6203,-0.479154)"
   style="fill:#ffd600;fill-rule:evenodd"
   id="polygon51" />
<polygon
   points="472.02,156.004 473.21,156.749 473.346,156.87 473.427,156.775 473.616,157.005 474.212,157.384 475.484,158.467 476.08,159.144 476.134,159.469 476.08,159.659 476.026,159.659 475.891,160.078 475.944,160.552 476.216,160.741 476.648,160.66 477.082,159.807 478.138,158.751 479.112,158.224 480.493,158.007 481.44,158.088 481.981,158.251 482.821,158.941 483.471,159.807 483.524,160.132 483.524,160.213 483.579,160.281 483.524,160.335 483.579,160.417 483.471,161.026 483.037,161.689 482.226,162.271 481.684,162.609 480.683,162.799 480.438,162.799 480.357,162.88 480.304,162.799 480.249,162.88 480.168,162.799 480.114,162.88 480.032,162.799 479.979,162.88 479.87,162.799 479.437,162.934 479.112,163.272 479.166,163.598 479.816,163.773 481.494,163.598 483.146,162.934 484.229,162.271 485.69,160.944 485.907,161.269 485.988,161.689 486.043,161.743 485.988,161.797 486.124,162.352 485.988,163.408 485.907,163.489 485.988,163.543 485.556,164.355 483.66,165.898 482.496,166.562 481.359,166.9 481.17,167.144 481.251,167.482 481.359,167.618 481.819,167.699 483.309,167.293 484.175,166.955 485.447,166.102 486.178,165.425 486.367,165.208 486.503,165.208 486.638,165.344 486.773,165.817 486.936,166.616 486.827,167.428 486.503,168.43 485.853,169.364 485.122,169.946 483.822,170.785 483.227,171.029 481.494,171.583 481.305,171.773 481.44,172.112 481.9,172.301 483.092,172.247 483.66,172.112 484.905,171.583 486.503,170.365 486.827,170.027 486.99,170.027 487.18,170.447 487.369,171.11 487.261,172.775 486.773,173.776 486.124,174.629 484.905,175.522 483.903,175.997 483.146,176.186 481.765,176.321 480.683,176.375 480.574,176.605 480.628,177.052 480.953,177.269 481.9,177.458 483.146,177.377 484.662,176.984 486.448,175.997 486.638,175.793 486.773,175.793 486.827,176.132 486.827,176.321 486.936,176.375 486.827,176.47 486.936,176.632 486.72,177.851 486.124,179.123 485.365,179.935 484.662,180.544 483.471,181.072 481.251,181.397 479.221,181.316 478.977,181.316 478.896,181.262 478.842,181.316 478.679,181.262 478.3,181.316 478.138,181.533 478.219,181.871 478.462,182.142 479.437,182.399 480.817,182.48 482.36,182.318 482.496,182.318 482.577,182.291 482.658,182.318 484.229,182.006 484.905,181.736 484.986,181.736 485.041,181.817 484.662,183.008 483.985,183.942 483.037,184.619 482.036,185.079 480.898,185.336 478.354,185.472 476.757,185.336 476.134,184.998 475.944,184.998 475.674,185.282 475.944,185.837 476.27,186 478.436,186.419 480.032,186.5 481.684,186.216 482.145,186 482.496,186.081 486.448,190.209 490.049,193.769 493.677,196.977 495.815,198.588 497.413,198.642 498.82,198.358 499.714,198.033 500.418,197.505 501.419,196.232 502.096,194.703 502.367,193.85 502.638,192.768 502.557,190.873 502.178,189.302 501.608,187.962 500.688,186.216 499.146,184.091 499.199,183.617 500.878,181.587 501.229,181.682 502.178,182.615 504.506,186.081 505.778,188.882 506.157,190.02 507.104,190.304 507.186,190.209 507.43,190.209 507.511,190.304 507.564,190.209 507.619,190.304 507.728,190.209 508.566,190.304 510.407,190.101 512.059,189.492 512.194,189.681 512.059,191.292 510.84,193.092 510.082,193.85 508.701,194.311 507.186,194.432 506.428,194.378 506.157,194.649 506.103,194.987 506.157,195.231 506.481,195.42 508.188,195.705 509.433,195.569 511.923,194.757 512.546,194.514 512.871,194.514 512.925,194.568 512.654,195.366 511.788,197.031 510.976,197.979 510.001,198.696 508.647,199.197 506.779,199.535 506.238,199.589 505.209,199.44 504.641,199.116 504.506,199.116 502.746,201.132 501.501,202.053 500.878,202.324 499.091,202.852 498.008,203 496.871,202.797 496.06,202.378 495.599,202.053 495.409,202.134 495.355,202.188 495.869,203 496.546,203.664 497.413,205.356 497.629,206.263 497.684,209.01 497.684,209.565 497.494,211.149 497.684,211.948 498.279,212.747 498.875,213.274 499.822,213.748 501.555,214.167 502.827,214.696 503.64,215.305 504.153,216.104 504.234,216.577 503.964,218.634 503.774,219.244 503.883,219.758 504.153,219.988 504.83,220.042 506.481,221.179 508.188,222.925 508.999,224.387 509.243,225.308 509.405,226.391 509.243,227.338 509.243,227.419 509.324,227.446 509.054,228.529 508.756,229.409 508.431,230.072 507.781,228.61 507.186,227.663 505.968,226.391 505.562,226.282 505.155,226.282 504.83,226.526 504.83,226.729 506.292,228.326 507.05,229.463 507.511,230.803 507.619,231.737 507.564,233.077 507.43,233.687 507.239,234.431 506.726,235.433 506.292,235.676 505.886,234.756 505.101,233.795 503.423,232.549 503.314,232.549 502.691,232.13 502.502,232.076 502.178,232.4 502.042,232.956 502.042,233.077 504.153,235.352 504.316,235.622 504.153,236.367 503.314,237.815 501.608,240.779 501.555,240.779 501.365,241.253 501.095,241.578 501.04,240.698 501.095,240.224 501.04,240.17 501.229,238.424 501.365,238.167 501.69,238.032 502.421,237.978 502.638,237.761 502.691,237.341 502.231,236.895 501.365,236.976 501.095,237.084 499.957,237.233 499.714,236.759 498.956,233.795 498.767,233.687 498.063,233.876 497.629,234.431 496.736,237.084 495.734,238.979 495.22,240.224 495.085,240.36 495.03,240.698 494.787,240.915 494.679,240.915 493.136,239.507 492.377,239.223 492.188,239.223 491.998,239.426 491.998,239.642 491.944,239.696 492.134,240.035 492.675,240.441 493.189,241.023 494.028,242.823 494.218,243.378 494.516,244.245 494.679,244.718 494.462,244.718 491.538,242.499 489.859,241.023 489.806,240.915 489.806,240.644 492.323,237.477 494.516,234.485 494.516,234.35 494.272,234.092 493.73,234.146 491.457,236.759 490.808,237.477 489.589,237.761 488.397,238.37 488.182,238.167 487.829,236.624 487.775,236.15 487.775,236.015 487.261,235.622 487.125,235.622 487.044,235.568 486.773,235.676 486.638,236.015 486.584,236.57 486.638,236.759 486.503,237.652 486.367,237.896 486.259,238.695 485.312,239.642 484.716,240.306 484.905,239.033 485.122,238.032 485.176,237.477 485.556,235.352 485.69,234.959 485.907,234.756 487.261,234.35 489.399,233.768 492.756,232.739 493.866,232.13 494.787,231.209 495.68,229.409 496.222,227.853 496.736,225.781 497.061,223.643 496.952,222.844 496.492,221.842 494.922,220.381 493.406,219.704 491.538,218.932 490.915,218.716 490.049,217.958 489.806,218.052 489.67,218.242 489.725,220.516 489.535,221.734 489.102,222.763 488.452,223.724 487.342,224.726 486.259,225.308 485.556,225.443 483.66,225.308 483.579,225.253 484.716,223.981 484.986,223.399 485.041,222.763 485.041,222.736 484.986,222.655 485.041,222.506 484.905,221.518 484.581,220.516 484.364,219.568 483.903,217.958 483.227,215.359 483.037,214.086 482.821,212.692 482.767,211.027 482.902,209.89 482.983,209.809 482.902,209.62 483.092,209.01 483.146,208.537 483.66,207.4 484.229,206.127 484.716,204.598 484.986,203.379 484.905,201.863 484.364,199.86 484.12,199.116 483.796,198.358 483.362,197.924 482.821,197.234 482.09,196.639 481.305,196.232 480.953,196.314 480.764,196.503 480.817,196.896 482.658,198.777 483.037,199.589 483.309,200.442 483.309,200.808 482.983,200.727 481.981,200.104 477.894,198.195 475.349,197.112 471.749,195.759 470.937,195.501 471.749,194.311 472.154,192.849 472.29,191.292 472.209,189.356 471.775,188.165 471.613,188.03 471.288,188.084 471.207,188.084 471.018,188.3 470.882,188.829 470.937,188.882 470.937,188.964 470.882,189.018 470.937,189.072 470.882,189.167 470.937,191.021 470.747,192.768 470.395,193.674 469.962,194.649 469.313,195.42 468.311,196.178 467.525,196.503 466.659,196.639 464.98,196.869 464.764,196.869 465.604,194.432 465.928,192.186 465.766,191.021 465.522,190.493 465.387,190.358 464.98,190.439 464.655,190.873 464.439,191.685 464.195,193.904 463.979,194.649 463.708,195.65 463.059,196.503 462.436,197.112 461.163,197.924 459.837,198.358 458.835,198.358 458.754,198.331 459.837,196.639 460.378,195.569 460.595,194.757 460.703,194.04 460.595,193.241 460.162,192.903 459.756,192.957 459.431,193.241 458.89,195.177 458.05,196.896 456.968,197.871 455.966,198.453 454.91,198.858 453.069,198.967 451.878,198.777 453.691,196.896 453.962,196.503 453.962,196.125 453.691,195.759 453.34,195.705 453.15,195.759 453.015,195.759 452.365,196.314 451.146,197.031 449.008,198.114 448.818,198.453 448.818,198.534 448.9,198.588 448.818,198.642 449.225,201.132 448.656,201.471 446.328,202.134 444.271,202.554 443.702,202.554 445.002,201.241 445.679,200.334 446.382,200.578 447.52,200.916 447.735,200.808 447.952,200.578 447.952,200.104 447.682,199.806 446.869,199.535 446.382,199.333 445.868,199.197 445.732,199.062 445.787,198.358 446.328,197.031 446.382,196.707 446.328,196.503 446.003,196.232 445.543,196.314 444.92,196.707 442.538,199.062 441.185,200.05 440.995,199.333 440.914,198.358 440.778,198.033 440.372,197.64 440.048,197.64 439.587,198.114 440.508,203.664 439.993,203.055 437.854,199.996 436.312,197.871 436.312,197.64 439.1,196.368 443.458,194.311 443.594,194.094 443.54,193.674 443.053,193.35 440.453,194.432 439.723,194.757 437.963,194.838 436.365,195.123 436.312,194.893 436.501,194.04 436.771,193.173 436.826,192.429 436.826,192.186 436.365,191.766 436.122,191.766 435.688,192.186 435.554,192.564 435.364,194.229 435.039,194.568 434.227,194.987 433.36,195.231 432.007,195.705 431.953,195.65 434.633,191.63 434.688,191.549 434.688,191.427 435.094,190.967 435.499,190.304 435.554,190.209 436.23,190.439 437.584,190.873 438.233,191.103 439.912,191.292 442.321,191.346 444.271,191.103 445.787,190.683 448.548,189.438 464.71,181.397 466.117,181.153 466.442,180.815 466.442,180.314 466.117,180.071 465.44,179.989 464.764,180.152 463.112,180.923 460.433,182.209 459.918,182.534 459.431,182.643 459.079,182.873 459.024,182.873 459.296,181.736 460.081,179.989 459.973,179.732 459.512,179.516 459.024,179.461 459.296,179.069 461.245,177.377 462.49,176.605 464.71,175.631 465.982,175.306 466.199,175.306 466.28,175.238 466.334,175.306 466.768,175.184 466.849,175.238 467.796,175.13 468.121,175.184 468.311,175.13 470.07,175.306 471.532,175.712 472.29,175.997 472.344,175.997 472.398,176.05 472.452,175.997 472.777,176.05 473.103,176.05 473.481,175.631 473.427,174.859 472.994,174.521 472.533,174.629 472.344,174.71 471.667,174.575 470.53,174.25 468.256,173.912 467.851,173.831 467.39,173.492 466.93,172.91 466.93,172.301 467.525,171.773 467.742,171.583 467.065,170.23 466.984,169.837 466.93,169.783 466.984,169.513 468.066,169.946 468.662,170.501 469.989,171.583 470.205,171.638 470.395,171.841 471.613,172.45 473.752,172.829 474.212,172.829 474.293,172.91 474.348,172.829 474.482,172.91 476.216,172.721 476.676,172.504 477.136,171.976 477.65,170.839 477.704,170.122 477.542,169.229 477.217,168.281 476.567,167.09 474.754,165.019 473.806,164.261 472.777,163.936 471.532,163.828 470.53,164.098 469.61,164.68 468.473,165.763 467.932,166.684 467.932,166.955 467.796,167.09 467.661,167.78 467.742,167.821 467.742,167.956 467.661,168.037 467.796,168.281 467.796,168.619 467.336,168.511 466.659,167.821 465.982,166.819 465.847,166.237 465.278,165.628 464.899,164.883 464.764,164.207 465.44,162.934 465.847,161.878 465.712,161.743 465.278,161.933 464.304,162.88 464.061,163.151 463.925,163.151 463.573,162.609 463.627,161.878 465.278,159.252 466.036,158.007 466.334,157.249 467.932,154.921 468.608,154.068 470.124,154.867 472.02,156.004 "
   transform="translate(-0.6203,-0.479154)"
   style="fill:none;stroke:#ffd600;stroke-width:0;stroke-linecap:square;stroke-miterlimit:2"
   id="polygon53" />
<polygon
   points="446.003,155.449 447.573,155.584 449.063,155.53 449.469,155.733 449.712,156.058 450.227,157.195 450.552,157.858 450.795,158.751 451.093,160.335 451.012,162.217 450.416,164.207 450.416,164.762 451.363,166.237 452.284,167.699 452.555,168.227 452.555,168.43 446.734,169.783 444.108,170.365 444,170.365 443.864,170.23 444,168.836 444.108,168.701 444.541,168.782 445.002,168.701 445.245,168.375 445.245,168.146 444.785,167.821 443.864,167.563 443.134,166.955 442.321,165.763 441.78,164.261 441.699,163.828 441.78,163.598 443.458,163.408 444.541,163.489 446.815,162.934 447.059,162.799 447.682,162.934 448.007,162.609 448.061,161.026 448.142,160.944 448.061,160.89 448.196,160.335 448.25,159.753 448.603,158.589 448.603,158.332 448.386,158.143 447.141,157.913 446.192,157.533 445.407,156.87 444.649,155.787 444.541,155.313 444.596,155.124 445.056,155.205 446.003,155.449 "
   transform="translate(-0.6203,-0.479154)"
   style="fill:#ffd600;fill-rule:evenodd"
   id="polygon55" />
<polygon
   points="446.003,155.449 447.573,155.584 449.063,155.53 449.469,155.733 449.712,156.058 450.227,157.195 450.552,157.858 450.795,158.751 451.093,160.335 451.012,162.217 450.416,164.207 450.416,164.762 451.363,166.237 452.284,167.699 452.555,168.227 452.555,168.43 446.734,169.783 444.108,170.365 444,170.365 443.864,170.23 444,168.836 444.108,168.701 444.541,168.782 445.002,168.701 445.245,168.375 445.245,168.146 444.785,167.821 443.864,167.563 443.134,166.955 442.321,165.763 441.78,164.261 441.699,163.828 441.78,163.598 443.458,163.408 444.541,163.489 446.815,162.934 447.059,162.799 447.682,162.934 448.007,162.609 448.061,161.026 448.142,160.944 448.061,160.89 448.196,160.335 448.25,159.753 448.603,158.589 448.603,158.332 448.386,158.143 447.141,157.913 446.192,157.533 445.407,156.87 444.649,155.787 444.541,155.313 444.596,155.124 445.056,155.205 446.003,155.449 "
   transform="translate(-0.6203,-0.479154)"
   style="fill:none;stroke:#ffd600;stroke-width:0;stroke-linecap:square;stroke-miterlimit:2"
   id="polygon57" />
<polygon
   points="503.504,155.787 505.155,156.451 505.859,156.775 506.481,157.249 507.917,158.332 509.839,160.335 510.732,161.472 511.273,162.69 511.733,164.017 511.869,164.762 511.978,165.574 512.059,166.291 511.869,168.146 511.463,169.837 510.569,172.03 509.243,174.142 509.188,174.142 509.054,174.386 507.564,175.848 506.049,177.052 504.153,178.46 502.313,179.651 500.418,180.815 499.037,182.061 498.008,183.333 497.061,184.862 496.546,186 495.734,188.354 495.355,190.101 495.274,191.021 495.409,192.429 495.68,193.35 495.815,193.769 495.166,193.674 493.947,192.51 492.811,190.629 492.459,189.735 492.269,188.084 492.459,186.338 492.864,185.553 493.271,185.146 493.271,184.998 493.136,184.862 492.864,184.944 491.538,186.216 490.997,187.164 490.591,188.084 490.401,189.492 490.482,190.547 490.808,192.009 490.808,192.104 490.32,191.955 489.346,190.967 488.669,189.681 488.452,188.829 488.397,188.354 488.452,188.3 488.397,187.746 488.397,187.502 488.452,187.407 488.397,187.326 488.506,186.5 488.912,185.417 489.535,184.416 490.482,183.671 490.32,183.482 489.914,183.536 489.48,183.807 489.264,183.807 487.721,185.228 486.936,186.5 486.72,187.001 486.503,186.419 486.584,184.538 486.773,183.671 487.125,182.643 487.667,181.871 488.723,180.869 489.859,180.152 491.268,179.597 493,179.069 495.68,178.595 496.682,178.325 497.061,178.271 498.55,177.796 501.744,176.186 504.234,174.521 505.968,173.059 507.728,171.029 508.647,169.445 509.188,168.227 509.433,167.09 509.568,165.682 509.649,165.154 509.405,163.679 508.999,162.88 507.917,161.608 508.106,160.66 508.106,160.417 507.862,160.213 507.564,160.281 507.375,160.552 507.294,161.134 506.86,162.46 506.59,163.598 506.428,163.773 506.103,163.598 505.453,162.69 504.885,161.608 504.397,159.997 504.722,158.806 504.776,158.589 504.776,158.332 504.56,158.224 504.234,158.251 504.045,158.467 503.829,159.077 502.827,160.281 502.691,160.66 502.746,160.741 502.691,161.026 502.746,161.472 502.691,161.554 503.017,163.016 503.098,163.218 503.098,163.489 502.881,163.543 502.096,163.408 500.878,162.609 499.957,161.689 499.037,160.213 498.82,158.67 498.767,157.858 498.36,157.804 497.954,157.858 497.818,158.088 497.629,159.469 497.737,160.281 498.441,161.554 499.199,162.772 499.47,163.272 499.876,163.882 499.146,164.098 498.279,164.098 498.198,164.017 498.144,164.098 497.196,163.882 496.222,163.543 495.409,163.016 494.516,162.352 493.947,161.608 493.73,161.026 493.515,161.026 492.811,161.878 492.269,163.354 492.134,164.152 492.188,164.207 492.134,164.762 492.134,164.964 492.053,165.019 492.134,165.1 492.053,166.765 492.134,166.819 492.053,166.9 492.269,168.89 492.377,169.174 492.459,169.702 493,171.313 493.189,171.773 494.137,173.249 495.545,175.306 497.007,177.052 497.305,177.323 497.305,177.377 496.736,177.607 494.841,177.986 494.272,178.122 494.028,178.122 492.594,176.267 491.187,173.776 490.482,172.03 489.914,170.501 489.725,169.702 489.346,167.78 489.102,166.291 489.21,164.491 489.48,163.489 489.725,162.609 490.997,160.471 491.538,159.753 493.136,158.007 495.03,156.451 496.492,155.869 499.199,155.313 499.876,155.259 501.555,155.395 503.504,155.787 "
   transform="translate(-0.6203,-0.479154)"
   style="fill:#ffd600;fill-rule:evenodd"
   id="polygon59" />
<polygon
   points="503.504,155.787 505.155,156.451 505.859,156.775 506.481,157.249 507.917,158.332 509.839,160.335 510.732,161.472 511.273,162.69 511.733,164.017 511.869,164.762 511.978,165.574 512.059,166.291 511.869,168.146 511.463,169.837 510.569,172.03 509.243,174.142 509.188,174.142 509.054,174.386 507.564,175.848 506.049,177.052 504.153,178.46 502.313,179.651 500.418,180.815 499.037,182.061 498.008,183.333 497.061,184.862 496.546,186 495.734,188.354 495.355,190.101 495.274,191.021 495.409,192.429 495.68,193.35 495.815,193.769 495.166,193.674 493.947,192.51 492.811,190.629 492.459,189.735 492.269,188.084 492.459,186.338 492.864,185.553 493.271,185.146 493.271,184.998 493.136,184.862 492.864,184.944 491.538,186.216 490.997,187.164 490.591,188.084 490.401,189.492 490.482,190.547 490.808,192.009 490.808,192.104 490.32,191.955 489.346,190.967 488.669,189.681 488.452,188.829 488.397,188.354 488.452,188.3 488.397,187.746 488.397,187.502 488.452,187.407 488.397,187.326 488.506,186.5 488.912,185.417 489.535,184.416 490.482,183.671 490.32,183.482 489.914,183.536 489.48,183.807 489.264,183.807 487.721,185.228 486.936,186.5 486.72,187.001 486.503,186.419 486.584,184.538 486.773,183.671 487.125,182.643 487.667,181.871 488.723,180.869 489.859,180.152 491.268,179.597 493,179.069 495.68,178.595 496.682,178.325 497.061,178.271 498.55,177.796 501.744,176.186 504.234,174.521 505.968,173.059 507.728,171.029 508.647,169.445 509.188,168.227 509.433,167.09 509.568,165.682 509.649,165.154 509.405,163.679 508.999,162.88 507.917,161.608 508.106,160.66 508.106,160.417 507.862,160.213 507.564,160.281 507.375,160.552 507.294,161.134 506.86,162.46 506.59,163.598 506.428,163.773 506.103,163.598 505.453,162.69 504.885,161.608 504.397,159.997 504.722,158.806 504.776,158.589 504.776,158.332 504.56,158.224 504.234,158.251 504.045,158.467 503.829,159.077 502.827,160.281 502.691,160.66 502.746,160.741 502.691,161.026 502.746,161.472 502.691,161.554 503.017,163.016 503.098,163.218 503.098,163.489 502.881,163.543 502.096,163.408 500.878,162.609 499.957,161.689 499.037,160.213 498.82,158.67 498.767,157.858 498.36,157.804 497.954,157.858 497.818,158.088 497.629,159.469 497.737,160.281 498.441,161.554 499.199,162.772 499.47,163.272 499.876,163.882 499.146,164.098 498.279,164.098 498.198,164.017 498.144,164.098 497.196,163.882 496.222,163.543 495.409,163.016 494.516,162.352 493.947,161.608 493.73,161.026 493.515,161.026 492.811,161.878 492.269,163.354 492.134,164.152 492.188,164.207 492.134,164.762 492.134,164.964 492.053,165.019 492.134,165.1 492.053,166.765 492.134,166.819 492.053,166.9 492.269,168.89 492.377,169.174 492.459,169.702 493,171.313 493.189,171.773 494.137,173.249 495.545,175.306 497.007,177.052 497.305,177.323 497.305,177.377 496.736,177.607 494.841,177.986 494.272,178.122 494.028,178.122 492.594,176.267 491.187,173.776 490.482,172.03 489.914,170.501 489.725,169.702 489.346,167.78 489.102,166.291 489.21,164.491 489.48,163.489 489.725,162.609 490.997,160.471 491.538,159.753 493.136,158.007 495.03,156.451 496.492,155.869 499.199,155.313 499.876,155.259 501.555,155.395 503.504,155.787 "
   transform="translate(-0.6203,-0.479154)"
   style="fill:none;stroke:#ffd600;stroke-width:0;stroke-linecap:square;stroke-miterlimit:2"
   id="polygon61" />
<polygon
   points="444.46,157.75 445.679,158.67 446.734,159.077 447.059,159.144 447.141,159.333 446.924,161.554 447.005,161.933 446.815,162.014 445.922,161.933 444.73,162.136 443.648,162.217 441.942,162.271 441.51,162.217 441.104,161.933 440.914,161.08 440.562,160.213 440.237,158.521 440.102,157.479 440.562,157.195 442.565,156.396 443.269,156.193 443.54,156.342 444.46,157.75 "
   transform="translate(-0.6203,-0.479154)"
   style="fill:#ffd600;fill-rule:evenodd"
   id="polygon63" />
<polygon
   points="444.46,157.75 445.679,158.67 446.734,159.077 447.059,159.144 447.141,159.333 446.924,161.554 447.005,161.933 446.815,162.014 445.922,161.933 444.73,162.136 443.648,162.217 441.942,162.271 441.51,162.217 441.104,161.933 440.914,161.08 440.562,160.213 440.237,158.521 440.102,157.479 440.562,157.195 442.565,156.396 443.269,156.193 443.54,156.342 444.46,157.75 "
   transform="translate(-0.6203,-0.479154)"
   style="fill:none;stroke:#ffd600;stroke-width:0;stroke-linecap:square;stroke-miterlimit:2"
   id="polygon65" />
<polygon
   points="464.98,157.114 464.899,157.533 464.521,158.413 463.979,159.144 455.289,160.417 454.91,159.889 454.585,158.995 454.585,158.67 454.747,158.521 464.114,157.195 464.846,157.06 464.899,157.114 464.98,157.114 "
   transform="translate(-0.6203,-0.479154)"
   style="fill:#ffd600;fill-rule:evenodd"
   id="polygon67" />
<polygon
   points="464.98,157.114 464.899,157.533 464.521,158.413 463.979,159.144 455.289,160.417 454.91,159.889 454.585,158.995 454.585,158.67 454.747,158.521 464.114,157.195 464.846,157.06 464.899,157.114 464.98,157.114 "
   transform="translate(-0.6203,-0.479154)"
   style="fill:none;stroke:#ffd600;stroke-width:0;stroke-linecap:square;stroke-miterlimit:2"
   id="polygon69" />
<polygon
   points="469.528,157.331 469.881,157.533 469.989,157.668 469.881,158.467 469.989,158.751 469.962,159.333 469.394,159.753 468.121,160.281 467.336,160.795 466.984,160.795 466.849,160.66 466.768,160.606 466.768,160.335 467.174,159.807 467.985,159.144 468.175,158.521 468.175,158.467 467.742,158.251 467.336,158.224 467.281,158.143 467.174,158.224 467.174,158.143 466.849,158.007 466.523,157.804 466.442,157.533 466.523,157.114 466.768,157.06 467.851,157.384 469.528,157.331 "
   transform="translate(-0.6203,-0.479154)"
   style="fill:#981038"
   id="polygon71" />
<polygon
   points="469.528,157.331 469.881,157.533 469.989,157.668 469.881,158.467 469.989,158.751 469.962,159.333 469.394,159.753 468.121,160.281 467.336,160.795 466.984,160.795 466.849,160.66 466.768,160.606 466.768,160.335 467.174,159.807 467.985,159.144 468.175,158.521 468.175,158.467 467.742,158.251 467.336,158.224 467.281,158.143 467.174,158.224 467.174,158.143 466.849,158.007 466.523,157.804 466.442,157.533 466.523,157.114 466.768,157.06 467.851,157.384 469.528,157.331 "
   transform="translate(-0.6203,-0.479154)"
   style="fill:none;stroke:#981038;stroke-width:0;stroke-linecap:square;stroke-miterlimit:2"
   id="polygon73" />
<polygon
   points="438.64,158.413 438.991,158.751 439.1,158.941 439.235,159.753 439.668,161.026 439.912,161.689 439.587,162.609 439.1,163.272 437.016,162.082 435.445,161.08 436.014,159.807 436.69,158.67 437.097,157.913 437.638,158.007 438.64,158.413 "
   transform="translate(-0.6203,-0.479154)"
   style="fill:#ffd600"
   id="polygon75" />
<polygon
   points="438.64,158.413 438.991,158.751 439.1,158.941 439.235,159.753 439.668,161.026 439.912,161.689 439.587,162.609 439.1,163.272 437.016,162.082 435.445,161.08 436.014,159.807 436.69,158.67 437.097,157.913 437.638,158.007 438.64,158.413 "
   transform="translate(-0.6203,-0.479154)"
   style="fill:none;stroke:#ffd600;stroke-width:0;stroke-linecap:square;stroke-miterlimit:2"
   id="polygon77" />
<polygon
   points="459.296,164.762 460.162,166.616 461.163,167.482 461.786,167.78 463.302,168.037 464.655,168.037 465.387,169.12 465.657,169.783 464.655,169.837 463.059,169.783 461.65,169.513 460.378,168.944 459.837,168.619 458.971,167.902 458.104,166.955 458.05,165.574 458.05,165.425 458.104,165.344 458.05,165.29 458.294,164.261 458.619,163.598 458.835,163.408 459.079,163.679 459.296,164.762 "
   transform="translate(-0.6203,-0.479154)"
   style="fill:#ffd600;fill-rule:evenodd"
   id="polygon79" />
<polygon
   points="459.296,164.762 460.162,166.616 461.163,167.482 461.786,167.78 463.302,168.037 464.655,168.037 465.387,169.12 465.657,169.783 464.655,169.837 463.059,169.783 461.65,169.513 460.378,168.944 459.837,168.619 458.971,167.902 458.104,166.955 458.05,165.574 458.05,165.425 458.104,165.344 458.05,165.29 458.294,164.261 458.619,163.598 458.835,163.408 459.079,163.679 459.296,164.762 "
   transform="translate(-0.6203,-0.479154)"
   style="fill:none;stroke:#ffd600;stroke-width:0;stroke-linecap:square;stroke-miterlimit:2"
   id="polygon81" />
<polygon
   points="467.336,165.628 467.281,165.953 466.984,166.156 466.442,166.237 466.389,166.291 466.117,166.291 465.982,166.156 466.117,165.682 466.389,165.479 467.281,165.574 467.336,165.628 "
   transform="translate(-0.6203,-0.479154)"
   style="fill:#981038;fill-rule:evenodd"
   id="polygon83" />
<polygon
   points="467.336,165.628 467.281,165.953 466.984,166.156 466.442,166.237 466.389,166.291 466.117,166.291 465.982,166.156 466.117,165.682 466.389,165.479 467.281,165.574 467.336,165.628 "
   transform="translate(-0.6203,-0.479154)"
   style="fill:none;stroke:#981038;stroke-width:0;stroke-linecap:square;stroke-miterlimit:2"
   id="polygon85" />
<polygon
   points="472.02,167.78 472.533,168.037 472.994,168.146 474.564,169.229 475.674,170.447 476.134,170.975 476.216,171.029 476.216,171.313 475.944,171.583 475.62,171.692 475.214,171.583 474.754,171.11 472.994,169.892 471.775,169.364 470.53,169.12 469.394,168.89 469.258,168.89 469.068,167.618 469.123,167.563 469.123,167.293 469.068,167.239 469.123,167.144 470.53,167.428 472.02,167.78 "
   transform="translate(-0.6203,-0.479154)"
   style="fill:#ffd600;fill-rule:evenodd"
   id="polygon87" />
<polygon
   points="472.02,167.78 472.533,168.037 472.994,168.146 474.564,169.229 475.674,170.447 476.134,170.975 476.216,171.029 476.216,171.313 475.944,171.583 475.62,171.692 475.214,171.583 474.754,171.11 472.994,169.892 471.775,169.364 470.53,169.12 469.394,168.89 469.258,168.89 469.068,167.618 469.123,167.563 469.123,167.293 469.068,167.239 469.123,167.144 470.53,167.428 472.02,167.78 "
   transform="translate(-0.6203,-0.479154)"
   style="fill:none;stroke:#ffd600;stroke-width:0;stroke-linecap:square;stroke-miterlimit:2"
   id="polygon89" />
<polygon
   points="452.744,170.839 452.744,171.029 451.932,171.841 451.688,171.976 451.607,172.03 451.418,171.841 451.012,170.447 450.931,170.122 450.931,169.892 451.282,169.702 451.607,169.621 452.013,169.621 452.744,170.839 "
   transform="translate(-0.6203,-0.479154)"
   style="fill:#ffd600;fill-rule:evenodd"
   id="polygon91" />
<polygon
   points="452.744,170.839 452.744,171.029 451.932,171.841 451.688,171.976 451.607,172.03 451.418,171.841 451.012,170.447 450.931,170.122 450.931,169.892 451.282,169.702 451.607,169.621 452.013,169.621 452.744,170.839 "
   transform="translate(-0.6203,-0.479154)"
   style="fill:none;stroke:#ffd600;stroke-width:0;stroke-linecap:square;stroke-miterlimit:2"
   id="polygon93" />
<polygon
   points="450.605,172.03 450.687,172.504 450.28,172.91 448.603,173.465 447.573,173.641 446.382,173.587 445.922,173.384 445.597,173.059 445.679,171.029 446.111,170.785 449.55,170.027 449.956,170.027 450.605,172.03 "
   transform="translate(-0.6203,-0.479154)"
   style="fill:#ffd600"
   id="polygon95" />
<polygon
   points="450.605,172.03 450.687,172.504 450.28,172.91 448.603,173.465 447.573,173.641 446.382,173.587 445.922,173.384 445.597,173.059 445.679,171.029 446.111,170.785 449.55,170.027 449.956,170.027 450.605,172.03 "
   transform="translate(-0.6203,-0.479154)"
   style="fill:none;stroke:#ffd600;stroke-width:0;stroke-linecap:square;stroke-miterlimit:2"
   id="polygon97" />
<polygon
   points="456.562,171.245 456.372,171.922 455.613,173.465 455.153,174.142 453.204,174.44 452.148,174.859 451.146,175.468 450.47,175.997 449.55,177.133 449.008,178.325 448.818,179.597 448.71,179.84 448.71,180.071 448.656,180.152 443.594,178.934 444.379,176.605 445.245,174.196 445.407,174.047 446.68,174.44 448.386,174.521 449.874,174.25 451.607,173.492 453.746,171.841 454.342,170.893 455.072,170.975 456.562,171.245 "
   transform="translate(-0.6203,-0.479154)"
   style="fill:#ffd600;fill-rule:evenodd"
   id="polygon99" />
<polygon
   points="456.562,171.245 456.372,171.922 455.613,173.465 455.153,174.142 453.204,174.44 452.148,174.859 451.146,175.468 450.47,175.997 449.55,177.133 449.008,178.325 448.818,179.597 448.71,179.84 448.71,180.071 448.656,180.152 443.594,178.934 444.379,176.605 445.245,174.196 445.407,174.047 446.68,174.44 448.386,174.521 449.874,174.25 451.607,173.492 453.746,171.841 454.342,170.893 455.072,170.975 456.562,171.245 "
   transform="translate(-0.6203,-0.479154)"
   style="fill:none;stroke:#ffd600;stroke-width:0;stroke-linecap:square;stroke-miterlimit:2"
   id="polygon101" />
<polygon
   points="458.835,174.44 461.163,175.577 461.299,175.793 460.026,176.714 459.647,177.133 459.241,177.052 458.239,176.375 456.426,175.049 456.372,174.968 456.372,174.805 457.103,173.641 457.752,173.966 458.835,174.44 "
   transform="translate(-0.6203,-0.479154)"
   style="fill:#ffd600;fill-rule:evenodd"
   id="polygon103" />
<polygon
   points="458.835,174.44 461.163,175.577 461.299,175.793 460.026,176.714 459.647,177.133 459.241,177.052 458.239,176.375 456.426,175.049 456.372,174.968 456.372,174.805 457.103,173.641 457.752,173.966 458.835,174.44 "
   transform="translate(-0.6203,-0.479154)"
   style="fill:none;stroke:#ffd600;stroke-width:0;stroke-linecap:square;stroke-miterlimit:2"
   id="polygon105" />
<polygon
   points="458.7,177.715 458.754,177.796 458.754,177.932 457.888,178.595 457.157,179.597 457.103,179.787 457.157,180.206 457.428,180.45 458.05,180.599 458.186,180.599 458.239,180.653 457.942,181.871 457.563,183.617 457.049,184.01 455.83,184.538 455.153,184.145 454.151,183.333 450.552,180.653 450.064,180.314 449.956,180.152 450.01,179.407 450.28,178.514 450.741,177.607 452.555,175.848 453.204,175.522 454.07,175.238 454.396,175.184 455.479,175.238 458.7,177.715 "
   transform="translate(-0.6203,-0.479154)"
   style="fill:#ffd600;fill-rule:evenodd"
   id="polygon107" />
<polygon
   points="458.7,177.715 458.754,177.796 458.754,177.932 457.888,178.595 457.157,179.597 457.103,179.787 457.157,180.206 457.428,180.45 458.05,180.599 458.186,180.599 458.239,180.653 457.942,181.871 457.563,183.617 457.049,184.01 455.83,184.538 455.153,184.145 454.151,183.333 450.552,180.653 450.064,180.314 449.956,180.152 450.01,179.407 450.28,178.514 450.741,177.607 452.555,175.848 453.204,175.522 454.07,175.238 454.396,175.184 455.479,175.238 458.7,177.715 "
   transform="translate(-0.6203,-0.479154)"
   style="fill:none;stroke:#ffd600;stroke-width:0;stroke-linecap:square;stroke-miterlimit:2"
   id="polygon109" />
<polygon
   points="439.235,184.944 440.643,186.216 444.108,189.735 444,189.884 441.861,190.101 441.78,190.02 441.238,190.101 439.587,189.965 438.856,189.681 436.826,188.409 438.017,187.218 438.017,186.947 438.099,186.893 437.882,186.554 437.638,186.338 437.259,186.419 436.826,186.69 436.637,187.001 435.229,187.299 434.037,187.827 432.549,187.962 432.413,187.962 432.413,187.827 435.635,185.472 437.584,184.01 438.017,184.145 439.235,184.944 "
   transform="translate(-0.6203,-0.479154)"
   style="fill:#ffd600;fill-rule:evenodd"
   id="polygon111" />
<polygon
   points="439.235,184.944 440.643,186.216 444.108,189.735 444,189.884 441.861,190.101 441.78,190.02 441.238,190.101 439.587,189.965 438.856,189.681 436.826,188.409 438.017,187.218 438.017,186.947 438.099,186.893 437.882,186.554 437.638,186.338 437.259,186.419 436.826,186.69 436.637,187.001 435.229,187.299 434.037,187.827 432.549,187.962 432.413,187.962 432.413,187.827 435.635,185.472 437.584,184.01 438.017,184.145 439.235,184.944 "
   transform="translate(-0.6203,-0.479154)"
   style="fill:none;stroke:#ffd600;stroke-width:0;stroke-linecap:square;stroke-miterlimit:2"
   id="polygon113" />
<polygon
   points="482.09,206.682 482.145,206.926 481.981,207.346 481.9,207.738 481.684,208.537 481.494,210.229 481.359,211.027 480.683,211.095 479.979,211.285 478.977,211.42 476.974,212.029 475.891,212.421 475.133,212.828 474.618,213.504 474.482,213.938 474.212,214.696 474.077,216.496 474.077,216.767 474.293,216.916 474.754,216.821 475.674,217.051 476.351,217.375 477.082,218.188 477.406,218.932 477.542,219.568 477.461,220.178 477.298,220.706 476.811,221.423 475.268,222.844 474.889,223.061 474.754,222.844 474.808,222.262 474.754,222.181 474.808,222.127 474.808,221.842 474.754,221.789 474.808,221.734 474.618,220.327 474.293,219.514 473.86,219.095 473.156,219.244 472.939,219.433 473.21,219.758 473.427,220.178 473.481,220.706 473.535,222.397 473.21,223.453 472.615,224.455 471.775,225.389 470.937,225.944 469.394,226.391 468.608,226.391 469.313,225.199 469.881,224.117 470.07,223.453 470.124,222.587 470.07,222.181 469.745,221.423 469.394,221.044 469.204,221.044 468.987,221.26 468.933,221.842 468.662,223.264 468.175,224.59 467.661,225.524 466.442,226.729 465.766,227.108 464.521,227.446 464.061,227.528 463.789,227.528 464.25,226.201 464.385,224.983 464.195,224.455 463.627,223.399 463.384,223.169 463.112,223.318 462.733,223.927 462.733,225.118 460.514,226.052 459.918,226.391 459.756,226.526 459.837,226.783 461.082,228.421 461.786,229.138 462.057,229.748 461.705,230.072 458.294,232.211 457.428,232.631 457.942,231.413 458.89,230.221 459.594,229.463 459.647,229.138 459.512,228.936 459.431,228.854 458.619,229.084 457.752,229.409 457.617,229.409 457.752,227.853 457.617,226.864 457.509,226.282 457.049,225.592 456.562,225.253 456.29,225.118 455.479,225.199 454.747,225.728 453.069,227.528 451.797,229.274 451.607,229.409 451.363,229.274 449.685,227.947 449.144,227.609 448.71,227.609 448.386,227.947 448.331,228.272 448.386,228.529 448.818,228.936 449.388,229.138 450.28,229.802 450.335,229.991 450.146,230.275 449.874,231.737 449.604,233.429 449.604,233.483 449.388,233.294 449.008,232.211 448.331,230.884 447.194,228.272 447.005,227.853 446.734,227.189 450.064,225.673 453.638,224.063 453.881,223.792 453.827,223.507 453.638,223.399 453.583,223.318 453.15,223.399 452.825,223.589 452.365,223.724 450.47,224.536 447.52,225.863 447.059,226.052 446.734,225.998 444.866,223.453 444.649,223.264 444.379,223.264 444.027,223.643 444.108,224.59 444.379,225.064 442.132,228.272 441.645,229.084 441.563,229.138 441.51,228.137 441.861,223.643 441.997,223.169 445.11,222.506 446.68,222.127 451.282,220.841 456.155,219.298 461.082,217.498 461.976,217.105 462.788,216.442 463.519,215.413 463.708,213.938 463.627,212.421 463.573,212.367 463.627,212.286 463.519,210.621 463.573,210.229 463.573,210.012 464.114,209.565 464.304,209.403 464.521,209.227 464.521,209.01 464.574,208.929 464.439,208.672 464.114,208.401 463.438,208.482 463.059,208.672 462.436,208.726 461.299,208.537 460.026,207.928 459.241,207.156 458.619,206.263 458.375,205.41 458.239,204.882 458.375,203.136 458.835,202.188 459.594,201.661 459.756,201.579 459.918,201.579 460.081,202.053 460.92,202.852 461.922,203.379 462.652,203.596 464.71,203.88 464.764,203.935 464.846,203.88 464.899,203.935 464.98,203.88 466.389,203.989 469.664,203.664 471.884,203.217 473.671,202.554 476.351,201.39 478.3,200.808 478.462,200.808 482.09,206.682 "
   transform="translate(-0.6203,-0.479154)"
   style="fill:#ffd600;fill-rule:evenodd"
   id="polygon115" />
<polygon
   points="482.09,206.682 482.145,206.926 481.981,207.346 481.9,207.738 481.684,208.537 481.494,210.229 481.359,211.027 480.683,211.095 479.979,211.285 478.977,211.42 476.974,212.029 475.891,212.421 475.133,212.828 474.618,213.504 474.482,213.938 474.212,214.696 474.077,216.496 474.077,216.767 474.293,216.916 474.754,216.821 475.674,217.051 476.351,217.375 477.082,218.188 477.406,218.932 477.542,219.568 477.461,220.178 477.298,220.706 476.811,221.423 475.268,222.844 474.889,223.061 474.754,222.844 474.808,222.262 474.754,222.181 474.808,222.127 474.808,221.842 474.754,221.789 474.808,221.734 474.618,220.327 474.293,219.514 473.86,219.095 473.156,219.244 472.939,219.433 473.21,219.758 473.427,220.178 473.481,220.706 473.535,222.397 473.21,223.453 472.615,224.455 471.775,225.389 470.937,225.944 469.394,226.391 468.608,226.391 469.313,225.199 469.881,224.117 470.07,223.453 470.124,222.587 470.07,222.181 469.745,221.423 469.394,221.044 469.204,221.044 468.987,221.26 468.933,221.842 468.662,223.264 468.175,224.59 467.661,225.524 466.442,226.729 465.766,227.108 464.521,227.446 464.061,227.528 463.789,227.528 464.25,226.201 464.385,224.983 464.195,224.455 463.627,223.399 463.384,223.169 463.112,223.318 462.733,223.927 462.733,225.118 460.514,226.052 459.918,226.391 459.756,226.526 459.837,226.783 461.082,228.421 461.786,229.138 462.057,229.748 461.705,230.072 458.294,232.211 457.428,232.631 457.942,231.413 458.89,230.221 459.594,229.463 459.647,229.138 459.512,228.936 459.431,228.854 458.619,229.084 457.752,229.409 457.617,229.409 457.752,227.853 457.617,226.864 457.509,226.282 457.049,225.592 456.562,225.253 456.29,225.118 455.479,225.199 454.747,225.728 453.069,227.528 451.797,229.274 451.607,229.409 451.363,229.274 449.685,227.947 449.144,227.609 448.71,227.609 448.386,227.947 448.331,228.272 448.386,228.529 448.818,228.936 449.388,229.138 450.28,229.802 450.335,229.991 450.146,230.275 449.874,231.737 449.604,233.429 449.604,233.483 449.388,233.294 449.008,232.211 448.331,230.884 447.194,228.272 447.005,227.853 446.734,227.189 450.064,225.673 453.638,224.063 453.881,223.792 453.827,223.507 453.638,223.399 453.583,223.318 453.15,223.399 452.825,223.589 452.365,223.724 450.47,224.536 447.52,225.863 447.059,226.052 446.734,225.998 444.866,223.453 444.649,223.264 444.379,223.264 444.027,223.643 444.108,224.59 444.379,225.064 442.132,228.272 441.645,229.084 441.563,229.138 441.51,228.137 441.861,223.643 441.997,223.169 445.11,222.506 446.68,222.127 451.282,220.841 456.155,219.298 461.082,217.498 461.976,217.105 462.788,216.442 463.519,215.413 463.708,213.938 463.627,212.421 463.573,212.367 463.627,212.286 463.519,210.621 463.573,210.229 463.573,210.012 464.114,209.565 464.304,209.403 464.521,209.227 464.521,209.01 464.574,208.929 464.439,208.672 464.114,208.401 463.438,208.482 463.059,208.672 462.436,208.726 461.299,208.537 460.026,207.928 459.241,207.156 458.619,206.263 458.375,205.41 458.239,204.882 458.375,203.136 458.835,202.188 459.594,201.661 459.756,201.579 459.918,201.579 460.081,202.053 460.92,202.852 461.922,203.379 462.652,203.596 464.71,203.88 464.764,203.935 464.846,203.88 464.899,203.935 464.98,203.88 466.389,203.989 469.664,203.664 471.884,203.217 473.671,202.554 476.351,201.39 478.3,200.808 478.462,200.808 482.09,206.682 "
   transform="translate(-0.6203,-0.479154)"
   style="fill:none;stroke:#ffd600;stroke-width:0;stroke-linecap:square;stroke-miterlimit:2"
   id="polygon117" />
<polygon
   points="483.146,202.378 483.579,202.716 483.714,202.852 483.579,203.542 483.362,204.652 483.227,205.125 482.767,204.598 482.036,203.325 481.251,201.863 480.817,201.132 482.767,202.243 483.146,202.378 "
   transform="translate(-0.6203,-0.479154)"
   style="fill:#ffd600;fill-rule:evenodd"
   id="polygon119" />
<polygon
   points="483.146,202.378 483.579,202.716 483.714,202.852 483.579,203.542 483.362,204.652 483.227,205.125 482.767,204.598 482.036,203.325 481.251,201.863 480.817,201.132 482.767,202.243 483.146,202.378 "
   transform="translate(-0.6203,-0.479154)"
   style="fill:none;stroke:#ffd600;stroke-width:0;stroke-linecap:square;stroke-miterlimit:2"
   id="polygon121" />
<polygon
   points="447.952,218.242 449.333,219.568 449.55,219.934 449.604,219.988 449.604,220.178 446.328,220.99 445.922,221.044 445.679,220.841 445.679,220.516 446.247,219.758 446.328,219.568 446.247,219.189 446.003,218.932 445.679,218.932 445.191,219.379 444.649,220.042 444,220.516 441.374,221.369 440.643,221.599 439.912,221.734 439.912,221.653 439.858,221.599 445.056,216.36 445.787,216.712 447.952,218.242 "
   transform="translate(-0.6203,-0.479154)"
   style="fill:#ffd600;fill-rule:evenodd"
   id="polygon123" />
<polygon
   points="447.952,218.242 449.333,219.568 449.55,219.934 449.604,219.988 449.604,220.178 446.328,220.99 445.922,221.044 445.679,220.841 445.679,220.516 446.247,219.758 446.328,219.568 446.247,219.189 446.003,218.932 445.679,218.932 445.191,219.379 444.649,220.042 444,220.516 441.374,221.369 440.643,221.599 439.912,221.734 439.912,221.653 439.858,221.599 445.056,216.36 445.787,216.712 447.952,218.242 "
   transform="translate(-0.6203,-0.479154)"
   style="fill:none;stroke:#ffd600;stroke-width:0;stroke-linecap:square;stroke-miterlimit:2"
   id="polygon125" />
<polygon
   points="456.562,227.189 456.696,228.137 456.615,229.22 456.29,230.33 456.047,232.875 456.074,233.687 456.48,235.094 456.696,235.487 455.019,236.367 453.421,237.652 452.69,238.37 452.284,238.898 451.363,240.495 451.146,241.442 451.229,242.024 451.797,242.634 452.203,242.634 452.501,242.363 452.284,241.361 452.744,240.644 453.259,240.224 453.827,240.306 454.287,240.644 454.91,241.442 455.234,242.309 455.208,243.243 454.964,243.906 454.151,244.583 453.502,244.908 452.88,244.989 452.825,245.043 452.744,244.989 452.501,245.043 451.688,244.908 451.012,244.488 450.416,244.109 449.685,243.378 449.008,242.16 448.818,241.172 448.954,240.116 449.144,239.507 449.685,238.37 451.418,236.096 451.878,235.284 452.203,234.35 452.203,233.957 452.825,233.619 453.962,232.455 454.342,231.886 454.91,230.546 454.829,230.465 454.964,229.802 454.829,228.665 454.477,227.798 454.477,227.446 455.911,226.201 456.047,226.201 456.562,227.189 "
   transform="translate(-0.6203,-0.479154)"
   style="fill:#ffd600;fill-rule:evenodd"
   id="polygon127" />
<polygon
   points="456.562,227.189 456.696,228.137 456.615,229.22 456.29,230.33 456.047,232.875 456.074,233.687 456.48,235.094 456.696,235.487 455.019,236.367 453.421,237.652 452.69,238.37 452.284,238.898 451.363,240.495 451.146,241.442 451.229,242.024 451.797,242.634 452.203,242.634 452.501,242.363 452.284,241.361 452.744,240.644 453.259,240.224 453.827,240.306 454.287,240.644 454.91,241.442 455.234,242.309 455.208,243.243 454.964,243.906 454.151,244.583 453.502,244.908 452.88,244.989 452.825,245.043 452.744,244.989 452.501,245.043 451.688,244.908 451.012,244.488 450.416,244.109 449.685,243.378 449.008,242.16 448.818,241.172 448.954,240.116 449.144,239.507 449.685,238.37 451.418,236.096 451.878,235.284 452.203,234.35 452.203,233.957 452.825,233.619 453.962,232.455 454.342,231.886 454.91,230.546 454.829,230.465 454.964,229.802 454.829,228.665 454.477,227.798 454.477,227.446 455.911,226.201 456.047,226.201 456.562,227.189 "
   transform="translate(-0.6203,-0.479154)"
   style="fill:none;stroke:#ffd600;stroke-width:0;stroke-linecap:square;stroke-miterlimit:2"
   id="polygon129" />
<polygon
   points="440.453,226.445 440.372,227 440.453,227.054 440.372,228.665 440.318,228.746 440.372,230.411 440.453,230.654 440.859,230.993 441.238,230.938 441.861,230.749 444.46,227 445.056,227.108 445.679,227.338 445.868,227.338 446.192,228.272 448.061,232.549 449.469,235.148 449.793,235.487 451.012,233.375 450.687,234.905 450.146,236.015 449.956,236.096 449.144,235.812 448.548,235.433 448.007,234.823 447.52,233.795 447.52,233.619 447.33,233.294 447.249,232.956 446.68,232.346 446.247,232.549 446.111,232.685 446.058,233.483 446.058,233.687 445.11,233.538 444.541,233.213 443.54,232.13 443.269,231.548 443.134,231.074 443.134,230.749 442.7,230.33 442.24,230.411 441.997,230.749 441.942,231.074 441.942,231.209 441.861,231.291 442.132,232.076 442.132,232.346 441.238,232.739 440.643,233.213 440.048,234.214 439.858,235.148 439.912,236.421 440.183,237.084 440.237,237.084 440.237,237.152 439.533,236.895 438.91,236.475 438.18,235.622 437.773,234.823 437.638,234.146 437.584,233.159 437.692,232.211 438.017,231.413 438.721,230.749 439.019,230.411 439.181,229.883 438.91,229.274 438.45,228.529 438.342,227.744 438.531,227.189 438.856,226.526 439.019,226.31 439.235,226.282 440.372,226.31 440.453,226.445 "
   transform="translate(-0.6203,-0.479154)"
   style="fill:#ffd600;fill-rule:evenodd"
   id="polygon131" />
<polygon
   points="440.453,226.445 440.372,227 440.453,227.054 440.372,228.665 440.318,228.746 440.372,230.411 440.453,230.654 440.859,230.993 441.238,230.938 441.861,230.749 444.46,227 445.056,227.108 445.679,227.338 445.868,227.338 446.192,228.272 448.061,232.549 449.469,235.148 449.793,235.487 451.012,233.375 450.687,234.905 450.146,236.015 449.956,236.096 449.144,235.812 448.548,235.433 448.007,234.823 447.52,233.795 447.52,233.619 447.33,233.294 447.249,232.956 446.68,232.346 446.247,232.549 446.111,232.685 446.058,233.483 446.058,233.687 445.11,233.538 444.541,233.213 443.54,232.13 443.269,231.548 443.134,231.074 443.134,230.749 442.7,230.33 442.24,230.411 441.997,230.749 441.942,231.074 441.942,231.209 441.861,231.291 442.132,232.076 442.132,232.346 441.238,232.739 440.643,233.213 440.048,234.214 439.858,235.148 439.912,236.421 440.183,237.084 440.237,237.084 440.237,237.152 439.533,236.895 438.91,236.475 438.18,235.622 437.773,234.823 437.638,234.146 437.584,233.159 437.692,232.211 438.017,231.413 438.721,230.749 439.019,230.411 439.181,229.883 438.91,229.274 438.45,228.529 438.342,227.744 438.531,227.189 438.856,226.526 439.019,226.31 439.235,226.282 440.372,226.31 440.453,226.445 "
   transform="translate(-0.6203,-0.479154)"
   style="fill:none;stroke:#ffd600;stroke-width:0;stroke-linecap:square;stroke-miterlimit:2"
   id="polygon133" />
<polygon
   points="489.914,228.8 491.457,229.518 492.377,230.275 492.675,230.546 492.811,230.938 492.323,231.318 490.726,232.076 489.102,232.549 488.587,232.455 488.073,232.292 487.667,232.211 487.586,232.13 488.804,230.072 488.723,229.883 488.506,229.748 487.775,229.991 486.313,231.886 485.312,232.793 484.12,233.619 483.822,233.687 485.907,229.518 486.72,228.001 488.263,228.272 489.914,228.8 "
   transform="translate(-0.6203,-0.479154)"
   style="fill:#ffd600;fill-rule:evenodd"
   id="polygon135" />
<polygon
   points="489.914,228.8 491.457,229.518 492.377,230.275 492.675,230.546 492.811,230.938 492.323,231.318 490.726,232.076 489.102,232.549 488.587,232.455 488.073,232.292 487.667,232.211 487.586,232.13 488.804,230.072 488.723,229.883 488.506,229.748 487.775,229.991 486.313,231.886 485.312,232.793 484.12,233.619 483.822,233.687 485.907,229.518 486.72,228.001 488.263,228.272 489.914,228.8 "
   transform="translate(-0.6203,-0.479154)"
   style="fill:none;stroke:#ffd600;stroke-width:0;stroke-linecap:square;stroke-miterlimit:2"
   id="polygon137" />
<polygon
   points="453.204,230.884 452.934,231.466 452.419,232.211 451.229,233.159 450.931,233.659 450.931,232.793 451.146,232.346 451.229,231.967 451.472,230.993 451.472,230.654 451.878,230.546 452.067,230.33 452.69,230.654 453.204,230.884 "
   transform="translate(-0.6203,-0.479154)"
   style="fill:#ffd600;fill-rule:evenodd"
   id="polygon139" />
<polygon
   points="453.204,230.884 452.934,231.466 452.419,232.211 451.229,233.159 450.931,233.659 450.931,232.793 451.146,232.346 451.229,231.967 451.472,230.993 451.472,230.654 451.878,230.546 452.067,230.33 452.69,230.654 453.204,230.884 "
   transform="translate(-0.6203,-0.479154)"
   style="fill:none;stroke:#ffd600;stroke-width:0;stroke-linecap:square;stroke-miterlimit:2"
   id="polygon141" />
<polygon
   points="460.595,234.214 462.301,234.756 465.657,235.568 469.204,236.231 472.615,236.57 480.249,236.705 484.364,236.421 484.31,237.233 483.985,238.695 483.822,238.816 479.302,239.033 474.889,238.816 472.154,238.56 469.881,238.221 467.281,237.707 463.708,236.705 460.758,235.676 457.428,234.485 457.157,233.795 457.157,233.429 457.428,233.159 458.104,233.294 460.595,234.214 "
   transform="translate(-0.6203,-0.479154)"
   style="fill:#ffd600;fill-rule:evenodd"
   id="polygon143" />
<polygon
   points="460.595,234.214 462.301,234.756 465.657,235.568 469.204,236.231 472.615,236.57 480.249,236.705 484.364,236.421 484.31,237.233 483.985,238.695 483.822,238.816 479.302,239.033 474.889,238.816 472.154,238.56 469.881,238.221 467.281,237.707 463.708,236.705 460.758,235.676 457.428,234.485 457.157,233.795 457.157,233.429 457.428,233.159 458.104,233.294 460.595,234.214 "
   transform="translate(-0.6203,-0.479154)"
   style="fill:none;stroke:#ffd600;stroke-width:0;stroke-linecap:square;stroke-miterlimit:2"
   id="polygon145" />
<polygon
   points="461.435,237.314 464.385,237.896 465.766,238.221 468.473,238.776 473.481,239.426 476.242,239.615 478.76,239.696 483.714,239.778 483.796,239.98 483.579,240.779 483.524,241.442 483.227,242.688 483.092,242.823 478.896,242.918 474.754,242.688 472.398,242.499 470.205,242.16 466.849,241.442 464.061,240.779 459.431,239.223 456.236,237.978 455.153,237.558 455.072,237.477 455.424,237.152 456.29,236.624 457.103,236.421 457.698,236.367 458.971,236.57 461.435,237.314 "
   transform="translate(-0.6203,-0.479154)"
   style="fill:#ffd600"
   id="polygon147" />
<polygon
   points="461.435,237.314 464.385,237.896 465.766,238.221 468.473,238.776 473.481,239.426 476.242,239.615 478.76,239.696 483.714,239.778 483.796,239.98 483.579,240.779 483.524,241.442 483.227,242.688 483.092,242.823 478.896,242.918 474.754,242.688 472.398,242.499 470.205,242.16 466.849,241.442 464.061,240.779 459.431,239.223 456.236,237.978 455.153,237.558 455.072,237.477 455.424,237.152 456.29,236.624 457.103,236.421 457.698,236.367 458.971,236.57 461.435,237.314 "
   transform="translate(-0.6203,-0.479154)"
   style="fill:none;stroke:#ffd600;stroke-width:0;stroke-linecap:square;stroke-miterlimit:2"
   id="polygon149" />
<polygon
   points="499.037,238.032 499.362,238.37 499.714,238.424 499.957,238.424 500.039,238.37 500.093,238.424 500.146,238.56 500.039,239.507 499.47,239.832 498.008,240.36 497.196,240.495 496.817,240.495 497.413,238.776 498.279,237.084 498.36,236.759 498.495,236.759 499.037,238.032 "
   transform="translate(-0.6203,-0.479154)"
   style="fill:#ffd600;fill-rule:evenodd"
   id="polygon151" />
<polygon
   points="499.037,238.032 499.362,238.37 499.714,238.424 499.957,238.424 500.039,238.37 500.093,238.424 500.146,238.56 500.039,239.507 499.47,239.832 498.008,240.36 497.196,240.495 496.817,240.495 497.413,238.776 498.279,237.084 498.36,236.759 498.495,236.759 499.037,238.032 "
   transform="translate(-0.6203,-0.479154)"
   style="fill:none;stroke:#ffd600;stroke-width:0;stroke-linecap:square;stroke-miterlimit:2"
   id="polygon153" />
<polygon
   points="489.67,239.168 488.263,240.833 488.344,241.253 488.723,241.497 488.831,241.632 488.831,241.781 488.127,242.106 487.586,242.16 486.638,242.363 484.986,242.499 484.905,242.444 485.853,241.361 487.342,239.304 487.45,239.304 487.586,239.642 487.829,239.886 488.397,239.832 489.589,238.898 489.725,238.898 489.67,239.168 "
   transform="translate(-0.6203,-0.479154)"
   style="fill:#ffd600;fill-rule:evenodd"
   id="polygon155" />
<polygon
   points="489.67,239.168 488.263,240.833 488.344,241.253 488.723,241.497 488.831,241.632 488.831,241.781 488.127,242.106 487.586,242.16 486.638,242.363 484.986,242.499 484.905,242.444 485.853,241.361 487.342,239.304 487.45,239.304 487.586,239.642 487.829,239.886 488.397,239.832 489.589,238.898 489.725,238.898 489.67,239.168 "
   transform="translate(-0.6203,-0.479154)"
   style="fill:none;stroke:#ffd600;stroke-width:0;stroke-linecap:square;stroke-miterlimit:2"
   id="polygon157" />
</svg>