<?xml version="1.0" encoding="UTF-8" standalone="no"?>
<!-- Created with Inkscape (http://www.inkscape.org/) -->
<svg
   xmlns:svg="http://www.w3.org/2000/svg"
   xmlns="http://www.w3.org/2000/svg"
   version="1.0"
   width="283.96402"
   height="250.91437"
   viewBox="0 0 29.362 25.942"
   id="Layer_1"
   xml:space="preserve"><defs
   id="defs20" />
<polygon
   points="4.428,0.552 0.658,13.624 3.789,25.881 25.617,25.77 29.299,13.733 25.837,0.484 4.428,0.552 "
   transform="translate(-1.499998e-3,-1.825482e-3)"
   style="fill:#a09da2"
   id="polygon3" />
<polygon
   points="4.428,0.552 0.658,13.624 3.789,25.881 25.617,25.77 29.299,13.733 25.837,0.484 4.428,0.552 "
   transform="translate(-1.499998e-3,-1.825482e-3)"
   style="fill:none;stroke:#a7a3a8;stroke-width:0.123;stroke-miterlimit:3.86400008"
   id="polygon5" />
<polygon
   points="3.833,0.128 0.063,13.2 2.967,25.346 24.942,25.346 28.704,13.311 25.243,0.062 3.833,0.128 "
   transform="translate(-1.499998e-3,-1.825482e-3)"
   style="fill:#bdc5c1"
   id="polygon7" />
<polygon
   points="3.833,0.128 0.063,13.2 2.967,25.346 24.942,25.346 28.704,13.311 25.243,0.062 3.833,0.128 "
   transform="translate(-1.499998e-3,-1.825482e-3)"
   style="fill:none;stroke:#686469;stroke-width:0.123;stroke-miterlimit:3.86400008"
   id="polygon9" />
<circle
   cx="2.6429999"
   cy="13.2"
   r="1.676"
   transform="translate(-1.499998e-3,-1.825482e-3)"
   style="fill:#95979a"
   id="circle11" />
<circle
   cx="2.6429999"
   cy="13.2"
   r="1.676"
   transform="translate(-1.499998e-3,-1.825482e-3)"
   style="fill:none;stroke:#686469;stroke-width:0.123;stroke-miterlimit:3.86400008"
   id="circle13" />
<circle
   cx="26.174999"
   cy="13.07"
   r="1.675"
   transform="translate(-1.499998e-3,-1.825482e-3)"
   style="fill:#95979a"
   id="circle15" />
<circle
   cx="26.174999"
   cy="13.07"
   r="1.675"
   transform="translate(-1.499998e-3,-1.825482e-3)"
   style="fill:none;stroke:#686469;stroke-width:0.123;stroke-miterlimit:3.86400008"
   id="circle17" />
</svg>