<?xml version="1.0" encoding="UTF-8" standalone="no"?>
<!-- Created with Inkscape (http://www.inkscape.org/) -->
<svg
   xmlns:svg="http://www.w3.org/2000/svg"
   xmlns="http://www.w3.org/2000/svg"
   version="1.0"
   width="450.38208"
   height="219.64345"
   viewBox="0 0 25.404 12.36"
   id="Layer_1"
   xml:space="preserve"><defs
   id="defs26" />
<path
   d="M 25.2955,0.019957131 L 5.0104999,0.87195713 L 0.034499999,12.303954 L 23.9165,10.715954 C 23.9165,10.715954 22.1045,8.3039541 24.4735,5.4219541 C 24.4735,5.4219541 22.7845,2.4789571 25.2955,0.019957131 z "
   style="fill:#33725b;fill-rule:evenodd"
   id="path3" />
<path
   d="M 25.2955,0.019957131 L 5.0104999,0.87195713 L 0.034499999,12.303954 L 23.9165,10.715954 C 23.9165,10.715954 22.1045,8.3039541 24.4735,5.4219541 C 24.4735,5.4219541 22.7845,2.4789571 25.2955,0.019957131 z "
   style="fill:none;stroke:#33725b;stroke-width:0.069;stroke-miterlimit:3.86400008"
   id="path5" />
<path
   d="M 23.9585,0.79795713 L 5.6704999,1.6019571 L 1.3714999,11.526954 L 22.9505,10.086954 C 22.9505,10.086954 21.5515,7.7769541 23.6495,5.2259541 C 23.6495,5.2249541 22.2085,2.4669571 23.9585,0.79795713"
   style="fill:white;fill-rule:evenodd"
   id="path7" />
<path
   d="M 22.9715,1.4909571 L 6.2094999,2.1699571 L 2.4744999,10.789954 L 21.9805,9.4789541 C 21.9805,9.4789541 21.0255,7.4539541 22.8455,5.2379541 C 22.8465,5.2379541 21.6095,3.0539571 22.9715,1.4909571 z "
   style="fill:#33725b;fill-rule:evenodd"
   id="path9" />
<path
   d="M 22.9715,1.4909571 L 6.2094999,2.1699571 L 2.4744999,10.789954 L 21.9805,9.4789541 C 21.9805,9.4789541 21.0255,7.4539541 22.8455,5.2379541 C 22.8465,5.2379541 21.6095,3.0539571 22.9715,1.4909571 z "
   style="fill:none;stroke:#33725b;stroke-width:0.069;stroke-miterlimit:3.86400008"
   id="path11" />
<polygon
   points="10.846,9.89 8.839,6.358 10.405,2.641 13.757,2.486 12.281,6.149 14.403,9.639 10.846,9.89 "
   transform="translate(-1.94996e-2,-1.800287e-2)"
   style="fill:#ffd200"
   id="polygon13" />
<polygon
   points="10.846,9.89 8.839,6.358 10.405,2.641 13.757,2.486 12.281,6.149 14.403,9.639 10.846,9.89 "
   transform="translate(-1.94996e-2,-1.800287e-2)"
   style="fill:none;stroke:#f79320;stroke-width:0.07;stroke-miterlimit:3.86400008"
   id="polygon15" />
<polygon
   points="15.436,9.646 13.321,6.038 14.886,2.32 16.304,2.221 14.642,5.893 16.813,9.563 15.436,9.646 "
   transform="translate(-1.94996e-2,-1.800287e-2)"
   style="fill:#ffd200"
   id="polygon17" />
<polygon
   points="15.436,9.646 13.321,6.038 14.886,2.32 16.304,2.221 14.642,5.893 16.813,9.563 15.436,9.646 "
   transform="translate(-1.94996e-2,-1.800287e-2)"
   style="fill:none;stroke:#f79320;stroke-width:0.07;stroke-miterlimit:3.86400008"
   id="polygon19" />
<polygon
   points="17.653,9.522 15.536,5.916 17.102,2.197 18.52,2.098 16.858,5.77 19.028,9.44 17.653,9.522 "
   transform="translate(-1.94996e-2,-1.800287e-2)"
   style="fill:#ffd200"
   id="polygon21" />
<polygon
   points="17.653,9.522 15.536,5.916 17.102,2.197 18.52,2.098 16.858,5.77 19.028,9.44 17.653,9.522 "
   transform="translate(-1.94996e-2,-1.800287e-2)"
   style="fill:none;stroke:#f79320;stroke-width:0.07;stroke-miterlimit:3.86400008"
   id="polygon23" />
</svg>