<?xml version="1.0" encoding="UTF-8" standalone="no"?>
<!-- Created with Inkscape (http://www.inkscape.org/) -->
<svg
   xmlns:svg="http://www.w3.org/2000/svg"
   xmlns="http://www.w3.org/2000/svg"
   version="1.0"
   width="450.25732"
   height="219.5708"
   viewBox="0 0 25.349 12.333"
   id="Layer_1"
   xml:space="preserve"><defs
   id="defs20" />
<path
   d="M 25.2415,0.020200805 L 5.0005,0.87020081 L 0.034499999,12.277201 L 23.8655,10.692201 C 23.8655,10.692201 22.0575,8.2872008 24.4205,5.4122008 C 24.4205,5.4122008 22.7365,2.4742008 25.2415,0.020200805 z "
   style="fill:#0060a9;fill-rule:evenodd"
   id="path3" />
<path
   d="M 25.2415,0.020200805 L 5.0005,0.87020081 L 0.034499999,12.277201 L 23.8655,10.692201 C 23.8655,10.692201 22.0575,8.2872008 24.4205,5.4122008 C 24.4205,5.4122008 22.7365,2.4742008 25.2415,0.020200805 z "
   style="fill:none;stroke:#0060a9;stroke-width:0.069;stroke-miterlimit:3.86400008"
   id="path5" />
<path
   d="M 23.9075,0.79620081 L 5.6595,1.5982008 L 1.3685,11.502201 L 22.9015,10.064201 C 22.9015,10.064201 21.5055,7.7602008 23.5985,5.2152008 C 23.5995,5.2142008 22.1615,2.4622008 23.9075,0.79620081 z "
   style="fill:#ed174c;fill-rule:evenodd"
   id="path7" />
<path
   d="M 23.9075,0.79620081 L 5.6595,1.5982008 L 1.3685,11.502201 L 22.9015,10.064201 C 22.9015,10.064201 21.5055,7.7602008 23.5985,5.2152008 C 23.5995,5.2142008 22.1615,2.4622008 23.9075,0.79620081 z "
   style="fill:none;stroke:#ed174c;stroke-width:0.068;stroke-miterlimit:3.86400008"
   id="path9" />
<path
   d="M 22.9215,1.4872008 L 6.1965,2.1672008 L 2.4705,10.767201 L 21.9325,9.4592008 C 21.9325,9.4592008 20.9795,7.4372008 22.7975,5.2262008 C 22.7985,5.2252008 21.5635,3.0472008 22.9215,1.4872008 z "
   style="fill:#0060a9;fill-rule:evenodd"
   id="path11" />
<path
   d="M 22.9215,1.4872008 L 6.1965,2.1672008 L 2.4705,10.767201 L 21.9325,9.4592008 C 21.9325,9.4592008 20.9795,7.4372008 22.7975,5.2262008 C 22.7985,5.2252008 21.5635,3.0472008 22.9215,1.4872008 z "
   style="fill:none;stroke:#0060a9;stroke-width:0.066;stroke-miterlimit:3.86400008"
   id="path13" />
<polygon
   points="4.756,7.544 3.684,10.089 8.072,9.794 9.096,7.115 4.756,7.544 "
   transform="translate(-1.95e-2,-1.779919e-2)"
   style="fill:#ffd200"
   id="polygon15" />
<polygon
   points="4.756,7.544 3.684,10.089 8.072,9.794 9.096,7.115 4.756,7.544 "
   transform="translate(-1.95e-2,-1.779919e-2)"
   style="fill:none;stroke:#ffd200;stroke-width:0.069;stroke-miterlimit:3.86400008"
   id="polygon17" />
</svg>