<?xml version="1.0" encoding="UTF-8" standalone="no"?>
<!-- Created with Inkscape (http://www.inkscape.org/) -->
<svg
   xmlns:svg="http://www.w3.org/2000/svg"
   xmlns="http://www.w3.org/2000/svg"
   version="1.0"
   width="449.56287"
   height="219.23489"
   viewBox="0 0 25.403 12.359"
   id="Layer_1"
   xml:space="preserve"><defs
   id="defs22" />
<path
   d="M 25.2945,0.01995639 L 5.0105,0.87095639 L 0.034499999,12.302956 L 23.9165,10.713956 C 23.9165,10.713956 22.1045,8.3029564 24.4735,5.4209564 C 24.4725,5.4209564 22.7845,2.4789564 25.2945,0.01995639 z "
   style="fill:#33725b;fill-rule:evenodd"
   id="path3" />
<path
   d="M 25.2945,0.01995639 L 5.0105,0.87095639 L 0.034499999,12.302956 L 23.9165,10.713956 C 23.9165,10.713956 22.1045,8.3029564 24.4735,5.4209564 C 24.4725,5.4209564 22.7845,2.4789564 25.2945,0.01995639 z "
   style="fill:none;stroke:#33725b;stroke-width:0.069;stroke-miterlimit:3.86400008"
   id="path5" />
<path
   d="M 23.9585,0.79695639 L 5.6705,1.6009564 L 1.3705,11.525956 L 22.9495,10.084956 C 22.9495,10.084956 21.5515,7.7759564 23.6485,5.2249564 C 23.6495,5.2239564 22.2085,2.4659564 23.9585,0.79695639"
   style="fill:white;fill-rule:evenodd"
   id="path7" />
<path
   d="M 22.9705,1.4899564 L 6.2085,2.1699564 L 2.4755,10.789956 L 21.9805,9.4789564 C 21.9805,9.4789564 21.0255,7.4529564 22.8465,5.2369564 C 22.8465,5.2369564 21.6095,3.0529564 22.9705,1.4899564 z "
   style="fill:#33725b;fill-rule:evenodd"
   id="path9" />
<path
   d="M 22.9705,1.4899564 L 6.2085,2.1699564 L 2.4755,10.789956 L 21.9805,9.4789564 C 21.9805,9.4789564 21.0255,7.4529564 22.8465,5.2369564 C 22.8465,5.2369564 21.6095,3.0529564 22.9705,1.4899564 z "
   style="fill:none;stroke:#33725b;stroke-width:0.069;stroke-miterlimit:3.86400008"
   id="path11" />
<polygon
   points="4.743,7.56 3.668,10.11 8.065,9.814 9.093,7.13 4.743,7.56 "
   transform="translate(-2.04995e-2,-1.804361e-2)"
   style="fill:#ffd200"
   id="polygon13" />
<polygon
   points="4.743,7.56 3.668,10.11 8.065,9.814 9.093,7.13 4.743,7.56 "
   transform="translate(-2.04995e-2,-1.804361e-2)"
   style="fill:none;stroke:#ffd200;stroke-width:0.07;stroke-miterlimit:3.86400008"
   id="polygon15" />
<polygon
   points="6.132,4.08 5.057,6.63 9.455,6.334 10.481,3.649 6.132,4.08 "
   transform="translate(-2.04995e-2,-1.804361e-2)"
   style="fill:#ffd200"
   id="polygon17" />
<polygon
   points="6.132,4.08 5.057,6.63 9.455,6.334 10.481,3.649 6.132,4.08 "
   transform="translate(-2.04995e-2,-1.804361e-2)"
   style="fill:none;stroke:#ffd200;stroke-width:0.07;stroke-miterlimit:3.86400008"
   id="polygon19" />
</svg>