<?xml version="1.0" encoding="UTF-8" standalone="no"?>
<!-- Created with Inkscape (http://www.inkscape.org/) -->
<svg
   xmlns:svg="http://www.w3.org/2000/svg"
   xmlns="http://www.w3.org/2000/svg"
   version="1.0"
   width="290.34106"
   height="256.57104"
   viewBox="0 0 29.425 25.999"
   id="Layer_1"
   xml:space="preserve"><defs
   id="defs28" />
<polygon
   points="4.438,0.552 0.66,13.653 3.797,25.938 25.673,25.826 29.361,13.764 25.894,0.486 4.438,0.552 "
   transform="translate(-1.499998e-3,-2.268454e-3)"
   style="fill:#a09da2"
   id="polygon3" />
<polygon
   points="4.438,0.552 0.66,13.653 3.797,25.938 25.673,25.826 29.361,13.764 25.894,0.486 4.438,0.552 "
   transform="translate(-1.499998e-3,-2.268454e-3)"
   style="fill:none;stroke:#a7a3a8;stroke-width:0.123;stroke-miterlimit:3.86400008"
   id="polygon5" />
<polygon
   points="3.842,0.128 0.063,13.229 2.974,25.402 24.997,25.402 28.766,13.339 25.298,0.062 3.842,0.128 "
   transform="translate(-1.499998e-3,-2.268454e-3)"
   style="fill:#bdc5c1"
   id="polygon7" />
<polygon
   points="3.842,0.128 0.063,13.229 2.974,25.402 24.997,25.402 28.766,13.339 25.298,0.062 3.842,0.128 "
   transform="translate(-1.499998e-3,-2.268454e-3)"
   style="fill:none;stroke:#686469;stroke-width:0.123;stroke-miterlimit:3.86400008"
   id="polygon9" />
<circle
   cx="2.648"
   cy="13.229"
   r="1.679"
   transform="translate(-1.499998e-3,-2.268454e-3)"
   style="fill:#95979a"
   id="circle11" />
<circle
   cx="2.648"
   cy="13.229"
   r="1.679"
   transform="translate(-1.499998e-3,-2.268454e-3)"
   style="fill:none;stroke:#686469;stroke-width:0.123;stroke-miterlimit:3.86400008"
   id="circle13" />
<circle
   cx="26.233"
   cy="13.098"
   r="1.679"
   transform="translate(-1.499998e-3,-2.268454e-3)"
   style="fill:#95979a"
   id="circle15" />
<circle
   cx="26.233"
   cy="13.098"
   r="1.679"
   transform="translate(-1.499998e-3,-2.268454e-3)"
   style="fill:none;stroke:#686469;stroke-width:0.123;stroke-miterlimit:3.86400008"
   id="circle17" />
<path
   d="M 4.9345,15.395732 L 13.5865,7.5087317 C 12.6085,7.1307317 11.9165,6.1817317 11.9165,5.0707317 C 11.9165,3.6277317 13.0865,2.4577317 14.5305,2.4577317 C 15.9735,2.4577317 17.1435,3.6277317 17.1435,5.0707317 C 17.1435,6.1827317 16.4505,7.1327317 15.4705,7.5087317 L 23.9485,15.394732 L 23.8855,17.836732 L 14.5365,8.9537317 L 5.0105,17.836732 L 4.9345,15.395732 M 13.0525,5.0717317 C 13.0525,5.8867317 13.7145,6.5497317 14.5315,6.5497317 C 15.3465,6.5497317 16.0085,5.8877317 16.0085,5.0717317 C 16.0085,4.2557317 15.3475,3.5937317 14.5315,3.5937317 C 13.7145,3.5947317 13.0525,4.2567317 13.0525,5.0717317 z "
   style="fill:#ffd200"
   id="path19" />
<path
   d="M 4.9345,15.395732 L 13.5865,7.5087317 C 12.6085,7.1307317 11.9165,6.1817317 11.9165,5.0707317 C 11.9165,3.6277317 13.0865,2.4577317 14.5305,2.4577317 C 15.9735,2.4577317 17.1435,3.6277317 17.1435,5.0707317 C 17.1435,6.1827317 16.4505,7.1327317 15.4705,7.5087317 L 23.9485,15.394732 L 23.8855,17.836732 L 14.5365,8.9537317 L 5.0105,17.836732 L 4.9345,15.395732 z M 13.0525,5.0717317 C 13.0525,5.8867317 13.7145,6.5497317 14.5315,6.5497317 C 15.3465,6.5497317 16.0085,5.8877317 16.0085,5.0717317 C 16.0085,4.2557317 15.3475,3.5937317 14.5315,3.5937317 C 13.7145,3.5947317 13.0525,4.2567317 13.0525,5.0717317 z "
   style="fill:none;stroke:#fdb714;stroke-width:0.17;stroke-miterlimit:3.86400008"
   id="path21" />
<polygon
   points="4.936,19.606 14.539,10.854 23.95,19.606 23.888,22.049 14.539,13.166 5.013,22.049 4.936,19.606 "
   transform="translate(-1.499998e-3,-2.268454e-3)"
   style="fill:#ffd200"
   id="polygon23" />
<polygon
   points="4.936,19.606 14.539,10.854 23.95,19.606 23.888,22.049 14.539,13.166 5.013,22.049 4.936,19.606 "
   transform="translate(-1.499998e-3,-2.268454e-3)"
   style="fill:none;stroke:#fdb714;stroke-width:0.17;stroke-miterlimit:3.86400008"
   id="polygon25" />
</svg>