<?xml version="1.0" encoding="UTF-8" standalone="no"?>
<!-- Created with Inkscape (http://www.inkscape.org/) -->
<svg
   xmlns:svg="http://www.w3.org/2000/svg"
   xmlns="http://www.w3.org/2000/svg"
   xmlns:xlink="http://www.w3.org/1999/xlink"
   version="1.0"
   width="451.56119"
   height="220.14841"
   viewBox="0 0 28.456 13.845"
   id="Layer_1"
   xml:space="preserve"><defs
   id="defs74" />
<path
   d="M 28.3475,0.020461387 L 5.6115,0.97446139 L 0.034499999,13.788461 L 26.8025,12.009461 C 26.8025,12.009461 24.7715,9.3064614 27.4265,6.0754614 C 27.4255,6.0754614 25.5335,2.7774614 28.3475,0.020461387 z "
   style="fill:#33725b;fill-rule:evenodd"
   id="path3" />
<path
   d="M 28.3475,0.020461387 L 5.6115,0.97446139 L 0.034499999,13.788461 L 26.8025,12.009461 C 26.8025,12.009461 24.7715,9.3064614 27.4265,6.0754614 C 27.4255,6.0754614 25.5335,2.7774614 28.3475,0.020461387 z "
   style="fill:none;stroke:#33725b;stroke-width:0.069;stroke-miterlimit:3.86400008"
   id="path5" />
<path
   d="M 26.8485,0.89246139 L 6.3515,1.7934614 L 1.5325,12.917461 L 25.7195,11.302461 C 25.7195,11.302461 24.1525,8.7144614 26.5015,5.8554614 C 26.5005,5.8544614 24.8865,2.7634614 26.8485,0.89246139"
   style="fill:white;fill-rule:evenodd"
   id="path7" />
<path
   d="M 25.7405,1.6684614 L 6.9545,2.4304614 L 2.7695,12.090461 L 24.6315,10.621461 C 24.6315,10.621461 23.5615,8.3504614 25.6025,5.8674614 C 25.6025,5.8684614 24.2155,3.4214614 25.7405,1.6684614 z "
   style="fill:#33725b;fill-rule:evenodd"
   id="path9" />
<path
   d="M 25.7405,1.6684614 L 6.9545,2.4304614 L 2.7695,12.090461 L 24.6315,10.621461 C 24.6315,10.621461 23.5615,8.3504614 25.6025,5.8674614 C 25.6025,5.8684614 24.2155,3.4214614 25.7405,1.6684614 z "
   style="fill:none;stroke:#33725b;stroke-width:0.069;stroke-miterlimit:3.86400008"
   id="path11" />
<polygon
   points="16.131,5.516 15.809,5.457 15.722,5.068 16.161,5.2 16.131,5.516 "
   transform="translate(-2.05002e-2,-1.753861e-2)"
   style="fill:#ffd200"
   id="polygon13" />
<polygon
   points="16.131,5.516 15.809,5.457 15.722,5.068 16.161,5.2 16.131,5.516 "
   transform="translate(-2.05002e-2,-1.753861e-2)"
   style="fill:none;stroke:#793f11;stroke-width:0.064;stroke-miterlimit:3.86400008"
   id="polygon15" />
<path
   d="M 15.5915,7.1464614 C 15.1525,7.1464614 15.1915,6.6674614 15.2915,6.2604614 C 15.3855,5.8874614 15.5755,5.2604614 16.1275,5.5384614 C 16.0365,5.0114614 16.5335,4.8814614 16.9525,4.8814614 C 17.3375,4.8814614 18.0145,4.8974614 17.8795,5.4984614 C 18.3595,5.2664614 18.6665,5.7154614 18.7825,6.1184614 C 18.8885,6.4874614 19.0605,7.1424614 18.4445,7.1774614 C 18.8275,7.5504614 18.4675,7.9134614 18.1285,8.1594614 C 17.8175,8.3844614 17.3175,8.7514614 17.0735,8.1844614 C 16.8205,8.6554614 16.3045,8.4514614 15.9745,8.1934614 C 15.6725,7.9584614 15.1815,7.5854614 15.6165,7.1464614 C 15.6175,7.1464614 15.6675,7.1464614 15.5915,7.1464614 z "
   style="fill:#ffd200;fill-rule:evenodd"
   id="path17" />
<path
   d="M 15.5915,7.1464614 C 15.1525,7.1464614 15.1915,6.6674614 15.2915,6.2604614 C 15.3855,5.8874614 15.5755,5.2604614 16.1275,5.5384614 C 16.0365,5.0114614 16.5335,4.8814614 16.9525,4.8814614 C 17.3375,4.8814614 18.0145,4.8974614 17.8795,5.4984614 C 18.3595,5.2664614 18.6665,5.7154614 18.7825,6.1184614 C 18.8885,6.4874614 19.0605,7.1424614 18.4445,7.1774614 C 18.8275,7.5504614 18.4675,7.9134614 18.1285,8.1594614 C 17.8175,8.3844614 17.3175,8.7514614 17.0735,8.1844614 C 16.8205,8.6554614 16.3045,8.4514614 15.9745,8.1934614 C 15.6725,7.9584614 15.1815,7.5854614 15.6165,7.1464614 C 15.6175,7.1464614 15.6675,7.1464614 15.5915,7.1464614 z "
   style="fill:none;stroke:#793f11;stroke-width:0.064;stroke-miterlimit:3.86400008"
   id="path19" />
<g
   transform="translate(-2.05002e-2,-1.753861e-2)"
   id="g21">
	<defs
   id="defs23">
		<path
   d="M 16.477,6.735 C 16.477,6.413 16.74,6.152 17.061,6.152 C 17.383,6.152 17.644,6.413 17.644,6.735 C 17.644,7.057 17.383,7.317 17.061,7.317 C 16.739,7.317 16.477,7.058 16.477,6.735"
   id="XMLID_1_" />
	</defs>
	<clipPath
   id="XMLID_3_">
		<use
   id="use27"
   x="0"
   y="0"
   width="28.455999"
   height="13.845"
   xlink:href="#XMLID_1_" />
	</clipPath>
	<path
   d="M 17.643,6.735 L 17.643,6.735 C 17.643,7.057 17.382,7.319 17.06,7.319 C 16.74,7.319 16.477,7.057 16.477,6.735 C 16.477,6.415 16.74,6.152 17.06,6.152 C 17.382,6.153 17.643,6.415 17.643,6.735 M 17.817,6.733 C 17.817,6.319 17.482,5.984 17.068,5.984 C 16.654,5.984 16.319,6.318 16.319,6.733 C 16.319,7.148 16.654,7.483 17.068,7.483 C 17.482,7.483 17.817,7.147 17.817,6.733"
   style="fill:#ffd200"
   clip-path="url(#XMLID_3_)"
   id="path29" />
	<path
   d="M 17.477,6.735 L 17.477,6.735 C 17.477,6.965 17.29,7.153 17.06,7.153 C 16.831,7.153 16.644,6.965 16.644,6.735 C 16.644,6.506 16.832,6.319 17.06,6.319 C 17.29,6.319 17.477,6.506 17.477,6.735 M 17.651,6.733 C 17.651,6.412 17.389,6.15 17.068,6.15 C 16.746,6.15 16.485,6.411 16.485,6.733 C 16.485,7.055 16.746,7.317 17.068,7.317 C 17.39,7.317 17.651,7.056 17.651,6.733"
   style="fill:#ffdb5d"
   clip-path="url(#XMLID_3_)"
   id="path31" />
	<path
   d="M 17.31,6.735 L 17.31,6.735 C 17.31,6.874 17.199,6.985 17.06,6.985 C 16.922,6.985 16.811,6.874 16.811,6.735 C 16.811,6.598 16.922,6.485 17.06,6.485 C 17.198,6.485 17.31,6.599 17.31,6.735 M 17.454,6.733 C 17.454,6.504 17.267,6.317 17.038,6.317 C 16.808,6.317 16.622,6.504 16.622,6.733 C 16.622,6.963 16.808,7.149 17.038,7.149 C 17.268,7.149 17.454,6.964 17.454,6.733"
   style="fill:#ffe693"
   clip-path="url(#XMLID_3_)"
   id="path33" />
	<path
   d="M 17.144,6.735 L 17.144,6.735 C 17.144,6.782 17.106,6.819 17.06,6.819 C 17.014,6.819 16.977,6.782 16.977,6.735 C 16.977,6.69 17.014,6.653 17.06,6.653 C 17.106,6.653 17.144,6.69 17.144,6.735 M 17.318,6.733 C 17.318,6.596 17.206,6.483 17.068,6.483 C 16.929,6.483 16.818,6.596 16.818,6.733 C 16.818,6.872 16.929,6.983 17.068,6.983 C 17.206,6.983 17.318,6.872 17.318,6.733"
   style="fill:#fff1c7"
   clip-path="url(#XMLID_3_)"
   id="path35" />
	<path
   d="M 17.151,6.733 C 17.151,6.688 17.114,6.651 17.068,6.651 C 17.021,6.651 16.985,6.688 16.985,6.733 C 16.985,6.78 17.021,6.817 17.068,6.817 C 17.114,6.817 17.151,6.78 17.151,6.733"
   style="fill:white"
   clip-path="url(#XMLID_3_)"
   id="path37" />
</g>
<path
   d="M 17.1905,7.9694614 L 16.9455,7.9654614 C 16.8815,7.9744614 16.8825,8.1584614 16.7825,8.2274614 C 16.5605,8.3774614 16.4215,8.0144614 16.1865,7.8794614 C 16.0005,7.7754614 15.8145,7.7464614 15.7095,7.6124614 C 15.6075,7.4814614 15.7795,7.3814614 15.8965,7.2614614 L 15.8745,7.0224614 C 15.8465,6.9624614 15.6715,7.0244614 15.5745,6.9534614 C 15.3595,6.7924614 15.6575,6.5424614 15.7085,6.2774614 C 15.7475,6.0684614 15.7145,5.8824614 15.8065,5.7404614 C 15.8975,5.6014614 16.0555,5.7394614 16.2055,5.8114614 L 16.3435,5.6744614 C 16.3935,5.6314614 16.2875,5.4784614 16.3315,5.3664614 C 16.4325,5.1174614 16.7515,5.3404614 17.0195,5.3214614 C 17.2315,5.3054614 17.4025,5.2244614 17.5635,5.2764614 C 17.7215,5.3274614 17.6445,5.5164614 17.6145,5.6804614 M 18.2435,6.9584614 L 18.1765,7.1824614 C 18.1635,7.2474614 18.3425,7.3004614 18.3785,7.4154614 C 18.4565,7.6714614 18.0675,7.6974614 17.8725,7.8824614 C 17.7175,8.0284614 17.6365,8.1984614 17.4765,8.2594614 C 17.3225,8.3194614 17.2545,8.1004614 17.1745,7.9544614 M 17.6155,5.6454614 L 17.8305,5.8034614 M 17.8075,5.7944614 C 17.8645,5.8284614 17.9865,5.6504614 18.1205,5.6564614 C 18.3895,5.6704614 18.2735,6.0484614 18.3755,6.2964614 C 18.4565,6.4934614 18.5875,6.6304614 18.5875,6.8004614 C 18.5875,6.9664614 18.3845,6.9504614 18.2185,6.9744614 M 16.6305,7.1014614 L 16.5885,7.3344614 L 16.8215,7.2354614 M 16.4685,6.6784614 L 16.2715,6.4964614 L 16.5365,6.4754614 M 16.8975,6.1574614 L 17.0435,5.9084614 L 17.1825,6.1644614 M 17.4805,7.0634614 L 17.5355,7.3384614 L 17.2805,7.2294614 M 17.5445,6.4544614 L 17.7965,6.4914614 L 17.6225,6.6774614 M 16.4565,6.7174614 C 16.4565,6.3954614 16.7195,6.1344614 17.0405,6.1344614 C 17.3625,6.1344614 17.6235,6.3954614 17.6235,6.7174614 C 17.6235,7.0394614 17.3625,7.2994614 17.0405,7.2994614 C 16.7185,7.2994614 16.4565,7.0404614 16.4565,6.7174614 z "
   style="fill:none;stroke:#793f11;stroke-width:0.064;stroke-miterlimit:3.86400008"
   id="path39" />
<polygon
   points="17.937,5.486 17.9,5.178 18.265,4.993 18.265,5.426 17.937,5.486 "
   transform="translate(-2.05002e-2,-1.753861e-2)"
   style="fill:#ffd200;fill-rule:evenodd"
   id="polygon41" />
<polygon
   points="17.937,5.486 17.9,5.178 18.265,4.993 18.265,5.426 17.937,5.486 "
   transform="translate(-2.05002e-2,-1.753861e-2)"
   style="fill:none;stroke:#793f11;stroke-width:0.064;stroke-miterlimit:3.86400008"
   id="polygon43" />
<polygon
   points="15.612,7.179 15.447,7.519 15.018,7.42 15.296,7.081 15.612,7.179 "
   transform="translate(-2.05002e-2,-1.753861e-2)"
   style="fill:#ffd200"
   id="polygon45" />
<polygon
   points="15.612,7.179 15.447,7.519 15.018,7.42 15.296,7.081 15.612,7.179 "
   transform="translate(-2.05002e-2,-1.753861e-2)"
   style="fill:none;stroke:#793f11;stroke-width:0.064;stroke-miterlimit:3.86400008"
   id="polygon47" />
<polygon
   points="18.524,7.231 18.819,7.115 19.057,7.435 18.673,7.495 18.524,7.231 "
   transform="translate(-2.05002e-2,-1.753861e-2)"
   style="fill:#ffd200"
   id="polygon49" />
<polygon
   points="18.524,7.231 18.819,7.115 19.057,7.435 18.673,7.495 18.524,7.231 "
   transform="translate(-2.05002e-2,-1.753861e-2)"
   style="fill:none;stroke:#793f11;stroke-width:0.064;stroke-miterlimit:3.86400008"
   id="polygon51" />
<polygon
   points="17.111,8.255 17.308,8.487 17.114,8.896 16.887,8.466 17.111,8.255 "
   transform="translate(-2.05002e-2,-1.753861e-2)"
   style="fill:#ffd200"
   id="polygon53" />
<polygon
   points="17.111,8.255 17.308,8.487 17.114,8.896 16.887,8.466 17.111,8.255 "
   transform="translate(-2.05002e-2,-1.753861e-2)"
   style="fill:none;stroke:#793f11;stroke-width:0.064;stroke-miterlimit:3.86400008"
   id="polygon55" />
<path
   d="M 16.1255,5.5584614 C 16.1235,5.5434614 16.1195,5.5574614 16.1175,5.5444614"
   style="fill:none;stroke:#793f11;stroke-width:0.064;stroke-miterlimit:3.86400008"
   id="path57" />
<polygon
   points="17.061,5.979 16.922,6.239 16.59,6.524 16.353,6.539 16.542,6.7 16.676,7.134 16.643,7.303 16.858,7.222 17.286,7.213 17.523,7.315 17.456,7.074 17.576,6.726 17.757,6.532 17.531,6.494 17.181,6.201 17.061,5.979 "
   transform="translate(-2.05002e-2,-1.753861e-2)"
   style="fill:#ffd200;fill-rule:evenodd"
   id="polygon59" />
<polygon
   points="17.061,5.979 16.922,6.239 16.59,6.524 16.353,6.539 16.542,6.7 16.676,7.134 16.643,7.303 16.858,7.222 17.286,7.213 17.523,7.315 17.456,7.074 17.576,6.726 17.757,6.532 17.531,6.494 17.181,6.201 17.061,5.979 "
   transform="translate(-2.05002e-2,-1.753861e-2)"
   style="fill:none;stroke:#793f11;stroke-width:0.064;stroke-miterlimit:3.86400008"
   id="polygon61" />
<circle
   cx="17.055"
   cy="6.7389998"
   r="0.56599998"
   transform="translate(-2.05002e-2,-1.753861e-2)"
   style="fill:#ffd200"
   id="circle63" />
<circle
   cx="17.055"
   cy="6.7389998"
   r="0.56599998"
   transform="translate(-2.05002e-2,-1.753861e-2)"
   style="fill:none;stroke:#793f11;stroke-width:0.064;stroke-miterlimit:3.86400008"
   id="circle65" />
<circle
   cx="17.058001"
   cy="6.743"
   r="0.338"
   transform="translate(-2.05002e-2,-1.753861e-2)"
   style="fill:#ffd200"
   id="circle67" />
<circle
   cx="17.058001"
   cy="6.743"
   r="0.338"
   transform="translate(-2.05002e-2,-1.753861e-2)"
   style="fill:none;stroke:#793f11;stroke-width:0.064;stroke-miterlimit:3.86400008"
   id="circle69" />
<polyline
   clip-rule="evenodd"
   points="9.285,2.984 7.761,3.155 3.804,11.753 9.285,11.297   7.875,10.571 8.445,9.888 6.793,10.116 7.989,9.205 10.082,9.147 9.57,8.635 10.196,8.308 8.958,8.308 10.253,7.625 9.512,7.511   9.797,6.884 8.502,7.683 8.559,7.056 8.217,7.511 7.875,6.884 7.477,8.479 6.352,9.319 6.85,8.138 6.181,8.365 7.42,4.963   8.16,4.735 8.331,5.077 8.616,4.166 9.512,5.248 9.57,4.735 10.196,4.735 9.512,3.995 10.424,3.995 9.285,2.984 "
   id="polyline71"
   style="fill:white;fill-rule:evenodd"
   transform="translate(-2.05002e-2,-1.753861e-2)" />
</svg>