<?xml version="1.0" encoding="UTF-8" standalone="no"?>
<!-- Created with Inkscape (http://www.inkscape.org/) -->
<svg
   xmlns:svg="http://www.w3.org/2000/svg"
   xmlns="http://www.w3.org/2000/svg"
   version="1.0"
   width="290.35104"
   height="256.54385"
   viewBox="0 0 29.428 26"
   id="Layer_1"
   xml:space="preserve"><defs
   id="defs24" />
<polygon
   points="4.438,0.553 0.661,13.654 3.798,25.937 25.674,25.827 29.364,13.765 25.895,0.486 4.438,0.553 "
   transform="translate(-1.499998e-3,-1.26784e-3)"
   style="fill:#a09da2"
   id="polygon3" />
<polygon
   points="4.438,0.553 0.661,13.654 3.798,25.937 25.674,25.827 29.364,13.765 25.895,0.486 4.438,0.553 "
   transform="translate(-1.499998e-3,-1.26784e-3)"
   style="fill:none;stroke:#a7a3a8;stroke-width:0.123;stroke-miterlimit:3.86400008"
   id="polygon5" />
<polygon
   points="3.843,0.128 0.063,13.23 2.975,25.402 24.998,25.402 28.767,13.339 25.299,0.062 3.843,0.128 "
   transform="translate(-1.499998e-3,-1.26784e-3)"
   style="fill:#bdc5c1"
   id="polygon7" />
<polygon
   points="3.843,0.128 0.063,13.23 2.975,25.402 24.998,25.402 28.767,13.339 25.299,0.062 3.843,0.128 "
   transform="translate(-1.499998e-3,-1.26784e-3)"
   style="fill:none;stroke:#686469;stroke-width:0.123;stroke-miterlimit:3.86400008"
   id="polygon9" />
<circle
   cx="2.6489999"
   cy="13.23"
   r="1.679"
   transform="translate(-1.499998e-3,-1.26784e-3)"
   style="fill:#95979a"
   id="circle11" />
<circle
   cx="2.6489999"
   cy="13.23"
   r="1.679"
   transform="translate(-1.499998e-3,-1.26784e-3)"
   style="fill:none;stroke:#686469;stroke-width:0.123;stroke-miterlimit:3.86400008"
   id="circle13" />
<circle
   cx="26.233999"
   cy="13.099"
   r="1.679"
   transform="translate(-1.499998e-3,-1.26784e-3)"
   style="fill:#95979a"
   id="circle15" />
<circle
   cx="26.233999"
   cy="13.099"
   r="1.679"
   transform="translate(-1.499998e-3,-1.26784e-3)"
   style="fill:none;stroke:#686469;stroke-width:0.123;stroke-miterlimit:3.86400008"
   id="circle17" />
<rect
   width="18.391001"
   height="2.8199999"
   x="5.2964997"
   y="11.683733"
   style="fill:#ffd200"
   id="rect19" />
<rect
   width="18.391001"
   height="2.8199999"
   x="5.2964997"
   y="11.683733"
   style="fill:none;stroke:#ffd200;stroke-width:0.07;stroke-miterlimit:3.86400008"
   id="rect21" />
</svg>