<?xml version="1.0" encoding="UTF-8" standalone="no"?>
<!-- Created with Inkscape (http://www.inkscape.org/) -->
<svg
   xmlns:svg="http://www.w3.org/2000/svg"
   xmlns="http://www.w3.org/2000/svg"
   version="1.0"
   width="290.3313"
   height="256.55371"
   viewBox="0 0 29.427 25.999"
   id="Layer_1"
   xml:space="preserve"><defs
   id="defs24" />
<polygon
   points="4.438,0.552 0.66,13.653 3.796,25.938 25.673,25.826 29.362,13.764 25.894,0.486 4.438,0.552 "
   transform="translate(-1.499998e-3,-2.70907e-3)"
   style="fill:#a09da2"
   id="polygon3" />
<polygon
   points="4.438,0.552 0.66,13.653 3.796,25.938 25.673,25.826 29.362,13.764 25.894,0.486 4.438,0.552 "
   transform="translate(-1.499998e-3,-2.70907e-3)"
   style="fill:none;stroke:#a7a3a8;stroke-width:0.123;stroke-miterlimit:3.86400008"
   id="polygon5" />
<polygon
   points="3.841,0.128 0.063,13.229 2.974,25.402 24.997,25.402 28.767,13.339 25.298,0.062 3.841,0.128 "
   transform="translate(-1.499998e-3,-2.70907e-3)"
   style="fill:#bdc5c1"
   id="polygon7" />
<polygon
   points="3.841,0.128 0.063,13.229 2.974,25.402 24.997,25.402 28.767,13.339 25.298,0.062 3.841,0.128 "
   transform="translate(-1.499998e-3,-2.70907e-3)"
   style="fill:none;stroke:#686469;stroke-width:0.123;stroke-miterlimit:3.86400008"
   id="polygon9" />
<circle
   cx="2.648"
   cy="13.229"
   r="1.679"
   transform="translate(-1.499998e-3,-2.70907e-3)"
   style="fill:#95979a"
   id="circle11" />
<circle
   cx="2.648"
   cy="13.229"
   r="1.679"
   transform="translate(-1.499998e-3,-2.70907e-3)"
   style="fill:none;stroke:#686469;stroke-width:0.123;stroke-miterlimit:3.86400008"
   id="circle13" />
<circle
   cx="26.233"
   cy="13.098"
   r="1.6799999"
   transform="translate(-1.499998e-3,-2.70907e-3)"
   style="fill:#95979a"
   id="circle15" />
<circle
   cx="26.233"
   cy="13.098"
   r="1.6799999"
   transform="translate(-1.499998e-3,-2.70907e-3)"
   style="fill:none;stroke:#686469;stroke-width:0.123;stroke-miterlimit:3.86400008"
   id="circle17" />
<polygon
   points="4.661,11.229 14.691,5.133 24.113,11.496 24.113,17.947 14.691,11.496 4.661,17.947 4.661,11.229 "
   transform="translate(-1.499998e-3,-2.70907e-3)"
   style="fill:#ffd200"
   id="polygon19" />
<polygon
   points="4.661,11.229 14.691,5.133 24.113,11.496 24.113,17.947 14.691,11.496 4.661,17.947 4.661,11.229 "
   transform="translate(-1.499998e-3,-2.70907e-3)"
   style="fill:none;stroke:#fdb714;stroke-width:0.16500001;stroke-miterlimit:3.86400008"
   id="polygon21" />
</svg>