<?xml version="1.0" encoding="UTF-8" standalone="no"?>
<!-- Created with Inkscape (http://www.inkscape.org/) -->
<svg
   xmlns:svg="http://www.w3.org/2000/svg"
   xmlns="http://www.w3.org/2000/svg"
   version="1.0"
   width="450.3519"
   height="219.60234"
   viewBox="0 0 25.404 12.359"
   id="Layer_1"
   xml:space="preserve"><defs
   id="defs18" />
<path
   d="M 25.2965,0.020202028 L 5.0105,0.87220203 L 0.034499999,12.303202 L 23.9165,10.715202 C 23.9165,10.715202 22.1045,8.303202 24.4745,5.422202 C 24.4745,5.422202 22.7855,2.479202 25.2965,0.020202028 z "
   style="fill:#33725b;fill-rule:evenodd"
   id="path3" />
<path
   d="M 25.2965,0.020202028 L 5.0105,0.87220203 L 0.034499999,12.303202 L 23.9165,10.715202 C 23.9165,10.715202 22.1045,8.303202 24.4745,5.422202 C 24.4745,5.422202 22.7855,2.479202 25.2965,0.020202028 z "
   style="fill:none;stroke:#33725b;stroke-width:0.069;stroke-miterlimit:3.86400008"
   id="path5" />
<path
   d="M 23.9585,0.79720203 L 5.6715,1.601202 L 1.3715,11.527202 L 22.9505,10.086202 C 22.9505,10.086202 21.5525,7.777202 23.6495,5.225202 C 23.6495,5.224202 22.2085,2.467202 23.9585,0.79720203"
   style="fill:white;fill-rule:evenodd"
   id="path7" />
<path
   d="M 22.9705,1.490202 L 6.2095,2.170202 L 2.4755,10.789202 L 21.9805,9.478202 C 21.9805,9.478202 21.0265,7.453202 22.8475,5.237202 C 22.8475,5.237202 21.6095,3.054202 22.9705,1.490202 z "
   style="fill:#33725b;fill-rule:evenodd"
   id="path9" />
<path
   d="M 22.9705,1.490202 L 6.2095,2.170202 L 2.4755,10.789202 L 21.9805,9.478202 C 21.9805,9.478202 21.0265,7.453202 22.8475,5.237202 C 22.8475,5.237202 21.6095,3.054202 22.9705,1.490202 z "
   style="fill:none;stroke:#33725b;stroke-width:0.069;stroke-miterlimit:3.86400008"
   id="path11" />
<polygon
   points="13.222,9.699 11.215,6.169 12.781,2.451 16.132,2.298 14.656,5.96 16.779,9.448 13.222,9.699 "
   transform="translate(-1.94998e-2,-1.779797e-2)"
   style="fill:#ffd200"
   id="polygon13" />
<polygon
   points="13.222,9.699 11.215,6.169 12.781,2.451 16.132,2.298 14.656,5.96 16.779,9.448 13.222,9.699 "
   transform="translate(-1.94998e-2,-1.779797e-2)"
   style="fill:none;stroke:#f79320;stroke-width:0.07;stroke-miterlimit:3.86400008"
   id="polygon15" />
</svg>