<?xml version="1.0" encoding="UTF-8" standalone="no"?>
<!-- Created with Inkscape (http://www.inkscape.org/) -->
<svg
   xmlns:svg="http://www.w3.org/2000/svg"
   xmlns="http://www.w3.org/2000/svg"
   version="1.0"
   width="449.61703"
   height="219.23491"
   viewBox="0 0 25.404 12.358"
   id="Layer_1"
   xml:space="preserve"><defs
   id="defs30" />
<path
   d="M 25.2955,0.019958763 L 5.0105,0.87095876 L 0.034499999,12.301959 L 23.9165,10.713959 C 23.9165,10.713959 22.1045,8.3019588 24.4725,5.4209588 C 24.4725,5.4209588 22.7855,2.4789588 25.2955,0.019958763 z "
   style="fill:#33725b;fill-rule:evenodd"
   id="path3" />
<path
   d="M 25.2955,0.019958763 L 5.0105,0.87095876 L 0.034499999,12.301959 L 23.9165,10.713959 C 23.9165,10.713959 22.1045,8.3019588 24.4725,5.4209588 C 24.4725,5.4209588 22.7855,2.4789588 25.2955,0.019958763 z "
   style="fill:none;stroke:#33725b;stroke-width:0.069;stroke-miterlimit:3.86400008"
   id="path5" />
<path
   d="M 23.9595,0.79595876 L 5.6705,1.5999588 L 1.3715,11.525959 L 22.9505,10.084959 C 22.9505,10.084959 21.5515,7.7759588 23.6495,5.2249588 C 23.6505,5.2239588 22.2095,2.4659588 23.9595,0.79595876"
   style="fill:white;fill-rule:evenodd"
   id="path7" />
<path
   d="M 22.9705,1.4889588 L 6.2095,2.1699588 L 2.4755,10.788959 L 21.9805,9.4769588 C 21.9805,9.4769588 21.0255,7.4519588 22.8465,5.2369588 C 22.8465,5.2369588 21.6095,3.0529588 22.9705,1.4889588 z "
   style="fill:#33725b;fill-rule:evenodd"
   id="path9" />
<path
   d="M 22.9705,1.4889588 L 6.2095,2.1699588 L 2.4755,10.788959 L 21.9805,9.4769588 C 21.9805,9.4769588 21.0255,7.4519588 22.8465,5.2369588 C 22.8465,5.2369588 21.6095,3.0529588 22.9705,1.4889588 z "
   style="fill:none;stroke:#33725b;stroke-width:0.069;stroke-miterlimit:3.86400008"
   id="path11" />
<polygon
   points="10.684,9.459 8.774,6.202 10.187,2.848 11.467,2.758 9.966,6.071 11.925,9.385 10.684,9.459 "
   transform="translate(-1.94998e-2,-1.804124e-2)"
   style="fill:#ffd200"
   id="polygon13" />
<polygon
   points="10.684,9.459 8.774,6.202 10.187,2.848 11.467,2.758 9.966,6.071 11.925,9.385 10.684,9.459 "
   transform="translate(-1.94998e-2,-1.804124e-2)"
   style="fill:none;stroke:#f79320;stroke-width:0.07;stroke-miterlimit:3.86400008"
   id="polygon15" />
<polygon
   points="12.751,9.291 10.841,6.035 12.254,2.681 13.535,2.591 12.034,5.904 13.993,9.217 12.751,9.291 "
   transform="translate(-1.94998e-2,-1.804124e-2)"
   style="fill:#ffd200"
   id="polygon17" />
<polygon
   points="12.751,9.291 10.841,6.035 12.254,2.681 13.535,2.591 12.034,5.904 13.993,9.217 12.751,9.291 "
   transform="translate(-1.94998e-2,-1.804124e-2)"
   style="fill:none;stroke:#f79320;stroke-width:0.07;stroke-miterlimit:3.86400008"
   id="polygon19" />
<polygon
   points="14.971,9.207 13.063,5.951 14.476,2.596 15.756,2.506 14.254,5.819 16.215,9.133 14.971,9.207 "
   transform="translate(-1.94998e-2,-1.804124e-2)"
   style="fill:#ffd200"
   id="polygon21" />
<polygon
   points="14.971,9.207 13.063,5.951 14.476,2.596 15.756,2.506 14.254,5.819 16.215,9.133 14.971,9.207 "
   transform="translate(-1.94998e-2,-1.804124e-2)"
   style="fill:none;stroke:#f79320;stroke-width:0.07;stroke-miterlimit:3.86400008"
   id="polygon23" />
<polygon
   points="17.155,9.177 15.246,5.922 16.658,2.565 17.939,2.476 16.438,5.79 18.397,9.103 17.155,9.177 "
   transform="translate(-1.94998e-2,-1.804124e-2)"
   style="fill:#ffd200"
   id="polygon25" />
<polygon
   points="17.155,9.177 15.246,5.922 16.658,2.565 17.939,2.476 16.438,5.79 18.397,9.103 17.155,9.177 "
   transform="translate(-1.94998e-2,-1.804124e-2)"
   style="fill:none;stroke:#f79320;stroke-width:0.07;stroke-miterlimit:3.86400008"
   id="polygon27" />
</svg>