<?xml version="1.0" encoding="UTF-8" standalone="no"?>
<!-- Created with Inkscape (http://www.inkscape.org/) -->
<svg
   xmlns:svg="http://www.w3.org/2000/svg"
   xmlns="http://www.w3.org/2000/svg"
   version="1.0"
   width="290.3313"
   height="256.56244"
   viewBox="0 0 29.426 25.999"
   id="Layer_1"
   xml:space="preserve"><defs
   id="defs36" />
<polygon
   points="4.437,0.552 0.658,13.653 3.796,25.938 25.672,25.826 29.361,13.764 25.894,0.486 4.437,0.552 "
   transform="translate(-1.499998e-3,-2.709472e-3)"
   style="fill:#a09da2"
   id="polygon3" />
<polygon
   points="4.437,0.552 0.658,13.653 3.796,25.938 25.672,25.826 29.361,13.764 25.894,0.486 4.437,0.552 "
   transform="translate(-1.499998e-3,-2.709472e-3)"
   style="fill:none;stroke:#a7a3a8;stroke-width:0.123;stroke-miterlimit:3.86400008"
   id="polygon5" />
<polygon
   points="3.84,0.127 0.063,13.229 2.973,25.402 24.996,25.402 28.766,13.339 25.297,0.062 3.84,0.127 "
   transform="translate(-1.499998e-3,-2.709472e-3)"
   style="fill:#bdc5c1"
   id="polygon7" />
<polygon
   points="3.84,0.127 0.063,13.229 2.973,25.402 24.996,25.402 28.766,13.339 25.297,0.062 3.84,0.127 "
   transform="translate(-1.499998e-3,-2.709472e-3)"
   style="fill:none;stroke:#686469;stroke-width:0.123;stroke-miterlimit:3.86400008"
   id="polygon9" />
<circle
   cx="2.6470001"
   cy="13.229"
   r="1.679"
   transform="translate(-1.499998e-3,-2.709472e-3)"
   style="fill:#95979a"
   id="circle11" />
<circle
   cx="2.6470001"
   cy="13.229"
   r="1.679"
   transform="translate(-1.499998e-3,-2.709472e-3)"
   style="fill:none;stroke:#686469;stroke-width:0.123;stroke-miterlimit:3.86400008"
   id="circle13" />
<circle
   cx="26.232"
   cy="13.098"
   r="1.679"
   transform="translate(-1.499998e-3,-2.709472e-3)"
   style="fill:#95979a"
   id="circle15" />
<circle
   cx="26.232"
   cy="13.098"
   r="1.679"
   transform="translate(-1.499998e-3,-2.709472e-3)"
   style="fill:none;stroke:#686469;stroke-width:0.123;stroke-miterlimit:3.86400008"
   id="circle17" />
<polygon
   points="4.973,21.999 14.577,13.246 23.988,21.999 23.926,24.443 14.577,15.559 5.051,24.443 4.973,21.999 "
   transform="translate(-1.499998e-3,-2.709472e-3)"
   style="fill:#ffd200"
   id="polygon19" />
<polygon
   points="4.973,21.999 14.577,13.246 23.988,21.999 23.926,24.443 14.577,15.559 5.051,24.443 4.973,21.999 "
   transform="translate(-1.499998e-3,-2.709472e-3)"
   style="fill:none;stroke:#fdb714;stroke-width:0.17;stroke-miterlimit:3.86400008"
   id="polygon21" />
<polygon
   points="4.973,18.003 14.577,9.249 23.988,18.003 23.926,20.446 14.577,11.563 5.051,20.446 4.973,18.003 "
   transform="translate(-1.499998e-3,-2.709472e-3)"
   style="fill:#ffd200"
   id="polygon23" />
<polygon
   points="4.973,18.003 14.577,9.249 23.988,18.003 23.926,20.446 14.577,11.563 5.051,20.446 4.973,18.003 "
   transform="translate(-1.499998e-3,-2.709472e-3)"
   style="fill:none;stroke:#fdb714;stroke-width:0.17;stroke-miterlimit:3.86400008"
   id="polygon25" />
<polygon
   points="4.968,13.807 14.572,5.053 23.982,13.807 23.92,16.25 14.572,7.367 5.045,16.25 4.968,13.807 "
   transform="translate(-1.499998e-3,-2.709472e-3)"
   style="fill:#ffd200"
   id="polygon27" />
<polygon
   points="4.968,13.807 14.572,5.053 23.982,13.807 23.92,16.25 14.572,7.367 5.045,16.25 4.968,13.807 "
   transform="translate(-1.499998e-3,-2.709472e-3)"
   style="fill:none;stroke:#fdb714;stroke-width:0.17;stroke-miterlimit:3.86400008"
   id="polygon29" />
<polygon
   points="4.968,9.81 14.572,1.057 23.982,9.81 23.92,12.253 14.572,3.37 5.045,12.253 4.968,9.81 "
   transform="translate(-1.499998e-3,-2.709472e-3)"
   style="fill:#ffd200"
   id="polygon31" />
<polygon
   points="4.968,9.81 14.572,1.057 23.982,9.81 23.92,12.253 14.572,3.37 5.045,12.253 4.968,9.81 "
   transform="translate(-1.499998e-3,-2.709472e-3)"
   style="fill:none;stroke:#fdb714;stroke-width:0.17;stroke-miterlimit:3.86400008"
   id="polygon33" />
</svg>