<?xml version="1.0" encoding="UTF-8" standalone="no"?>
<!-- Created with Inkscape (http://www.inkscape.org/) -->
<svg
   xmlns:svg="http://www.w3.org/2000/svg"
   xmlns="http://www.w3.org/2000/svg"
   version="1.0"
   width="290.38065"
   height="256.59616"
   viewBox="0 0 29.426 26"
   id="Layer_1"
   xml:space="preserve"><defs
   id="defs32" />
<polygon
   points="4.437,0.553 0.658,13.654 3.796,25.937 25.672,25.827 29.361,13.765 25.894,0.486 4.437,0.553 "
   transform="translate(-1.499998e-3,-0.171936)"
   style="fill:#a09da2"
   id="polygon3" />
<polygon
   points="4.437,0.553 0.658,13.654 3.796,25.937 25.672,25.827 29.361,13.765 25.894,0.486 4.437,0.553 "
   transform="translate(-1.499998e-3,-0.171936)"
   style="fill:none;stroke:#a7a3a8;stroke-width:0.123;stroke-miterlimit:3.86400008"
   id="polygon5" />
<polygon
   points="3.84,0.128 0.063,13.23 2.973,25.402 24.996,25.402 28.766,13.339 25.297,0.062 3.84,0.128 "
   transform="translate(-1.499998e-3,-0.171936)"
   style="fill:#bdc5c1"
   id="polygon7" />
<polygon
   points="3.84,0.128 0.063,13.23 2.973,25.402 24.996,25.402 28.766,13.339 25.297,0.062 3.84,0.128 "
   transform="translate(-1.499998e-3,-0.171936)"
   style="fill:none;stroke:#686469;stroke-width:0.123;stroke-miterlimit:3.86400008"
   id="polygon9" />
<circle
   cx="2.6470001"
   cy="13.23"
   r="1.679"
   transform="translate(-1.499998e-3,-0.171936)"
   style="fill:#95979a"
   id="circle11" />
<circle
   cx="2.6470001"
   cy="13.23"
   r="1.679"
   transform="translate(-1.499998e-3,-0.171936)"
   style="fill:none;stroke:#686469;stroke-width:0.123;stroke-miterlimit:3.86400008"
   id="circle13" />
<circle
   cx="26.232"
   cy="13.099"
   r="1.679"
   transform="translate(-1.499998e-3,-0.171936)"
   style="fill:#95979a"
   id="circle15" />
<circle
   cx="26.232"
   cy="13.099"
   r="1.679"
   transform="translate(-1.499998e-3,-0.171936)"
   style="fill:none;stroke:#686469;stroke-width:0.123;stroke-miterlimit:3.86400008"
   id="circle17" />
<rect
   width="18.898001"
   height="1.306"
   x="5.1894999"
   y="11.071064"
   style="fill:#ffd200"
   id="rect19" />
<rect
   width="18.898001"
   height="1.306"
   x="5.1894999"
   y="11.071064"
   style="fill:none;stroke:#ffd200;stroke-width:0.07;stroke-miterlimit:3.86400008"
   id="rect21" />
<rect
   width="18.898001"
   height="3.1719999"
   x="5.1894999"
   y="13.892064"
   style="fill:#ffd200"
   id="rect23" />
<rect
   width="18.898001"
   height="3.1719999"
   x="5.1894999"
   y="13.892064"
   style="fill:none;stroke:#ffd200;stroke-width:0.07;stroke-miterlimit:3.86400008"
   id="rect25" />
<rect
   width="18.898001"
   height="1.306"
   x="5.1894999"
   y="8.4540644"
   style="fill:#ffd200"
   id="rect27" />
<rect
   width="18.898001"
   height="1.306"
   x="5.1894999"
   y="8.4540644"
   style="fill:none;stroke:#ffd200;stroke-width:0.07;stroke-miterlimit:3.86400008"
   id="rect29" />
</svg>