<?xml version="1.0" encoding="UTF-8" standalone="no"?>
<!-- Created with Inkscape (http://www.inkscape.org/) -->
<svg
   xmlns:svg="http://www.w3.org/2000/svg"
   xmlns="http://www.w3.org/2000/svg"
   xmlns:xlink="http://www.w3.org/1999/xlink"
   version="1.0"
   width="451.59302"
   height="220.15616"
   viewBox="0 0 28.456 13.845"
   id="Layer_1"
   xml:space="preserve"><defs
   id="defs136" />
<path
   d="M 28.3485,0.020705917 L 5.6125,0.97470592 L 0.034499999,13.788706 L 26.8035,12.009706 C 26.8035,12.009706 24.7725,9.3067059 27.4265,6.0777059 C 27.4265,6.0767059 25.5335,2.7777059 28.3485,0.020705917 z "
   style="fill:#33725b;fill-rule:evenodd"
   id="path3" />
<path
   d="M 28.3485,0.020705917 L 5.6125,0.97470592 L 0.034499999,13.788706 L 26.8035,12.009706 C 26.8035,12.009706 24.7725,9.3067059 27.4265,6.0777059 C 27.4265,6.0767059 25.5335,2.7777059 28.3485,0.020705917 z "
   style="fill:none;stroke:#33725b;stroke-width:0.069;stroke-miterlimit:3.86400008"
   id="path5" />
<path
   d="M 26.8505,0.89270592 L 6.3535,1.7937059 L 1.5335,12.917706 L 25.7195,11.303706 C 25.7195,11.303706 24.1535,8.7147059 26.5025,5.8557059 C 26.5025,5.8547059 24.8875,2.7637059 26.8505,0.89270592"
   style="fill:white;fill-rule:evenodd"
   id="path7" />
<path
   d="M 25.7415,1.6687059 L 6.9565,2.4317059 L 2.7715,12.091706 L 24.6335,10.621706 C 24.6335,10.621706 23.5625,8.3507059 25.6045,5.8687059 C 25.6045,5.8687059 24.2175,3.4217059 25.7415,1.6687059 z "
   style="fill:#33725b;fill-rule:evenodd"
   id="path9" />
<path
   d="M 25.7415,1.6687059 L 6.9565,2.4317059 L 2.7715,12.091706 L 24.6335,10.621706 C 24.6335,10.621706 23.5625,8.3507059 25.6045,5.8687059 C 25.6045,5.8687059 24.2175,3.4217059 25.7415,1.6687059 z "
   style="fill:none;stroke:#33725b;stroke-width:0.069;stroke-miterlimit:3.86400008"
   id="path11" />
<polygon
   points="20.108,5.251 19.787,5.192 19.7,4.803 20.138,4.935 20.108,5.251 "
   transform="translate(-1.95002e-2,-1.729408e-2)"
   style="fill:#ffd200"
   id="polygon13" />
<polygon
   points="20.108,5.251 19.787,5.192 19.7,4.803 20.138,4.935 20.108,5.251 "
   transform="translate(-1.95002e-2,-1.729408e-2)"
   style="fill:none;stroke:#793f11;stroke-width:0.064;stroke-miterlimit:3.86400008"
   id="polygon15" />
<path
   d="M 19.5695,6.8817059 C 19.1315,6.8817059 19.1705,6.4027059 19.2705,5.9957059 C 19.3635,5.6237059 19.5545,4.9967059 20.1055,5.2737059 C 20.0155,4.7467059 20.5115,4.6177059 20.9315,4.6177059 C 21.3155,4.6177059 21.9925,4.6327059 21.8575,5.2337059 C 22.3375,5.0017059 22.6455,5.4507059 22.7615,5.8537059 C 22.8665,6.2227059 23.0385,6.8777059 22.4235,6.9137059 C 22.8065,7.2867059 22.4455,7.6477059 22.1065,7.8937059 C 21.7965,8.1207059 21.2965,8.4867059 21.0525,7.9187059 C 20.7985,8.3907059 20.2825,8.1867059 19.9525,7.9287059 C 19.6505,7.6927059 19.1595,7.3197059 19.5955,6.8817059 C 19.5965,6.8817059 19.6465,6.8817059 19.5695,6.8817059 z "
   style="fill:#ffd200;fill-rule:evenodd"
   id="path17" />
<path
   d="M 19.5695,6.8817059 C 19.1315,6.8817059 19.1705,6.4027059 19.2705,5.9957059 C 19.3635,5.6237059 19.5545,4.9967059 20.1055,5.2737059 C 20.0155,4.7467059 20.5115,4.6177059 20.9315,4.6177059 C 21.3155,4.6177059 21.9925,4.6327059 21.8575,5.2337059 C 22.3375,5.0017059 22.6455,5.4507059 22.7615,5.8537059 C 22.8665,6.2227059 23.0385,6.8777059 22.4235,6.9137059 C 22.8065,7.2867059 22.4455,7.6477059 22.1065,7.8937059 C 21.7965,8.1207059 21.2965,8.4867059 21.0525,7.9187059 C 20.7985,8.3907059 20.2825,8.1867059 19.9525,7.9287059 C 19.6505,7.6927059 19.1595,7.3197059 19.5955,6.8817059 C 19.5965,6.8817059 19.6465,6.8817059 19.5695,6.8817059 z "
   style="fill:none;stroke:#793f11;stroke-width:0.064;stroke-miterlimit:3.86400008"
   id="path19" />
<g
   transform="translate(-1.95002e-2,-1.729408e-2)"
   id="g21">
	<defs
   id="defs23">
		<path
   d="M 20.455,6.47 C 20.455,6.148 20.717,5.887 21.039,5.887 C 21.36,5.887 21.622,6.148 21.622,6.47 C 21.622,6.792 21.36,7.053 21.039,7.053 C 20.716,7.054 20.455,6.792 20.455,6.47"
   id="XMLID_1_" />
	</defs>
	<clipPath
   id="XMLID_5_">
		<use
   id="use27"
   x="0"
   y="0"
   width="28.455999"
   height="13.845"
   xlink:href="#XMLID_1_" />
	</clipPath>
	<path
   d="M 21.619,6.475 L 21.619,6.475 C 21.619,6.798 21.358,7.058 21.036,7.058 C 20.714,7.058 20.453,6.798 20.453,6.475 C 20.453,6.154 20.714,5.892 21.036,5.892 C 21.358,5.892 21.619,6.154 21.619,6.475 M 21.811,6.499 C 21.811,6.085 21.475,5.75 21.061,5.75 C 20.647,5.75 20.311,6.085 20.311,6.499 C 20.311,6.913 20.647,7.248 21.061,7.248 C 21.475,7.248 21.811,6.913 21.811,6.499"
   style="fill:#ffd200"
   clip-path="url(#XMLID_5_)"
   id="path29" />
	<path
   d="M 21.452,6.475 L 21.452,6.475 C 21.452,6.705 21.266,6.892 21.036,6.892 C 20.806,6.892 20.62,6.705 20.62,6.475 C 20.62,6.245 20.806,6.059 21.036,6.059 C 21.266,6.059 21.452,6.245 21.452,6.475 M 21.614,6.469 C 21.614,6.147 21.352,5.886 21.03,5.886 C 20.709,5.886 20.448,6.147 20.448,6.469 C 20.448,6.791 20.709,7.052 21.03,7.052 C 21.352,7.052 21.614,6.791 21.614,6.469"
   style="fill:#ffdb5d"
   clip-path="url(#XMLID_5_)"
   id="path31" />
	<path
   d="M 21.286,6.475 L 21.286,6.475 C 21.286,6.613 21.174,6.725 21.036,6.725 C 20.897,6.725 20.786,6.613 20.786,6.475 C 20.786,6.337 20.897,6.226 21.036,6.226 C 21.173,6.226 21.286,6.337 21.286,6.475 M 21.446,6.469 C 21.446,6.239 21.26,6.053 21.03,6.053 C 20.801,6.053 20.614,6.239 20.614,6.469 C 20.614,6.699 20.8,6.886 21.03,6.886 C 21.26,6.886 21.446,6.699 21.446,6.469"
   style="fill:#ffe693"
   clip-path="url(#XMLID_5_)"
   id="path33" />
	<path
   d="M 21.119,6.475 L 21.119,6.475 C 21.119,6.52 21.082,6.559 21.036,6.559 C 20.989,6.559 20.953,6.52 20.953,6.475 C 20.953,6.429 20.989,6.392 21.036,6.392 C 21.082,6.392 21.119,6.429 21.119,6.475 M 21.28,6.469 C 21.28,6.331 21.169,6.219 21.03,6.219 C 20.893,6.219 20.78,6.331 20.78,6.469 C 20.78,6.606 20.893,6.719 21.03,6.719 C 21.168,6.72 21.28,6.606 21.28,6.469"
   style="fill:#fff1c7"
   clip-path="url(#XMLID_5_)"
   id="path35" />
	<path
   d="M 21.114,6.469 C 21.114,6.423 21.077,6.386 21.03,6.386 C 20.985,6.386 20.948,6.423 20.948,6.469 C 20.948,6.514 20.985,6.552 21.03,6.552 C 21.077,6.552 21.114,6.515 21.114,6.469"
   style="fill:white"
   clip-path="url(#XMLID_5_)"
   id="path37" />
</g>
<path
   d="M 21.1685,7.7067059 L 20.9245,7.7027059 C 20.8595,7.7107059 20.8605,7.8947059 20.7605,7.9627059 C 20.5395,8.1147059 20.3995,7.7497059 20.1665,7.6167059 C 19.9805,7.5107059 19.7935,7.4827059 19.6885,7.3487059 C 19.5855,7.2177059 19.7575,7.1187059 19.8755,6.9987059 L 19.8535,6.7587059 C 19.8245,6.6977059 19.6495,6.7607059 19.5535,6.6887059 C 19.3385,6.5277059 19.6375,6.2767059 19.6875,6.0127059 C 19.7265,5.8037059 19.6925,5.6177059 19.7855,5.4757059 C 19.8765,5.3367059 20.0335,5.4747059 20.1845,5.5467059 L 20.3215,5.4097059 C 20.3725,5.3667059 20.2665,5.2137059 20.3105,5.1017059 C 20.4105,4.8527059 20.7305,5.0767059 20.9985,5.0567059 C 21.2095,5.0407059 21.3815,4.9587059 21.5415,5.0117059 C 21.6995,5.0627059 21.6235,5.2517059 21.5925,5.4157059 M 22.2215,6.6937059 L 22.1545,6.9177059 C 22.1425,6.9817059 22.3205,7.0347059 22.3565,7.1487059 C 22.4355,7.4057059 22.0455,7.4327059 21.8515,7.6187059 C 21.6955,7.7647059 21.6145,7.9337059 21.4555,7.9957059 C 21.3015,8.0547059 21.2325,7.8357059 21.1525,7.6887059 M 21.5945,5.3807059 L 21.8095,5.5387059 M 21.7855,5.5297059 C 21.8425,5.5637059 21.9655,5.3857059 22.0985,5.3917059 C 22.3665,5.4057059 22.2515,5.7827059 22.3535,6.0317059 C 22.4345,6.2287059 22.5645,6.3657059 22.5645,6.5357059 C 22.5645,6.6997059 22.3615,6.6847059 22.1955,6.7077059 M 20.6085,6.8367059 L 20.5665,7.0687059 L 20.8005,6.9707059 M 20.4465,6.4147059 L 20.2505,6.2317059 L 20.5145,6.2117059 M 20.8755,5.8927059 L 21.0215,5.6447059 L 21.1625,5.8997059 M 21.4595,6.7977059 L 21.5145,7.0747059 L 21.2585,6.9637059 M 21.5225,6.1897059 L 21.7745,6.2267059 L 21.6015,6.4117059 M 20.4355,6.4527059 C 20.4355,6.1307059 20.6975,5.8697059 21.0195,5.8697059 C 21.3405,5.8697059 21.6025,6.1307059 21.6025,6.4527059 C 21.6025,6.7747059 21.3405,7.0357059 21.0195,7.0357059 C 20.6965,7.0367059 20.4355,6.7747059 20.4355,6.4527059 z "
   style="fill:none;stroke:#793f11;stroke-width:0.064;stroke-miterlimit:3.86400008"
   id="path39" />
<polygon
   points="21.915,5.221 21.877,4.913 22.243,4.728 22.243,5.161 21.915,5.221 "
   transform="translate(-1.95002e-2,-1.729408e-2)"
   style="fill:#ffd200;fill-rule:evenodd"
   id="polygon41" />
<polygon
   points="21.915,5.221 21.877,4.913 22.243,4.728 22.243,5.161 21.915,5.221 "
   transform="translate(-1.95002e-2,-1.729408e-2)"
   style="fill:none;stroke:#793f11;stroke-width:0.064;stroke-miterlimit:3.86400008"
   id="polygon43" />
<polygon
   points="19.589,6.914 19.424,7.253 18.996,7.155 19.274,6.815 19.589,6.914 "
   transform="translate(-1.95002e-2,-1.729408e-2)"
   style="fill:#ffd200"
   id="polygon45" />
<polygon
   points="19.589,6.914 19.424,7.253 18.996,7.155 19.274,6.815 19.589,6.914 "
   transform="translate(-1.95002e-2,-1.729408e-2)"
   style="fill:none;stroke:#793f11;stroke-width:0.064;stroke-miterlimit:3.86400008"
   id="polygon47" />
<polygon
   points="22.501,6.968 22.796,6.851 23.034,7.17 22.651,7.229 22.501,6.968 "
   transform="translate(-1.95002e-2,-1.729408e-2)"
   style="fill:#ffd200"
   id="polygon49" />
<polygon
   points="22.501,6.968 22.796,6.851 23.034,7.17 22.651,7.229 22.501,6.968 "
   transform="translate(-1.95002e-2,-1.729408e-2)"
   style="fill:none;stroke:#793f11;stroke-width:0.064;stroke-miterlimit:3.86400008"
   id="polygon51" />
<polygon
   points="21.088,7.99 21.286,8.224 21.091,8.632 20.864,8.201 21.088,7.99 "
   transform="translate(-1.95002e-2,-1.729408e-2)"
   style="fill:#ffd200"
   id="polygon53" />
<polygon
   points="21.088,7.99 21.286,8.224 21.091,8.632 20.864,8.201 21.088,7.99 "
   transform="translate(-1.95002e-2,-1.729408e-2)"
   style="fill:none;stroke:#793f11;stroke-width:0.064;stroke-miterlimit:3.86400008"
   id="polygon55" />
<path
   d="M 20.1055,5.2937059 C 20.1035,5.2787059 20.0995,5.2937059 20.0965,5.2797059"
   style="fill:none;stroke:#793f11;stroke-width:0.064;stroke-miterlimit:3.86400008"
   id="path57" />
<polygon
   points="21.039,5.714 20.899,5.974 20.569,6.259 20.331,6.274 20.52,6.435 20.653,6.869 20.621,7.038 20.835,6.956 21.263,6.948 21.5,7.05 21.434,6.81 21.553,6.46 21.735,6.267 21.508,6.229 21.159,5.936 21.039,5.714 "
   transform="translate(-1.95002e-2,-1.729408e-2)"
   style="fill:#ffd200;fill-rule:evenodd"
   id="polygon59" />
<polygon
   points="21.039,5.714 20.899,5.974 20.569,6.259 20.331,6.274 20.52,6.435 20.653,6.869 20.621,7.038 20.835,6.956 21.263,6.948 21.5,7.05 21.434,6.81 21.553,6.46 21.735,6.267 21.508,6.229 21.159,5.936 21.039,5.714 "
   transform="translate(-1.95002e-2,-1.729408e-2)"
   style="fill:none;stroke:#793f11;stroke-width:0.064;stroke-miterlimit:3.86400008"
   id="polygon61" />
<circle
   cx="21.032"
   cy="6.474"
   r="0.56599998"
   transform="translate(-1.95002e-2,-1.729408e-2)"
   style="fill:#ffd200"
   id="circle63" />
<circle
   cx="21.032"
   cy="6.474"
   r="0.56599998"
   transform="translate(-1.95002e-2,-1.729408e-2)"
   style="fill:none;stroke:#793f11;stroke-width:0.064;stroke-miterlimit:3.86400008"
   id="circle65" />
<circle
   cx="21.035999"
   cy="6.4780002"
   r="0.338"
   transform="translate(-1.95002e-2,-1.729408e-2)"
   style="fill:#ffd200"
   id="circle67" />
<circle
   cx="21.035999"
   cy="6.4780002"
   r="0.338"
   transform="translate(-1.95002e-2,-1.729408e-2)"
   style="fill:none;stroke:#793f11;stroke-width:0.064;stroke-miterlimit:3.86400008"
   id="circle69" />
<polygon
   points="12.389,5.554 12.067,5.494 11.98,5.105 12.42,5.238 12.389,5.554 "
   transform="translate(-1.95002e-2,-1.729408e-2)"
   style="fill:#ffd200"
   id="polygon71" />
<polygon
   points="12.389,5.554 12.067,5.494 11.98,5.105 12.42,5.238 12.389,5.554 "
   transform="translate(-1.95002e-2,-1.729408e-2)"
   style="fill:none;stroke:#793f11;stroke-width:0.064;stroke-miterlimit:3.86400008"
   id="polygon73" />
<path
   d="M 11.8515,7.1837059 C 11.4125,7.1837059 11.4515,6.7047059 11.5525,6.2977059 C 11.6455,5.9257059 11.8365,5.2987059 12.3875,5.5747059 C 12.2975,5.0487059 12.7945,4.9187059 13.2135,4.9187059 C 13.5975,4.9187059 14.2745,4.9347059 14.1395,5.5367059 C 14.6195,5.3037059 14.9265,5.7527059 15.0435,6.1557059 C 15.1485,6.5247059 15.3205,7.1797059 14.7055,7.2137059 C 15.0885,7.5867059 14.7275,7.9497059 14.3875,8.1957059 C 14.0775,8.4207059 13.5775,8.7877059 13.3335,8.2207059 C 13.0805,8.6927059 12.5645,8.4897059 12.2345,8.2307059 C 11.9315,7.9957059 11.4415,7.6227059 11.8755,7.1837059 C 11.8765,7.1837059 11.9255,7.1837059 11.8515,7.1837059 z "
   style="fill:#ffd200;fill-rule:evenodd"
   id="path75" />
<path
   d="M 11.8515,7.1837059 C 11.4125,7.1837059 11.4515,6.7047059 11.5525,6.2977059 C 11.6455,5.9257059 11.8365,5.2987059 12.3875,5.5747059 C 12.2975,5.0487059 12.7945,4.9187059 13.2135,4.9187059 C 13.5975,4.9187059 14.2745,4.9347059 14.1395,5.5367059 C 14.6195,5.3037059 14.9265,5.7527059 15.0435,6.1557059 C 15.1485,6.5247059 15.3205,7.1797059 14.7055,7.2137059 C 15.0885,7.5867059 14.7275,7.9497059 14.3875,8.1957059 C 14.0775,8.4207059 13.5775,8.7877059 13.3335,8.2207059 C 13.0805,8.6927059 12.5645,8.4897059 12.2345,8.2307059 C 11.9315,7.9957059 11.4415,7.6227059 11.8755,7.1837059 C 11.8765,7.1837059 11.9255,7.1837059 11.8515,7.1837059 z "
   style="fill:none;stroke:#793f11;stroke-width:0.064;stroke-miterlimit:3.86400008"
   id="path77" />
<g
   transform="translate(-1.95002e-2,-1.729408e-2)"
   id="g79">
	<defs
   id="defs81">
		<path
   d="M 12.735,6.772 C 12.735,6.45 12.997,6.189 13.319,6.189 C 13.641,6.189 13.902,6.45 13.902,6.772 C 13.902,7.094 13.641,7.354 13.319,7.354 C 12.998,7.354 12.735,7.095 12.735,6.772"
   id="XMLID_3_" />
	</defs>
	<clipPath
   id="XMLID_6_">
		<use
   id="use85"
   x="0"
   y="0"
   width="28.455999"
   height="13.845"
   xlink:href="#XMLID_3_" />
	</clipPath>
	<path
   d="M 13.898,6.778 L 13.898,6.778 C 13.898,7.1 13.637,7.361 13.315,7.361 C 12.993,7.361 12.732,7.1 12.732,6.778 C 12.732,6.456 12.993,6.195 13.315,6.195 C 13.637,6.195 13.898,6.456 13.898,6.778 M 14.069,6.8 C 14.069,6.385 13.735,6.05 13.32,6.05 C 12.905,6.05 12.571,6.385 12.571,6.8 C 12.571,7.213 12.906,7.548 13.32,7.548 C 13.734,7.548 14.069,7.213 14.069,6.8"
   style="fill:#ffd200"
   clip-path="url(#XMLID_6_)"
   id="path87" />
	<path
   d="M 13.732,6.778 L 13.732,6.778 C 13.731,7.008 13.545,7.194 13.315,7.194 C 13.085,7.194 12.899,7.008 12.899,6.778 C 12.899,6.548 13.085,6.362 13.315,6.362 C 13.545,6.362 13.731,6.548 13.732,6.778 M 13.903,6.769 C 13.903,6.448 13.642,6.186 13.32,6.186 C 12.998,6.186 12.737,6.447 12.737,6.769 C 12.737,7.091 12.998,7.353 13.32,7.353 C 13.643,7.353 13.903,7.091 13.903,6.769"
   style="fill:#ffdb5d"
   clip-path="url(#XMLID_6_)"
   id="path89" />
	<path
   d="M 13.565,6.778 L 13.565,6.778 C 13.565,6.916 13.453,7.028 13.315,7.028 C 13.177,7.028 13.065,6.916 13.065,6.778 C 13.065,6.639 13.177,6.528 13.315,6.528 C 13.453,6.528 13.565,6.64 13.565,6.778 M 13.707,6.769 C 13.707,6.54 13.521,6.353 13.291,6.353 C 13.061,6.353 12.875,6.539 12.875,6.769 C 12.875,6.999 13.061,7.185 13.291,7.185 C 13.521,7.185 13.707,6.999 13.707,6.769"
   style="fill:#ffe693"
   clip-path="url(#XMLID_6_)"
   id="path91" />
	<path
   d="M 13.399,6.778 L 13.399,6.778 C 13.398,6.824 13.361,6.861 13.315,6.861 C 13.269,6.861 13.232,6.824 13.232,6.778 C 13.232,6.731 13.269,6.695 13.315,6.695 C 13.361,6.695 13.398,6.731 13.399,6.778 M 13.57,6.769 C 13.57,6.632 13.458,6.519 13.32,6.519 C 13.182,6.519 13.07,6.632 13.07,6.769 C 13.07,6.908 13.182,7.019 13.32,7.019 C 13.458,7.019 13.57,6.907 13.57,6.769"
   style="fill:#fff1c7"
   clip-path="url(#XMLID_6_)"
   id="path93" />
	<path
   d="M 13.403,6.8 C 13.403,6.753 13.366,6.716 13.32,6.716 C 13.274,6.716 13.237,6.753 13.237,6.8 C 13.237,6.845 13.274,6.882 13.32,6.882 C 13.366,6.882 13.403,6.845 13.403,6.8"
   style="fill:white"
   clip-path="url(#XMLID_6_)"
   id="path95" />
</g>
<path
   d="M 13.4495,8.0077059 L 13.2045,8.0027059 C 13.1395,8.0117059 13.1405,8.1977059 13.0415,8.2647059 C 12.8185,8.4147059 12.6795,8.0517059 12.4455,7.9167059 C 12.2605,7.8127059 12.0745,7.7837059 11.9695,7.6497059 C 11.8675,7.5197059 12.0385,7.4187059 12.1555,7.2997059 L 12.1335,7.0597059 C 12.1045,6.9997059 11.9295,7.0617059 11.8335,6.9907059 C 11.6175,6.8287059 11.9165,6.5787059 11.9665,6.3147059 C 12.0065,6.1047059 11.9725,5.9187059 12.0645,5.7767059 C 12.1545,5.6377059 12.3135,5.7757059 12.4645,5.8477059 L 12.6015,5.7107059 C 12.6515,5.6677059 12.5465,5.5147059 12.5905,5.4027059 C 12.6905,5.1537059 13.0105,5.3777059 13.2785,5.3577059 C 13.4905,5.3407059 13.6615,5.2607059 13.8225,5.3127059 C 13.9805,5.3637059 13.9035,5.5527059 13.8735,5.7167059 M 14.5045,6.9957059 L 14.4355,7.2197059 C 14.4225,7.2847059 14.6015,7.3377059 14.6375,7.4527059 C 14.7155,7.7087059 14.3265,7.7347059 14.1315,7.9197059 C 13.9765,8.0657059 13.8955,8.2357059 13.7355,8.2967059 C 13.5815,8.3567059 13.5135,8.1377059 13.4325,7.9917059 M 13.8755,5.6827059 L 14.0905,5.8407059 M 14.0665,5.8317059 C 14.1235,5.8657059 14.2465,5.6877059 14.3795,5.6937059 C 14.6475,5.7077059 14.5325,6.0847059 14.6355,6.3337059 C 14.7155,6.5307059 14.8465,6.6667059 14.8465,6.8367059 C 14.8465,7.0027059 14.6435,6.9867059 14.4775,7.0107059 M 12.8885,7.1387059 L 12.8475,7.3727059 L 13.0805,7.2737059 M 12.7285,6.7177059 L 12.5305,6.5347059 L 12.7945,6.5147059 M 13.1555,6.1947059 L 13.3025,5.9457059 L 13.4425,6.2017059 M 13.7395,7.1007059 L 13.7945,7.3757059 L 13.5405,7.2667059 M 13.8035,6.4917059 L 14.0545,6.5287059 L 13.8825,6.7147059 M 12.7155,6.7547059 C 12.7155,6.4327059 12.9775,6.1717059 13.2995,6.1717059 C 13.6215,6.1717059 13.8825,6.4327059 13.8825,6.7547059 C 13.8825,7.0767059 13.6215,7.3367059 13.2995,7.3367059 C 12.9785,7.3367059 12.7155,7.0777059 12.7155,6.7547059 z "
   style="fill:none;stroke:#793f11;stroke-width:0.064;stroke-miterlimit:3.86400008"
   id="path97" />
<polygon
   points="14.196,5.523 14.159,5.215 14.524,5.03 14.524,5.463 14.196,5.523 "
   transform="translate(-1.95002e-2,-1.729408e-2)"
   style="fill:#ffd200;fill-rule:evenodd"
   id="polygon99" />
<polygon
   points="14.196,5.523 14.159,5.215 14.524,5.03 14.524,5.463 14.196,5.523 "
   transform="translate(-1.95002e-2,-1.729408e-2)"
   style="fill:none;stroke:#793f11;stroke-width:0.064;stroke-miterlimit:3.86400008"
   id="polygon101" />
<polygon
   points="11.871,7.216 11.706,7.556 11.276,7.457 11.554,7.118 11.871,7.216 "
   transform="translate(-1.95002e-2,-1.729408e-2)"
   style="fill:#ffd200"
   id="polygon103" />
<polygon
   points="11.871,7.216 11.706,7.556 11.276,7.457 11.554,7.118 11.871,7.216 "
   transform="translate(-1.95002e-2,-1.729408e-2)"
   style="fill:none;stroke:#793f11;stroke-width:0.064;stroke-miterlimit:3.86400008"
   id="polygon105" />
<polygon
   points="14.782,7.269 15.077,7.152 15.315,7.472 14.932,7.533 14.782,7.269 "
   transform="translate(-1.95002e-2,-1.729408e-2)"
   style="fill:#ffd200"
   id="polygon107" />
<polygon
   points="14.782,7.269 15.077,7.152 15.315,7.472 14.932,7.533 14.782,7.269 "
   transform="translate(-1.95002e-2,-1.729408e-2)"
   style="fill:none;stroke:#793f11;stroke-width:0.064;stroke-miterlimit:3.86400008"
   id="polygon109" />
<polygon
   points="13.37,8.292 13.566,8.525 13.373,8.933 13.146,8.503 13.37,8.292 "
   transform="translate(-1.95002e-2,-1.729408e-2)"
   style="fill:#ffd200"
   id="polygon111" />
<polygon
   points="13.37,8.292 13.566,8.525 13.373,8.933 13.146,8.503 13.37,8.292 "
   transform="translate(-1.95002e-2,-1.729408e-2)"
   style="fill:none;stroke:#793f11;stroke-width:0.064;stroke-miterlimit:3.86400008"
   id="polygon113" />
<path
   d="M 12.3845,5.5967059 C 12.3835,5.5807059 12.3795,5.5957059 12.3775,5.5817059"
   style="fill:none;stroke:#793f11;stroke-width:0.064;stroke-miterlimit:3.86400008"
   id="path115" />
<polygon
   points="13.319,6.016 13.179,6.276 12.849,6.562 12.611,6.576 12.799,6.737 12.935,7.171 12.901,7.341 13.115,7.257 13.544,7.25 13.781,7.353 13.714,7.111 13.834,6.763 14.014,6.569 13.79,6.532 13.439,6.238 13.319,6.016 "
   transform="translate(-1.95002e-2,-1.729408e-2)"
   style="fill:#ffd200;fill-rule:evenodd"
   id="polygon117" />
<polygon
   points="13.319,6.016 13.179,6.276 12.849,6.562 12.611,6.576 12.799,6.737 12.935,7.171 12.901,7.341 13.115,7.257 13.544,7.25 13.781,7.353 13.714,7.111 13.834,6.763 14.014,6.569 13.79,6.532 13.439,6.238 13.319,6.016 "
   transform="translate(-1.95002e-2,-1.729408e-2)"
   style="fill:none;stroke:#793f11;stroke-width:0.064;stroke-miterlimit:3.86400008"
   id="polygon119" />
<circle
   cx="13.313"
   cy="6.777"
   r="0.56599998"
   transform="translate(-1.95002e-2,-1.729408e-2)"
   style="fill:#ffd200"
   id="circle121" />
<circle
   cx="13.313"
   cy="6.777"
   r="0.56599998"
   transform="translate(-1.95002e-2,-1.729408e-2)"
   style="fill:none;stroke:#793f11;stroke-width:0.064;stroke-miterlimit:3.86400008"
   id="circle123" />
<circle
   cx="13.317"
   cy="6.7800002"
   r="0.338"
   transform="translate(-1.95002e-2,-1.729408e-2)"
   style="fill:#ffd200"
   id="circle125" />
<circle
   cx="13.317"
   cy="6.7800002"
   r="0.338"
   transform="translate(-1.95002e-2,-1.729408e-2)"
   style="fill:none;stroke:#793f11;stroke-width:0.064;stroke-miterlimit:3.86400008"
   id="circle127" />
<rect
   width="3.1480784"
   height="1.0620264"
   x="-18.073648"
   y="-8.588192"
   transform="matrix(-0.997575,6.959827e-2,-6.959827e-2,-0.997575,0,0)"
   style="fill:#ffd200"
   id="rect129" />
<rect
   width="3.1480784"
   height="1.0620264"
   x="-18.073648"
   y="-8.588192"
   transform="matrix(-0.997575,6.959827e-2,-6.959827e-2,-0.997575,0,0)"
   style="fill:none;stroke:#ffd200;stroke-width:0.07000174;stroke-miterlimit:3.86400008"
   id="rect131" />
<polyline
   clip-rule="evenodd"
   points="9.284,2.985 7.761,3.155 3.803,11.753 9.284,11.298   7.875,10.572 8.445,9.888 6.793,10.116 7.989,9.205 10.083,9.147 9.569,8.636 10.196,8.308 8.958,8.308 10.253,7.625 9.512,7.511   9.797,6.886 8.502,7.683 8.559,7.056 8.217,7.511 7.875,6.886 7.477,8.479 6.353,9.319 6.851,8.138 6.182,8.365 7.419,4.963   8.161,4.735 8.332,5.077 8.615,4.166 9.512,5.248 9.569,4.735 10.196,4.735 9.512,3.995 10.424,3.995 9.284,2.985 "
   id="polyline133"
   style="fill:white;fill-rule:evenodd"
   transform="translate(-1.95002e-2,-1.729408e-2)" />
</svg>