<?xml version="1.0" encoding="UTF-8" standalone="no"?>
<!-- Created with Inkscape (http://www.inkscape.org/) -->
<svg
   xmlns:svg="http://www.w3.org/2000/svg"
   xmlns="http://www.w3.org/2000/svg"
   version="1.0"
   width="290.3313"
   height="256.54501"
   viewBox="0 0 29.428 25.999"
   id="Layer_1"
   xml:space="preserve"><defs
   id="defs32" />
<polygon
   points="4.438,0.552 0.661,13.653 3.798,25.938 25.674,25.826 29.363,13.764 25.895,0.485 4.438,0.552 "
   transform="translate(-1.499998e-3,-2.708637e-3)"
   style="fill:#a09da2"
   id="polygon3" />
<polygon
   points="4.438,0.552 0.661,13.653 3.798,25.938 25.674,25.826 29.363,13.764 25.895,0.485 4.438,0.552 "
   transform="translate(-1.499998e-3,-2.708637e-3)"
   style="fill:none;stroke:#a7a3a8;stroke-width:0.123;stroke-miterlimit:3.86400008"
   id="polygon5" />
<polygon
   points="3.843,0.127 0.063,13.229 2.974,25.402 24.996,25.402 28.767,13.339 25.299,0.062 3.843,0.127 "
   transform="translate(-1.499998e-3,-2.708637e-3)"
   style="fill:#bdc5c1"
   id="polygon7" />
<polygon
   points="3.843,0.127 0.063,13.229 2.974,25.402 24.996,25.402 28.767,13.339 25.299,0.062 3.843,0.127 "
   transform="translate(-1.499998e-3,-2.708637e-3)"
   style="fill:none;stroke:#686469;stroke-width:0.123;stroke-miterlimit:3.86400008"
   id="polygon9" />
<circle
   cx="2.6489999"
   cy="13.229"
   r="1.679"
   transform="translate(-1.499998e-3,-2.708637e-3)"
   style="fill:#95979a"
   id="circle11" />
<circle
   cx="2.6489999"
   cy="13.229"
   r="1.679"
   transform="translate(-1.499998e-3,-2.708637e-3)"
   style="fill:none;stroke:#686469;stroke-width:0.123;stroke-miterlimit:3.86400008"
   id="circle13" />
<circle
   cx="26.233"
   cy="13.098"
   r="1.679"
   transform="translate(-1.499998e-3,-2.708637e-3)"
   style="fill:#95979a"
   id="circle15" />
<circle
   cx="26.233"
   cy="13.098"
   r="1.679"
   transform="translate(-1.499998e-3,-2.708637e-3)"
   style="fill:none;stroke:#686469;stroke-width:0.123;stroke-miterlimit:3.86400008"
   id="circle17" />
<polygon
   points="5.25,7.451 14.715,1.699 23.605,7.703 23.605,13.791 14.715,7.703 5.25,13.791 5.25,7.451 "
   transform="translate(-1.499998e-3,-2.708637e-3)"
   style="fill:#ffd200"
   id="polygon19" />
<polygon
   points="5.25,7.451 14.715,1.699 23.605,7.703 23.605,13.791 14.715,7.703 5.25,13.791 5.25,7.451 "
   transform="translate(-1.499998e-3,-2.708637e-3)"
   style="fill:none;stroke:#fdb714;stroke-width:0.156;stroke-miterlimit:3.86400008"
   id="polygon21" />
<polygon
   points="5.064,15.167 14.658,8.903 23.822,15.25 23.822,17.786 14.674,10.842 5.064,17.371 5.064,15.167 "
   transform="translate(-1.499998e-3,-2.708637e-3)"
   style="fill:#ffd200"
   id="polygon23" />
<polygon
   points="5.064,15.167 14.658,8.903 23.822,15.25 23.822,17.786 14.674,10.842 5.064,17.371 5.064,15.167 "
   transform="translate(-1.499998e-3,-2.708637e-3)"
   style="fill:none;stroke:#fdb714;stroke-width:0.17;stroke-miterlimit:3.86400008"
   id="polygon25" />


</svg>